<svg xmlns="http://www.w3.org/2000/svg" width="6.218" height="11.31" viewBox="0 0 6.218 11.31">
  <g id="Page-1" transform="translate(6.218) rotate(90)">
    <g id="Dribbble-Light-Preview" transform="translate(0 0)">
      <g id="icons" transform="translate(0)">
        <path id="arrow_up-_337_" data-name="arrow_up-[#337]" d="M11.145,6.01h0a.6.6,0,0,0,0-.826L6.471.344a1.1,1.1,0,0,0-1.6,0L.165,5.218a.606.606,0,0,0-.006.825.558.558,0,0,0,.806.006L5.273,1.582a.556.556,0,0,1,.8,0L10.346,6.01a.547.547,0,0,0,.8,0" fill="#fff" fill-rule="evenodd"/>
      </g>
    </g>
  </g>
</svg>
