<svg xmlns="http://www.w3.org/2000/svg" width="25" height="25" viewBox="0 0 25 25">
  <g id="Group_172" data-name="Group 172" transform="translate(0.234 25) rotate(-90)">
    <circle id="Ellipse_48" data-name="Ellipse 48" cx="12.5" cy="12.5" r="12.5" transform="translate(0 -0.234)" fill="#92d050"/>
    <g id="Page-1" transform="translate(16.219 6.456) rotate(90)">
      <g id="Dribbble-Light-Preview" transform="translate(0 0)">
        <g id="icons" transform="translate(0)">
          <path id="arrow_up-_337_" data-name="arrow_up-[#337]" d="M11.145,6.01h0a.6.6,0,0,0,0-.826L6.471.344a1.1,1.1,0,0,0-1.6,0L.165,5.218a.606.606,0,0,0-.006.825.558.558,0,0,0,.806.006L5.273,1.582a.556.556,0,0,1,.8,0L10.346,6.01a.547.547,0,0,0,.8,0" fill="#fff" fill-rule="evenodd"/>
        </g>
      </g>
    </g>
  </g>
</svg>
