<svg xmlns="http://www.w3.org/2000/svg" xmlns:xlink="http://www.w3.org/1999/xlink" width="63.556" height="63.704" viewBox="0 0 63.556 63.704">
  <defs>
    <clipPath id="clip-path">
      <rect id="Rectangle_264" data-name="Rectangle 264" width="42" height="48" fill="none" stroke="#fff" stroke-width="1.5"/>
    </clipPath>
  </defs>
  <g id="Group_311" data-name="Group 311" transform="matrix(0.719, -0.695, 0.695, 0.719, 0, 29.176)">
    <g id="Group_310" data-name="Group 310" clip-path="url(#clip-path)">
      <path id="Path_245" data-name="Path 245" d="M22,47h0a2.006,2.006,0,0,1-2-2V35a2,2,0,0,1,4,0V45A2.006,2.006,0,0,1,22,47Z" fill="none" stroke="#fff" stroke-linejoin="round" stroke-width="1.5"/>
      <line id="Line_79" data-name="Line 79" y1="6" transform="translate(22 27)" fill="none" stroke="#fff" stroke-linejoin="round" stroke-width="1.5"/>
      <path id="Path_246" data-name="Path 246" d="M4,14H9a13,13,0,0,1,26,0" fill="none" stroke="#fff" stroke-linejoin="round" stroke-width="1.5"/>
      <path id="Path_247" data-name="Path 247" d="M38,19H34.047a13,13,0,0,1-24.025.166" fill="none" stroke="#fff" stroke-linejoin="round" stroke-width="1.5"/>
      <line id="Line_82" data-name="Line 82" x2="2" transform="translate(0 14)" fill="none" stroke="#fff" stroke-linejoin="round" stroke-width="1.5"/>
      <line id="Line_83" data-name="Line 83" x2="2" transform="translate(40 19)" fill="none" stroke="#fff" stroke-linejoin="round" stroke-width="1.5"/>
      <line id="Line_84" data-name="Line 84" x2="4" transform="translate(20 37)" fill="none" stroke="#fff" stroke-linejoin="round" stroke-width="1.5"/>
      <circle id="Ellipse_118" data-name="Ellipse 118" cx="9" cy="9" r="9" transform="translate(13 5)" fill="none" stroke="#fff" stroke-linejoin="round" stroke-width="1.5"/>
    </g>
  </g>
</svg>
