<?xml version="1.0" encoding="utf-8"?>
<!-- Generator: Adobe Illustrator 27.5.0, SVG Export Plug-In . SVG Version: 6.00 Build 0)  -->
<svg version="1.1" id="Layer_1" xmlns="http://www.w3.org/2000/svg" xmlns:xlink="http://www.w3.org/1999/xlink" x="0px" y="0px"
	 viewBox="0 0 567 585" style="enable-background:new 0 0 567 585;" xml:space="preserve">
<style type="text/css">
	.st0{fill:#005494;}
	.st1{fill:#FFFFFF;}
	.st2{fill:none;stroke:#11B3E8;stroke-width:10;}
	.st3{enable-background:new    ;}
	.st4{fill:#11B3E8;}
	.st5{fill:#92D050;}
	.st6{fill-rule:evenodd;clip-rule:evenodd;fill:#FFFFFF;}
	.st7{fill:none;stroke:#FFFFFF;stroke-width:2;}
	.st8{clip-path:url(#SVGID_00000095332860045161226440000015247921619421109911_);}
	.st9{clip-path:url(#SVGID_00000008119772742621465950000000131786442229798016_);}
</style>
<path class="st0" d="M252.4,209c0,0-1-0.2-2.9-0.4l0,0c-10.2-1.1-44.4-2.1-58.6,29.2c-0.2,0.5-0.5,1-0.7,1.5l0,0l0,0c0,0,0,0,0,0.1
	c-0.9,2.2-1.8,3.9-2.9,5.3c-9.8,13.4-24.2-10.6-34.5-33c-5.3-11.6-9.6-22.8-11.5-28c-0.7-2-1.1-3.1-1.1-3.1s2.5,0.3,6.4,0.2
	c12-0.2,37.7-4,48.2-31.1c0.2-0.5,0.4-1.1,0.6-1.6c0.8-2.2,1.7-4,2.7-5.3c5.9-7.9,15-0.5,24.2,11.9c11.3,15.3,22.5,38.2,27.4,48.7
	C251.5,206.9,252.4,209,252.4,209z"/>
<path class="st0" d="M186.4,394c-0.1,10-24.3,16.1-45.5,19.5c-4.2,0.7-8.3,1.2-12,1.7c-6.8,0.9-12.5,1.4-15.8,1.7
	c-2,0.2-3.2,0.3-3.2,0.3s0.9-2.2,1.8-5.8c3-11.7,6.3-38.6-18.9-55.9c-1.1-0.7-2-1.5-2.8-2.2c-2.1-1.9-3.2-3.8-3.5-5.6
	c-1.2-7.7,12.2-14.4,28.5-19.6c22.9-7.4,51.4-11.8,51.4-11.8s-1.1,2.4-2.4,6.3c-0.8,2.5-1.7,5.5-2.3,9c-1.5,7.8-2.1,17.8,0.8,27.8
	c2.5,8.7,7.7,17.4,17.2,24.8c2,1.5,3.5,3,4.6,4.4C185.8,390.6,186.5,392.4,186.4,394z"/>
<path class="st0" d="M317.7,520.5c-0.1,0.5-0.2,0.9-0.3,1.3c-0.3,1.2-0.5,1.9-0.5,1.9s-0.9-0.8-2.5-2c-1-0.8-2.4-1.7-4-2.8
	c-10-6.4-30.4-15.6-52-3.6c-1.8,1-3.6,2.1-5.3,3.4c-0.8,0.6-1.6,1.1-2.4,1.5c-17.6,9.9-17.3-22.8-14.3-50.2c0.3-2.5,0.6-4.9,0.9-7.3
	c1.9-14.8,4.2-26.6,4.2-26.6s4.1,4.2,11,8.6c2.1,1.3,4.4,2.7,7,3.9c12.4,6.1,30,10.1,48.5-0.6c0.6-0.3,1.2-0.7,1.8-1.1
	c0,0,0,0,0.1,0c1.9-1.2,3.6-2.1,5.1-2.6C339.2,435.5,321.9,504.7,317.7,520.5z"/>
<path class="st0" d="M480.1,347.8c-0.3,1.8-1.5,3.6-3.6,5.5c-0.8,0.7-1.7,1.4-2.7,2.1c-24.4,16.8-22.1,42.5-19.2,54.8l0,0
	c1,4.3,2.1,7,2.1,7s-0.7-0.1-2-0.2c-4.5-0.4-16-1.5-28.7-3.5c-2.4-0.4-4.8-0.8-7.2-1.2c-19-3.5-38.2-9.3-38.5-18.2
	c-0.1-1.7,0.5-3.5,2-5.4c1.1-1.4,2.6-3,4.7-4.5l0,0l0,0c9.5-7.4,14.7-16.1,17.2-24.8c2.9-10.2,2.2-20.4,0.6-28.2
	c-0.7-3.6-1.6-6.8-2.4-9.3l0,0c-1.2-3.5-2.2-5.6-2.2-5.6s14.5,2.2,31.1,6.2C454.6,328,482.1,336.9,480.1,347.8z"/>
<path class="st0" d="M429.2,180.6c0,0-0.2,0.6-0.6,1.7c-2.4,6.7-11.9,32.2-22.5,49.6c-9,14.8-18.8,23.6-25.8,10
	c-0.4-0.7-0.7-1.5-1.1-2.4c0,0,0,0,0-0.1c-0.7-1.6-1.4-3.2-2.2-4.6c-17.8-33.5-60-25.8-60-25.8s0.1-0.1,0.2-0.3
	c0.4-0.9,1.5-3.3,3.1-6.8c4.3-9.1,12.3-25.2,21-38.8c9.8-15.4,20.5-27.5,27.8-22.5c1.5,1,2.8,2.7,3.9,5.2c0.3,0.7,0.6,1.4,0.9,2.2
	c9.6,27,33.6,32,46.6,32.7C425.8,181,429.2,180.6,429.2,180.6z"/>
<g class="circle">
	<g transform="matrix(1, 0, 0, 1, -191, -31)">
		<g id="Ellipse_73-2" transform="translate(191 31)">
			<path class="st1" d="M377,123c0,7.9-1,15.5-2.9,22.8c-2.8,10.7-7.4,20.7-13.6,29.5c-10.4,14.9-25,26.6-42.2,33.3
				c-10.5,4.1-21.9,6.3-33.8,6.3c-12,0-23.4-2.3-33.9-6.4l0,0c-20.8-8.2-37.9-23.6-48.2-43.2c-2.6-5-4.8-10.2-6.4-15.7
				c-2.6-8.4-4-17.4-4-26.7c0-50.8,41.4-92,92.5-92S377,72.2,377,123z"/>
			<ellipse class="st2" cx="284.5" cy="123" rx="87.5" ry="87"/>
		</g>
	</g>
	<g class="st3">
		<path class="st0" d="M231.4,114c0,0.7-0.2,1.3-0.5,1.8s-0.8,0.9-1.4,1.1s-1.4,0.4-2.2,0.4c-0.4,0-0.8,0-1.2-0.1
			c-0.4,0-0.7-0.1-1.1-0.2s-0.6-0.2-0.9-0.3v-1.8c0.5,0.2,1,0.4,1.6,0.6s1.2,0.2,1.8,0.2c0.5,0,0.9-0.1,1.2-0.2s0.6-0.3,0.7-0.5
			s0.2-0.5,0.2-0.8s-0.1-0.6-0.3-0.9c-0.2-0.2-0.5-0.4-0.8-0.6s-0.8-0.4-1.4-0.6c-0.4-0.2-0.7-0.3-1.1-0.5c-0.3-0.2-0.6-0.4-0.9-0.7
			s-0.5-0.6-0.6-0.9c-0.2-0.4-0.2-0.8-0.2-1.3c0-0.6,0.2-1.2,0.5-1.7s0.7-0.8,1.3-1.1c0.6-0.2,1.2-0.4,2-0.4c0.6,0,1.2,0.1,1.7,0.2
			s1,0.3,1.6,0.5l-0.6,1.5c-0.5-0.2-0.9-0.3-1.4-0.5c-0.4-0.1-0.9-0.2-1.3-0.2c-0.4,0-0.7,0.1-1,0.2s-0.5,0.3-0.6,0.5
			s-0.2,0.5-0.2,0.8s0.1,0.6,0.2,0.8s0.4,0.4,0.8,0.6c0.3,0.2,0.8,0.4,1.3,0.6c0.6,0.3,1.2,0.5,1.6,0.8c0.4,0.3,0.8,0.6,1,1
			S231.4,113.4,231.4,114z"/>
		<path class="st0" d="M236.6,115.8c0.2,0,0.5,0,0.7-0.1s0.4-0.1,0.6-0.2v1.4c-0.2,0.1-0.5,0.2-0.8,0.2c-0.3,0.1-0.7,0.1-1,0.1
			c-0.5,0-0.9-0.1-1.3-0.2s-0.7-0.4-0.9-0.8s-0.3-1-0.3-1.7v-4.6h-1.2v-0.8l1.3-0.6l0.6-1.9h1.2v1.9h2.5v1.4h-2.5v4.6
			c0,0.4,0.1,0.8,0.3,1S236.3,115.8,236.6,115.8z"/>
		<path class="st0" d="M243.1,108.3c1.1,0,1.9,0.2,2.5,0.7s0.8,1.2,0.8,2.3v5.8h-1.3l-0.4-1.2h-0.1c-0.2,0.3-0.5,0.6-0.8,0.8
			c-0.3,0.2-0.6,0.4-0.9,0.5c-0.3,0.1-0.8,0.2-1.2,0.2c-0.5,0-1-0.1-1.4-0.3s-0.7-0.5-1-0.9s-0.4-0.9-0.4-1.5c0-0.9,0.3-1.6,1-2
			s1.7-0.7,3-0.7l1.5-0.1v-0.5c0-0.6-0.1-1-0.4-1.3c-0.3-0.3-0.7-0.4-1.2-0.4c-0.4,0-0.9,0.1-1.3,0.2s-0.8,0.3-1.2,0.5l-0.6-1.3
			c0.4-0.2,0.9-0.4,1.4-0.5S242.6,108.3,243.1,108.3z M244.6,113h-1.1c-0.9,0-1.6,0.2-1.9,0.5c-0.4,0.3-0.6,0.7-0.6,1.2
			c0,0.4,0.1,0.7,0.4,0.9c0.3,0.2,0.6,0.3,1,0.3c0.6,0,1.2-0.2,1.6-0.5c0.4-0.4,0.6-0.9,0.6-1.6V113z"/>
		<path class="st0" d="M253.5,108.3c1,0,1.7,0.3,2.3,0.8c0.5,0.5,0.8,1.3,0.8,2.4v5.6h-1.8v-5.3c0-0.7-0.1-1.2-0.4-1.5
			c-0.3-0.3-0.7-0.5-1.3-0.5c-0.8,0-1.4,0.3-1.7,0.8s-0.5,1.3-0.5,2.2v4.3H249v-8.6h1.4l0.3,1.2h0.1c0.2-0.3,0.4-0.6,0.7-0.7
			c0.3-0.2,0.6-0.3,0.9-0.4C252.8,108.4,253.2,108.3,253.5,108.3z"/>
		<path class="st0" d="M262.1,117.3c-1,0-1.9-0.4-2.5-1.1c-0.6-0.8-0.9-1.9-0.9-3.3c0-1.5,0.3-2.6,0.9-3.4s1.5-1.1,2.5-1.1
			c0.4,0,0.8,0.1,1.1,0.2s0.6,0.3,0.8,0.5c0.2,0.2,0.4,0.4,0.6,0.7h0.1c0-0.2-0.1-0.4-0.1-0.7c0-0.3-0.1-0.6-0.1-0.8V105h1.8v12.2
			h-1.4l-0.3-1.2h-0.1c-0.2,0.2-0.4,0.5-0.6,0.7s-0.5,0.4-0.8,0.5C262.9,117.2,262.5,117.3,262.1,117.3z M262.6,115.8
			c0.8,0,1.3-0.2,1.7-0.7c0.3-0.5,0.5-1.1,0.5-2v-0.2c0-1-0.2-1.7-0.5-2.2s-0.9-0.8-1.7-0.8c-0.7,0-1.2,0.3-1.5,0.8
			s-0.5,1.3-0.5,2.2s0.2,1.7,0.5,2.2C261.4,115.6,261.9,115.8,262.6,115.8z"/>
		<path class="st0" d="M272.5,108.3c1.1,0,1.9,0.2,2.5,0.7s0.8,1.2,0.8,2.3v5.8h-1.3l-0.4-1.2H274c-0.2,0.3-0.5,0.6-0.8,0.8
			s-0.6,0.4-0.9,0.5s-0.8,0.2-1.2,0.2c-0.5,0-1-0.1-1.4-0.3s-0.7-0.5-1-0.9s-0.4-0.9-0.4-1.5c0-0.9,0.3-1.6,1-2s1.7-0.7,3-0.7
			l1.5-0.1v-0.5c0-0.6-0.1-1-0.4-1.3s-0.7-0.4-1.2-0.4c-0.4,0-0.9,0.1-1.3,0.2s-0.8,0.3-1.2,0.5l-0.6-1.3c0.4-0.2,0.9-0.4,1.4-0.5
			S272,108.3,272.5,108.3z M274,113h-1.1c-0.9,0-1.6,0.2-1.9,0.5s-0.6,0.7-0.6,1.2c0,0.4,0.1,0.7,0.4,0.9s0.6,0.3,1,0.3
			c0.6,0,1.2-0.2,1.6-0.5s0.6-0.9,0.6-1.6V113z"/>
		<path class="st0" d="M282.8,108.3c0.1,0,0.3,0,0.5,0s0.3,0,0.4,0.1l-0.2,1.7c-0.1,0-0.2-0.1-0.4-0.1s-0.3,0-0.4,0
			c-0.3,0-0.6,0.1-0.9,0.2s-0.6,0.3-0.8,0.5s-0.4,0.5-0.5,0.8s-0.2,0.7-0.2,1.1v4.5h-1.8v-8.6h1.4l0.2,1.5h0.1
			c0.2-0.3,0.4-0.6,0.6-0.8s0.5-0.5,0.9-0.6S282.4,108.3,282.8,108.3z"/>
		<path class="st0" d="M288.2,117.3c-1,0-1.9-0.4-2.5-1.1s-0.9-1.9-0.9-3.3c0-1.5,0.3-2.6,0.9-3.4s1.5-1.1,2.5-1.1
			c0.4,0,0.8,0.1,1.1,0.2s0.6,0.3,0.8,0.5s0.4,0.4,0.6,0.7h0.1c0-0.2-0.1-0.4-0.1-0.7s-0.1-0.6-0.1-0.8V105h1.8v12.2H291l-0.3-1.2
			h-0.1c-0.2,0.2-0.4,0.5-0.6,0.7s-0.5,0.4-0.8,0.5S288.7,117.3,288.2,117.3z M288.8,115.8c0.8,0,1.3-0.2,1.7-0.7s0.5-1.1,0.5-2
			v-0.2c0-1-0.2-1.7-0.5-2.2s-0.9-0.8-1.7-0.8c-0.7,0-1.2,0.3-1.5,0.8s-0.5,1.3-0.5,2.2s0.2,1.7,0.5,2.2S288.1,115.8,288.8,115.8z"
			/>
		<path class="st0" d="M296.2,105.2c0.3,0,0.5,0.1,0.7,0.2s0.3,0.4,0.3,0.8s-0.1,0.6-0.3,0.8s-0.4,0.2-0.7,0.2
			c-0.3,0-0.5-0.1-0.7-0.2s-0.3-0.4-0.3-0.8s0.1-0.6,0.3-0.8S295.9,105.2,296.2,105.2z M297.1,108.5v8.6h-1.8v-8.6H297.1z"/>
		<path class="st0" d="M305.6,114.7c0,0.6-0.1,1-0.4,1.4s-0.7,0.7-1.2,0.9s-1.2,0.3-1.9,0.3c-0.6,0-1.1,0-1.6-0.1s-0.8-0.2-1.2-0.4
			v-1.6c0.4,0.2,0.9,0.4,1.4,0.5s1,0.2,1.5,0.2c0.6,0,1-0.1,1.3-0.3s0.4-0.4,0.4-0.8c0-0.2-0.1-0.4-0.2-0.5s-0.3-0.3-0.6-0.5
			s-0.7-0.4-1.3-0.6c-0.5-0.2-1-0.4-1.4-0.7s-0.7-0.5-0.9-0.8s-0.3-0.7-0.3-1.2c0-0.8,0.3-1.3,0.9-1.7s1.4-0.6,2.4-0.6
			c0.5,0,1,0.1,1.5,0.2s0.9,0.3,1.4,0.5l-0.6,1.4c-0.4-0.2-0.8-0.3-1.2-0.4s-0.8-0.2-1.2-0.2c-0.5,0-0.8,0.1-1.1,0.2
			s-0.4,0.4-0.4,0.6s0.1,0.4,0.2,0.5s0.3,0.3,0.6,0.4s0.7,0.3,1.2,0.5s1,0.4,1.3,0.6s0.7,0.5,0.9,0.8S305.6,114.2,305.6,114.7z"/>
		<path class="st0" d="M310.9,108.3c1.1,0,1.9,0.2,2.5,0.7s0.8,1.2,0.8,2.3v5.8H313l-0.4-1.2h-0.1c-0.2,0.3-0.5,0.6-0.8,0.8
			s-0.6,0.4-0.9,0.5s-0.8,0.2-1.2,0.2c-0.5,0-1-0.1-1.4-0.3s-0.7-0.5-1-0.9s-0.4-0.9-0.4-1.5c0-0.9,0.3-1.6,1-2s1.7-0.7,3-0.7
			l1.5-0.1v-0.5c0-0.6-0.1-1-0.4-1.3s-0.7-0.4-1.2-0.4c-0.4,0-0.9,0.1-1.3,0.2s-0.8,0.3-1.2,0.5l-0.6-1.3c0.4-0.2,0.9-0.4,1.4-0.5
			S310.4,108.3,310.9,108.3z M312.4,113h-1.1c-0.9,0-1.6,0.2-1.9,0.5s-0.6,0.7-0.6,1.2c0,0.4,0.1,0.7,0.4,0.9s0.6,0.3,1,0.3
			c0.6,0,1.2-0.2,1.6-0.5s0.6-0.9,0.6-1.6V113z"/>
		<path class="st0" d="M320.1,115.8c0.2,0,0.5,0,0.7-0.1s0.4-0.1,0.6-0.2v1.4c-0.2,0.1-0.5,0.2-0.8,0.2s-0.7,0.1-1,0.1
			c-0.5,0-0.9-0.1-1.3-0.2s-0.7-0.4-0.9-0.8s-0.3-1-0.3-1.7v-4.6h-1.2v-0.8l1.3-0.6l0.6-1.9h1.2v1.9h2.5v1.4H319v4.6
			c0,0.4,0.1,0.8,0.3,1S319.7,115.8,320.1,115.8z"/>
		<path class="st0" d="M324.1,105.2c0.3,0,0.5,0.1,0.7,0.2s0.3,0.4,0.3,0.8s-0.1,0.6-0.3,0.8s-0.4,0.2-0.7,0.2
			c-0.3,0-0.5-0.1-0.7-0.2s-0.3-0.4-0.3-0.8s0.1-0.6,0.3-0.8S323.8,105.2,324.1,105.2z M325,108.5v8.6h-1.8v-8.6H325z"/>
		<path class="st0" d="M335.3,112.8c0,0.7-0.1,1.4-0.3,1.9s-0.5,1-0.8,1.4s-0.8,0.7-1.3,0.9s-1.1,0.3-1.7,0.3s-1.1-0.1-1.6-0.3
			s-0.9-0.5-1.3-0.9s-0.6-0.9-0.8-1.4s-0.3-1.2-0.3-1.9c0-1,0.2-1.8,0.5-2.4s0.8-1.2,1.4-1.5s1.3-0.5,2.2-0.5c0.8,0,1.5,0.2,2.1,0.5
			s1.1,0.9,1.4,1.5S335.3,111.9,335.3,112.8z M329,112.8c0,0.6,0.1,1.2,0.2,1.6s0.4,0.8,0.7,1s0.7,0.4,1.2,0.4s0.9-0.1,1.2-0.4
			s0.6-0.6,0.7-1s0.2-1,0.2-1.6s-0.1-1.2-0.2-1.6s-0.4-0.8-0.7-1s-0.7-0.3-1.3-0.3c-0.8,0-1.3,0.3-1.7,0.8S329,111.8,329,112.8z"/>
		<path class="st0" d="M341.9,108.3c1,0,1.7,0.3,2.3,0.8s0.8,1.3,0.8,2.4v5.6h-1.8v-5.3c0-0.7-0.1-1.2-0.4-1.5s-0.7-0.5-1.3-0.5
			c-0.8,0-1.4,0.3-1.7,0.8s-0.5,1.3-0.5,2.2v4.3h-1.8v-8.6h1.4l0.3,1.2h0.1c0.2-0.3,0.4-0.6,0.7-0.7s0.6-0.3,0.9-0.4
			S341.5,108.3,341.9,108.3z"/>
	</g>
	<g class="st3">
		<path class="st0" d="M259.8,127.7h3.4c1.5,0,2.6,0.2,3.3,0.6s1.1,1.2,1.1,2.2c0,0.4-0.1,0.8-0.2,1.2c-0.2,0.4-0.4,0.6-0.7,0.9
			c-0.3,0.2-0.7,0.4-1.1,0.5v0.1c0.4,0.1,0.8,0.2,1.2,0.4c0.3,0.2,0.6,0.5,0.8,0.9c0.2,0.4,0.3,0.8,0.3,1.4c0,0.7-0.2,1.3-0.5,1.8
			s-0.8,0.9-1.4,1.1c-0.6,0.3-1.3,0.4-2.2,0.4h-4.1v-11.5H259.8z M261.6,132.4h1.8c0.8,0,1.4-0.1,1.8-0.4s0.5-0.7,0.5-1.2
			s-0.2-0.9-0.6-1.2c-0.4-0.2-1-0.4-1.8-0.4h-1.6L261.6,132.4L261.6,132.4z M261.6,134v3.6h2c0.9,0,1.5-0.2,1.8-0.5
			c0.4-0.3,0.5-0.8,0.5-1.4c0-0.4-0.1-0.7-0.2-0.9c-0.2-0.3-0.4-0.5-0.8-0.6s-0.8-0.2-1.5-0.2L261.6,134L261.6,134z"/>
		<path class="st0" d="M277.8,134.8c0,0.7-0.1,1.4-0.3,1.9s-0.5,1-0.8,1.4s-0.8,0.7-1.3,0.9s-1.1,0.3-1.7,0.3s-1.1-0.1-1.6-0.3
			s-0.9-0.5-1.3-0.9s-0.6-0.9-0.8-1.4c-0.2-0.6-0.3-1.2-0.3-1.9c0-1,0.2-1.8,0.5-2.4c0.3-0.7,0.8-1.2,1.4-1.5s1.3-0.5,2.2-0.5
			c0.8,0,1.5,0.2,2.1,0.5s1.1,0.9,1.4,1.5S277.8,133.9,277.8,134.8z M271.5,134.8c0,0.6,0.1,1.2,0.2,1.6c0.2,0.4,0.4,0.8,0.7,1
			c0.3,0.2,0.7,0.4,1.2,0.4s0.9-0.1,1.2-0.4c0.3-0.2,0.6-0.6,0.7-1c0.2-0.4,0.2-1,0.2-1.6s-0.1-1.2-0.2-1.6c-0.2-0.4-0.4-0.8-0.7-1
			c-0.3-0.2-0.7-0.3-1.3-0.3c-0.8,0-1.3,0.3-1.7,0.8C271.7,133.1,271.5,133.8,271.5,134.8z"/>
		<path class="st0" d="M282.8,139.3c-1,0-1.9-0.4-2.5-1.1c-0.6-0.8-0.9-1.9-0.9-3.3c0-1.5,0.3-2.6,0.9-3.4s1.5-1.1,2.5-1.1
			c0.4,0,0.8,0.1,1.1,0.2s0.6,0.3,0.8,0.5s0.4,0.4,0.6,0.7h0.1c0-0.2-0.1-0.4-0.1-0.7s-0.1-0.6-0.1-0.8V127h1.8v12.2h-1.4l-0.3-1.2
			h-0.1c-0.2,0.2-0.4,0.5-0.6,0.7s-0.5,0.4-0.8,0.5C283.6,139.2,283.2,139.3,282.8,139.3z M283.3,137.8c0.8,0,1.3-0.2,1.7-0.7
			s0.5-1.1,0.5-2v-0.2c0-1-0.2-1.7-0.5-2.2s-0.9-0.8-1.7-0.8c-0.7,0-1.2,0.3-1.5,0.8s-0.5,1.3-0.5,2.2s0.2,1.7,0.5,2.2
			C282.1,137.6,282.6,137.8,283.3,137.8z"/>
		<path class="st0" d="M290.8,127.2c0.3,0,0.5,0.1,0.7,0.2s0.3,0.4,0.3,0.8c0,0.4-0.1,0.6-0.3,0.8s-0.4,0.2-0.7,0.2
			c-0.3,0-0.5-0.1-0.7-0.2s-0.3-0.4-0.3-0.8c0-0.4,0.1-0.6,0.3-0.8S290.5,127.2,290.8,127.2z M291.7,130.5v8.6h-1.8v-8.6H291.7z"/>
		<path class="st0" d="M297.7,130.3c0.8,0,1.4,0.2,2,0.5s1,0.8,1.3,1.4s0.4,1.3,0.4,2.1v1h-5.8c0,0.8,0.2,1.5,0.7,1.9s1,0.7,1.8,0.7
			c0.6,0,1-0.1,1.5-0.2s0.9-0.3,1.4-0.5v1.5c-0.4,0.2-0.9,0.4-1.3,0.4s-1,0.1-1.6,0.1c-0.8,0-1.6-0.2-2.2-0.5s-1.1-0.8-1.5-1.5
			s-0.5-1.5-0.5-2.4c0-1,0.2-1.8,0.5-2.5s0.8-1.2,1.4-1.5S297,130.3,297.7,130.3z M297.7,131.7c-0.6,0-1,0.2-1.4,0.6
			s-0.6,0.9-0.6,1.6h3.9c0-0.4-0.1-0.8-0.2-1.1s-0.3-0.6-0.6-0.8S298.2,131.7,297.7,131.7z"/>
		<path class="st0" d="M309.3,136.7c0,0.6-0.1,1-0.4,1.4s-0.7,0.7-1.2,0.9s-1.2,0.3-1.9,0.3c-0.6,0-1.1,0-1.6-0.1s-0.8-0.2-1.2-0.4
			v-1.6c0.4,0.2,0.9,0.4,1.4,0.5s1,0.2,1.5,0.2c0.6,0,1-0.1,1.3-0.3s0.4-0.4,0.4-0.8c0-0.2-0.1-0.4-0.2-0.5s-0.3-0.3-0.6-0.5
			s-0.7-0.4-1.3-0.6c-0.5-0.2-1-0.4-1.4-0.7s-0.7-0.5-0.9-0.8s-0.3-0.7-0.3-1.2c0-0.8,0.3-1.3,0.9-1.7s1.4-0.6,2.4-0.6
			c0.5,0,1,0.1,1.5,0.2s0.9,0.3,1.4,0.5l-0.6,1.4c-0.4-0.2-0.8-0.3-1.2-0.4s-0.8-0.2-1.2-0.2c-0.5,0-0.8,0.1-1.1,0.2
			s-0.4,0.4-0.4,0.6c0,0.2,0.1,0.4,0.2,0.5s0.3,0.3,0.6,0.4s0.7,0.3,1.2,0.5s1,0.4,1.3,0.6s0.7,0.5,0.9,0.8S309.3,136.2,309.3,136.7
			z"/>
	</g>
	<ellipse id="Ellipse_77" class="st4" cx="284.5" cy="37" rx="37.5" ry="37"/>
	<g id="tax-nashuishenbao-line-svgrepo-com_1" transform="translate(993.758 170.104)">
		<path id="Path_136" class="st1" d="M-707.7-120.4L-707.7-120.4L-707.7-120.4L-707.7-120.4z"/>
		<path id="Path_137" class="st1" d="M-699.2-146.7v2.5h1.3v3.8h-22.6v-3.8h1.2v-2.5h-3.8v28.9h16.3v-2.5h-13.8v-17.6h25.1v-8.8
			H-699.2z"/>
		<path id="Path_138" class="st1" d="M-714.2-146.7h10v2.5h-10V-146.7z M-718-148h2.5v5h-2.5V-148z M-702.9-148h2.5v5h-2.5V-148z
			 M-705.4-130.4v12.6h10.1v-12.6l-5-6.3L-705.4-130.4z M-698.6-130.4h-3.6l1.8-2.2L-698.6-130.4z M-702.9-120.4v-7.6h5v7.6H-702.9z
			 M-719.3-135.4h12.6v2.5h-12.6V-135.4z M-719.3-130.4h8.8v2.5h-8.8V-130.4z M-719.3-125.4h8.8v2.5h-8.8V-125.4z"/>
	</g>
	<g id="Group_10" transform="translate(995.186 301.078)">
		<circle id="Ellipse_48" class="st5" cx="-710.6" cy="-135.6" r="12.5"/>
		<g id="Page-1" transform="translate(15.503 6.739) rotate(90)">
			<g id="Dribbble-Light-Preview" transform="translate(0 0)">
				<g id="icons" transform="translate(0)">
					<path id="arrow_up-_337_" class="st6" d="M-136.9,729L-136.9,729c0.2-0.2,0.2-0.6,0-0.8l-4.7-4.8c-0.4-0.4-1.1-0.5-1.6,0l0,0
						l-4.7,4.9c-0.2,0.2-0.2,0.6,0,0.8s0.6,0.2,0.8,0l0,0l4.3-4.5c0.2-0.2,0.6-0.2,0.8,0l0,0l4.3,4.4
						C-137.4,729.2-137.1,729.2-136.9,729L-136.9,729L-136.9,729z"/>
				</g>
			</g>
		</g>
	</g>
</g>
<g class="circle">
	<g transform="matrix(1, 0, 0, 1, -373, -169)">
		<g id="Ellipse_72-2" transform="translate(373 169)">
			<path class="st1" d="M558.2,261.5c0,47.4-35.7,86.5-81.7,91.9c-3.5,0.4-7.2,0.6-10.8,0.6c-12.1,0-23.7-2.3-34.2-6.5
				c-9.8-3.9-18.8-9.5-26.6-16.3c-19.4-17-31.6-41.9-31.6-69.7c0-9.3,1.4-18.3,3.9-26.7c3-9.9,7.6-19.1,13.5-27.3
				c7.9-10.9,18.1-20.1,30-26.7c13.3-7.5,28.7-11.7,45.1-11.7C516.8,169,558.2,210.4,558.2,261.5z"/>
			<circle class="st2" cx="465.7" cy="261.5" r="87.5"/>
		</g>
	</g>
	<g>
		<g class="st3">
			<path class="st0" d="M416.5,246.8h4.3v5.7c-0.6,0.2-1.2,0.4-1.9,0.5s-1.4,0.2-2.2,0.2c-1.2,0-2.1-0.2-2.9-0.7s-1.4-1.1-1.8-2
				s-0.6-1.9-0.6-3.2c0-1.2,0.2-2.2,0.7-3.1s1.1-1.6,2-2s2-0.7,3.2-0.7c0.6,0,1.2,0.1,1.8,0.2s1.1,0.3,1.6,0.5l-0.7,1.5
				c-0.4-0.2-0.8-0.3-1.3-0.5s-1-0.2-1.5-0.2c-0.8,0-1.5,0.2-2.1,0.5s-1,0.9-1.4,1.5s-0.5,1.4-0.5,2.3c0,0.8,0.1,1.6,0.4,2.2
				s0.7,1.1,1.2,1.5s1.2,0.5,2.1,0.5c0.4,0,0.8,0,1.1-0.1s0.6-0.1,0.8-0.2v-2.9h-2.4L416.5,246.8L416.5,246.8z"/>
			<path class="st0" d="M430.9,248.7c0,0.7-0.1,1.4-0.3,1.9s-0.5,1-0.8,1.4s-0.8,0.7-1.3,0.9s-1.1,0.3-1.7,0.3s-1.1-0.1-1.6-0.3
				s-0.9-0.5-1.3-0.9s-0.6-0.9-0.8-1.4s-0.3-1.2-0.3-1.9c0-1,0.2-1.8,0.5-2.4s0.8-1.2,1.4-1.5s1.3-0.5,2.2-0.5
				c0.8,0,1.5,0.2,2.1,0.5s1.1,0.9,1.4,1.5S430.9,247.7,430.9,248.7z M424.7,248.7c0,0.6,0.1,1.2,0.2,1.6s0.4,0.8,0.7,1
				s0.7,0.4,1.2,0.4s0.9-0.1,1.2-0.4s0.6-0.6,0.7-1s0.2-1,0.2-1.6s-0.1-1.2-0.2-1.6s-0.4-0.8-0.7-1s-0.7-0.3-1.3-0.3
				c-0.8,0-1.3,0.3-1.7,0.8S424.7,247.7,424.7,248.7z"/>
			<path class="st0" d="M435,253l-3.3-8.6h1.9l1.8,5.1c0.1,0.3,0.2,0.7,0.3,1s0.2,0.7,0.2,0.9h0.1c0-0.3,0.1-0.6,0.2-1
				s0.2-0.7,0.3-1l1.8-5.1h1.9L437,253H435z"/>
			<path class="st0" d="M445.1,244.2c0.8,0,1.4,0.2,2,0.5s1,0.8,1.3,1.4s0.4,1.3,0.4,2.1v1H443c0,0.8,0.2,1.5,0.7,1.9s1,0.7,1.8,0.7
				c0.6,0,1-0.1,1.5-0.2s0.9-0.3,1.4-0.5v1.5c-0.4,0.2-0.9,0.4-1.3,0.4s-1,0.1-1.6,0.1c-0.8,0-1.6-0.2-2.2-0.5s-1.1-0.8-1.5-1.5
				s-0.5-1.5-0.5-2.4c0-1,0.2-1.8,0.5-2.5s0.8-1.2,1.4-1.5S444.3,244.2,445.1,244.2z M445.1,245.6c-0.6,0-1,0.2-1.4,0.6
				s-0.6,0.9-0.6,1.6h3.9c0-0.4-0.1-0.8-0.2-1.1s-0.3-0.6-0.6-0.8S445.5,245.6,445.1,245.6z"/>
			<path class="st0" d="M455.2,244.2c0.1,0,0.3,0,0.5,0s0.3,0,0.4,0.1L456,246c-0.1,0-0.2-0.1-0.4-0.1s-0.3,0-0.4,0
				c-0.3,0-0.6,0.1-0.9,0.2s-0.6,0.3-0.8,0.5s-0.4,0.5-0.5,0.8s-0.2,0.7-0.2,1.1v4.5H451v-8.6h1.4l0.2,1.5h0.1
				c0.2-0.3,0.4-0.6,0.6-0.8s0.5-0.5,0.9-0.6S454.8,244.2,455.2,244.2z"/>
			<path class="st0" d="M462.2,244.2c1,0,1.7,0.3,2.3,0.8s0.8,1.3,0.8,2.4v5.6h-1.8v-5.3c0-0.7-0.1-1.2-0.4-1.5s-0.7-0.5-1.3-0.5
				c-0.8,0-1.4,0.3-1.7,0.8s-0.5,1.3-0.5,2.2v4.3h-1.8v-8.6h1.4l0.3,1.2h0.1c0.2-0.3,0.4-0.6,0.7-0.7s0.6-0.3,0.9-0.4
				S461.9,244.2,462.2,244.2z"/>
			<path class="st0" d="M477.7,244.2c1,0,1.7,0.2,2.2,0.8s0.7,1.3,0.7,2.4v5.7h-1.8v-5.3c0-0.7-0.1-1.2-0.4-1.5s-0.6-0.5-1.2-0.5
				c-0.7,0-1.3,0.2-1.6,0.7s-0.5,1.1-0.5,2v4.6h-1.8v-5.3c0-0.4-0.1-0.8-0.2-1.1s-0.3-0.5-0.5-0.7s-0.5-0.2-0.9-0.2
				c-0.5,0-0.9,0.1-1.2,0.3s-0.5,0.6-0.6,1s-0.2,1-0.2,1.6v4.3h-1.8v-8.6h1.4l0.3,1.2h0.1c0.2-0.3,0.4-0.6,0.7-0.7s0.6-0.3,0.9-0.4
				s0.7-0.1,1-0.1c0.6,0,1.2,0.1,1.6,0.3s0.8,0.6,1,1h0.1c0.3-0.5,0.6-0.8,1.1-1S477.1,244.2,477.7,244.2z"/>
			<path class="st0" d="M486.6,244.2c0.8,0,1.4,0.2,2,0.5s1,0.8,1.3,1.4s0.4,1.3,0.4,2.1v1h-5.8c0,0.8,0.2,1.5,0.7,1.9
				s1,0.7,1.8,0.7c0.6,0,1-0.1,1.5-0.2s0.9-0.3,1.4-0.5v1.5c-0.4,0.2-0.9,0.4-1.3,0.4s-1,0.1-1.6,0.1c-0.8,0-1.6-0.2-2.2-0.5
				s-1.1-0.8-1.5-1.5s-0.5-1.5-0.5-2.4c0-1,0.2-1.8,0.5-2.5s0.8-1.2,1.4-1.5S485.8,244.2,486.6,244.2z M486.6,245.6
				c-0.6,0-1,0.2-1.4,0.6s-0.6,0.9-0.6,1.6h3.9c0-0.4-0.1-0.8-0.2-1.1s-0.3-0.6-0.6-0.8S487,245.6,486.6,245.6z"/>
			<path class="st0" d="M496.9,244.2c1,0,1.7,0.3,2.3,0.8s0.8,1.3,0.8,2.4v5.6h-1.8v-5.3c0-0.7-0.1-1.2-0.4-1.5s-0.7-0.5-1.3-0.5
				c-0.8,0-1.4,0.3-1.7,0.8s-0.5,1.3-0.5,2.2v4.3h-1.8v-8.6h1.4l0.3,1.2h0.1c0.2-0.3,0.4-0.6,0.7-0.7s0.6-0.3,0.9-0.4
				S496.5,244.2,496.9,244.2z"/>
			<path class="st0" d="M505.8,251.7c0.2,0,0.5,0,0.7-0.1s0.4-0.1,0.6-0.2v1.4c-0.2,0.1-0.5,0.2-0.8,0.2s-0.7,0.1-1,0.1
				c-0.5,0-0.9-0.1-1.3-0.2s-0.7-0.4-0.9-0.8s-0.3-1-0.3-1.7v-4.6h-1.2V245l1.3-0.6l0.6-1.9h1.2v1.9h2.5v1.4h-2.5v4.6
				c0,0.4,0.1,0.8,0.3,1S505.4,251.7,505.8,251.7z"/>
			<path class="st0" d="M512.3,244.2c1.1,0,1.9,0.2,2.5,0.7s0.8,1.2,0.8,2.3v5.8h-1.3l-0.4-1.2h-0.1c-0.2,0.3-0.5,0.6-0.8,0.8
				s-0.6,0.4-0.9,0.5c-0.3,0.1-0.8,0.2-1.2,0.2c-0.5,0-1-0.1-1.4-0.3s-0.7-0.5-1-0.9s-0.4-0.9-0.4-1.5c0-0.9,0.3-1.6,1-2
				s1.7-0.7,3-0.7l1.5-0.1v-0.5c0-0.6-0.1-1-0.4-1.3s-0.7-0.4-1.2-0.4c-0.4,0-0.9,0.1-1.3,0.2s-0.8,0.3-1.2,0.5l-0.6-1.3
				c0.4-0.2,0.9-0.4,1.4-0.5S511.7,244.2,512.3,244.2z M513.8,248.9h-1.1c-0.9,0-1.6,0.2-1.9,0.5s-0.6,0.7-0.6,1.2
				c0,0.4,0.1,0.7,0.4,0.9s0.6,0.3,1,0.3c0.6,0,1.2-0.2,1.6-0.5s0.6-0.9,0.6-1.6V248.9z"/>
			<path class="st0" d="M520,253h-1.8v-12.2h1.8V253z"/>
		</g>
		<g class="st3">
			<path class="st0" d="M441.4,263.6h3.4c1.5,0,2.6,0.2,3.3,0.6s1.1,1.2,1.1,2.2c0,0.4-0.1,0.8-0.2,1.2s-0.4,0.6-0.7,0.9
				s-0.7,0.4-1.1,0.5v0.1c0.4,0.1,0.8,0.2,1.2,0.4s0.6,0.5,0.8,0.9s0.3,0.8,0.3,1.4c0,0.7-0.2,1.3-0.5,1.8s-0.8,0.9-1.4,1.1
				s-1.3,0.4-2.2,0.4h-4.1v-11.5H441.4z M443.3,268.3h1.8c0.8,0,1.4-0.1,1.8-0.4s0.5-0.7,0.5-1.2s-0.2-0.9-0.6-1.2s-1-0.4-1.8-0.4
				h-1.6L443.3,268.3L443.3,268.3z M443.3,269.8v3.6h2c0.9,0,1.5-0.2,1.8-0.5s0.5-0.8,0.5-1.4c0-0.4-0.1-0.7-0.2-0.9
				s-0.4-0.5-0.8-0.6s-0.8-0.2-1.5-0.2H443.3z"/>
			<path class="st0" d="M459.5,270.7c0,0.7-0.1,1.4-0.3,1.9s-0.5,1-0.8,1.4s-0.8,0.7-1.3,0.9s-1.1,0.3-1.7,0.3s-1.1-0.1-1.6-0.3
				s-0.9-0.5-1.3-0.9s-0.6-0.9-0.8-1.4s-0.3-1.2-0.3-1.9c0-1,0.2-1.8,0.5-2.4s0.8-1.2,1.4-1.5s1.3-0.5,2.2-0.5
				c0.8,0,1.5,0.2,2.1,0.5s1.1,0.9,1.4,1.5S459.5,269.7,459.5,270.7z M453.2,270.7c0,0.6,0.1,1.2,0.2,1.6s0.4,0.8,0.7,1
				s0.7,0.4,1.2,0.4s0.9-0.1,1.2-0.4s0.6-0.6,0.7-1s0.2-1,0.2-1.6s-0.1-1.2-0.2-1.6s-0.4-0.8-0.7-1s-0.7-0.3-1.3-0.3
				c-0.8,0-1.3,0.3-1.7,0.8S453.2,269.7,453.2,270.7z"/>
			<path class="st0" d="M464.5,275.2c-1,0-1.9-0.4-2.5-1.1s-0.9-1.9-0.9-3.3c0-1.5,0.3-2.6,0.9-3.4s1.5-1.1,2.5-1.1
				c0.4,0,0.8,0.1,1.1,0.2s0.6,0.3,0.8,0.5s0.4,0.4,0.6,0.7h0.1c0-0.2-0.1-0.4-0.1-0.7s-0.1-0.6-0.1-0.8v-3.1h1.8V275h-1.4l-0.3-1.2
				h-0.1c-0.2,0.2-0.4,0.5-0.6,0.7s-0.5,0.4-0.8,0.5S464.9,275.2,464.5,275.2z M465,273.7c0.8,0,1.3-0.2,1.7-0.7s0.5-1.1,0.5-2v-0.2
				c0-1-0.2-1.7-0.5-2.2s-0.9-0.8-1.7-0.8c-0.7,0-1.2,0.3-1.5,0.8s-0.5,1.3-0.5,2.2s0.2,1.7,0.5,2.2S464.3,273.7,465,273.7z"/>
			<path class="st0" d="M472.5,263c0.3,0,0.5,0.1,0.7,0.2s0.3,0.4,0.3,0.8s-0.1,0.6-0.3,0.8s-0.4,0.2-0.7,0.2
				c-0.3,0-0.5-0.1-0.7-0.2s-0.3-0.4-0.3-0.8s0.1-0.6,0.3-0.8S472.2,263,472.5,263z M473.4,266.4v8.6h-1.8v-8.6H473.4z"/>
			<path class="st0" d="M479.4,266.2c0.8,0,1.4,0.2,2,0.5s1,0.8,1.3,1.4s0.4,1.3,0.4,2.1v1h-5.8c0,0.8,0.2,1.5,0.7,1.9
				s1,0.7,1.8,0.7c0.6,0,1-0.1,1.5-0.2s0.9-0.3,1.4-0.5v1.5c-0.4,0.2-0.9,0.4-1.3,0.4s-1,0.1-1.6,0.1c-0.8,0-1.6-0.2-2.2-0.5
				s-1.1-0.8-1.5-1.5s-0.5-1.5-0.5-2.4c0-1,0.2-1.8,0.5-2.5s0.8-1.2,1.4-1.5S478.6,266.2,479.4,266.2z M479.4,267.6
				c-0.6,0-1,0.2-1.4,0.6s-0.6,0.9-0.6,1.6h3.9c0-0.4-0.1-0.8-0.2-1.1s-0.3-0.6-0.6-0.8S479.9,267.6,479.4,267.6z"/>
			<path class="st0" d="M491,272.5c0,0.6-0.1,1-0.4,1.4s-0.7,0.7-1.2,0.9s-1.2,0.3-1.9,0.3c-0.6,0-1.1,0-1.6-0.1s-0.8-0.2-1.2-0.4
				V273c0.4,0.2,0.9,0.4,1.4,0.5s1,0.2,1.5,0.2c0.6,0,1-0.1,1.3-0.3s0.4-0.4,0.4-0.8c0-0.2-0.1-0.4-0.2-0.5s-0.3-0.3-0.6-0.5
				s-0.7-0.4-1.3-0.6c-0.5-0.2-1-0.4-1.4-0.7s-0.7-0.5-0.9-0.8s-0.3-0.7-0.3-1.2c0-0.8,0.3-1.3,0.9-1.7s1.4-0.6,2.4-0.6
				c0.5,0,1,0.1,1.5,0.2s0.9,0.3,1.4,0.5l-0.6,1.4c-0.4-0.2-0.8-0.3-1.2-0.4s-0.8-0.2-1.2-0.2c-0.5,0-0.8,0.1-1.1,0.2
				s-0.4,0.4-0.4,0.6s0.1,0.4,0.2,0.5s0.3,0.3,0.6,0.4s0.7,0.3,1.2,0.5s1,0.4,1.3,0.6s0.7,0.5,0.9,0.8S491,272,491,272.5z"/>
		</g>
	</g>
	<ellipse id="Ellipse_80" class="st4" cx="465.7" cy="178" rx="37.5" ry="37"/>
	<g id="goverment-building-svgrepo-com_1_1" transform="translate(1172.4 307.319)">
		<path id="Path_130" class="st1" d="M-689.3-130.6v-2h-7.5v0.7h-1.8v1.3h-0.3l-7.3-6.2h-1.1l-7.3,6.2h-0.3v-1.3h-1.7v-7.9h-7.6v9.2
			h-0.6v11.2h10.4v0.8h15.4v-0.8h10.4v-11.2H-689.3z M-720.4-138.4c1,0,1.9,0.8,1.9,1.9s-0.8,1.9-1.9,1.9s-1.9-0.8-1.9-1.9
			S-721.4-138.4-720.4-138.4L-720.4-138.4z M-713.2-121.7h-1.2v0.8h-8.9v-8.1h10.1L-713.2-121.7z M-707.7-121.7h-3.6v-7.3h3.6
			V-121.7z M-702.2-121.7h-3.6v-7.3h3.6V-121.7z M-711.8-130.8l5.1-4.3l5.1,4.3H-711.8z M-690.2-121h-8.9v-0.8h-1.2v-7.3h10.1
			L-690.2-121z"/>
		<path id="Path_131" class="st1" d="M-719.8-128.1h-1.8v6.2h1.8V-128.1z"/>
		<path id="Path_132" class="st1" d="M-715.4-128.1h-1.8v6.2h1.8V-128.1z"/>
		<path id="Path_133" class="st1" d="M-696.3-128.1h-1.8v6.2h1.8V-128.1z"/>
		<path id="Path_134" class="st1" d="M-691.9-128.1h-1.8v6.2h1.8V-128.1z"/>
		<path id="Path_135" class="st1" d="M-720.4-143.3l1.6,2.7h2.2v-0.5l-3.8-6.8l-3.8,6.8v0.5h2.2L-720.4-143.3z"/>
	</g>
	<g id="Group_61" transform="translate(1178.186 437.078)">
		<circle id="Ellipse_48-2" class="st5" cx="-712.5" cy="-135.6" r="12.5"/>
		<g id="Page-1-2" transform="translate(15.503 6.739) rotate(90)">
			<g id="Dribbble-Light-Preview-2" transform="translate(0 0)">
				<g id="icons-2" transform="translate(0)">
					<path id="arrow_up-_337_2" class="st6" d="M-136.9,730.8L-136.9,730.8c0.2-0.2,0.2-0.6,0-0.8l-4.7-4.8c-0.4-0.4-1.1-0.5-1.6,0
						l0,0l-4.7,4.9c-0.2,0.2-0.2,0.6,0,0.8s0.6,0.2,0.8,0l0,0l4.3-4.5c0.2-0.2,0.6-0.2,0.8,0l0,0l4.3,4.4
						C-137.4,731.1-137.1,731.1-136.9,730.8C-136.9,730.9-136.9,730.9-136.9,730.8L-136.9,730.8z"/>
				</g>
			</g>
		</g>
	</g>
</g>
<g class="circle">
	<g transform="matrix(1, 0, 0, 1, -9, -169)">
		<g id="Ellipse_71-2" transform="translate(9 169)">
			<path class="st1" d="M194.3,261.5c0,28.1-12.5,53.2-32.2,70.2c-12.8,11-28.7,18.6-46.2,21.3c-4.6,0.7-9.3,1.1-14,1.1
				c-3.9,0-7.7-0.2-11.4-0.7c-45.7-5.6-81.1-44.6-81.1-91.8c0-51.1,41.4-92.5,92.5-92.5c16.4,0,31.9,4.3,45.2,11.8
				c7.1,4,13.5,8.8,19.3,14.4c11.8,11.5,20.6,26.2,24.9,42.6C193.3,245.4,194.3,253.3,194.3,261.5z"/>
			<circle class="st2" cx="101.8" cy="261.5" r="87.5"/>
		</g>
	</g>
	<g class="st3">
		<path class="st0" d="M43.6,245.8h4.3v5.7c-0.6,0.2-1.2,0.4-1.9,0.5s-1.4,0.2-2.2,0.2c-1.2,0-2.1-0.2-2.9-0.7s-1.4-1.1-1.8-2
			c-0.4-0.9-0.6-1.9-0.6-3.2c0-1.2,0.2-2.2,0.7-3.1c0.5-0.9,1.1-1.6,2-2c0.9-0.5,2-0.7,3.2-0.7c0.6,0,1.2,0.1,1.8,0.2
			c0.6,0.1,1.1,0.3,1.6,0.5l-0.7,1.5c-0.4-0.2-0.8-0.3-1.3-0.5c-0.5-0.1-1-0.2-1.5-0.2c-0.8,0-1.5,0.2-2.1,0.5
			c-0.6,0.4-1,0.9-1.4,1.5c-0.3,0.6-0.5,1.4-0.5,2.3c0,0.8,0.1,1.6,0.4,2.2c0.3,0.6,0.7,1.1,1.2,1.5s1.2,0.5,2.1,0.5
			c0.4,0,0.8,0,1.1-0.1c0.3,0,0.6-0.1,0.8-0.2v-2.9h-2.4v-1.5H43.6z"/>
		<path class="st0" d="M53.8,243.2c0.8,0,1.4,0.2,2,0.5s1,0.8,1.3,1.4s0.4,1.3,0.4,2.1v1h-5.8c0,0.8,0.2,1.5,0.7,1.9s1,0.7,1.8,0.7
			c0.6,0,1-0.1,1.5-0.2c0.4-0.1,0.9-0.3,1.4-0.5v1.5c-0.4,0.2-0.9,0.4-1.3,0.4c-0.4,0.1-1,0.1-1.6,0.1c-0.8,0-1.6-0.2-2.2-0.5
			c-0.6-0.3-1.1-0.8-1.5-1.5s-0.5-1.5-0.5-2.4c0-1,0.2-1.8,0.5-2.5s0.8-1.2,1.4-1.5S53,243.2,53.8,243.2z M53.8,244.6
			c-0.6,0-1,0.2-1.4,0.6c-0.4,0.4-0.6,0.9-0.6,1.6h3.9c0-0.4-0.1-0.8-0.2-1.1c-0.1-0.3-0.3-0.6-0.6-0.8
			C54.6,244.7,54.3,244.6,53.8,244.6z"/>
		<path class="st0" d="M64.1,243.2c1,0,1.7,0.3,2.3,0.8c0.5,0.5,0.8,1.3,0.8,2.4v5.6h-1.8v-5.3c0-0.7-0.1-1.2-0.4-1.5
			s-0.7-0.5-1.3-0.5c-0.8,0-1.4,0.3-1.7,0.8s-0.5,1.3-0.5,2.2v4.3h-1.8v-8.6H61l0.3,1.2h0.1c0.2-0.3,0.4-0.6,0.7-0.7
			c0.3-0.2,0.6-0.3,0.9-0.4C63.4,243.2,63.7,243.2,64.1,243.2z"/>
		<path class="st0" d="M73.2,243.2c0.8,0,1.4,0.2,2,0.5s1,0.8,1.3,1.4s0.4,1.3,0.4,2.1v1h-5.8c0,0.8,0.2,1.5,0.7,1.9s1,0.7,1.8,0.7
			c0.6,0,1-0.1,1.5-0.2c0.4-0.1,0.9-0.3,1.4-0.5v1.5c-0.4,0.2-0.9,0.4-1.3,0.4c-0.4,0.1-1,0.1-1.6,0.1c-0.8,0-1.6-0.2-2.2-0.5
			s-1.1-0.8-1.5-1.5s-0.5-1.5-0.5-2.4c0-1,0.2-1.8,0.5-2.5s0.8-1.2,1.4-1.5S72.4,243.2,73.2,243.2z M73.2,244.6
			c-0.6,0-1,0.2-1.4,0.6c-0.4,0.4-0.6,0.9-0.6,1.6h3.9c0-0.4-0.1-0.8-0.2-1.1s-0.3-0.6-0.6-0.8C74,244.7,73.6,244.6,73.2,244.6z"/>
		<path class="st0" d="M83.4,243.2c0.1,0,0.3,0,0.5,0s0.3,0,0.4,0.1l-0.2,1.7c-0.1,0-0.2-0.1-0.4-0.1s-0.3,0-0.4,0
			c-0.3,0-0.6,0.1-0.9,0.2s-0.6,0.3-0.8,0.5s-0.4,0.5-0.5,0.8s-0.2,0.7-0.2,1.1v4.5H79v-8.6h1.4l0.2,1.5h0.1
			c0.2-0.3,0.4-0.6,0.6-0.8s0.5-0.5,0.9-0.6S83,243.2,83.4,243.2z"/>
		<path class="st0" d="M89.3,243.2c1.1,0,1.9,0.2,2.5,0.7s0.8,1.2,0.8,2.3v5.8h-1.3l-0.4-1.2h-0.1c-0.2,0.3-0.5,0.6-0.8,0.8
			s-0.6,0.4-0.9,0.5s-0.8,0.2-1.2,0.2c-0.5,0-1-0.1-1.4-0.3s-0.7-0.5-1-0.9s-0.4-0.9-0.4-1.5c0-0.9,0.3-1.6,1-2s1.7-0.7,3-0.7
			l1.5-0.1v-0.5c0-0.6-0.1-1-0.4-1.3s-0.7-0.4-1.2-0.4c-0.4,0-0.9,0.1-1.3,0.2s-0.8,0.3-1.2,0.5l-0.6-1.3c0.4-0.2,0.9-0.4,1.4-0.5
			S88.7,243.2,89.3,243.2z M90.8,247.9h-1.1c-0.9,0-1.6,0.2-1.9,0.5s-0.6,0.7-0.6,1.2c0,0.4,0.1,0.7,0.4,0.9s0.6,0.3,1,0.3
			c0.6,0,1.2-0.2,1.6-0.5s0.6-0.9,0.6-1.6V247.9z"/>
		<path class="st0" d="M97,252h-1.8v-12.2H97V252z"/>
		<path class="st0" d="M107.3,240.6c1.5,0,2.5,0.3,3.2,0.9s1,1.5,1,2.5c0,0.5-0.1,1-0.2,1.4s-0.4,0.8-0.8,1.2s-0.8,0.6-1.4,0.8
			s-1.3,0.3-2.1,0.3h-1.2v4.3H104v-11.4H107.3z M107.2,242.1h-1.3v4h1c0.6,0,1.1-0.1,1.5-0.2s0.7-0.4,0.9-0.7s0.3-0.7,0.3-1.2
			c0-0.7-0.2-1.2-0.6-1.5S108,242.1,107.2,242.1z"/>
		<path class="st0" d="M121.2,243.4v8.6h-1.4l-0.2-1.2h-0.1c-0.2,0.3-0.4,0.5-0.7,0.7s-0.6,0.3-0.9,0.4s-0.7,0.1-1.1,0.1
			c-0.7,0-1.2-0.1-1.7-0.3s-0.8-0.6-1.1-1s-0.4-1.1-0.4-1.8v-5.6h1.8v5.3c0,0.7,0.1,1.2,0.4,1.5s0.7,0.5,1.3,0.5
			c0.6,0,1-0.1,1.3-0.3s0.6-0.6,0.7-1s0.2-1,0.2-1.6v-4.3L121.2,243.4L121.2,243.4z"/>
		<path class="st0" d="M125.6,239.8v2.9c0,0.3,0,0.7,0,1s0,0.6-0.1,0.8h0.1c0.2-0.4,0.6-0.7,1-0.9s1-0.4,1.6-0.4
			c1,0,1.9,0.4,2.5,1.1s0.9,1.9,0.9,3.3c0,1-0.1,1.8-0.4,2.5s-0.7,1.2-1.2,1.5s-1.1,0.5-1.8,0.5s-1.2-0.1-1.6-0.4s-0.7-0.5-0.9-0.8
			h-0.1l-0.3,1.1h-1.4v-12.2L125.6,239.8L125.6,239.8z M127.7,244.7c-0.5,0-0.9,0.1-1.2,0.3s-0.5,0.5-0.7,0.9s-0.2,0.9-0.2,1.6v0.2
			c0,1,0.2,1.7,0.5,2.2s0.9,0.8,1.7,0.8c0.6,0,1.1-0.3,1.5-0.8s0.5-1.3,0.5-2.2c0-1-0.2-1.7-0.5-2.2S128.4,244.7,127.7,244.7z"/>
		<path class="st0" d="M135.6,252h-1.8v-12.2h1.8V252z"/>
		<path class="st0" d="M139.1,240c0.3,0,0.5,0.1,0.7,0.2s0.3,0.4,0.3,0.8c0,0.4-0.1,0.6-0.3,0.8s-0.4,0.2-0.7,0.2s-0.5-0.1-0.7-0.2
			s-0.3-0.4-0.3-0.8c0-0.4,0.1-0.6,0.3-0.8S138.8,240,139.1,240z M140,243.4v8.6h-1.8v-8.6H140z"/>
		<path class="st0" d="M146.1,252.2c-0.8,0-1.5-0.2-2.1-0.5s-1.1-0.8-1.4-1.5s-0.5-1.5-0.5-2.5c0-1.1,0.2-1.9,0.5-2.6
			s0.8-1.2,1.5-1.5s1.3-0.5,2.2-0.5c0.5,0,1,0.1,1.4,0.2s0.8,0.2,1.1,0.4l-0.5,1.5c-0.3-0.1-0.6-0.2-1-0.3s-0.7-0.1-1-0.1
			c-0.5,0-0.9,0.1-1.3,0.3s-0.6,0.6-0.8,1s-0.2,1-0.2,1.6s0.1,1.2,0.2,1.6s0.4,0.8,0.7,1s0.7,0.3,1.2,0.3s0.9-0.1,1.3-0.2
			s0.7-0.3,1.1-0.4v1.6c-0.3,0.2-0.7,0.3-1.1,0.4S146.7,252.2,146.1,252.2z"/>
		<path class="st0" d="M158.4,240.4c0.6,0,1.1,0.1,1.6,0.3s0.8,0.5,1,0.8s0.4,0.8,0.4,1.3c0,0.7-0.2,1.3-0.7,1.8s-1,0.9-1.7,1.3
			l2.7,2.6c0.3-0.3,0.5-0.7,0.6-1.2s0.3-0.9,0.4-1.3h1.9c-0.2,0.6-0.4,1.3-0.7,1.9s-0.6,1.2-1.1,1.7l2.3,2.3h-2.4l-1.2-1.1
			c-0.3,0.3-0.7,0.5-1,0.7s-0.8,0.3-1.2,0.4s-0.9,0.2-1.4,0.2c-0.8,0-1.5-0.1-2.1-0.4s-1-0.6-1.3-1.1s-0.5-1-0.5-1.7
			c0-0.5,0.1-1,0.3-1.4s0.4-0.7,0.8-1s0.8-0.6,1.2-0.9c-0.3-0.3-0.5-0.6-0.7-0.9s-0.3-0.6-0.4-0.9s-0.2-0.6-0.2-1
			c0-0.5,0.1-1,0.4-1.4s0.6-0.7,1.1-0.9S157.7,240.4,158.4,240.4z M157.6,246.8c-0.3,0.2-0.6,0.4-0.8,0.6s-0.4,0.4-0.5,0.6
			s-0.2,0.5-0.2,0.8c0,0.5,0.2,1,0.6,1.3s0.9,0.5,1.5,0.5c0.5,0,1-0.1,1.4-0.2s0.7-0.4,1-0.6L157.6,246.8z M158.3,241.9
			c-0.4,0-0.7,0.1-1,0.3s-0.4,0.5-0.4,0.9c0,0.3,0.1,0.6,0.3,0.9s0.4,0.6,0.7,0.9c0.5-0.3,1-0.6,1.2-0.9s0.4-0.6,0.4-1
			s-0.1-0.6-0.4-0.8S158.7,241.9,158.3,241.9z"/>
	</g>
	<g class="st3">
		<path class="st0" d="M90.1,274h-2.3l-5.6-9.1h-0.1c0,0.3,0,0.6,0.1,1c0,0.3,0,0.7,0,1.1s0,0.7,0,1.1v6h-1.7v-11.4h2.3l5.6,9.1h0.1
			c0-0.3,0-0.6,0-0.9s0-0.7,0-1.1s0-0.7,0-1.1v-6h1.7L90.1,274L90.1,274z"/>
		<path class="st0" d="M97.7,267.8h4.3v5.7c-0.6,0.2-1.2,0.4-1.9,0.5s-1.4,0.2-2.2,0.2c-1.2,0-2.1-0.2-2.9-0.7s-1.4-1.1-1.8-2
			s-0.6-1.9-0.6-3.2c0-1.2,0.2-2.2,0.7-3.1s1.1-1.6,2-2c0.9-0.5,2-0.7,3.2-0.7c0.6,0,1.2,0.1,1.8,0.2c0.6,0.1,1.1,0.3,1.6,0.5
			l-0.7,1.5c-0.4-0.2-0.8-0.3-1.3-0.5c-0.5-0.1-1-0.2-1.5-0.2c-0.8,0-1.5,0.2-2.1,0.5c-0.6,0.4-1,0.9-1.4,1.5
			c-0.3,0.6-0.5,1.4-0.5,2.3c0,0.8,0.1,1.6,0.4,2.2s0.7,1.1,1.2,1.5s1.2,0.5,2.1,0.5c0.4,0,0.8,0,1.1-0.1c0.3,0,0.6-0.1,0.8-0.2
			v-2.9h-2.4v-1.5H97.7z"/>
		<path class="st0" d="M114.9,268.3c0,0.9-0.1,1.7-0.3,2.4c-0.2,0.7-0.6,1.3-1,1.9c-0.4,0.5-1,0.9-1.7,1.2c-0.7,0.3-1.4,0.4-2.3,0.4
			s-1.7-0.1-2.4-0.4c-0.7-0.3-1.2-0.7-1.7-1.2c-0.4-0.5-0.8-1.1-1-1.9s-0.3-1.5-0.3-2.4c0-1.2,0.2-2.2,0.6-3.1s1-1.6,1.8-2
			c0.8-0.5,1.8-0.7,3-0.7s2.2,0.2,3,0.7s1.4,1.2,1.8,2C114.7,266,114.9,267.1,114.9,268.3z M106.2,268.3c0,0.9,0.1,1.6,0.4,2.3
			c0.2,0.6,0.6,1.1,1.1,1.5c0.5,0.3,1.1,0.5,1.9,0.5s1.4-0.2,1.9-0.5s0.9-0.8,1.1-1.5s0.4-1.4,0.4-2.3c0-1.3-0.3-2.4-0.8-3.1
			c-0.5-0.8-1.4-1.1-2.6-1.1c-0.8,0-1.4,0.2-1.9,0.5s-0.9,0.8-1.1,1.5C106.3,266.6,106.2,267.4,106.2,268.3z"/>
		<path class="st0" d="M123,271.5c0,0.6-0.1,1-0.4,1.4s-0.7,0.7-1.2,0.9c-0.5,0.2-1.2,0.3-1.9,0.3c-0.6,0-1.1,0-1.6-0.1
			c-0.4-0.1-0.8-0.2-1.2-0.4V272c0.4,0.2,0.9,0.4,1.4,0.5s1,0.2,1.5,0.2c0.6,0,1-0.1,1.3-0.3s0.4-0.4,0.4-0.8c0-0.2-0.1-0.4-0.2-0.5
			s-0.3-0.3-0.6-0.5s-0.7-0.4-1.3-0.6c-0.5-0.2-1-0.4-1.4-0.7s-0.7-0.5-0.9-0.8c-0.2-0.3-0.3-0.7-0.3-1.2c0-0.8,0.3-1.3,0.9-1.7
			c0.6-0.4,1.4-0.6,2.4-0.6c0.5,0,1,0.1,1.5,0.2s0.9,0.3,1.4,0.5l-0.6,1.4c-0.4-0.2-0.8-0.3-1.2-0.4c-0.4-0.1-0.8-0.2-1.2-0.2
			c-0.5,0-0.8,0.1-1.1,0.2c-0.2,0.1-0.4,0.4-0.4,0.6s0.1,0.4,0.2,0.5s0.3,0.3,0.6,0.4c0.3,0.1,0.7,0.3,1.2,0.5s1,0.4,1.3,0.6
			s0.7,0.5,0.9,0.8S123,271,123,271.5z"/>
	</g>
	<ellipse id="Ellipse_76" class="st4" cx="101.8" cy="178" rx="37.5" ry="37"/>
	<path id="group-people-profile-user-person-svgrepo-com_1" class="st1" d="M101.8,159.8c-2.3,0-4.2,2-4.2,4.3
		c0,0.9,0.3,1.8,0.9,2.6l0,0c-2.3,0-4.2,2-4.2,4.3v6.9c0,2,1.4,3.8,3.3,4.2v9.5c0,1.4,1.1,2.6,2.5,2.6h3.3c1.4,0,2.5-1.2,2.5-2.6
		v-9.5l0,0c2-0.4,3.3-2.2,3.3-4.2V171c0-2.3-1.8-4.2-4.2-4.3l0,0c0.6-0.7,0.9-1.6,0.9-2.6C106,161.8,104.2,159.9,101.8,159.8z
		 M93.5,161.6c-0.3,0-0.7,0.1-1,0.2h-0.1c-0.3,0.1-0.6,0.2-0.9,0.4c-2,1.2-2.7,3.9-1.5,5.9c0.1,0.1,0.2,0.3,0.2,0.4l0,0
		c-2.3,0-4.2,2-4.2,4.3v5.1c0,2,1.4,3.8,3.3,4.2l0,0v6.1c0,1.4,1.1,2.6,2.5,2.6H96V189h-1.7v-6c0-0.5-0.3-0.9-0.8-0.9
		s-0.9,0.3-0.9,0.8v0.1v6h-0.8c-0.5,0-0.8-0.4-0.8-0.9l0,0v-13.7c0-0.5-0.3-0.9-0.8-0.9s-0.9,0.3-0.9,0.8v0.1v5.9
		c-1-0.4-1.7-1.3-1.7-2.4v-5.1c0-1.4,1.1-2.5,2.5-2.6l0,0l0,0c0.9,0,1.7-0.8,1.7-1.7c0-0.4-0.1-0.8-0.4-1.1
		c-0.8-1.2-0.5-2.8,0.6-3.6c0.4-0.3,0.9-0.5,1.4-0.5c0.4,0,0.8,0.1,1.2,0.3c0.2,0.1,0.4,0.2,0.6,0.2c0.5,0,0.8-0.4,0.8-0.9l0,0
		c0-0.2-0.1-0.4-0.3-0.6c-0.1-0.1-0.2-0.1-0.2-0.2C94.9,161.8,94.2,161.6,93.5,161.6z M101.8,161.6c1.4,0,2.5,1.2,2.5,2.6l0,0
		c0,0.5-0.2,1-0.5,1.5c-0.2,0.3-0.4,0.7-0.4,1.1c0,0.9,0.7,1.7,1.7,1.7l0,0c1.4,0,2.5,1.2,2.5,2.6l0,0v6.9c0,1.1-0.7,2-1.7,2.4v-7.6
		c0-0.5-0.3-0.9-0.8-0.9s-0.9,0.3-0.9,0.8v0.1v18.9c0,0.5-0.4,0.9-0.8,0.9l0,0h-0.8V183c0-0.5-0.3-0.9-0.8-0.9s-0.9,0.3-0.9,0.8v0.1
		v9.4h-0.8c-0.5,0-0.8-0.4-0.8-0.9l0,0v-18.9c0-0.5-0.3-0.9-0.8-0.9s-0.9,0.3-0.9,0.8v0.1v7.6c-1-0.4-1.7-1.3-1.7-2.4V171
		c0-1.4,1.1-2.5,2.5-2.6l0,0l0,0c0.9,0,1.7-0.8,1.7-1.7l0,0c0-0.4-0.1-0.8-0.4-1.1c-0.3-0.4-0.5-0.9-0.5-1.5
		C99.3,162.7,100.4,161.6,101.8,161.6L101.8,161.6z M110.2,161.6c-0.7,0-1.4,0.2-2.1,0.6c-0.1,0-0.2,0.1-0.2,0.2
		c-0.2,0.2-0.3,0.4-0.3,0.6c0,0.5,0.4,0.9,0.8,0.9l0,0c0.2,0,0.4-0.1,0.6-0.2c0.4-0.2,0.8-0.3,1.2-0.3c1.4,0,2.5,1.2,2.5,2.6
		c0,0.5-0.2,1-0.5,1.4c-0.2,0.3-0.4,0.7-0.4,1.1c0,0.9,0.7,1.7,1.7,1.7l0,0l0,0c1.4,0,2.5,1.2,2.5,2.6l0,0v5.1c0,1.1-0.7,2-1.7,2.4
		v-5.9c0-0.5-0.3-0.9-0.8-0.9s-0.9,0.3-0.9,0.8v0.1v13.7c0,0.5-0.4,0.9-0.8,0.9l0,0H111v-6c0-0.5-0.3-0.9-0.8-0.9s-0.9,0.3-0.9,0.8
		v0.1v6h-1.7v1.7h4.2c1.4,0,2.5-1.2,2.5-2.6V182l0,0c2-0.4,3.3-2.2,3.3-4.2v-5.2c0-2.3-1.8-4.2-4.2-4.3l0,0c1.4-1.9,1-4.6-0.9-6
		c-0.1-0.1-0.2-0.2-0.4-0.3c-0.3-0.2-0.6-0.3-0.9-0.4h-0.1C110.9,161.6,110.5,161.6,110.2,161.6L110.2,161.6z"/>
	<g id="Group_64" transform="translate(813.186 437.078)">
		<circle id="Ellipse_48-3" class="st5" cx="-711.4" cy="-135.6" r="12.5"/>
		<g id="Page-1-3" transform="translate(15.503 6.739) rotate(90)">
			<g id="Dribbble-Light-Preview-3" transform="translate(0 0)">
				<g id="icons-3" transform="translate(0)">
					<path id="arrow_up-_337_3" class="st6" d="M-136.9,729.7L-136.9,729.7c0.2-0.2,0.2-0.6,0-0.8l-4.7-4.8c-0.4-0.4-1.1-0.5-1.6,0
						l0,0l-4.7,4.9c-0.2,0.2-0.2,0.6,0,0.8s0.6,0.2,0.8,0l0,0l4.3-4.5c0.2-0.2,0.6-0.2,0.8,0l0,0l4.3,4.4
						C-137.4,729.9-137.1,729.9-136.9,729.7L-136.9,729.7L-136.9,729.7z"/>
				</g>
			</g>
		</g>
	</g>
</g>
<g class="circle">
	<g id="Component_47_1" transform="translate(1026 536)">
		<g transform="matrix(1, 0, 0, 1, -302, -388)">
			<g id="Ellipse_74-2" transform="translate(302 388)">
				<path class="st1" d="M-539-55.5c0,51.1-41.4,92.5-92.5,92.5c-36,0-67.2-20.6-82.5-50.6c-0.6-1.1-1.1-2.3-1.7-3.5
					c-5.4-11.7-8.3-24.7-8.3-38.4c0-11.5,2.1-22.4,5.9-32.5c8.7-23.2,26.5-42,49.1-52c7.9-3.5,16.4-6,25.3-7.1
					c4-0.5,8.1-0.8,12.2-0.8c10.6,0,20.7,1.8,30.2,5c2.1,0.7,4.2,1.6,6.3,2.5c8.7,3.7,16.6,8.7,23.7,14.7l0,0
					C-551.5-108.8-539-83.6-539-55.5z"/>
				<circle class="st2" cx="-631.5" cy="-55.5" r="87.5"/>
			</g>
		</g>
		<g class="st3">
			<path class="st0" d="M-660.4-56l-1.1-3.2h-4.4L-667-56h-2l4.2-11.5h2.1l4.2,11.5H-660.4z M-662-60.8l-1.1-3.1
				c0-0.1-0.1-0.3-0.2-0.6s-0.2-0.5-0.2-0.8s-0.1-0.5-0.2-0.7c-0.1,0.2-0.1,0.5-0.2,0.7c-0.1,0.3-0.1,0.5-0.2,0.7s-0.1,0.4-0.2,0.5
				l-1.1,3.1h3.4V-60.8z"/>
			<path class="st0" d="M-653.6-55.8c-0.8,0-1.5-0.2-2.1-0.5s-1.1-0.8-1.4-1.5c-0.3-0.7-0.5-1.5-0.5-2.5c0-1.1,0.2-1.9,0.5-2.6
				c0.4-0.7,0.8-1.2,1.5-1.5c0.6-0.3,1.3-0.5,2.2-0.5c0.5,0,1,0.1,1.4,0.2s0.8,0.2,1.1,0.4l-0.5,1.5c-0.3-0.1-0.6-0.2-1-0.3
				c-0.3-0.1-0.7-0.1-1-0.1c-0.5,0-0.9,0.1-1.3,0.3s-0.6,0.6-0.8,1s-0.2,1-0.2,1.6s0.1,1.2,0.2,1.6c0.2,0.4,0.4,0.8,0.7,1
				s0.7,0.3,1.2,0.3s0.9-0.1,1.3-0.2s0.7-0.3,1.1-0.4v1.6c-0.3,0.2-0.7,0.3-1.1,0.4S-653.1-55.8-653.6-55.8z"/>
			<path class="st0" d="M-645.8-64.8c1.1,0,1.9,0.2,2.5,0.7s0.8,1.2,0.8,2.3v5.8h-1.3l-0.4-1.2h-0.1c-0.2,0.3-0.5,0.6-0.8,0.8
				s-0.6,0.4-0.9,0.5c-0.3,0.1-0.8,0.2-1.2,0.2c-0.5,0-1-0.1-1.4-0.3s-0.7-0.5-1-0.9s-0.4-0.9-0.4-1.5c0-0.9,0.3-1.6,1-2
				s1.7-0.7,3-0.7l1.5-0.1v-0.5c0-0.6-0.1-1-0.4-1.3c-0.3-0.3-0.7-0.4-1.2-0.4c-0.4,0-0.9,0.1-1.3,0.2s-0.8,0.3-1.2,0.5l-0.6-1.3
				c0.4-0.2,0.9-0.4,1.4-0.5S-646.4-64.8-645.8-64.8z M-644.3-60.1h-1.1c-0.9,0-1.6,0.2-1.9,0.5c-0.4,0.3-0.6,0.7-0.6,1.2
				c0,0.4,0.1,0.7,0.4,0.9c0.3,0.2,0.6,0.3,1,0.3c0.6,0,1.2-0.2,1.6-0.5c0.4-0.4,0.6-0.9,0.6-1.6V-60.1z"/>
			<path class="st0" d="M-637-55.8c-1,0-1.9-0.4-2.5-1.1c-0.6-0.8-0.9-1.9-0.9-3.3c0-1.5,0.3-2.6,0.9-3.4s1.5-1.1,2.5-1.1
				c0.4,0,0.8,0.1,1.1,0.2s0.6,0.3,0.8,0.5c0.2,0.2,0.4,0.4,0.6,0.7h0.1c0-0.2-0.1-0.4-0.1-0.7c0-0.3-0.1-0.6-0.1-0.8v-3.1h1.8V-56
				h-1.4l-0.3-1.2h-0.1c-0.2,0.2-0.4,0.5-0.6,0.7c-0.2,0.2-0.5,0.4-0.8,0.5C-636.2-55.9-636.5-55.8-637-55.8z M-636.5-57.3
				c0.8,0,1.3-0.2,1.7-0.7c0.3-0.5,0.5-1.1,0.5-2v-0.2c0-1-0.2-1.7-0.5-2.2s-0.9-0.8-1.7-0.8c-0.7,0-1.2,0.3-1.5,0.8
				s-0.5,1.3-0.5,2.2s0.2,1.7,0.5,2.2C-637.6-57.6-637.1-57.3-636.5-57.3z"/>
			<path class="st0" d="M-626.5-64.8c0.8,0,1.4,0.2,2,0.5s1,0.8,1.3,1.4s0.4,1.3,0.4,2.1v1h-5.8c0,0.8,0.2,1.5,0.7,1.9
				s1,0.7,1.8,0.7c0.6,0,1-0.1,1.5-0.2s0.9-0.3,1.4-0.5v1.5c-0.4,0.2-0.9,0.4-1.3,0.4s-1,0.1-1.6,0.1c-0.8,0-1.6-0.2-2.2-0.5
				c-0.6-0.3-1.1-0.8-1.5-1.5s-0.5-1.5-0.5-2.4c0-1,0.2-1.8,0.5-2.5s0.8-1.2,1.4-1.5S-627.3-64.8-626.5-64.8z M-626.5-63.4
				c-0.6,0-1,0.2-1.4,0.6c-0.4,0.4-0.6,0.9-0.6,1.6h3.9c0-0.4-0.1-0.8-0.2-1.1s-0.3-0.6-0.6-0.8S-626-63.4-626.5-63.4z"/>
			<path class="st0" d="M-610.9-64.8c1,0,1.7,0.2,2.2,0.8s0.7,1.3,0.7,2.4v5.7h-1.8v-5.3c0-0.7-0.1-1.2-0.4-1.5s-0.6-0.5-1.2-0.5
				c-0.7,0-1.3,0.2-1.6,0.7s-0.5,1.1-0.5,2v4.6h-1.8v-5.3c0-0.4-0.1-0.8-0.2-1.1s-0.3-0.5-0.5-0.7s-0.5-0.2-0.9-0.2
				c-0.5,0-0.9,0.1-1.2,0.3s-0.5,0.6-0.6,1s-0.2,1-0.2,1.6v4.3h-1.8v-8.6h1.4l0.3,1.2h0.1c0.2-0.3,0.4-0.6,0.7-0.7
				c0.3-0.1,0.6-0.3,0.9-0.4s0.7-0.1,1-0.1c0.6,0,1.2,0.1,1.6,0.3s0.8,0.6,1,1h0.1c0.3-0.5,0.6-0.8,1.1-1S-611.5-64.8-610.9-64.8z"
				/>
			<path class="st0" d="M-604.5-68c0.3,0,0.5,0.1,0.7,0.2s0.3,0.4,0.3,0.8s-0.1,0.6-0.3,0.8s-0.4,0.2-0.7,0.2s-0.5-0.1-0.7-0.2
				s-0.3-0.4-0.3-0.8s0.1-0.6,0.3-0.8S-604.8-68-604.5-68z M-603.6-64.6v8.6h-1.8v-8.6H-603.6z"/>
			<path class="st0" d="M-597.6-64.8c1.1,0,1.9,0.2,2.5,0.7s0.8,1.2,0.8,2.3v5.8h-1.3l-0.4-1.2h-0.1c-0.2,0.3-0.5,0.6-0.8,0.8
				s-0.6,0.4-0.9,0.5s-0.8,0.2-1.2,0.2c-0.5,0-1-0.1-1.4-0.3s-0.7-0.5-1-0.9s-0.4-0.9-0.4-1.5c0-0.9,0.3-1.6,1-2s1.7-0.7,3-0.7
				l1.5-0.1v-0.5c0-0.6-0.1-1-0.4-1.3s-0.7-0.4-1.2-0.4c-0.4,0-0.9,0.1-1.3,0.2s-0.8,0.3-1.2,0.5L-601-64c0.4-0.2,0.9-0.4,1.4-0.5
				S-598.2-64.8-597.6-64.8z M-596.1-60.1h-1.1c-0.9,0-1.6,0.2-1.9,0.5s-0.6,0.7-0.6,1.2c0,0.4,0.1,0.7,0.4,0.9s0.6,0.3,1,0.3
				c0.6,0,1.2-0.2,1.6-0.5s0.6-0.9,0.6-1.6V-60.1z"/>
		</g>
	</g>
	<path class="st4" d="M431,395c0,0.2,0,0.3,0,0.5c0,1.8-0.2,3.5-0.4,5.3c-0.7,4.6-2.3,8.9-4.5,12.8c-3.1,5.4-7.6,9.9-12.9,13.2
		c-5.6,3.4-12.1,5.3-19.1,5.3c-18.3,0-33.5-13.3-36.5-30.8c-0.3-1.7-0.5-3.5-0.5-5.3c0-0.3,0-0.6,0-0.9c0-20.4,16.6-37,37-37
		c3.5,0,7,0.5,10.2,1.4c10.5,3,19,10.5,23.5,20.2C429.8,384.3,431,389.5,431,395z"/>
	<path id="Icon_map-university" class="st7" d="M395,395.1c-5,0-9.2,1.4-11.9,3.7v4.2H407v-4.2C404.2,396.5,400,395.1,395,395.1z
		 M417,392l-22-10.1L373,392l3.7,1.7v2.6c-0.9,0.2-0.9,0.7-0.9,1.2c0,0.4,0.1,0.7,0.3,1l-1.3,2.7h4.5l-1.2-2.7
		c0.2-0.3,0.4-0.6,0.4-0.9c0-0.6-0.8-1.1-0.8-1.3v-2.1l4.6,1.9c2.8-2.4,7.6-3.9,12.9-3.9s10.1,1.5,12.9,3.9L417,392z"/>
	<g id="Group_62" transform="translate(1106.186 658.078)">
		<circle id="Ellipse_48-4" class="st5" cx="-711.7" cy="-135.6" r="12.5"/>
		<g id="Page-1-4" transform="translate(15.503 6.739) rotate(90)">
			<g id="Dribbble-Light-Preview-4" transform="translate(0 0)">
				<g id="icons-4" transform="translate(0)">
					<path id="arrow_up-_337_4" class="st6" d="M-136.9,730L-136.9,730c0.2-0.2,0.2-0.6,0-0.8l-4.7-4.8c-0.4-0.4-1.1-0.5-1.6,0l0,0
						l-4.7,4.9c-0.2,0.2-0.2,0.6,0,0.8s0.6,0.2,0.8,0l0,0l4.3-4.5c0.2-0.2,0.6-0.2,0.8,0l0,0l4.3,4.4
						C-137.4,730.2-137.1,730.2-136.9,730L-136.9,730L-136.9,730z"/>
				</g>
			</g>
		</g>
	</g>
</g>
<g class="circle">
	<path class="st1" d="M404.2,359.4c-3.2-0.9-6.7-1.4-10.2-1.4c-20.4,0-37,16.6-37,37c0,0.3,0,0.6,0,0.9c-22.6,10-40.4,28.8-49.1,52
		c-18.5,10.7-36.1,6.7-48.5,0.6c-8.7-23.6-26.6-42.7-49.4-52.8c0-0.3,0-0.5,0-0.8c0-20.4-16.6-37-37-37c-3.6,0-7.1,0.5-10.5,1.5
		c-2.9-10-2.3-20-0.8-27.8c19.7-17,32.2-42.1,32.2-70.2c0-8.2-1.1-16.1-3.1-23.7c14.2-31.4,48.4-30.3,58.6-29.2l0,0
		c10.5,4.1,22,6.4,33.9,6.4s23.3-2.2,33.8-6.3c-0.1,0.2-0.2,0.3-0.2,0.3s42.2-7.8,60,25.8c-2.6,8.5-3.9,17.4-3.9,26.7
		c0,27.8,12.2,52.7,31.6,69.7C406.4,339.1,407.1,349.2,404.2,359.4z"/>
	<g id="Component_65_1" transform="translate(904 391)">
		<g class="st3">
			<path class="st0" d="M-671.1-142.1c1.1,0,2,0.1,2.7,0.4c0.7,0.3,1.2,0.7,1.6,1.2c0.3,0.5,0.5,1.2,0.5,2c0,0.6-0.1,1-0.3,1.5
				c-0.2,0.4-0.5,0.8-0.8,1.1s-0.7,0.5-1.1,0.7l3.6,5.3h-2.9l-2.9-4.7h-1.4v4.7h-2.6V-142L-671.1-142.1L-671.1-142.1z M-671.3-140
				h-0.8v3.3h0.8c0.9,0,1.5-0.1,1.8-0.4c0.4-0.3,0.6-0.7,0.6-1.3s-0.2-1-0.6-1.2C-669.9-139.9-670.5-140-671.3-140z"/>
			<path class="st0" d="M-655.2-134.7c0,0.8-0.1,1.5-0.3,2.1s-0.5,1.1-0.9,1.5s-0.9,0.7-1.4,0.9c-0.6,0.2-1.2,0.3-1.9,0.3
				s-1.3-0.1-1.8-0.3s-1-0.5-1.4-0.9s-0.7-0.9-0.9-1.5s-0.3-1.3-0.3-2.1c0-1,0.2-1.9,0.5-2.6s0.9-1.3,1.6-1.6s1.5-0.6,2.4-0.6
				s1.6,0.2,2.3,0.6c0.7,0.4,1.2,0.9,1.6,1.6C-655.4-136.6-655.2-135.7-655.2-134.7z M-661.6-134.7c0,0.6,0.1,1.1,0.2,1.5
				s0.3,0.7,0.6,0.9s0.7,0.3,1.1,0.3c0.4,0,0.8-0.1,1.1-0.3s0.5-0.5,0.6-0.9s0.2-0.9,0.2-1.5s-0.1-1.1-0.2-1.5
				c-0.1-0.4-0.3-0.7-0.6-0.9s-0.7-0.3-1.1-0.3c-0.7,0-1.2,0.2-1.5,0.7C-661.5-136.3-661.6-135.6-661.6-134.7z"/>
			<path class="st0" d="M-650.6-130h-2.5v-12.9h2.5V-130z"/>
			<path class="st0" d="M-644.1-139.5c0.9,0,1.6,0.2,2.2,0.5s1.1,0.8,1.4,1.4c0.3,0.6,0.5,1.4,0.5,2.3v1.2h-6c0,0.7,0.2,1.3,0.6,1.7
				c0.4,0.4,1,0.6,1.7,0.6c0.6,0,1.1-0.1,1.6-0.2c0.5-0.1,1-0.3,1.5-0.5v2c-0.5,0.2-0.9,0.4-1.4,0.5s-1.1,0.2-1.8,0.2
				c-0.9,0-1.8-0.2-2.5-0.5s-1.3-0.9-1.7-1.6c-0.4-0.7-0.6-1.6-0.6-2.7c0-1.1,0.2-2,0.6-2.7c0.4-0.7,0.9-1.3,1.5-1.6
				S-645-139.5-644.1-139.5z M-644.1-137.7c-0.5,0-0.9,0.2-1.2,0.5s-0.5,0.8-0.6,1.5h3.6c0-0.4-0.1-0.7-0.2-1
				c-0.1-0.3-0.3-0.5-0.6-0.7C-643.4-137.6-643.7-137.7-644.1-137.7z"/>
			<path class="st0" d="M-631.4-132.8c0,0.6-0.1,1.2-0.4,1.6c-0.3,0.4-0.7,0.8-1.3,1s-1.3,0.3-2.2,0.3c-0.6,0-1.2,0-1.7-0.1
				s-0.9-0.2-1.4-0.4v-2.1c0.5,0.2,1,0.4,1.6,0.6c0.6,0.1,1.1,0.2,1.5,0.2c0.5,0,0.8-0.1,1.1-0.2c0.2-0.1,0.3-0.3,0.3-0.6
				c0-0.2,0-0.3-0.1-0.4c-0.1-0.1-0.3-0.3-0.6-0.4c-0.3-0.2-0.7-0.4-1.3-0.6c-0.6-0.2-1.1-0.5-1.4-0.7c-0.4-0.2-0.6-0.5-0.8-0.9
				c-0.2-0.3-0.3-0.8-0.3-1.3c0-0.9,0.3-1.5,1-1.9s1.6-0.7,2.7-0.7c0.6,0,1.1,0.1,1.6,0.2s1.1,0.3,1.6,0.6l-0.8,1.8
				c-0.5-0.2-0.9-0.4-1.3-0.5c-0.4-0.1-0.8-0.2-1.2-0.2s-0.7,0-0.8,0.1s-0.3,0.3-0.3,0.5c0,0.1,0,0.3,0.1,0.4
				c0.1,0.1,0.3,0.2,0.6,0.4c0.3,0.1,0.7,0.3,1.2,0.5s1,0.4,1.4,0.7c0.4,0.2,0.7,0.5,0.9,0.9C-631.5-133.8-631.4-133.3-631.4-132.8z
				"/>
			<path class="st0" d="M-623.8-142.9c0.4,0,0.7,0.1,1,0.3s0.4,0.5,0.4,1s-0.1,0.8-0.4,1s-0.6,0.3-1,0.3s-0.7-0.1-1-0.3
				s-0.4-0.5-0.4-1s0.1-0.8,0.4-1C-624.5-142.8-624.1-142.9-623.8-142.9z M-622.5-139.3v9.3h-2.5v-9.3H-622.5z"/>
			<path class="st0" d="M-614.6-139.5c1,0,1.8,0.3,2.4,0.8c0.6,0.5,0.9,1.4,0.9,2.6v6.1h-2.5v-5.4c0-0.7-0.1-1.2-0.4-1.5
				c-0.2-0.3-0.6-0.5-1.1-0.5c-0.8,0-1.3,0.3-1.6,0.8s-0.4,1.3-0.4,2.3v4.4h-2.5v-9.3h1.9l0.3,1.2h0.1c0.2-0.3,0.4-0.6,0.7-0.8
				s0.6-0.3,1-0.4S-615-139.5-614.6-139.5z"/>
			<path class="st0" d="M-593-136.1c0,0.9-0.1,1.8-0.3,2.6s-0.6,1.4-1.1,2s-1.1,1-1.8,1.3s-1.6,0.4-2.6,0.4s-1.8-0.1-2.6-0.4
				c-0.7-0.3-1.3-0.7-1.8-1.3s-0.8-1.2-1.1-2s-0.3-1.6-0.3-2.6c0-1.3,0.2-2.3,0.6-3.3s1-1.7,1.9-2.2s1.9-0.8,3.3-0.8
				c1.3,0,2.4,0.3,3.2,0.8s1.5,1.2,1.9,2.2S-593-137.3-593-136.1z M-601.9-136.1c0,0.8,0.1,1.6,0.3,2.2s0.5,1.1,1,1.4
				c0.5,0.3,1,0.5,1.8,0.5c0.7,0,1.3-0.2,1.8-0.5s0.8-0.8,1-1.4c0.2-0.6,0.3-1.3,0.3-2.2c0-1.3-0.2-2.3-0.7-3s-1.3-1.1-2.3-1.1
				c-0.7,0-1.3,0.2-1.8,0.5s-0.8,0.8-1,1.4S-601.9-136.9-601.9-136.1z"/>
			<path class="st0" d="M-583.5-130h-7v-12.1h7v2.1h-4.4v2.7h4.1v2.1h-4.1v3.1h4.4V-130z"/>
			<path class="st0" d="M-575.8-140.2c-0.5,0-0.9,0.1-1.3,0.3c-0.4,0.2-0.7,0.5-1,0.8c-0.3,0.4-0.5,0.8-0.6,1.3s-0.2,1.1-0.2,1.7
				c0,0.9,0.1,1.6,0.3,2.2c0.2,0.6,0.5,1.1,1,1.4s1,0.5,1.7,0.5c0.5,0,1-0.1,1.5-0.2s1-0.3,1.6-0.5v2.2c-0.5,0.2-1.1,0.4-1.6,0.5
				s-1.1,0.1-1.8,0.1c-1.3,0-2.3-0.3-3.1-0.8s-1.4-1.2-1.8-2.2c-0.4-0.9-0.6-2-0.6-3.3c0-0.9,0.1-1.8,0.4-2.5s0.6-1.4,1.1-2
				s1.1-1,1.8-1.3s1.5-0.5,2.4-0.5c0.6,0,1.2,0.1,1.8,0.2c0.6,0.2,1.2,0.4,1.7,0.6l-0.8,2.1c-0.5-0.2-0.9-0.4-1.4-0.6
				S-575.4-140.2-575.8-140.2z"/>
			<path class="st0" d="M-560.1-136.2c0,1.4-0.3,2.5-0.8,3.4s-1.3,1.6-2.3,2.1s-2.2,0.7-3.6,0.7h-3.4v-12.1h3.8
				c1.3,0,2.4,0.2,3.3,0.7s1.7,1.1,2.2,2S-560.1-137.5-560.1-136.2z M-562.8-136.1c0-0.9-0.1-1.6-0.4-2.2s-0.7-1-1.2-1.3
				s-1.1-0.4-1.9-0.4h-1.4v7.9h1.1c1.3,0,2.2-0.3,2.8-1C-563.1-133.8-562.8-134.8-562.8-136.1z"/>
		</g>
		<g class="st3">
			<path class="st0" d="M-673-107h-2.6v-10h-3.3v-2.1h9.2v2.1h-3.3L-673-107L-673-107z"/>
			<path class="st0" d="M-663.2-113.8h4.8v6.3c-0.6,0.2-1.3,0.4-2,0.5s-1.5,0.2-2.3,0.2c-1.2,0-2.2-0.2-3.1-0.7s-1.5-1.2-1.9-2.1
				s-0.7-2.1-0.7-3.4s0.2-2.4,0.7-3.3s1.2-1.6,2.1-2.2c0.9-0.5,2.1-0.8,3.5-0.8c0.6,0,1.3,0.1,1.9,0.2s1.2,0.3,1.7,0.5l-0.9,2.1
				c-0.4-0.2-0.8-0.3-1.3-0.5s-1-0.2-1.5-0.2c-0.7,0-1.4,0.2-1.9,0.5c-0.6,0.3-1,0.8-1.3,1.4s-0.5,1.3-0.5,2.2
				c0,0.8,0.1,1.5,0.3,2.1s0.6,1.1,1,1.4s1.1,0.5,1.8,0.5c0.4,0,0.7,0,0.9-0.1c0.3,0,0.5-0.1,0.7-0.1v-2.5h-2.3v-2H-663.2z"/>
			<path class="st0" d="M-650.1-119.1l-4.5,12.1h-2.3l4.5-12.1H-650.1z"/>
			<path class="st0" d="M-643.9-113.8h4.8v6.3c-0.6,0.2-1.3,0.4-2,0.5s-1.5,0.2-2.3,0.2c-1.2,0-2.2-0.2-3.1-0.7s-1.5-1.2-1.9-2.1
				s-0.7-2.1-0.7-3.4s0.2-2.4,0.7-3.3s1.2-1.6,2.1-2.2c0.9-0.5,2.1-0.8,3.5-0.8c0.6,0,1.3,0.1,1.9,0.2s1.2,0.3,1.7,0.5l-0.9,2.1
				c-0.4-0.2-0.8-0.3-1.3-0.5s-1-0.2-1.5-0.2c-0.7,0-1.4,0.2-1.9,0.5c-0.6,0.3-1,0.8-1.3,1.4s-0.5,1.3-0.5,2.2
				c0,0.8,0.1,1.5,0.3,2.1s0.6,1.1,1,1.4s1.1,0.5,1.8,0.5c0.4,0,0.7,0,0.9-0.1c0.3,0,0.5-0.1,0.7-0.1v-2.5h-2.3v-2H-643.9z"/>
			<path class="st0" d="M-626.1-113.2c0,1.4-0.3,2.5-0.8,3.4s-1.3,1.6-2.3,2.1s-2.2,0.7-3.6,0.7h-3.4v-12.1h3.8
				c1.3,0,2.4,0.2,3.3,0.7s1.7,1.1,2.2,2S-626.1-114.5-626.1-113.2z M-628.8-113.1c0-0.9-0.1-1.6-0.4-2.2s-0.7-1-1.2-1.3
				s-1.1-0.4-1.9-0.4h-1.4v7.9h1.1c1.3,0,2.2-0.3,2.8-1C-629.1-110.8-628.8-111.8-628.8-113.1z"/>
			<path class="st0" d="M-615.3-119.1c1.6,0,2.7,0.3,3.4,1s1.1,1.6,1.1,2.8c0,0.5-0.1,1-0.2,1.5c-0.2,0.5-0.4,0.9-0.8,1.3
				c-0.4,0.4-0.8,0.7-1.4,0.9s-1.3,0.3-2.2,0.3h-1.1v4.3h-2.6v-12.1L-615.3-119.1L-615.3-119.1z M-615.4-117h-1.2v3.6h0.8
				c0.5,0,0.9-0.1,1.3-0.2c0.4-0.1,0.6-0.3,0.8-0.6c0.2-0.3,0.3-0.6,0.3-1c0-0.6-0.2-1-0.5-1.3C-614.2-116.9-614.7-117-615.4-117z"
				/>
			<path class="st0" d="M-603.5-116.5c0.1,0,0.3,0,0.4,0s0.3,0,0.4,0.1l-0.2,2.4c-0.1,0-0.2,0-0.4-0.1s-0.3,0-0.4,0
				c-0.3,0-0.6,0-1,0.1c-0.3,0.1-0.6,0.2-0.8,0.4s-0.4,0.4-0.6,0.7c-0.1,0.3-0.2,0.7-0.2,1.1v4.7h-2.5v-9.3h1.9l0.4,1.6h0.1
				c0.2-0.3,0.4-0.6,0.7-0.9s0.6-0.5,0.9-0.6C-604.3-116.4-603.9-116.5-603.5-116.5z"/>
			<path class="st0" d="M-592.6-111.7c0,0.8-0.1,1.5-0.3,2.1s-0.5,1.1-0.9,1.5s-0.9,0.7-1.4,0.9c-0.6,0.2-1.2,0.3-1.9,0.3
				s-1.3-0.1-1.8-0.3s-1-0.5-1.4-0.9s-0.7-0.9-0.9-1.5s-0.3-1.3-0.3-2.1c0-1,0.2-1.9,0.5-2.6s0.9-1.3,1.6-1.6s1.5-0.6,2.4-0.6
				s1.6,0.2,2.3,0.6s1.2,0.9,1.6,1.6S-592.6-112.7-592.6-111.7z M-599-111.7c0,0.6,0.1,1.1,0.2,1.5s0.3,0.7,0.6,0.9
				c0.3,0.2,0.7,0.3,1.1,0.3c0.4,0,0.8-0.1,1.1-0.3c0.3-0.2,0.5-0.5,0.6-0.9s0.2-0.9,0.2-1.5s-0.1-1.1-0.2-1.5
				c-0.1-0.4-0.3-0.7-0.6-0.9s-0.7-0.3-1.1-0.3c-0.7,0-1.2,0.2-1.5,0.7S-599-112.6-599-111.7z"/>
			<path class="st0" d="M-586.7-106.8c-0.9,0-1.7-0.2-2.3-0.5s-1.1-0.9-1.5-1.6c-0.3-0.7-0.5-1.6-0.5-2.7s0.2-2.1,0.6-2.8
				s0.9-1.2,1.6-1.6s1.5-0.5,2.4-0.5c0.6,0,1.2,0.1,1.7,0.2s0.9,0.3,1.2,0.4l-0.7,2c-0.4-0.2-0.8-0.3-1.1-0.4s-0.7-0.2-1-0.2
				c-0.4,0-0.8,0.1-1.1,0.3c-0.3,0.2-0.5,0.5-0.7,0.9c-0.1,0.4-0.2,0.9-0.2,1.6c0,0.6,0.1,1.1,0.2,1.5c0.2,0.4,0.4,0.7,0.7,0.9
				s0.7,0.3,1.1,0.3c0.5,0,1-0.1,1.4-0.2s0.8-0.3,1.2-0.6v2.2c-0.4,0.2-0.8,0.4-1.2,0.5C-585.5-106.9-586.1-106.8-586.7-106.8z"/>
			<path class="st0" d="M-577.9-116.5c0.9,0,1.6,0.2,2.2,0.5s1.1,0.8,1.4,1.4c0.3,0.6,0.5,1.4,0.5,2.3v1.2h-6c0,0.7,0.2,1.3,0.6,1.7
				c0.4,0.4,1,0.6,1.7,0.6c0.6,0,1.1-0.1,1.6-0.2s1-0.3,1.5-0.5v2c-0.5,0.2-0.9,0.4-1.4,0.5s-1.1,0.2-1.8,0.2
				c-0.9,0-1.8-0.2-2.5-0.5s-1.3-0.9-1.7-1.6s-0.6-1.6-0.6-2.7s0.2-2,0.6-2.7c0.4-0.7,0.9-1.3,1.5-1.6S-578.8-116.5-577.9-116.5z
				 M-577.9-114.7c-0.5,0-0.9,0.2-1.2,0.5s-0.5,0.8-0.6,1.5h3.6c0-0.4-0.1-0.7-0.2-1c-0.1-0.3-0.3-0.5-0.6-0.7
				C-577.2-114.6-577.5-114.7-577.9-114.7z"/>
			<path class="st0" d="M-565.2-109.8c0,0.6-0.1,1.2-0.4,1.6s-0.7,0.8-1.3,1s-1.3,0.3-2.2,0.3c-0.6,0-1.2,0-1.7-0.1
				s-0.9-0.2-1.4-0.4v-2.1c0.5,0.2,1,0.4,1.6,0.6s1.1,0.2,1.5,0.2c0.5,0,0.8-0.1,1.1-0.2s0.3-0.3,0.3-0.6c0-0.2,0-0.3-0.1-0.4
				s-0.3-0.3-0.6-0.4c-0.3-0.2-0.7-0.4-1.3-0.6s-1.1-0.5-1.4-0.7c-0.4-0.2-0.7-0.5-0.8-0.9c-0.2-0.3-0.3-0.8-0.3-1.3
				c0-0.9,0.3-1.5,1-1.9s1.6-0.7,2.7-0.7c0.6,0,1.1,0.1,1.6,0.2s1.1,0.3,1.6,0.6l-0.8,1.8c-0.5-0.2-0.9-0.4-1.3-0.5
				c-0.4-0.1-0.8-0.2-1.2-0.2s-0.7,0-0.8,0.1c-0.2,0.1-0.3,0.3-0.3,0.5c0,0.1,0,0.3,0.1,0.4s0.3,0.2,0.6,0.4
				c0.3,0.1,0.7,0.3,1.2,0.5s1,0.4,1.4,0.7s0.7,0.5,0.9,0.9S-565.2-110.3-565.2-109.8z"/>
			<path class="st0" d="M-556.8-109.8c0,0.6-0.1,1.2-0.4,1.6s-0.7,0.8-1.3,1s-1.3,0.3-2.2,0.3c-0.6,0-1.2,0-1.7-0.1
				s-0.9-0.2-1.4-0.4v-2.1c0.5,0.2,1,0.4,1.6,0.6s1.1,0.2,1.5,0.2c0.5,0,0.8-0.1,1.1-0.2s0.3-0.3,0.3-0.6c0-0.2,0-0.3-0.1-0.4
				s-0.3-0.3-0.6-0.4c-0.3-0.2-0.7-0.4-1.3-0.6s-1.1-0.5-1.4-0.7c-0.4-0.2-0.7-0.5-0.8-0.9c-0.2-0.3-0.3-0.8-0.3-1.3
				c0-0.9,0.3-1.5,1-1.9s1.6-0.7,2.7-0.7c0.6,0,1.1,0.1,1.6,0.2s1.1,0.3,1.6,0.6l-0.8,1.8c-0.5-0.2-0.9-0.4-1.3-0.5
				c-0.4-0.1-0.8-0.2-1.2-0.2s-0.7,0-0.8,0.1c-0.2,0.1-0.3,0.3-0.3,0.5c0,0.1,0,0.3,0.1,0.4s0.3,0.2,0.6,0.4
				c0.3,0.1,0.7,0.3,1.2,0.5s1,0.4,1.4,0.7s0.7,0.5,0.9,0.9S-556.8-110.3-556.8-109.8z"/>
		</g>
		<g class="st3">
			<path class="st0" d="M-705.7-75v-10.7h1.2v9.6h4.7v1.1H-705.7z"/>
			<path class="st0" d="M-694.7-74.9c-1.2,0-2.1-0.4-2.8-1.1s-1-1.7-1-3s0.3-2.3,1-3.1c0.6-0.8,1.5-1.1,2.6-1.1c1,0,1.8,0.3,2.4,1
				c0.6,0.7,0.9,1.5,0.9,2.6v0.8h-5.5c0,0.9,0.3,1.7,0.7,2.1c0.5,0.5,1.1,0.7,1.9,0.7c0.9,0,1.7-0.2,2.6-0.5v1.1
				c-0.4,0.2-0.8,0.3-1.2,0.4C-693.7-74.9-694.1-74.9-694.7-74.9z M-695-82.2c-0.6,0-1.2,0.2-1.5,0.6s-0.6,1-0.7,1.7h4.2
				c0-0.8-0.2-1.4-0.5-1.8C-693.9-82-694.4-82.2-695-82.2z"/>
			<path class="st0" d="M-684.7-75l-0.2-1.1h-0.1c-0.4,0.5-0.8,0.8-1.2,1s-0.9,0.3-1.5,0.3c-0.8,0-1.4-0.2-1.9-0.6s-0.7-1-0.7-1.8
				c0-1.6,1.3-2.5,3.9-2.5h1.4v-0.5c0-0.6-0.1-1.1-0.4-1.4c-0.3-0.3-0.7-0.5-1.3-0.5c-0.7,0-1.4,0.2-2.3,0.6l-0.4-0.9
				c0.4-0.2,0.8-0.4,1.3-0.5s0.9-0.2,1.4-0.2c1,0,1.7,0.2,2.1,0.6c0.5,0.4,0.7,1.1,0.7,2v5.5H-684.7z M-687.5-75.9
				c0.8,0,1.4-0.2,1.8-0.6c0.4-0.4,0.6-1,0.6-1.7v-0.7l-1.2,0.1c-1,0-1.7,0.2-2.1,0.5c-0.4,0.3-0.6,0.7-0.6,1.2c0,0.4,0.1,0.8,0.4,1
				C-688.3-76-687.9-75.9-687.5-75.9z"/>
			<path class="st0" d="M-675.8-76.1L-675.8-76.1c-0.6,0.8-1.5,1.2-2.6,1.2c-1,0-1.9-0.4-2.4-1.1c-0.6-0.7-0.9-1.7-0.9-3.1
				c0-1.3,0.3-2.4,0.9-3.1s1.4-1.1,2.4-1.1c1.1,0,1.9,0.4,2.5,1.2h0.1l-0.1-0.6v-0.6v-3.3h1.2V-75h-1L-675.8-76.1z M-678.3-75.9
				c0.8,0,1.4-0.2,1.8-0.7c0.4-0.5,0.6-1.2,0.6-2.2V-79c0-1.1-0.2-1.9-0.6-2.4c-0.4-0.5-1-0.7-1.8-0.7c-0.7,0-1.3,0.3-1.6,0.8
				c-0.4,0.6-0.6,1.3-0.6,2.3s0.2,1.8,0.6,2.3S-679-75.9-678.3-75.9z"/>
			<path class="st0" d="M-663.3-75l-0.2-1.1h-0.1c-0.4,0.5-0.8,0.8-1.2,1s-0.9,0.3-1.5,0.3c-0.8,0-1.4-0.2-1.9-0.6s-0.7-1-0.7-1.8
				c0-1.6,1.3-2.5,3.9-2.5h1.4v-0.5c0-0.6-0.1-1.1-0.4-1.4c-0.3-0.3-0.7-0.5-1.3-0.5c-0.7,0-1.4,0.2-2.3,0.6l-0.4-0.9
				c0.4-0.2,0.8-0.4,1.3-0.5s0.9-0.2,1.4-0.2c1,0,1.7,0.2,2.1,0.6c0.5,0.4,0.7,1.1,0.7,2v5.5H-663.3z M-666-75.9
				c0.8,0,1.4-0.2,1.8-0.6c0.4-0.4,0.6-1,0.6-1.7v-0.7l-1.2,0.1c-1,0-1.7,0.2-2.1,0.5c-0.4,0.3-0.6,0.7-0.6,1.2c0,0.4,0.1,0.8,0.4,1
				C-666.9-76-666.5-75.9-666-75.9z"/>
			<path class="st0" d="M-654.7-77.2c0,0.7-0.3,1.3-0.8,1.7s-1.3,0.6-2.3,0.6c-1.1,0-1.9-0.2-2.5-0.5v-1.1c0.4,0.2,0.8,0.3,1.2,0.5
				c0.4,0.1,0.9,0.2,1.3,0.2c0.6,0,1.1-0.1,1.5-0.3c0.3-0.2,0.5-0.5,0.5-0.9c0-0.3-0.1-0.6-0.4-0.8c-0.3-0.2-0.8-0.5-1.6-0.8
				c-0.7-0.3-1.3-0.5-1.6-0.7s-0.5-0.4-0.7-0.7c-0.2-0.3-0.2-0.6-0.2-0.9c0-0.7,0.3-1.2,0.8-1.5c0.5-0.4,1.3-0.6,2.2-0.6
				s1.7,0.2,2.5,0.5l-0.4,1c-0.8-0.3-1.5-0.5-2.2-0.5c-0.6,0-1,0.1-1.3,0.3s-0.4,0.4-0.4,0.7c0,0.2,0.1,0.4,0.2,0.5
				c0.1,0.2,0.3,0.3,0.5,0.4s0.7,0.3,1.4,0.6c1,0.3,1.6,0.7,1.9,1C-654.9-78.2-654.7-77.7-654.7-77.2z"/>
			<path class="st0" d="M-643.9-75l-3.6-9.5h-0.1c0.1,0.8,0.1,1.6,0.1,2.7v6.8h-1.1v-10.7h1.9l3.4,8.8h0.1l3.4-8.8h1.9V-75h-1.2
				v-6.9c0-0.8,0-1.7,0.1-2.6h-0.1l-3.7,9.5H-643.9z"/>
			<path class="st0" d="M-631.9-74.9c-1.2,0-2.1-0.4-2.8-1.1s-1-1.7-1-3s0.3-2.3,1-3.1c0.6-0.8,1.5-1.1,2.6-1.1c1,0,1.8,0.3,2.4,1
				c0.6,0.7,0.9,1.5,0.9,2.6v0.8h-5.5c0,0.9,0.3,1.7,0.7,2.1c0.5,0.5,1.1,0.7,1.9,0.7c0.9,0,1.7-0.2,2.6-0.5v1.1
				c-0.4,0.2-0.8,0.3-1.2,0.4C-630.9-74.9-631.3-74.9-631.9-74.9z M-632.2-82.2c-0.6,0-1.2,0.2-1.5,0.6c-0.4,0.4-0.6,1-0.7,1.7h4.2
				c0-0.8-0.2-1.4-0.5-1.8C-631.1-82-631.6-82.2-632.2-82.2z"/>
			<path class="st0" d="M-616.6-75v-5.2c0-0.6-0.1-1.1-0.4-1.4c-0.3-0.3-0.7-0.5-1.3-0.5c-0.8,0-1.3,0.2-1.7,0.7s-0.5,1.1-0.5,2v4.5
				h-1.2v-5.2c0-0.6-0.1-1.1-0.4-1.4c-0.3-0.3-0.7-0.5-1.3-0.5c-0.8,0-1.3,0.2-1.7,0.7s-0.5,1.2-0.5,2.2v4.2h-1.2v-8h1l0.2,1.1h0.1
				c0.2-0.4,0.6-0.7,1-0.9c0.4-0.2,0.9-0.3,1.4-0.3c1.3,0,2.1,0.5,2.5,1.4h0.1c0.2-0.4,0.6-0.8,1-1s1-0.4,1.6-0.4
				c0.9,0,1.6,0.2,2,0.7c0.5,0.5,0.7,1.2,0.7,2.2v5.2L-616.6-75L-616.6-75z"/>
			<path class="st0" d="M-609.2-83.2c1.1,0,1.9,0.4,2.5,1.1s0.9,1.7,0.9,3.1s-0.3,2.3-0.9,3.1c-0.6,0.7-1.4,1.1-2.5,1.1
				c-0.5,0-1-0.1-1.4-0.3c-0.4-0.2-0.8-0.5-1.1-0.9h-0.1l-0.3,1h-0.9v-11.4h1.2v2.8c0,0.6,0,1.2-0.1,1.7h0.1
				C-611.1-82.8-610.3-83.2-609.2-83.2z M-609.3-82.1c-0.8,0-1.4,0.2-1.8,0.7c-0.4,0.5-0.5,1.3-0.5,2.4s0.2,1.9,0.6,2.4
				c0.4,0.5,1,0.7,1.8,0.7c0.7,0,1.3-0.3,1.7-0.8S-607-78-607-79s-0.2-1.8-0.5-2.3S-608.6-82.1-609.3-82.1z"/>
			<path class="st0" d="M-600.3-74.9c-1.2,0-2.1-0.4-2.8-1.1s-1-1.7-1-3s0.3-2.3,1-3.1c0.6-0.8,1.5-1.1,2.6-1.1c1,0,1.8,0.3,2.4,1
				c0.6,0.7,0.9,1.5,0.9,2.6v0.8h-5.5c0,0.9,0.3,1.7,0.7,2.1c0.5,0.5,1.1,0.7,1.9,0.7c0.9,0,1.7-0.2,2.6-0.5v1.1
				c-0.4,0.2-0.8,0.3-1.2,0.4C-599.3-74.9-599.8-74.9-600.3-74.9z M-600.7-82.2c-0.6,0-1.2,0.2-1.5,0.6c-0.4,0.4-0.6,1-0.7,1.7h4.2
				c0-0.8-0.2-1.4-0.5-1.8C-599.5-82-600-82.2-600.7-82.2z"/>
			<path class="st0" d="M-591.6-83.2c0.4,0,0.7,0,1,0.1l-0.2,1.1c-0.3-0.1-0.6-0.1-0.9-0.1c-0.6,0-1.2,0.3-1.7,0.8s-0.7,1.2-0.7,2
				v4.3h-1.2v-8h1l0.1,1.5h0.1c0.3-0.5,0.7-0.9,1.1-1.2S-592.1-83.2-591.6-83.2z"/>
			<path class="st0" d="M-580.5-84.7c-1.2,0-2.1,0.4-2.8,1.2c-0.7,0.8-1,1.9-1,3.2c0,1.4,0.3,2.5,1,3.2c0.7,0.8,1.6,1.1,2.8,1.1
				c0.7,0,1.6-0.1,2.6-0.4v1.1c-0.7,0.3-1.7,0.4-2.7,0.4c-1.6,0-2.8-0.5-3.7-1.4c-0.9-1-1.3-2.3-1.3-4.1c0-1.1,0.2-2.1,0.6-2.9
				c0.4-0.8,1-1.5,1.8-1.9s1.7-0.7,2.8-0.7s2.1,0.2,2.9,0.6l-0.5,1.1C-578.9-84.6-579.7-84.7-580.5-84.7z"/>
			<path class="st0" d="M-568.9-79c0,1.3-0.3,2.3-1,3.1c-0.7,0.7-1.6,1.1-2.7,1.1c-0.7,0-1.4-0.2-1.9-0.5c-0.6-0.3-1-0.8-1.3-1.4
				s-0.5-1.4-0.5-2.2c0-1.3,0.3-2.3,1-3.1c0.7-0.7,1.6-1.1,2.7-1.1c1.1,0,2,0.4,2.7,1.1S-568.9-80.3-568.9-79z M-575-79
				c0,1,0.2,1.8,0.6,2.3c0.4,0.5,1,0.8,1.8,0.8s1.4-0.3,1.8-0.8c0.4-0.5,0.6-1.3,0.6-2.3s-0.2-1.8-0.6-2.3c-0.4-0.5-1-0.8-1.8-0.8
				s-1.4,0.3-1.8,0.8S-575-80.1-575-79z"/>
			<path class="st0" d="M-565.6-83v5.2c0,0.7,0.1,1.1,0.4,1.5c0.3,0.3,0.8,0.5,1.4,0.5c0.8,0,1.5-0.2,1.8-0.7
				c0.4-0.5,0.6-1.2,0.6-2.2V-83h1.2v8h-1l-0.2-1.1h-0.1c-0.2,0.4-0.6,0.7-1,0.9c-0.4,0.2-0.9,0.3-1.5,0.3c-1,0-1.7-0.2-2.2-0.7
				s-0.7-1.2-0.7-2.2V-83H-565.6z"/>
			<path class="st0" d="M-552.1-75v-5.2c0-0.7-0.1-1.1-0.4-1.5c-0.3-0.3-0.8-0.5-1.4-0.5c-0.8,0-1.5,0.2-1.8,0.7s-0.6,1.2-0.6,2.2
				v4.2h-1.2v-8h1l0.2,1.1h0.1c0.2-0.4,0.6-0.7,1-0.9c0.4-0.2,0.9-0.3,1.5-0.3c1,0,1.7,0.2,2.2,0.7s0.7,1.2,0.7,2.2v5.2h-1.3V-75z"
				/>
			<path class="st0" d="M-545.8-75.9c0.2,0,0.4,0,0.6,0c0.2,0,0.4-0.1,0.5-0.1v0.9c-0.1,0.1-0.3,0.1-0.6,0.2c-0.3,0-0.5,0.1-0.7,0.1
				c-1.6,0-2.3-0.8-2.3-2.5v-4.8h-1.2v-0.6l1.2-0.5l0.5-1.7h0.7v1.9h2.3v0.9h-2.3v4.7c0,0.5,0.1,0.9,0.3,1.1
				C-546.5-76-546.2-75.9-545.8-75.9z"/>
			<path class="st0" d="M-539.4-83.2c0.4,0,0.7,0,1,0.1l-0.2,1.1c-0.3-0.1-0.6-0.1-0.9-0.1c-0.6,0-1.2,0.3-1.7,0.8s-0.7,1.2-0.7,2
				v4.3h-1.2v-8h1l0.1,1.5h0.1c0.3-0.5,0.7-0.9,1.1-1.2S-539.9-83.2-539.4-83.2z"/>
			<path class="st0" d="M-538.2-83h1.3l1.8,4.6c0.4,1,0.6,1.8,0.7,2.3h0.1c0.1-0.2,0.2-0.7,0.4-1.3c0.2-0.6,0.9-2.5,2-5.6h1.3
				l-3.5,9.1c-0.3,0.9-0.7,1.5-1.2,1.9s-1,0.6-1.7,0.6c-0.4,0-0.7,0-1.1-0.1v-1c0.3,0.1,0.6,0.1,0.9,0.1c0.8,0,1.4-0.5,1.8-1.4
				l0.4-1.1L-538.2-83z"/>
		</g>
		<g class="st3">
			<path class="st0" d="M-691.6-58.6c0,1.1-0.4,1.9-1.1,2.5c-0.7,0.6-1.8,0.9-3.2,0.9h-1.3v4.2h-1.2v-10.7h2.8
				C-692.9-61.7-691.6-60.7-691.6-58.6z M-697.1-56.3h1.1c1.1,0,1.9-0.2,2.4-0.5s0.7-0.9,0.7-1.7c0-0.7-0.2-1.2-0.7-1.6
				s-1.2-0.5-2.2-0.5h-1.4v4.3H-697.1z"/>
			<path class="st0" d="M-685.9-59.2c0.4,0,0.7,0,1,0.1l-0.2,1.1c-0.3-0.1-0.6-0.1-0.9-0.1c-0.6,0-1.2,0.3-1.7,0.8s-0.7,1.2-0.7,2
				v4.3h-1.2v-8h1l0.1,1.5h0.1c0.3-0.5,0.7-0.9,1.1-1.2S-686.4-59.2-685.9-59.2z"/>
			<path class="st0" d="M-676.5-55c0,1.3-0.3,2.3-1,3.1c-0.7,0.7-1.6,1.1-2.7,1.1c-0.7,0-1.4-0.2-1.9-0.5c-0.6-0.3-1-0.8-1.3-1.4
				c-0.3-0.6-0.5-1.4-0.5-2.2c0-1.3,0.3-2.3,1-3.1c0.7-0.7,1.6-1.1,2.7-1.1c1.1,0,2,0.4,2.7,1.1C-676.8-57.3-676.5-56.3-676.5-55z
				 M-682.6-55c0,1,0.2,1.8,0.6,2.3c0.4,0.5,1,0.8,1.8,0.8s1.4-0.3,1.8-0.8c0.4-0.5,0.6-1.3,0.6-2.3s-0.2-1.8-0.6-2.3
				c-0.4-0.5-1-0.8-1.8-0.8s-1.4,0.3-1.8,0.8S-682.6-56.1-682.6-55z"/>
			<path class="st0" d="M-675.3-47.4c-0.5,0-0.8-0.1-1.1-0.2v-1c0.3,0.1,0.7,0.1,1,0.1c0.4,0,0.7-0.1,0.8-0.3
				c0.2-0.2,0.3-0.5,0.3-0.9V-59h1.2v9.3C-673.1-48.2-673.8-47.4-675.3-47.4z M-674.4-61.2c0-0.3,0.1-0.5,0.2-0.6
				c0.1-0.1,0.3-0.2,0.5-0.2s0.4,0.1,0.5,0.2s0.2,0.3,0.2,0.6s-0.1,0.5-0.2,0.6c-0.1,0.1-0.3,0.2-0.5,0.2s-0.4-0.1-0.5-0.2
				C-674.4-60.7-674.4-60.9-674.4-61.2z"/>
			<path class="st0" d="M-667.1-50.9c-1.2,0-2.1-0.4-2.8-1.1s-1-1.7-1-3s0.3-2.3,1-3.1c0.6-0.8,1.5-1.1,2.6-1.1c1,0,1.8,0.3,2.4,1
				c0.6,0.7,0.9,1.5,0.9,2.6v0.8h-5.5c0,0.9,0.3,1.7,0.7,2.1c0.5,0.5,1.1,0.7,1.9,0.7c0.9,0,1.7-0.2,2.6-0.5v1.1
				c-0.4,0.2-0.8,0.3-1.2,0.4C-666.1-50.9-666.6-50.9-667.1-50.9z M-667.5-58.2c-0.6,0-1.2,0.2-1.5,0.6s-0.6,1-0.7,1.7h4.2
				c0-0.8-0.2-1.4-0.5-1.8C-666.4-58-666.8-58.2-667.5-58.2z"/>
			<path class="st0" d="M-658.9-50.9c-1.2,0-2.1-0.4-2.7-1.1c-0.6-0.7-1-1.7-1-3s0.3-2.4,1-3.1s1.6-1.1,2.8-1.1c0.4,0,0.8,0,1.2,0.1
				s0.7,0.2,0.9,0.3l-0.4,1c-0.3-0.1-0.6-0.2-0.9-0.3c-0.3-0.1-0.6-0.1-0.8-0.1c-1.6,0-2.4,1-2.4,3.1c0,1,0.2,1.7,0.6,2.3
				c0.4,0.5,1,0.8,1.8,0.8c0.7,0,1.4-0.1,2.1-0.4v1.1C-657.4-51-658.1-50.9-658.9-50.9z"/>
			<path class="st0" d="M-652.4-51.9c0.2,0,0.4,0,0.6,0c0.2,0,0.4-0.1,0.5-0.1v0.9c-0.1,0.1-0.3,0.1-0.6,0.2c-0.3,0-0.5,0.1-0.7,0.1
				c-1.6,0-2.3-0.8-2.3-2.5v-4.8h-1.2v-0.6l1.2-0.5l0.5-1.7h0.7v1.9h2.3v0.9h-2.3v4.7c0,0.5,0.1,0.9,0.3,1.1
				C-653.1-52-652.8-51.9-652.4-51.9z"/>
			<path class="st0" d="M-645.6-51v-10.7h1.2v9.6h4.7v1.1H-645.6z"/>
			<path class="st0" d="M-634.6-50.9c-1.2,0-2.1-0.4-2.8-1.1c-0.7-0.7-1-1.7-1-3s0.3-2.3,1-3.1c0.6-0.8,1.5-1.1,2.6-1.1
				c1,0,1.8,0.3,2.4,1c0.6,0.7,0.9,1.5,0.9,2.6v0.8h-5.5c0,0.9,0.3,1.7,0.7,2.1c0.5,0.5,1.1,0.7,1.9,0.7c0.9,0,1.7-0.2,2.6-0.5v1.1
				c-0.4,0.2-0.8,0.3-1.2,0.4C-633.6-50.9-634.1-50.9-634.6-50.9z M-634.9-58.2c-0.6,0-1.2,0.2-1.5,0.6c-0.4,0.4-0.6,1-0.7,1.7h4.2
				c0-0.8-0.2-1.4-0.5-1.8C-633.8-58-634.3-58.2-634.9-58.2z"/>
			<path class="st0" d="M-624.7-51l-0.2-1.1h-0.1c-0.4,0.5-0.8,0.8-1.2,1s-0.9,0.3-1.5,0.3c-0.8,0-1.4-0.2-1.9-0.6
				c-0.5-0.4-0.7-1-0.7-1.8c0-1.6,1.3-2.5,3.9-2.5h1.4v-0.5c0-0.6-0.1-1.1-0.4-1.4c-0.3-0.3-0.7-0.5-1.3-0.5c-0.7,0-1.4,0.2-2.3,0.6
				l-0.4-0.9c0.4-0.2,0.8-0.4,1.3-0.5s0.9-0.2,1.4-0.2c1,0,1.7,0.2,2.1,0.6c0.5,0.4,0.7,1.1,0.7,2v5.5C-623.9-51-624.7-51-624.7-51z
				 M-627.4-51.9c0.8,0,1.4-0.2,1.8-0.6c0.4-0.4,0.6-1,0.6-1.7v-0.7l-1.2,0.1c-1,0-1.7,0.2-2.1,0.5c-0.4,0.3-0.6,0.7-0.6,1.2
				c0,0.4,0.1,0.8,0.4,1C-628.3-52-627.9-51.9-627.4-51.9z"/>
			<path class="st0" d="M-615.8-52.1L-615.8-52.1c-0.6,0.8-1.5,1.2-2.6,1.2s-1.9-0.4-2.5-1.1c-0.6-0.7-0.9-1.7-0.9-3.1
				c0-1.3,0.3-2.4,0.9-3.1s1.4-1.1,2.4-1.1c1.1,0,1.9,0.4,2.5,1.2h0.1l-0.1-0.6v-0.6v-3.3h1.2V-51h-1L-615.8-52.1z M-618.2-51.9
				c0.8,0,1.4-0.2,1.8-0.7c0.4-0.5,0.6-1.2,0.6-2.2V-55c0-1.1-0.2-1.9-0.6-2.4c-0.4-0.5-1-0.7-1.8-0.7c-0.7,0-1.3,0.3-1.6,0.8
				c-0.4,0.6-0.6,1.3-0.6,2.3s0.2,1.8,0.6,2.3S-618.9-51.9-618.2-51.9z"/>
			<path class="st0" d="M-608-51v-10.7h1.2V-51H-608z"/>
			<path class="st0" d="M-598.5-51v-5.2c0-0.7-0.1-1.1-0.4-1.5c-0.3-0.3-0.8-0.5-1.4-0.5c-0.8,0-1.5,0.2-1.8,0.7s-0.6,1.2-0.6,2.2
				v4.2h-1.2v-8h1l0.2,1.1h0.1c0.2-0.4,0.6-0.7,1-0.9s0.9-0.3,1.5-0.3c1,0,1.7,0.2,2.2,0.7s0.7,1.2,0.7,2.2v5.2L-598.5-51L-598.5-51
				z"/>
			<path class="st0" d="M-589.6-53.2c0,0.7-0.3,1.3-0.8,1.7s-1.3,0.6-2.3,0.6c-1.1,0-1.9-0.2-2.5-0.5v-1.1c0.4,0.2,0.8,0.3,1.2,0.5
				c0.4,0.1,0.9,0.2,1.3,0.2c0.6,0,1.1-0.1,1.5-0.3c0.3-0.2,0.5-0.5,0.5-0.9c0-0.3-0.1-0.6-0.4-0.8c-0.3-0.2-0.8-0.5-1.6-0.8
				c-0.7-0.3-1.3-0.5-1.6-0.7s-0.5-0.4-0.7-0.7s-0.2-0.6-0.2-0.9c0-0.7,0.3-1.2,0.8-1.5c0.5-0.4,1.3-0.6,2.2-0.6s1.7,0.2,2.5,0.5
				l-0.4,1c-0.8-0.3-1.5-0.5-2.2-0.5c-0.6,0-1,0.1-1.3,0.3s-0.4,0.4-0.4,0.7c0,0.2,0.1,0.4,0.2,0.5c0.1,0.2,0.3,0.3,0.5,0.4
				s0.7,0.3,1.4,0.6c1,0.3,1.6,0.7,1.9,1C-589.8-54.2-589.6-53.7-589.6-53.2z"/>
			<path class="st0" d="M-585-51.9c0.2,0,0.4,0,0.6,0c0.2,0,0.4-0.1,0.5-0.1v0.9c-0.1,0.1-0.3,0.1-0.6,0.2c-0.3,0-0.5,0.1-0.7,0.1
				c-1.6,0-2.3-0.8-2.3-2.5v-4.8h-1.2v-0.6l1.2-0.5l0.5-1.7h0.7v1.9h2.3v0.9h-2.3v4.7c0,0.5,0.1,0.9,0.3,1.1
				C-585.7-52-585.4-51.9-585-51.9z"/>
			<path class="st0" d="M-582.4-61.2c0-0.3,0.1-0.5,0.2-0.6c0.1-0.1,0.3-0.2,0.5-0.2s0.4,0.1,0.5,0.2c0.1,0.1,0.2,0.3,0.2,0.6
				s-0.1,0.5-0.2,0.6c-0.1,0.1-0.3,0.2-0.5,0.2s-0.4-0.1-0.5-0.2C-582.4-60.7-582.4-60.9-582.4-61.2z M-581.1-51h-1.2v-8h1.2V-51z"
				/>
			<path class="st0" d="M-575.9-51.9c0.2,0,0.4,0,0.6,0c0.2,0,0.4-0.1,0.5-0.1v0.9c-0.1,0.1-0.3,0.1-0.6,0.2c-0.3,0-0.5,0.1-0.7,0.1
				c-1.6,0-2.3-0.8-2.3-2.5v-4.8h-1.2v-0.6l1.2-0.5l0.5-1.7h0.7v1.9h2.3v0.9h-2.3v4.7c0,0.5,0.1,0.9,0.3,1.1
				C-576.6-52-576.3-51.9-575.9-51.9z"/>
			<path class="st0" d="M-572.1-59v5.2c0,0.7,0.1,1.1,0.4,1.5c0.3,0.3,0.8,0.5,1.4,0.5c0.8,0,1.5-0.2,1.8-0.7
				c0.4-0.5,0.6-1.2,0.6-2.2V-59h1.2v8h-1l-0.2-1.1h-0.1c-0.2,0.4-0.6,0.7-1,0.9s-0.9,0.3-1.5,0.3c-1,0-1.7-0.2-2.2-0.7
				s-0.7-1.2-0.7-2.2V-59H-572.1z"/>
			<path class="st0" d="M-561.4-51.9c0.2,0,0.4,0,0.6,0c0.2,0,0.4-0.1,0.5-0.1v0.9c-0.1,0.1-0.3,0.1-0.6,0.2c-0.3,0-0.5,0.1-0.7,0.1
				c-1.6,0-2.3-0.8-2.3-2.5v-4.8h-1.2v-0.6l1.2-0.5l0.5-1.7h0.7v1.9h2.3v0.9h-2.3v4.7c0,0.5,0.1,0.9,0.3,1.1
				C-562.1-52-561.8-51.9-561.4-51.9z"/>
			<path class="st0" d="M-558.8-61.2c0-0.3,0.1-0.5,0.2-0.6c0.1-0.1,0.3-0.2,0.5-0.2s0.4,0.1,0.5,0.2c0.1,0.1,0.2,0.3,0.2,0.6
				s-0.1,0.5-0.2,0.6c-0.1,0.1-0.3,0.2-0.5,0.2s-0.4-0.1-0.5-0.2C-558.8-60.7-558.8-60.9-558.8-61.2z M-557.5-51h-1.2v-8h1.2V-51z"
				/>
			<path class="st0" d="M-548-55c0,1.3-0.3,2.3-1,3.1c-0.7,0.7-1.6,1.1-2.7,1.1c-0.7,0-1.4-0.2-1.9-0.5c-0.6-0.3-1-0.8-1.3-1.4
				c-0.3-0.6-0.5-1.4-0.5-2.2c0-1.3,0.3-2.3,1-3.1c0.7-0.7,1.6-1.1,2.7-1.1c1.1,0,2,0.4,2.7,1.1C-548.3-57.3-548-56.3-548-55z
				 M-554.1-55c0,1,0.2,1.8,0.6,2.3c0.4,0.5,1,0.8,1.8,0.8s1.4-0.3,1.8-0.8c0.4-0.5,0.6-1.3,0.6-2.3s-0.2-1.8-0.6-2.3
				c-0.4-0.5-1-0.8-1.8-0.8s-1.4,0.3-1.8,0.8S-554.1-56.1-554.1-55z"/>
			<path class="st0" d="M-540.4-51v-5.2c0-0.7-0.1-1.1-0.4-1.5c-0.3-0.3-0.8-0.5-1.4-0.5c-0.8,0-1.5,0.2-1.8,0.7s-0.6,1.2-0.6,2.2
				v4.2h-1.2v-8h1l0.2,1.1h0.1c0.2-0.4,0.6-0.7,1-0.9s0.9-0.3,1.5-0.3c1,0,1.7,0.2,2.2,0.7s0.7,1.2,0.7,2.2v5.2L-540.4-51L-540.4-51
				z"/>
		</g>
		<g class="st3">
			<path class="st0" d="M-692.1-34.6c0,1.1-0.4,1.9-1.1,2.5c-0.7,0.6-1.8,0.9-3.2,0.9h-1.3v4.2h-1.2v-10.7h2.8
				C-693.4-37.7-692.1-36.7-692.1-34.6z M-697.6-32.3h1.1c1.1,0,1.9-0.2,2.4-0.5s0.7-0.9,0.7-1.7c0-0.7-0.2-1.2-0.7-1.6
				s-1.2-0.5-2.2-0.5h-1.4v4.3H-697.6z"/>
			<path class="st0" d="M-685.1-27l-0.2-1.1h-0.1c-0.4,0.5-0.8,0.8-1.2,1s-0.9,0.3-1.5,0.3c-0.8,0-1.4-0.2-1.9-0.6s-0.7-1-0.7-1.8
				c0-1.6,1.3-2.5,3.9-2.5h1.4v-0.5c0-0.6-0.1-1.1-0.4-1.4c-0.3-0.3-0.7-0.5-1.3-0.5c-0.7,0-1.4,0.2-2.3,0.6l-0.4-0.9
				c0.4-0.2,0.8-0.4,1.3-0.5s0.9-0.2,1.4-0.2c1,0,1.7,0.2,2.1,0.6c0.5,0.4,0.7,1.1,0.7,2v5.5C-684.3-27-685.1-27-685.1-27z
				 M-687.8-27.9c0.8,0,1.4-0.2,1.8-0.6c0.4-0.4,0.6-1,0.6-1.7v-0.7l-1.2,0.1c-1,0-1.7,0.2-2.1,0.5c-0.4,0.3-0.6,0.7-0.6,1.2
				c0,0.4,0.1,0.8,0.4,1C-688.7-28-688.3-27.9-687.8-27.9z"/>
			<path class="st0" d="M-678-35.2c0.4,0,0.7,0,1,0.1l-0.2,1.1c-0.3-0.1-0.6-0.1-0.9-0.1c-0.6,0-1.2,0.3-1.7,0.8s-0.7,1.2-0.7,2v4.3
				h-1.2v-8h1l0.1,1.5h0.1c0.3-0.5,0.7-0.9,1.1-1.2S-678.5-35.2-678-35.2z"/>
			<path class="st0" d="M-672.9-27.9c0.2,0,0.4,0,0.6,0c0.2,0,0.4-0.1,0.5-0.1v0.9c-0.1,0.1-0.3,0.1-0.6,0.2c-0.3,0-0.5,0.1-0.7,0.1
				c-1.6,0-2.3-0.8-2.3-2.5v-4.8h-1.1v-0.6l1.1-0.5l0.5-1.7h0.7v1.9h2.3v0.9h-2.3v4.7c0,0.5,0.1,0.9,0.3,1.1S-673.3-27.9-672.9-27.9
				z"/>
			<path class="st0" d="M-670.3-37.2c0-0.3,0.1-0.5,0.2-0.6c0.1-0.1,0.3-0.2,0.5-0.2s0.4,0.1,0.5,0.2s0.2,0.3,0.2,0.6
				s-0.1,0.5-0.2,0.6c-0.1,0.1-0.3,0.2-0.5,0.2s-0.4-0.1-0.5-0.2C-670.3-36.7-670.3-36.9-670.3-37.2z M-669-27h-1.2v-8h1.2V-27z"/>
			<path class="st0" d="M-663.2-26.9c-1.2,0-2.1-0.4-2.7-1.1c-0.6-0.7-1-1.7-1-3s0.3-2.4,1-3.1s1.6-1.1,2.8-1.1c0.4,0,0.8,0,1.2,0.1
				s0.7,0.2,0.9,0.3l-0.4,1c-0.3-0.1-0.6-0.2-0.9-0.3c-0.3-0.1-0.6-0.1-0.8-0.1c-1.6,0-2.4,1-2.4,3.1c0,1,0.2,1.7,0.6,2.3
				c0.4,0.5,1,0.8,1.8,0.8c0.7,0,1.4-0.1,2.1-0.4v1.1C-661.7-27-662.4-26.9-663.2-26.9z"/>
			<path class="st0" d="M-659.4-37.2c0-0.3,0.1-0.5,0.2-0.6c0.1-0.1,0.3-0.2,0.5-0.2s0.4,0.1,0.5,0.2c0.1,0.1,0.2,0.3,0.2,0.6
				s-0.1,0.5-0.2,0.6c-0.1,0.1-0.3,0.2-0.5,0.2s-0.4-0.1-0.5-0.2C-659.3-36.7-659.4-36.9-659.4-37.2z M-658.1-27h-1.2v-8h1.2V-27z"
				/>
			<path class="st0" d="M-651.8-26.9c-0.5,0-1-0.1-1.4-0.3c-0.4-0.2-0.8-0.5-1.1-0.9h-0.1c0.1,0.5,0.1,0.9,0.1,1.3v3.3h-1.2V-35h1
				l0.2,1.1h0.1c0.3-0.4,0.7-0.8,1.1-1s0.9-0.3,1.4-0.3c1.1,0,1.9,0.4,2.5,1.1c0.6,0.7,0.9,1.7,0.9,3.1c0,1.3-0.3,2.3-0.9,3.1
				C-649.9-27.2-650.7-26.9-651.8-26.9z M-652-34.1c-0.8,0-1.4,0.2-1.8,0.7c-0.4,0.5-0.6,1.2-0.6,2.2v0.3c0,1.1,0.2,1.9,0.6,2.4
				c0.4,0.5,1,0.7,1.8,0.7c0.7,0,1.2-0.3,1.6-0.8c0.4-0.6,0.6-1.3,0.6-2.3s-0.2-1.8-0.6-2.3C-650.7-33.9-651.2-34.1-652-34.1z"/>
			<path class="st0" d="M-641.4-27l-0.2-1.1h-0.1c-0.4,0.5-0.8,0.8-1.2,1s-0.9,0.3-1.5,0.3c-0.8,0-1.4-0.2-1.9-0.6s-0.7-1-0.7-1.8
				c0-1.6,1.3-2.5,3.9-2.5h1.4v-0.5c0-0.6-0.1-1.1-0.4-1.4c-0.3-0.3-0.7-0.5-1.3-0.5c-0.7,0-1.4,0.2-2.3,0.6l-0.4-0.9
				c0.4-0.2,0.8-0.4,1.3-0.5s0.9-0.2,1.4-0.2c1,0,1.7,0.2,2.1,0.6c0.5,0.4,0.7,1.1,0.7,2v5.5C-640.6-27-641.4-27-641.4-27z
				 M-644.1-27.9c0.8,0,1.4-0.2,1.8-0.6c0.4-0.4,0.6-1,0.6-1.7v-0.7l-1.2,0.1c-1,0-1.7,0.2-2.1,0.5c-0.4,0.3-0.6,0.7-0.6,1.2
				c0,0.4,0.1,0.8,0.4,1C-645-28-644.6-27.9-644.1-27.9z"/>
			<path class="st0" d="M-635.4-27.9c0.2,0,0.4,0,0.6,0c0.2,0,0.4-0.1,0.5-0.1v0.9c-0.1,0.1-0.3,0.1-0.6,0.2c-0.3,0-0.5,0.1-0.7,0.1
				c-1.6,0-2.3-0.8-2.3-2.5v-4.8h-1.2v-0.6l1.2-0.5l0.5-1.7h0.7v1.9h2.3v0.9h-2.3v4.7c0,0.5,0.1,0.9,0.3,1.1
				C-636.1-28-635.8-27.9-635.4-27.9z"/>
			<path class="st0" d="M-629.3-26.9c-1.2,0-2.1-0.4-2.8-1.1s-1-1.7-1-3s0.3-2.3,1-3.1c0.6-0.8,1.5-1.1,2.6-1.1c1,0,1.8,0.3,2.4,1
				c0.6,0.7,0.9,1.5,0.9,2.6v0.8h-5.5c0,0.9,0.3,1.7,0.7,2.1c0.5,0.5,1.1,0.7,1.9,0.7c0.9,0,1.7-0.2,2.6-0.5v1.1
				c-0.4,0.2-0.8,0.3-1.2,0.4C-628.3-26.9-628.8-26.9-629.3-26.9z M-629.6-34.2c-0.6,0-1.2,0.2-1.5,0.6c-0.4,0.4-0.6,1-0.7,1.7h4.2
				c0-0.8-0.2-1.4-0.5-1.8C-628.5-34-629-34.2-629.6-34.2z"/>
			<path class="st0" d="M-620.8-29.8c0-0.6,0.2-1.2,0.5-1.7s0.9-1,1.8-1.5c-0.4-0.5-0.7-0.8-0.8-1.1c-0.1-0.2-0.3-0.5-0.4-0.7
				c-0.1-0.3-0.1-0.5-0.1-0.8c0-0.7,0.2-1.3,0.7-1.7s1.1-0.6,2-0.6c0.8,0,1.4,0.2,1.9,0.6c0.5,0.4,0.7,1,0.7,1.7
				c0,0.5-0.2,1-0.5,1.4s-0.9,0.9-1.6,1.3l3,2.9c0.3-0.3,0.5-0.7,0.7-1.1s0.3-0.9,0.4-1.3h1.2c-0.3,1.4-0.8,2.5-1.5,3.2l2.2,2.1
				h-1.7l-1.4-1.3c-0.6,0.5-1.2,0.9-1.8,1.1s-1.3,0.3-2,0.3c-1.1,0-1.9-0.3-2.4-0.8C-620.5-28.1-620.8-28.9-620.8-29.8z
				 M-617.5-27.9c1.2,0,2.2-0.4,2.9-1.1l-3.2-3.1c-0.5,0.3-0.9,0.6-1.2,0.8c-0.2,0.2-0.4,0.5-0.5,0.7s-0.2,0.5-0.2,0.8
				c0,0.6,0.2,1,0.6,1.4C-618.6-28.1-618.1-27.9-617.5-27.9z M-618.6-35.6c0,0.3,0.1,0.7,0.3,1s0.5,0.7,0.9,1.1
				c0.6-0.4,1.1-0.7,1.3-1s0.4-0.7,0.4-1.1c0-0.4-0.1-0.7-0.4-0.9c-0.3-0.2-0.6-0.4-1-0.4s-0.8,0.1-1.1,0.4
				C-618.5-36.3-618.6-36-618.6-35.6z"/>
			<path class="st0" d="M-600.8-36.7c-1.2,0-2.1,0.4-2.8,1.2s-1,1.9-1,3.2c0,1.4,0.3,2.5,1,3.2c0.7,0.8,1.6,1.1,2.8,1.1
				c0.7,0,1.6-0.1,2.6-0.4v1.1c-0.7,0.3-1.7,0.4-2.7,0.4c-1.6,0-2.8-0.5-3.7-1.4c-0.9-1-1.3-2.3-1.3-4.1c0-1.1,0.2-2.1,0.6-2.9
				c0.4-0.8,1-1.5,1.8-1.9s1.7-0.7,2.8-0.7s2.1,0.2,2.9,0.6l-0.5,1.1C-599.1-36.6-599.9-36.7-600.8-36.7z"/>
			<path class="st0" d="M-589.1-31c0,1.3-0.3,2.3-1,3.1c-0.7,0.7-1.6,1.1-2.7,1.1c-0.7,0-1.4-0.2-1.9-0.5c-0.6-0.3-1-0.8-1.3-1.4
				s-0.5-1.4-0.5-2.2c0-1.3,0.3-2.3,1-3.1c0.7-0.7,1.6-1.1,2.7-1.1c1.1,0,2,0.4,2.7,1.1C-589.5-33.3-589.1-32.3-589.1-31z
				 M-595.3-31c0,1,0.2,1.8,0.6,2.3c0.4,0.5,1,0.8,1.8,0.8s1.4-0.3,1.8-0.8c0.4-0.5,0.6-1.3,0.6-2.3s-0.2-1.8-0.6-2.3
				c-0.4-0.5-1-0.8-1.8-0.8s-1.4,0.3-1.8,0.8S-595.3-32.1-595.3-31z"/>
			<path class="st0" d="M-576.8-27v-5.2c0-0.6-0.1-1.1-0.4-1.4c-0.3-0.3-0.7-0.5-1.3-0.5c-0.8,0-1.3,0.2-1.7,0.7s-0.5,1.1-0.5,2v4.5
				h-1.2v-5.2c0-0.6-0.1-1.1-0.4-1.4c-0.3-0.3-0.7-0.5-1.3-0.5c-0.8,0-1.3,0.2-1.7,0.7s-0.5,1.2-0.5,2.2v4.2h-1.2v-8h1l0.2,1.1h0.1
				c0.2-0.4,0.6-0.7,1-0.9s0.9-0.3,1.4-0.3c1.3,0,2.1,0.5,2.5,1.4h0.1c0.2-0.4,0.6-0.8,1-1s1-0.4,1.6-0.4c0.9,0,1.6,0.2,2,0.7
				c0.5,0.5,0.7,1.2,0.7,2.2v5.2L-576.8-27L-576.8-27z"/>
			<path class="st0" d="M-562.8-27v-5.2c0-0.6-0.1-1.1-0.4-1.4c-0.3-0.3-0.7-0.5-1.3-0.5c-0.8,0-1.3,0.2-1.7,0.7s-0.5,1.1-0.5,2v4.5
				h-1.2v-5.2c0-0.6-0.1-1.1-0.4-1.4c-0.3-0.3-0.7-0.5-1.3-0.5c-0.8,0-1.3,0.2-1.7,0.7s-0.5,1.2-0.5,2.2v4.2h-1.2v-8h1l0.2,1.1h0.1
				c0.2-0.4,0.6-0.7,1-0.9s0.9-0.3,1.4-0.3c1.3,0,2.1,0.5,2.5,1.4h0.1c0.2-0.4,0.6-0.8,1-1s1-0.4,1.6-0.4c0.9,0,1.6,0.2,2,0.7
				c0.5,0.5,0.7,1.2,0.7,2.2v5.2L-562.8-27L-562.8-27z"/>
			<path class="st0" d="M-555.7-26.9c-1.2,0-2.1-0.4-2.8-1.1s-1-1.7-1-3s0.3-2.3,1-3.1c0.6-0.8,1.5-1.1,2.6-1.1c1,0,1.8,0.3,2.4,1
				c0.6,0.7,0.9,1.5,0.9,2.6v0.8h-5.5c0,0.9,0.3,1.7,0.7,2.1c0.5,0.5,1.1,0.7,1.9,0.7c0.9,0,1.7-0.2,2.6-0.5v1.1
				c-0.4,0.2-0.8,0.3-1.2,0.4C-554.7-26.9-555.2-26.9-555.7-26.9z M-556-34.2c-0.6,0-1.2,0.2-1.5,0.6c-0.4,0.4-0.6,1-0.7,1.7h4.2
				c0-0.8-0.2-1.4-0.5-1.8C-554.9-34-555.4-34.2-556-34.2z"/>
			<path class="st0" d="M-545.2-27v-5.2c0-0.7-0.1-1.1-0.4-1.5c-0.3-0.3-0.8-0.5-1.4-0.5c-0.8,0-1.5,0.2-1.8,0.7s-0.6,1.2-0.6,2.2
				v4.2h-1.2v-8h1l0.2,1.1h0.1c0.2-0.4,0.6-0.7,1-0.9s0.9-0.3,1.5-0.3c1,0,1.7,0.2,2.2,0.7s0.7,1.2,0.7,2.2v5.2L-545.2-27L-545.2-27
				z"/>
			<path class="st0" d="M-538.9-27.9c0.2,0,0.4,0,0.6,0c0.2,0,0.4-0.1,0.5-0.1v0.9c-0.1,0.1-0.3,0.1-0.6,0.2c-0.3,0-0.5,0.1-0.7,0.1
				c-1.6,0-2.3-0.8-2.3-2.5v-4.8h-1.2v-0.6l1.2-0.5l0.5-1.7h0.7v1.9h2.3v0.9h-2.3v4.7c0,0.5,0.1,0.9,0.3,1.1
				C-539.6-28-539.3-27.9-538.9-27.9z"/>
		</g>
	</g>
	<g id="Group_69" transform="translate(995.186 547.078)">
		<circle id="Ellipse_48-5" class="st5" cx="-711.7" cy="-152.6" r="12.5"/>
		<g id="Page-1-5" transform="translate(15.503 6.739) rotate(90)">
			<g id="Dribbble-Light-Preview-5" transform="translate(0 0)">
				<g id="icons-5" transform="translate(0)">
					<path id="arrow_up-_337_5" class="st6" d="M-153.9,730L-153.9,730c0.2-0.2,0.2-0.6,0-0.8l-4.7-4.8c-0.4-0.4-1.1-0.5-1.6,0l0,0
						l-4.7,4.9c-0.2,0.2-0.2,0.6,0,0.8s0.6,0.2,0.8,0l0,0l4.3-4.5c0.2-0.2,0.6-0.2,0.8,0l0,0l4.3,4.4
						C-154.4,730.2-154.1,730.2-153.9,730L-153.9,730L-153.9,730z"/>
				</g>
			</g>
		</g>
	</g>
</g>
<g class="circle">
	<g id="Component_46_1" transform="translate(805 536)">
		<g transform="matrix(1, 0, 0, 1, -81, -388)">
			<g id="Ellipse_75-2" transform="translate(81 388)">
				<path class="st1" d="M-540-55.5c0,12.3-2.4,24-6.7,34.8c-1.6,3.9-3.4,7.7-5.5,11.3C-568.1,18.3-597.9,37-632,37
					c-50.8,0-92-41.4-92-92.5c0-27.5,11.9-52.1,30.8-69.1c3.9-3.5,8.2-6.7,12.7-9.5c3.7-2.3,7.5-4.4,11.5-6.1
					c11.3-5,23.8-7.8,37-7.8c3.8,0,7.6,0.2,11.4,0.7c9,1.1,17.6,3.5,25.6,7.1c22.8,10.1,40.7,29.2,49.4,52.8
					C-542-77.5-540-66.7-540-55.5z"/>
				<ellipse class="st2" cx="-632" cy="-55.5" rx="87" ry="87.5"/>
			</g>
		</g>
		<g class="st3">
			<path class="st0" d="M-699.9-65v-11.4h1.9V-65H-699.9z"/>
			<path class="st0" d="M-690.7-73.8c1,0,1.7,0.3,2.3,0.8c0.5,0.5,0.8,1.3,0.8,2.4v5.6h-1.8v-5.3c0-0.7-0.1-1.2-0.4-1.5
				c-0.3-0.3-0.7-0.5-1.3-0.5c-0.8,0-1.4,0.3-1.7,0.8s-0.5,1.3-0.5,2.2v4.3h-1.8v-8.6h1.4l0.3,1.2h0.1c0.2-0.3,0.4-0.6,0.7-0.7
				c0.3-0.2,0.6-0.3,0.9-0.4C-691.5-73.8-691.1-73.8-690.7-73.8z"/>
			<path class="st0" d="M-682.2-64.8c-1,0-1.9-0.4-2.5-1.1c-0.6-0.8-0.9-1.9-0.9-3.3c0-1.5,0.3-2.6,0.9-3.4s1.5-1.1,2.5-1.1
				c0.4,0,0.8,0.1,1.1,0.2s0.6,0.3,0.8,0.5s0.4,0.4,0.6,0.7h0.1c0-0.2-0.1-0.4-0.1-0.7c0-0.3-0.1-0.6-0.1-0.8v-3.1h1.8V-65h-1.4
				l-0.3-1.2h-0.1c-0.2,0.2-0.4,0.5-0.6,0.7c-0.2,0.2-0.5,0.4-0.8,0.5C-681.3-64.9-681.7-64.8-682.2-64.8z M-681.7-66.3
				c0.8,0,1.3-0.2,1.7-0.7c0.3-0.5,0.5-1.1,0.5-2v-0.2c0-1-0.2-1.7-0.5-2.2s-0.9-0.8-1.7-0.8c-0.7,0-1.2,0.3-1.5,0.8
				s-0.5,1.3-0.5,2.2s0.2,1.7,0.5,2.2C-682.8-66.6-682.3-66.3-681.7-66.3z"/>
			<path class="st0" d="M-667.6-73.6v8.6h-1.4l-0.2-1.2h-0.1c-0.2,0.3-0.4,0.5-0.7,0.7s-0.6,0.3-0.9,0.4s-0.7,0.1-1.1,0.1
				c-0.7,0-1.2-0.1-1.7-0.3s-0.8-0.6-1.1-1c-0.2-0.5-0.4-1.1-0.4-1.8v-5.6h1.8v5.3c0,0.7,0.1,1.2,0.4,1.5s0.7,0.5,1.3,0.5
				s1-0.1,1.3-0.3s0.6-0.6,0.7-1c0.1-0.4,0.2-1,0.2-1.6v-4.3C-669.5-73.6-667.6-73.6-667.6-73.6z"/>
			<path class="st0" d="M-659.1-67.5c0,0.6-0.1,1-0.4,1.4c-0.3,0.4-0.7,0.7-1.2,0.9c-0.5,0.2-1.2,0.3-1.9,0.3c-0.6,0-1.1,0-1.6-0.1
				c-0.4-0.1-0.8-0.2-1.2-0.4V-67c0.4,0.2,0.9,0.4,1.4,0.5s1,0.2,1.5,0.2c0.6,0,1-0.1,1.3-0.3s0.4-0.4,0.4-0.8
				c0-0.2-0.1-0.4-0.2-0.5c-0.1-0.1-0.3-0.3-0.6-0.5s-0.7-0.4-1.3-0.6c-0.5-0.2-1-0.4-1.4-0.7s-0.7-0.5-0.9-0.8s-0.3-0.7-0.3-1.2
				c0-0.8,0.3-1.3,0.9-1.7c0.6-0.4,1.4-0.6,2.4-0.6c0.5,0,1,0.1,1.5,0.2s0.9,0.3,1.4,0.5l-0.6,1.4c-0.4-0.2-0.8-0.3-1.2-0.4
				s-0.8-0.2-1.2-0.2c-0.5,0-0.8,0.1-1.1,0.2c-0.2,0.1-0.4,0.4-0.4,0.6s0.1,0.4,0.2,0.5c0.1,0.1,0.3,0.3,0.6,0.4s0.7,0.3,1.2,0.5
				s1,0.4,1.3,0.6c0.4,0.2,0.7,0.5,0.9,0.8S-659.1-68-659.1-67.5z"/>
			<path class="st0" d="M-653.9-66.3c0.2,0,0.5,0,0.7-0.1s0.4-0.1,0.6-0.2v1.4c-0.2,0.1-0.5,0.2-0.8,0.2s-0.7,0.1-1,0.1
				c-0.5,0-0.9-0.1-1.3-0.2s-0.7-0.4-0.9-0.8s-0.3-1-0.3-1.7v-4.6h-1.2V-73l1.3-0.6l0.6-1.9h1.2v1.9h2.5v1.4h-2.5v4.6
				c0,0.4,0.1,0.8,0.3,1S-654.3-66.3-653.9-66.3z"/>
			<path class="st0" d="M-646.5-73.8c0.1,0,0.3,0,0.5,0s0.3,0,0.4,0.1l-0.2,1.7c-0.1,0-0.2-0.1-0.4-0.1s-0.3,0-0.4,0
				c-0.3,0-0.6,0.1-0.9,0.2s-0.6,0.3-0.8,0.5s-0.4,0.5-0.5,0.8s-0.2,0.7-0.2,1.1v4.5h-1.8v-8.6h1.4l0.2,1.5h0.1
				c0.2-0.3,0.4-0.6,0.6-0.8s0.5-0.5,0.9-0.6S-646.9-73.8-646.5-73.8z"/>
			<path class="st0" d="M-645.2-73.6h2l1.8,4.9c0.1,0.2,0.1,0.4,0.2,0.7s0.1,0.4,0.2,0.6s0.1,0.4,0.1,0.6l0,0
				c0.1-0.3,0.1-0.6,0.2-0.9s0.2-0.7,0.3-1l1.7-4.9h2l-3.7,9.8c-0.2,0.6-0.5,1-0.8,1.4s-0.7,0.7-1.1,0.9s-0.9,0.3-1.4,0.3
				c-0.3,0-0.5,0-0.7,0s-0.4-0.1-0.5-0.1v-1.5c0.1,0,0.2,0,0.4,0.1s0.3,0,0.5,0c0.3,0,0.6-0.1,0.9-0.2s0.4-0.3,0.6-0.6
				s0.3-0.5,0.4-0.8l0.3-0.8L-645.2-73.6z"/>
			<path class="st0" d="M-627.6-76.6c0.6,0,1.1,0.1,1.6,0.3s0.8,0.5,1,0.8s0.4,0.8,0.4,1.3c0,0.7-0.2,1.3-0.7,1.8s-1,0.9-1.7,1.3
				l2.7,2.6c0.3-0.3,0.5-0.7,0.6-1.2s0.3-0.9,0.4-1.3h1.9c-0.2,0.6-0.4,1.3-0.7,1.9s-0.6,1.2-1.1,1.7l2.3,2.3h-2.4l-1.2-1.1
				c-0.3,0.3-0.7,0.5-1,0.7s-0.8,0.3-1.2,0.4s-0.9,0.2-1.4,0.2c-0.8,0-1.5-0.1-2.1-0.4s-1-0.6-1.3-1.1s-0.5-1-0.5-1.7
				c0-0.5,0.1-1,0.3-1.4s0.4-0.7,0.8-1s0.8-0.6,1.2-0.9c-0.3-0.3-0.5-0.6-0.7-0.9s-0.3-0.6-0.4-0.9s-0.2-0.6-0.2-1
				c0-0.5,0.1-1,0.4-1.4s0.6-0.7,1.1-0.9S-628.2-76.6-627.6-76.6z M-628.4-70.2c-0.3,0.2-0.6,0.4-0.8,0.6s-0.4,0.4-0.5,0.6
				s-0.2,0.5-0.2,0.8c0,0.5,0.2,1,0.6,1.3s0.9,0.5,1.5,0.5c0.5,0,1-0.1,1.4-0.2s0.7-0.4,1-0.6L-628.4-70.2z M-627.6-75.1
				c-0.4,0-0.7,0.1-1,0.3s-0.4,0.5-0.4,0.9c0,0.3,0.1,0.6,0.3,0.9s0.4,0.6,0.7,0.9c0.5-0.3,1-0.6,1.2-0.9s0.4-0.6,0.4-1
				s-0.1-0.6-0.4-0.8S-627.3-75.1-627.6-75.1z"/>
			<path class="st0" d="M-608.4-68.1c0,0.7-0.2,1.3-0.5,1.8s-0.8,0.9-1.4,1.1s-1.4,0.4-2.2,0.4c-0.4,0-0.8,0-1.2-0.1
				s-0.7-0.1-1.1-0.2s-0.6-0.2-0.9-0.3v-1.8c0.5,0.2,1,0.4,1.6,0.6s1.2,0.2,1.8,0.2c0.5,0,0.9-0.1,1.2-0.2s0.6-0.3,0.7-0.5
				s0.2-0.5,0.2-0.8s-0.1-0.6-0.3-0.9s-0.5-0.4-0.8-0.6s-0.8-0.4-1.4-0.6c-0.4-0.2-0.7-0.3-1.1-0.5s-0.6-0.4-0.9-0.7
				s-0.5-0.6-0.6-0.9s-0.2-0.8-0.2-1.3c0-0.6,0.2-1.2,0.5-1.7s0.7-0.8,1.3-1.1s1.2-0.4,2-0.4c0.6,0,1.2,0.1,1.7,0.2s1,0.3,1.6,0.5
				l-0.6,1.5c-0.5-0.2-0.9-0.3-1.4-0.5s-0.9-0.2-1.3-0.2c-0.4,0-0.7,0.1-1,0.2s-0.5,0.3-0.6,0.5s-0.2,0.5-0.2,0.8s0.1,0.6,0.2,0.8
				s0.4,0.4,0.8,0.6s0.8,0.4,1.3,0.6c0.6,0.3,1.2,0.5,1.6,0.8s0.8,0.6,1,1S-608.4-68.7-608.4-68.1z"/>
			<path class="st0" d="M-603-73.8c0.8,0,1.4,0.2,2,0.5s1,0.8,1.3,1.4s0.4,1.3,0.4,2.1v1h-5.8c0,0.8,0.2,1.5,0.7,1.9s1,0.7,1.8,0.7
				c0.6,0,1-0.1,1.5-0.2s0.9-0.3,1.4-0.5v1.5c-0.4,0.2-0.9,0.4-1.3,0.4s-1,0.1-1.6,0.1c-0.8,0-1.6-0.2-2.2-0.5s-1.1-0.8-1.5-1.5
				s-0.5-1.5-0.5-2.4c0-1,0.2-1.8,0.5-2.5s0.8-1.2,1.4-1.5S-603.8-73.8-603-73.8z M-603-72.4c-0.6,0-1,0.2-1.4,0.6s-0.6,0.9-0.6,1.6
				h3.9c0-0.4-0.1-0.8-0.2-1.1s-0.3-0.6-0.6-0.8S-602.6-72.4-603-72.4z"/>
			<path class="st0" d="M-592.8-73.8c0.1,0,0.3,0,0.5,0s0.3,0,0.4,0.1l-0.2,1.7c-0.1,0-0.2-0.1-0.4-0.1s-0.3,0-0.4,0
				c-0.3,0-0.6,0.1-0.9,0.2s-0.6,0.3-0.8,0.5s-0.4,0.5-0.5,0.8s-0.2,0.7-0.2,1.1v4.5h-1.8v-8.6h1.4l0.2,1.5h0.1
				c0.2-0.3,0.4-0.6,0.6-0.8s0.5-0.5,0.9-0.6S-593.2-73.8-592.8-73.8z"/>
			<path class="st0" d="M-588.3-65l-3.3-8.6h1.9l1.8,5.1c0.1,0.3,0.2,0.7,0.3,1s0.2,0.7,0.2,0.9h0.1c0-0.3,0.1-0.6,0.2-1
				s0.2-0.7,0.3-1l1.8-5.1h1.9l-3.3,8.6L-588.3-65L-588.3-65z"/>
			<path class="st0" d="M-580.8-77c0.3,0,0.5,0.1,0.7,0.2s0.3,0.4,0.3,0.8s-0.1,0.6-0.3,0.8s-0.4,0.2-0.7,0.2s-0.5-0.1-0.7-0.2
				s-0.3-0.4-0.3-0.8s0.1-0.6,0.3-0.8S-581.1-77-580.8-77z M-579.9-73.6v8.6h-1.8v-8.6H-579.9z"/>
			<path class="st0" d="M-573.8-64.8c-0.8,0-1.5-0.2-2.1-0.5s-1.1-0.8-1.4-1.5s-0.5-1.5-0.5-2.5c0-1.1,0.2-1.9,0.5-2.6
				s0.8-1.2,1.5-1.5s1.3-0.5,2.2-0.5c0.5,0,1,0.1,1.4,0.2s0.8,0.2,1.1,0.4l-0.5,1.5c-0.3-0.1-0.6-0.2-1-0.3s-0.7-0.1-1-0.1
				c-0.5,0-0.9,0.1-1.3,0.3s-0.6,0.6-0.8,1s-0.2,1-0.2,1.6s0.1,1.2,0.2,1.6s0.4,0.8,0.7,1s0.7,0.3,1.2,0.3s0.9-0.1,1.3-0.2
				s0.7-0.3,1.1-0.4v1.6c-0.3,0.2-0.7,0.3-1.1,0.4S-573.3-64.8-573.8-64.8z"/>
			<path class="st0" d="M-565.9-73.8c0.8,0,1.4,0.2,2,0.5s1,0.8,1.3,1.4s0.4,1.3,0.4,2.1v1h-5.8c0,0.8,0.2,1.5,0.7,1.9
				s1,0.7,1.8,0.7c0.6,0,1-0.1,1.5-0.2s0.9-0.3,1.4-0.5v1.5c-0.4,0.2-0.9,0.4-1.3,0.4s-1,0.1-1.6,0.1c-0.8,0-1.6-0.2-2.2-0.5
				s-1.1-0.8-1.5-1.5s-0.5-1.5-0.5-2.4c0-1,0.2-1.8,0.5-2.5s0.8-1.2,1.4-1.5S-566.7-73.8-565.9-73.8z M-565.9-72.4
				c-0.6,0-1,0.2-1.4,0.6s-0.6,0.9-0.6,1.6h3.9c0-0.4-0.1-0.8-0.2-1.1s-0.3-0.6-0.6-0.8S-565.5-72.4-565.9-72.4z"/>
		</g>
		<g class="st3">
			<path class="st0" d="M-663.4-54.4c1.5,0,2.5,0.3,3.2,0.9c0.7,0.6,1,1.5,1,2.5c0,0.5-0.1,1-0.2,1.4c-0.2,0.4-0.4,0.8-0.8,1.2
				c-0.3,0.3-0.8,0.6-1.4,0.8s-1.3,0.3-2.1,0.3h-1.2v4.3h-1.9v-11.4H-663.4z M-663.5-52.9h-1.3v4h1c0.6,0,1.1-0.1,1.5-0.2
				c0.4-0.1,0.7-0.4,0.9-0.7s0.3-0.7,0.3-1.2c0-0.7-0.2-1.2-0.6-1.5S-662.6-52.9-663.5-52.9z"/>
			<path class="st0" d="M-652.6-51.8c0.1,0,0.3,0,0.5,0s0.3,0,0.4,0.1l-0.2,1.7c-0.1,0-0.2-0.1-0.4-0.1s-0.3,0-0.4,0
				c-0.3,0-0.6,0.1-0.9,0.2s-0.6,0.3-0.8,0.5s-0.4,0.5-0.5,0.8s-0.2,0.7-0.2,1.1v4.5h-1.8v-8.6h1.4l0.2,1.5h0.1
				c0.2-0.3,0.4-0.6,0.6-0.8c0.3-0.3,0.5-0.5,0.9-0.6C-653.4-51.7-653-51.8-652.6-51.8z"/>
			<path class="st0" d="M-642.5-47.3c0,0.7-0.1,1.4-0.3,1.9s-0.5,1-0.8,1.4s-0.8,0.7-1.3,0.9s-1.1,0.3-1.7,0.3
				c-0.6,0-1.1-0.1-1.6-0.3s-0.9-0.5-1.3-0.9c-0.4-0.4-0.6-0.9-0.8-1.4c-0.2-0.6-0.3-1.2-0.3-1.9c0-1,0.2-1.8,0.5-2.4
				c0.3-0.7,0.8-1.2,1.4-1.5c0.6-0.3,1.3-0.5,2.2-0.5c0.8,0,1.5,0.2,2.1,0.5s1.1,0.9,1.4,1.5S-642.5-48.3-642.5-47.3z M-648.7-47.3
				c0,0.6,0.1,1.2,0.2,1.6c0.2,0.4,0.4,0.8,0.7,1s0.7,0.4,1.2,0.4s0.9-0.1,1.2-0.4c0.3-0.2,0.6-0.6,0.7-1c0.2-0.4,0.2-1,0.2-1.6
				s-0.1-1.2-0.2-1.6c-0.2-0.4-0.4-0.8-0.7-1s-0.7-0.3-1.3-0.3c-0.8,0-1.3,0.3-1.7,0.8C-648.6-49-648.7-48.3-648.7-47.3z"/>
			<path class="st0" d="M-638.4-43l-3.3-8.6h1.9l1.8,5.1c0.1,0.3,0.2,0.7,0.3,1s0.2,0.7,0.2,0.9h0.1c0-0.3,0.1-0.6,0.2-1
				c0.1-0.4,0.2-0.7,0.3-1l1.8-5.1h1.9l-3.3,8.6L-638.4-43L-638.4-43z"/>
			<path class="st0" d="M-630.9-55c0.3,0,0.5,0.1,0.7,0.2c0.2,0.2,0.3,0.4,0.3,0.8c0,0.4-0.1,0.6-0.3,0.8s-0.4,0.2-0.7,0.2
				s-0.5-0.1-0.7-0.2c-0.2-0.2-0.3-0.4-0.3-0.8c0-0.4,0.1-0.6,0.3-0.8C-631.4-54.9-631.2-55-630.9-55z M-630-51.6v8.6h-1.8v-8.6
				H-630z"/>
			<path class="st0" d="M-624.4-42.8c-1,0-1.9-0.4-2.5-1.1c-0.6-0.8-0.9-1.9-0.9-3.3c0-1.5,0.3-2.6,0.9-3.4s1.5-1.1,2.5-1.1
				c0.4,0,0.8,0.1,1.1,0.2s0.6,0.3,0.8,0.5s0.4,0.4,0.6,0.7h0.1c0-0.2-0.1-0.4-0.1-0.7s-0.1-0.6-0.1-0.8v-3.1h1.8V-43h-1.4l-0.3-1.2
				h-0.1c-0.2,0.2-0.4,0.5-0.6,0.7s-0.5,0.4-0.8,0.5S-624-42.8-624.4-42.8z M-623.9-44.3c0.8,0,1.3-0.2,1.7-0.7s0.5-1.1,0.5-2v-0.2
				c0-1-0.2-1.7-0.5-2.2s-0.9-0.8-1.7-0.8c-0.7,0-1.2,0.3-1.5,0.8s-0.5,1.3-0.5,2.2s0.2,1.7,0.5,2.2S-624.6-44.3-623.9-44.3z"/>
			<path class="st0" d="M-613.9-51.8c0.8,0,1.4,0.2,2,0.5s1,0.8,1.3,1.4s0.4,1.3,0.4,2.1v1h-5.8c0,0.8,0.2,1.5,0.7,1.9
				s1,0.7,1.8,0.7c0.6,0,1-0.1,1.5-0.2s0.9-0.3,1.4-0.5v1.5c-0.4,0.2-0.9,0.4-1.3,0.4s-1,0.1-1.6,0.1c-0.8,0-1.6-0.2-2.2-0.5
				s-1.1-0.8-1.5-1.5s-0.5-1.5-0.5-2.4c0-1,0.2-1.8,0.5-2.5s0.8-1.2,1.4-1.5S-614.7-51.8-613.9-51.8z M-613.9-50.4
				c-0.6,0-1,0.2-1.4,0.6s-0.6,0.9-0.6,1.6h3.9c0-0.4-0.1-0.8-0.2-1.1s-0.3-0.6-0.6-0.8S-613.5-50.4-613.9-50.4z"/>
			<path class="st0" d="M-603.8-51.8c0.1,0,0.3,0,0.5,0s0.3,0,0.4,0.1L-603-50c-0.1,0-0.2-0.1-0.4-0.1s-0.3,0-0.4,0
				c-0.3,0-0.6,0.1-0.9,0.2s-0.6,0.3-0.8,0.5s-0.4,0.5-0.5,0.8s-0.2,0.7-0.2,1.1v4.5h-1.8v-8.6h1.4l0.2,1.5h0.1
				c0.2-0.3,0.4-0.6,0.6-0.8s0.5-0.5,0.9-0.6S-604.2-51.8-603.8-51.8z"/>
			<path class="st0" d="M-595.4-45.5c0,0.6-0.1,1-0.4,1.4s-0.7,0.7-1.2,0.9s-1.2,0.3-1.9,0.3c-0.6,0-1.1,0-1.6-0.1s-0.8-0.2-1.2-0.4
				V-45c0.4,0.2,0.9,0.4,1.4,0.5s1,0.2,1.5,0.2c0.6,0,1-0.1,1.3-0.3s0.4-0.4,0.4-0.8c0-0.2-0.1-0.4-0.2-0.5s-0.3-0.3-0.6-0.5
				s-0.7-0.4-1.3-0.6c-0.5-0.2-1-0.4-1.4-0.7s-0.7-0.5-0.9-0.8s-0.3-0.7-0.3-1.2c0-0.8,0.3-1.3,0.9-1.7s1.4-0.6,2.4-0.6
				c0.5,0,1,0.1,1.5,0.2s0.9,0.3,1.4,0.5l-0.6,1.4c-0.4-0.2-0.8-0.3-1.2-0.4s-0.8-0.2-1.2-0.2c-0.5,0-0.8,0.1-1.1,0.2
				s-0.4,0.4-0.4,0.6c0,0.2,0.1,0.4,0.2,0.5s0.3,0.3,0.6,0.4s0.7,0.3,1.2,0.5s1,0.4,1.3,0.6s0.7,0.5,0.9,0.8S-595.4-46-595.4-45.5z"
				/>
		</g>
	</g>
	<path class="st4" d="M210,395c0,0.3,0,0.5,0,0.8c0,1.8-0.2,3.6-0.5,5.3c-2.9,17.5-18.1,30.9-36.5,30.9c-13.7,0-25.6-7.4-32-18.5
		c-2.2-3.8-3.8-8-4.5-12.5c-0.3-1.7-0.5-3.5-0.5-5.3c0-0.3,0-0.5,0-0.8c0-16.8,11.2-31,26.5-35.5c3.3-1,6.8-1.5,10.5-1.5
		C193.4,358,210,374.6,210,395z"/>
	<g>
		<g>
			<defs>
				<rect id="SVGID_1_" x="160.3" y="386" width="34" height="34"/>
			</defs>
			<clipPath id="SVGID_00000087411294349848202040000011795398363224949160_">
				<use xlink:href="#SVGID_1_"  style="overflow:visible;"/>
			</clipPath>

				<g id="connection_1" transform="translate(880.472 524.125)" style="clip-path:url(#SVGID_00000087411294349848202040000011795398363224949160_);">
				<path id="Path_202" class="st1" d="M-1595.2-662c-1.1,0.3-2.1,1-2.6,2c-0.3,0.6-0.4,1.2-0.4,1.8c0,0.6,0.1,1.2,0.4,1.8l0.2,0.4
					l-0.4,0.2c-0.6,0.4-1.2,1-1.6,1.6c-0.4,0.7-0.5,1.5-0.5,2.3c0,0.9,0,1,0.1,1.2c0.1,0.2,0.2,0.4,0.4,0.4c0.3,0.1,0.4,0.2,1.9,0.2
					c0.9,0,1.6,0,1.6,0s-0.1,0.3-0.2,0.6c-0.8,2.5-0.9,5.2-0.3,7.8c0.9,3.9,3.5,7.3,7.1,9.1c1.9,1,3.9,1.5,6,1.5s4.1-0.5,5.9-1.4
					l0.6-0.3l-0.2,0.3c-0.6,0.9-0.9,1.9-0.8,2.9c0,0.9,0,1,0.2,1.2c0.3,0.5,0,0.5,5.5,0.4c4.8,0,4.9,0,5.1-0.2
					c0.4-0.3,0.4-0.4,0.5-1.1c0.1-1.1-0.2-2.3-0.8-3.2c-0.4-0.5-0.9-1-1.4-1.3l-0.3-0.2l0.2-0.3c0.5-0.9,0.6-1.8,0.4-2.8
					c-0.2-1-0.9-1.9-1.8-2.5l-0.4-0.2l0.2-0.7c0.5-1.5,0.8-3.1,0.8-4.7c0-1.5-0.2-3.1-0.7-4.5c-1.3-3.9-4.3-7.1-8.1-8.6
					c-2.5-0.9-5.3-1.1-7.9-0.4c-1.4,0.4-2.7,0.9-3.9,1.7c-0.3,0.2-0.6,0.3-0.6,0.3s0.1-0.2,0.2-0.5c0.2-0.8,0.2-1.6,0-2.4
					c-0.3-0.9-0.9-1.7-1.7-2.2C-1593.4-662-1594.3-662.2-1595.2-662z M-1593.9-660c0.5,0.2,0.9,0.6,1.1,1.2c0.3,0.9-0.1,1.8-0.9,2.2
					c-0.2,0.1-0.5,0.2-0.8,0.2c-1,0-1.8-0.7-1.8-1.7v-0.1c0-0.8,0.5-1.6,1.2-1.8C-1594.7-660.1-1594.3-660.1-1593.9-660z
					 M-1586-656.5c-1.1,1.8-1.9,3.8-2.4,5.9c-0.3,1.3-0.5,2.7-0.5,4.1v0.6h-3.1c-2.9,0-3.1,0-3-0.1c0-0.1,0.1-0.3,0.1-0.5
					c0.2-1.1,0.5-2.2,0.9-3.3l0.1-0.2h2.2c2.1,0,2.2,0,2.4-0.2c0.4-0.2,0.5-0.5,0.5-1.5c0.1-1-0.2-2.1-0.8-2.9l-0.2-0.2l0.3-0.2
					c0.9-0.6,1.9-1,3-1.4c0.4-0.1,0.7-0.2,0.7-0.2S-1585.9-656.5-1586-656.5z M-1579.7-656.3c1.6,0.6,3.1,1.5,4.4,2.7
					c2,1.9,3.2,4.5,3.5,7.3v0.3h-6v-0.6c-0.1-2.2-0.5-4.3-1.2-6.4c-0.4-1.1-0.9-2.1-1.4-3.1c-0.2-0.3-0.3-0.5-0.3-0.6
					C-1580.9-656.6-1580.7-656.6-1579.7-656.3L-1579.7-656.3z M-1582.9-655.9c1.4,1.9,2.3,4.1,2.6,6.4c0.1,0.7,0.2,1.6,0.4,3.2v0.4
					h-3.6c-2,0-3.6,0-3.6-0.1c0-0.3,0.2-2.5,0.3-3.1c0.3-2.1,1-4.1,2.1-5.9c0.3-0.5,0.7-1,1.2-1.5
					C-1583.2-656.3-1583-656.1-1582.9-655.9L-1582.9-655.9z M-1592.2-654.2c0.7,0.4,1.2,1.1,1.3,1.9v0.2h-3.6h-3.6v-0.3
					c0.1-1,0.9-1.8,1.9-2c0.2,0,1.1-0.1,2,0h1.7L-1592.2-654.2z M-1588.9-643.3c0.1,1.9,0.4,3.8,0.9,5.6c0.4,1.4,1,2.8,1.8,4
					c0.1,0.1,0.2,0.3,0.3,0.4c-0.4-0.1-0.8-0.2-1.2-0.3c-0.9-0.3-1.8-0.8-2.6-1.3c-2.8-1.9-4.7-4.8-5.2-8.1c0-0.3-0.1-0.6-0.1-0.7
					v-0.2h6.1V-643.3z M-1579.9-643.6c0,0.2-0.1,0.6-0.1,0.9c-0.1,1.4-0.3,2.7-0.7,4.1c-0.5,1.9-1.4,3.6-2.6,5.1l-0.2,0.2l-0.4-0.5
					c-1.2-1.5-2-3.2-2.5-5.1c-0.4-1.5-0.6-3.1-0.7-4.7v-0.4h7.1L-1579.9-643.6z M-1571.9-643.7c-0.2,1.2-0.5,2.4-0.9,3.6
					c-0.1,0.3-0.1,0.3-0.6,0.4c-1.6,0.5-2.7,2-2.7,3.7v0.4l-0.3,0.3c-0.6,0.5-1.3,0.9-2,1.2c-0.8,0.3-1.5,0.6-2.3,0.9
					c0,0,0.1-0.2,0.2-0.4c1.6-2.8,2.5-5.9,2.7-9.1c0-0.5,0.1-0.9,0.1-1c1-0.1,2-0.2,3-0.1h3L-1571.9-643.7z M-1571.7-637.7
					c0.4,0.2,0.7,0.5,0.9,0.9c0.4,1,0,2.1-1,2.5c0,0-0.1,0-0.1,0.1c-1,0.3-2-0.3-2.3-1.3c-0.3-1,0.3-2,1.3-2.3
					C-1572.4-637.8-1572-637.8-1571.7-637.7L-1571.7-637.7z M-1570.1-631.9c0.3,0.1,0.6,0.3,0.8,0.6c0.4,0.3,0.6,0.8,0.6,1.3v0.3
					h-7.3v-0.2c0.1-0.7,0.4-1.3,1-1.7c0.5-0.3,0.7-0.3,2.6-0.3C-1570.6-632.1-1570.5-632.1-1570.1-631.9L-1570.1-631.9z"/>
			</g>
		</g>
	</g>
	<g id="Group_63" transform="translate(884.186 658.078)">
		<circle id="Ellipse_48-6" class="st5" cx="-711.7" cy="-135.6" r="12.5"/>
		<g id="Page-1-6" transform="translate(15.503 6.739) rotate(90)">
			<g id="Dribbble-Light-Preview-6" transform="translate(0 0)">
				<g id="icons-6" transform="translate(0)">
					<path id="arrow_up-_337_6" class="st6" d="M-136.9,730L-136.9,730c0.2-0.2,0.2-0.6,0-0.8l-4.7-4.8c-0.4-0.4-1.1-0.5-1.6,0l0,0
						l-4.7,4.9c-0.2,0.2-0.2,0.6,0,0.8s0.6,0.2,0.8,0l0,0l4.3-4.5c0.2-0.2,0.6-0.2,0.8,0l0,0l4.3,4.4
						C-137.4,730.2-137.1,730.2-136.9,730L-136.9,730L-136.9,730z"/>
				</g>
			</g>
		</g>
	</g>
	<g>
		<defs>
			<rect id="SVGID_00000058589273887496450040000006629810014442508981_" x="156.2" y="377.4" width="34" height="34"/>
		</defs>
		<clipPath id="SVGID_00000033335058154010331310000010222829095158977727_">
			<use xlink:href="#SVGID_00000058589273887496450040000006629810014442508981_"  style="overflow:visible;"/>
		</clipPath>

			<g id="connection_1_00000026137840320801167720000015552058177035131811_" transform="translate(0.472 0.125)" style="clip-path:url(#SVGID_00000033335058154010331310000010222829095158977727_);">
			<path id="Path_202_00000125564011332515229110000015464304595353660323_" class="st1" d="M161.1,377.5c-1.1,0.3-2.1,1-2.6,2
				c-0.3,0.6-0.4,1.2-0.4,1.8c0,0.6,0.1,1.2,0.4,1.8l0.2,0.4l-0.4,0.2c-0.6,0.4-1.2,1-1.6,1.6c-0.4,0.7-0.5,1.5-0.5,2.3
				c0,0.9,0,1,0.1,1.2c0.1,0.2,0.2,0.4,0.4,0.4c0.3,0.1,0.4,0.2,1.9,0.2c0.9,0,1.6,0,1.6,0s-0.1,0.3-0.2,0.6
				c-0.8,2.5-0.9,5.2-0.3,7.8c0.9,3.9,3.5,7.3,7.1,9.2c1.9,1,3.9,1.5,6,1.5c2.1,0,4.1-0.5,5.9-1.4l0.6-0.3l-0.2,0.3
				c-0.6,0.9-0.9,1.9-0.8,2.9c0,0.9,0,1,0.1,1.2c0.3,0.5,0,0.5,5.5,0.4c4.8,0,4.9,0,5.1-0.2c0.4-0.3,0.4-0.4,0.5-1.1
				c0.1-1.1-0.2-2.3-0.8-3.2c-0.4-0.5-0.9-1-1.4-1.3l-0.3-0.2l0.2-0.3c0.5-0.9,0.6-1.8,0.4-2.8c-0.2-1-0.9-1.9-1.8-2.5l-0.4-0.2
				l0.2-0.7c0.5-1.5,0.8-3.1,0.8-4.7c0-1.5-0.2-3.1-0.7-4.5c-1.3-3.9-4.3-7.1-8.1-8.6c-2.5-0.9-5.3-1.1-7.9-0.4
				c-1.4,0.4-2.7,0.9-3.9,1.7c-0.3,0.2-0.6,0.3-0.6,0.3s0.1-0.2,0.2-0.5c0.2-0.8,0.2-1.6,0-2.4c-0.3-0.9-0.9-1.7-1.7-2.2
				C162.9,377.5,162,377.3,161.1,377.5z M162.4,379.5c0.5,0.2,0.9,0.6,1.1,1.2c0.3,0.9-0.1,1.8-0.9,2.2c-0.2,0.1-0.5,0.2-0.8,0.2
				c-1,0-1.8-0.7-1.8-1.7c0,0,0-0.1,0-0.1c0-0.8,0.5-1.6,1.2-1.8C161.6,379.4,162,379.4,162.4,379.5z M170.3,383.1
				c-1.1,1.8-1.9,3.8-2.4,5.9c-0.3,1.3-0.5,2.7-0.5,4.1l0,0.6h-3.1c-2.9,0-3.1,0-3-0.1c0-0.1,0.1-0.3,0.1-0.5
				c0.2-1.1,0.5-2.2,0.9-3.3l0.1-0.2l2.2,0c2.1,0,2.2,0,2.4-0.2c0.4-0.2,0.4-0.5,0.4-1.5c0.1-1-0.2-2.1-0.8-2.9l-0.2-0.2l0.3-0.2
				c0.9-0.6,1.9-1,3-1.4c0.4-0.1,0.7-0.2,0.7-0.2S170.4,383,170.3,383.1z M176.6,383.3c1.6,0.6,3.1,1.5,4.4,2.7
				c2,1.9,3.2,4.5,3.5,7.3l0,0.3h-6l0-0.6c-0.1-2.2-0.5-4.3-1.2-6.4c-0.4-1.1-0.9-2.1-1.4-3.1c-0.2-0.3-0.3-0.5-0.3-0.6
				C175.4,382.9,175.6,382.9,176.6,383.3L176.6,383.3z M173.4,383.6c1.4,1.9,2.3,4.1,2.6,6.4c0.1,0.7,0.2,1.6,0.4,3.2l0,0.4h-3.6
				c-2,0-3.6,0-3.6-0.1c0-0.3,0.2-2.5,0.3-3.1c0.3-2.1,1-4.1,2.1-5.9c0.3-0.5,0.7-1,1.1-1.5C173.1,383.2,173.3,383.4,173.4,383.6
				L173.4,383.6z M164.1,385.4c0.7,0.4,1.2,1.1,1.3,1.9v0.2l-3.6,0l-3.6,0l0-0.3c0.1-1,0.9-1.8,1.9-2c0.2,0,1.1-0.1,2,0l1.7,0
				L164.1,385.4z M167.4,396.2c0.1,1.9,0.4,3.8,0.9,5.6c0.4,1.4,1,2.8,1.8,4c0.1,0.1,0.2,0.3,0.3,0.4c-0.4-0.1-0.8-0.2-1.2-0.3
				c-0.9-0.3-1.8-0.8-2.6-1.3c-2.8-1.9-4.7-4.8-5.2-8.1c0-0.3-0.1-0.6-0.1-0.7l0-0.2h6.1L167.4,396.2z M176.4,396
				c0,0.2-0.1,0.6-0.1,0.9c-0.1,1.4-0.3,2.7-0.7,4.1c-0.5,1.9-1.4,3.6-2.6,5.1l-0.2,0.2l-0.4-0.5c-1.2-1.5-2-3.2-2.5-5.1
				c-0.4-1.5-0.6-3.1-0.7-4.7l0-0.4h7.1L176.4,396z M184.4,395.8c-0.2,1.2-0.5,2.4-0.9,3.6c-0.1,0.3-0.1,0.3-0.6,0.4
				c-1.6,0.5-2.7,2-2.7,3.7v0.4l-0.3,0.3c-0.6,0.5-1.3,0.9-2,1.2c-0.8,0.3-1.5,0.6-2.3,0.9c0,0,0.1-0.2,0.2-0.4
				c1.6-2.8,2.5-5.9,2.7-9.1c0-0.5,0.1-0.9,0.1-1c1-0.1,2-0.2,3-0.1h3L184.4,395.8z M184.6,401.9c0.4,0.2,0.7,0.5,0.9,0.9
				c0.4,1,0,2.1-1,2.5c0,0-0.1,0-0.1,0.1c-1,0.3-2-0.3-2.3-1.3c-0.3-1,0.3-2,1.3-2.3C183.9,401.7,184.3,401.7,184.6,401.9
				L184.6,401.9z M186.2,407.6c0.3,0.1,0.6,0.3,0.8,0.6c0.4,0.3,0.6,0.8,0.6,1.3l0,0.3h-7.3v-0.2c0.1-0.7,0.4-1.3,1-1.7
				c0.5-0.3,0.7-0.3,2.6-0.3C185.7,407.5,185.8,407.5,186.2,407.6L186.2,407.6z"/>
		</g>
	</g>
</g>
</svg>
