<svg id="Group_309" data-name="Group 309" xmlns="http://www.w3.org/2000/svg" xmlns:xlink="http://www.w3.org/1999/xlink" width="48" height="48" viewBox="0 0 48 48">
  <defs>
    <clipPath id="clip-path">
      <rect id="Rectangle_263" data-name="Rectangle 263" width="48" height="48" fill="none" stroke="#fff" stroke-width="1.5"/>
    </clipPath>
  </defs>
  <g id="Group_308" data-name="Group 308" clip-path="url(#clip-path)">
    <path id="Path_242" data-name="Path 242" d="M8.473,7,4.908,10.565a1,1,0,0,0,0,1.414L8.239,15.31A17.9,17.9,0,0,0,6.719,19H2a1,1,0,0,0-1,1v8a1,1,0,0,0,1,1H6.719a17.918,17.918,0,0,0,1.52,3.69L4.908,36.021a1,1,0,0,0,0,1.414l5.657,5.657a1,1,0,0,0,1.414,0l3.331-3.331A17.9,17.9,0,0,0,19,41.281V46a1,1,0,0,0,1,1h8a1,1,0,0,0,1-1V41.281a17.918,17.918,0,0,0,3.69-1.52l3.331,3.331a1,1,0,0,0,1.414,0l5.657-5.657a1,1,0,0,0,0-1.414L39.761,32.69A17.918,17.918,0,0,0,41.281,29H46a1,1,0,0,0,1-1V20a1,1,0,0,0-1-1H41.281a17.9,17.9,0,0,0-1.52-3.69l3.331-3.331a1,1,0,0,0,0-1.414L39.527,7" fill="none" stroke="#fff" stroke-linejoin="round" stroke-width="1.5"/>
    <line id="Line_69" data-name="Line 69" y2="2" transform="translate(24 41)" fill="none" stroke="#fff" stroke-linejoin="round" stroke-width="1.5"/>
    <line id="Line_70" data-name="Line 70" y2="2" transform="translate(24 5)" fill="none" stroke="#fff" stroke-linejoin="round" stroke-width="1.5"/>
    <line id="Line_71" data-name="Line 71" y2="2" transform="translate(42 23)" fill="none" stroke="#fff" stroke-linejoin="round" stroke-width="1.5"/>
    <line id="Line_72" data-name="Line 72" y2="2" transform="translate(6 23)" fill="none" stroke="#fff" stroke-linejoin="round" stroke-width="1.5"/>
    <path id="Path_243" data-name="Path 243" d="M24,7V3a2,2,0,0,0-2-2H14a2,2,0,0,0-2,2V9h9" fill="none" stroke="#fff" stroke-linejoin="round" stroke-width="1.5"/>
    <path id="Path_244" data-name="Path 244" d="M24,7V3a2,2,0,0,1,2-2h8a2,2,0,0,1,2,2V9H27" fill="none" stroke="#fff" stroke-linejoin="round" stroke-width="1.5"/>
    <line id="Line_73" data-name="Line 73" x2="16" transform="translate(16 5)" fill="none" stroke="#fff" stroke-linejoin="round" stroke-width="1.5"/>
    <line id="Line_74" data-name="Line 74" y2="7" transform="translate(24 5)" fill="none" stroke="#fff" stroke-linejoin="round" stroke-width="1.5"/>
    <circle id="Ellipse_117" data-name="Ellipse 117" cx="12" cy="12" r="12" transform="translate(12 12)" fill="none" stroke="#fff" stroke-linejoin="round" stroke-width="1.5"/>
    <line id="Line_75" data-name="Line 75" y1="2" transform="translate(24 15)" fill="none" stroke="#fff" stroke-linejoin="round" stroke-width="1.5"/>
    <line id="Line_76" data-name="Line 76" y1="2" transform="translate(24 31)" fill="none" stroke="#fff" stroke-linejoin="round" stroke-width="1.5"/>
    <line id="Line_77" data-name="Line 77" x2="2" transform="translate(15 24)" fill="none" stroke="#fff" stroke-linejoin="round" stroke-width="1.5"/>
    <line id="Line_78" data-name="Line 78" x2="2" transform="translate(31 24)" fill="none" stroke="#fff" stroke-linejoin="round" stroke-width="1.5"/>
  </g>
  <path id="Icon_awesome-euro-sign" data-name="Icon awesome-euro-sign" d="M6.413,10.13a.247.247,0,0,0-.3-.193,4.337,4.337,0,0,1-.938.112A2.657,2.657,0,0,1,2.671,8.285H5.018a.248.248,0,0,0,.242-.193l.132-.585a.248.248,0,0,0-.242-.3H2.378a4.456,4.456,0,0,1,0-.872H5.407a.248.248,0,0,0,.242-.195l.134-.614a.248.248,0,0,0-.242-.3H2.687A2.592,2.592,0,0,1,5.115,3.674a4.043,4.043,0,0,1,.781.086.248.248,0,0,0,.289-.178l.248-.916a.247.247,0,0,0-.192-.308A6.011,6.011,0,0,0,5.153,2.25,4.411,4.411,0,0,0,.93,5.222H.248A.248.248,0,0,0,0,5.47v.614a.248.248,0,0,0,.248.248H.693a6.128,6.128,0,0,0,0,.872H.248A.248.248,0,0,0,0,7.452v.585a.248.248,0,0,0,.248.248H.869A4.324,4.324,0,0,0,5.153,11.5a5.148,5.148,0,0,0,1.261-.161.248.248,0,0,0,.181-.288l-.182-.918Z" transform="translate(20.5 17.126)" fill="#fff"/>
</svg>
