<?xml version="1.0" encoding="utf-8"?>
<!-- Generator: Adobe Illustrator 27.5.0, SVG Export Plug-In . SVG Version: 6.00 Build 0)  -->
<svg version="1.1" id="Layer_1" xmlns="http://www.w3.org/2000/svg" xmlns:xlink="http://www.w3.org/1999/xlink" x="0px" y="0px"
	 viewBox="0 0 424 256" style="enable-background:new 0 0 424 256;" xml:space="preserve">
<style type="text/css">
	.st0{enable-background:new    ;}
	.st1{fill:#11B3E8;}
</style>
<g id="Group_235" transform="translate(-74 -67)">
	<g id="Footer" transform="translate(-971 -1327.522)">
		
			<image style="overflow:visible;enable-background:new    ;" width="2667" height="1611" id="NH_logo-_400dpi" xlink:href="AACC953E44D96E29.png"  transform="matrix(0.1589 0 0 0.1589 1045.0968 1394.5229)">
		</image>
	</g>
	<g class="st0">
		<path class="st1" d="M103.2,242.1c0,1.2-0.2,2.3-0.5,3.3c-0.3,1-0.8,1.8-1.4,2.6s-1.4,1.3-2.3,1.6c-0.9,0.4-2,0.6-3.3,0.6
			c-1.3,0-2.4-0.2-3.3-0.6c-0.9-0.4-1.7-0.9-2.3-1.6s-1.1-1.6-1.4-2.6s-0.5-2.1-0.5-3.3c0-1.6,0.3-3,0.8-4.2
			c0.5-1.2,1.4-2.1,2.5-2.8c1.1-0.7,2.5-1,4.2-1c1.7,0,3.1,0.3,4.2,1c1.1,0.7,1.9,1.6,2.4,2.8C103,239.1,103.2,240.5,103.2,242.1z
			 M91.8,242.1c0,1.1,0.1,2,0.4,2.8c0.3,0.8,0.7,1.4,1.3,1.8c0.6,0.4,1.3,0.6,2.3,0.6c0.9,0,1.7-0.2,2.3-0.6c0.6-0.4,1-1,1.3-1.8
			c0.3-0.8,0.4-1.7,0.4-2.8c0-1.6-0.3-2.9-0.9-3.9c-0.6-0.9-1.6-1.4-3-1.4c-0.9,0-1.7,0.2-2.3,0.6c-0.6,0.4-1,1-1.3,1.8
			C91.9,240.1,91.8,241,91.8,242.1z"/>
		<path class="st1" d="M115.5,250h-9v-15.7h9v2.7h-5.7v3.4h5.3v2.7h-5.3v4h5.7V250z"/>
		<path class="st1" d="M125.5,236.8c-0.6,0-1.2,0.1-1.7,0.4c-0.5,0.2-0.9,0.6-1.2,1.1s-0.6,1-0.8,1.7s-0.3,1.4-0.3,2.2
			c0,1.1,0.1,2.1,0.4,2.8c0.3,0.8,0.7,1.4,1.3,1.8c0.6,0.4,1.3,0.6,2.2,0.6c0.6,0,1.3-0.1,1.9-0.2c0.6-0.1,1.3-0.3,2.1-0.6v2.8
			c-0.7,0.3-1.4,0.5-2.1,0.6c-0.7,0.1-1.4,0.2-2.3,0.2c-1.6,0-2.9-0.3-4-1c-1-0.7-1.8-1.6-2.3-2.8c-0.5-1.2-0.8-2.6-0.8-4.2
			c0-1.2,0.2-2.3,0.5-3.3s0.8-1.8,1.4-2.6s1.4-1.3,2.3-1.7c0.9-0.4,2-0.6,3.2-0.6c0.8,0,1.6,0.1,2.3,0.3c0.8,0.2,1.5,0.5,2.3,0.8
			l-1.1,2.7c-0.6-0.3-1.2-0.5-1.8-0.7C126.6,236.9,126.1,236.8,125.5,236.8z"/>
		<path class="st1" d="M145.9,242c0,1.8-0.3,3.2-1,4.4c-0.7,1.2-1.7,2.1-2.9,2.7c-1.3,0.6-2.8,0.9-4.6,0.9h-4.4v-15.7h4.9
			c1.6,0,3.1,0.3,4.3,0.9c1.2,0.6,2.1,1.4,2.8,2.6C145.5,238.9,145.9,240.3,145.9,242z M142.4,242.1c0-1.2-0.2-2.1-0.5-2.9
			c-0.3-0.7-0.8-1.3-1.5-1.7c-0.7-0.4-1.5-0.5-2.5-0.5h-1.8v10.2h1.4c1.6,0,2.8-0.4,3.6-1.3C142,245.1,142.4,243.8,142.4,242.1z"/>
		<path class="st1" d="M160.9,250h-3.3v-12.9h-4.3v-2.8h11.9v2.8h-4.3V250z"/>
		<path class="st1" d="M173.5,241.2h6.2v8.1c-0.8,0.3-1.7,0.5-2.6,0.6c-0.9,0.2-1.9,0.2-3,0.2c-1.6,0-2.9-0.3-4-0.9
			s-1.9-1.5-2.5-2.7s-0.8-2.7-0.8-4.4c0-1.6,0.3-3.1,1-4.3c0.6-1.2,1.6-2.1,2.8-2.8c1.2-0.7,2.7-1,4.5-1c0.8,0,1.7,0.1,2.5,0.3
			s1.5,0.4,2.2,0.7l-1.1,2.7c-0.5-0.2-1-0.4-1.6-0.6s-1.3-0.2-1.9-0.2c-1,0-1.8,0.2-2.5,0.7c-0.7,0.4-1.3,1.1-1.7,1.9
			c-0.4,0.8-0.6,1.7-0.6,2.8c0,1,0.1,1.9,0.4,2.7c0.3,0.8,0.7,1.4,1.3,1.9c0.6,0.4,1.4,0.7,2.4,0.7c0.5,0,0.9,0,1.2-0.1
			c0.3,0,0.6-0.1,0.9-0.1V244h-3V241.2z"/>
		<path class="st1" d="M190.5,234.3l-5.9,15.7h-3l5.9-15.7H190.5z"/>
		<path class="st1" d="M198.5,241.2h6.2v8.1c-0.8,0.3-1.7,0.5-2.6,0.6c-0.9,0.2-1.9,0.2-3,0.2c-1.6,0-2.9-0.3-4-0.9
			s-1.9-1.5-2.5-2.7s-0.8-2.7-0.8-4.4c0-1.6,0.3-3.1,1-4.3c0.6-1.2,1.6-2.1,2.8-2.8c1.2-0.7,2.7-1,4.5-1c0.8,0,1.7,0.1,2.5,0.3
			s1.5,0.4,2.2,0.7l-1.1,2.7c-0.5-0.2-1-0.4-1.6-0.6s-1.3-0.2-1.9-0.2c-1,0-1.8,0.2-2.5,0.7c-0.7,0.4-1.3,1.1-1.7,1.9
			c-0.4,0.8-0.6,1.7-0.6,2.8c0,1,0.1,1.9,0.4,2.7c0.3,0.8,0.7,1.4,1.3,1.9c0.6,0.4,1.4,0.7,2.4,0.7c0.5,0,0.9,0,1.2-0.1
			c0.3,0,0.6-0.1,0.9-0.1V244h-3V241.2z"/>
		<path class="st1" d="M221.5,242c0,1.8-0.3,3.2-1,4.4c-0.7,1.2-1.7,2.1-2.9,2.7c-1.3,0.6-2.8,0.9-4.6,0.9h-4.4v-15.7h4.9
			c1.6,0,3.1,0.3,4.3,0.9c1.2,0.6,2.1,1.4,2.8,2.6C221.2,238.9,221.5,240.3,221.5,242z M218.1,242.1c0-1.2-0.2-2.1-0.5-2.9
			c-0.3-0.7-0.8-1.3-1.5-1.7c-0.7-0.4-1.5-0.5-2.5-0.5h-1.8v10.2h1.4c1.6,0,2.8-0.4,3.6-1.3C217.7,245.1,218.1,243.8,218.1,242.1z"
			/>
		<path class="st1" d="M235.5,234.3c2,0,3.5,0.4,4.4,1.3c0.9,0.9,1.4,2.1,1.4,3.6c0,0.7-0.1,1.3-0.3,2c-0.2,0.6-0.5,1.2-1,1.7
			c-0.5,0.5-1.1,0.9-1.9,1.2c-0.8,0.3-1.7,0.4-2.9,0.4h-1.4v5.6h-3.3v-15.7H235.5z M235.4,237h-1.5v4.7h1.1c0.6,0,1.2-0.1,1.6-0.2
			s0.8-0.4,1.1-0.8s0.4-0.8,0.4-1.4c0-0.8-0.2-1.3-0.6-1.7C236.9,237.2,236.3,237,235.4,237z"/>
		<path class="st1" d="M250.8,237.8c0.2,0,0.4,0,0.6,0c0.2,0,0.4,0,0.5,0.1l-0.2,3.1c-0.1,0-0.3-0.1-0.5-0.1c-0.2,0-0.4,0-0.5,0
			c-0.4,0-0.8,0.1-1.2,0.2c-0.4,0.1-0.8,0.3-1.1,0.5c-0.3,0.2-0.6,0.6-0.7,0.9c-0.2,0.4-0.3,0.9-0.3,1.4v6.1h-3.3v-12h2.5l0.5,2h0.2
			c0.2-0.4,0.5-0.8,0.9-1.1c0.4-0.3,0.8-0.6,1.2-0.8C249.8,237.9,250.2,237.8,250.8,237.8z"/>
		<path class="st1" d="M265,244c0,1-0.1,1.9-0.4,2.7c-0.3,0.8-0.7,1.4-1.2,2c-0.5,0.5-1.1,0.9-1.8,1.2c-0.7,0.3-1.5,0.4-2.4,0.4
			c-0.8,0-1.6-0.1-2.3-0.4c-0.7-0.3-1.3-0.7-1.8-1.2c-0.5-0.5-0.9-1.2-1.2-2c-0.3-0.8-0.4-1.7-0.4-2.7c0-1.3,0.2-2.5,0.7-3.4
			s1.1-1.6,2-2.1s1.9-0.7,3.1-0.7c1.1,0,2.1,0.2,3,0.7c0.9,0.5,1.6,1.2,2.1,2.1C264.7,241.5,265,242.6,265,244z M256.7,244
			c0,0.8,0.1,1.5,0.3,2s0.4,0.9,0.8,1.2s0.8,0.4,1.4,0.4c0.6,0,1.1-0.1,1.4-0.4c0.4-0.3,0.6-0.7,0.8-1.2c0.2-0.5,0.3-1.2,0.3-2
			c0-0.8-0.1-1.5-0.3-2c-0.2-0.5-0.4-0.9-0.8-1.2s-0.8-0.4-1.4-0.4c-0.9,0-1.5,0.3-1.9,0.9C256.9,241.9,256.7,242.8,256.7,244z"/>
		<path class="st1" d="M272.6,250.2c-1.2,0-2.2-0.2-3-0.7c-0.8-0.4-1.5-1.1-1.9-2s-0.7-2.1-0.7-3.5c0-1.5,0.2-2.7,0.7-3.6
			c0.5-0.9,1.2-1.6,2.1-2c0.9-0.4,1.9-0.7,3.1-0.7c0.8,0,1.5,0.1,2.2,0.2c0.6,0.2,1.1,0.4,1.6,0.6l-1,2.5c-0.5-0.2-1-0.4-1.4-0.5
			c-0.4-0.1-0.9-0.2-1.3-0.2c-0.6,0-1,0.1-1.4,0.4c-0.4,0.3-0.7,0.7-0.8,1.2s-0.3,1.2-0.3,2c0,0.8,0.1,1.5,0.3,2s0.5,0.9,0.9,1.2
			c0.4,0.3,0.8,0.4,1.4,0.4c0.7,0,1.3-0.1,1.8-0.3c0.5-0.2,1-0.4,1.5-0.8v2.8c-0.5,0.3-1,0.5-1.6,0.7
			C274.1,250.1,273.4,250.2,272.6,250.2z"/>
		<path class="st1" d="M283.9,237.8c1.1,0,2.1,0.2,2.9,0.6c0.8,0.4,1.4,1,1.9,1.9s0.7,1.8,0.7,3v1.6h-7.7c0,0.9,0.3,1.6,0.8,2.2
			c0.5,0.5,1.2,0.8,2.2,0.8c0.8,0,1.5-0.1,2.1-0.2s1.3-0.4,2-0.7v2.5c-0.6,0.3-1.2,0.5-1.9,0.6c-0.6,0.1-1.4,0.2-2.4,0.2
			c-1.2,0-2.3-0.2-3.2-0.7c-0.9-0.4-1.7-1.1-2.2-2c-0.5-0.9-0.8-2.1-0.8-3.4c0-1.4,0.2-2.6,0.7-3.5c0.5-0.9,1.1-1.6,2-2.1
			C281.8,238,282.8,237.8,283.9,237.8z M284,240.1c-0.6,0-1.2,0.2-1.6,0.6c-0.4,0.4-0.7,1-0.7,1.9h4.6c0-0.5-0.1-0.9-0.3-1.3
			c-0.2-0.4-0.4-0.7-0.8-0.9C284.9,240.2,284.5,240.1,284,240.1z"/>
		<path class="st1" d="M300.4,246.4c0,0.8-0.2,1.5-0.6,2.1c-0.4,0.6-1,1-1.7,1.3c-0.8,0.3-1.7,0.4-2.8,0.4c-0.8,0-1.6-0.1-2.2-0.2
			c-0.6-0.1-1.2-0.3-1.8-0.5v-2.7c0.7,0.3,1.4,0.5,2.1,0.7c0.7,0.2,1.4,0.3,2,0.3c0.6,0,1.1-0.1,1.4-0.3c0.3-0.2,0.4-0.4,0.4-0.7
			c0-0.2-0.1-0.4-0.2-0.5c-0.1-0.2-0.3-0.3-0.7-0.5c-0.4-0.2-0.9-0.5-1.7-0.8c-0.8-0.3-1.4-0.6-1.9-1c-0.5-0.3-0.8-0.7-1.1-1.1
			c-0.2-0.4-0.3-1-0.3-1.7c0-1.1,0.4-1.9,1.3-2.5c0.9-0.6,2-0.8,3.5-0.8c0.7,0,1.5,0.1,2.1,0.2c0.7,0.2,1.4,0.4,2.1,0.7l-1,2.4
			c-0.6-0.3-1.2-0.5-1.7-0.6c-0.5-0.2-1.1-0.2-1.6-0.2c-0.5,0-0.8,0.1-1.1,0.2s-0.4,0.3-0.4,0.6c0,0.2,0.1,0.4,0.2,0.5
			c0.1,0.2,0.4,0.3,0.7,0.5c0.4,0.2,0.9,0.4,1.6,0.7c0.7,0.3,1.3,0.6,1.8,0.9c0.5,0.3,0.9,0.7,1.2,1.1
			C300.2,245.1,300.4,245.7,300.4,246.4z"/>
		<path class="st1" d="M311.3,246.4c0,0.8-0.2,1.5-0.6,2.1c-0.4,0.6-1,1-1.7,1.3c-0.8,0.3-1.7,0.4-2.8,0.4c-0.8,0-1.6-0.1-2.2-0.2
			c-0.6-0.1-1.2-0.3-1.8-0.5v-2.7c0.7,0.3,1.4,0.5,2.1,0.7c0.7,0.2,1.4,0.3,2,0.3c0.6,0,1.1-0.1,1.4-0.3c0.3-0.2,0.4-0.4,0.4-0.7
			c0-0.2-0.1-0.4-0.2-0.5c-0.1-0.2-0.3-0.3-0.7-0.5c-0.4-0.2-0.9-0.5-1.7-0.8c-0.8-0.3-1.4-0.6-1.9-1c-0.5-0.3-0.8-0.7-1.1-1.1
			c-0.2-0.4-0.3-1-0.3-1.7c0-1.1,0.4-1.9,1.3-2.5c0.9-0.6,2-0.8,3.5-0.8c0.7,0,1.5,0.1,2.1,0.2c0.7,0.2,1.4,0.4,2.1,0.7l-1,2.4
			c-0.6-0.3-1.2-0.5-1.7-0.6c-0.5-0.2-1.1-0.2-1.6-0.2c-0.5,0-0.8,0.1-1.1,0.2s-0.4,0.3-0.4,0.6c0,0.2,0.1,0.4,0.2,0.5
			c0.1,0.2,0.4,0.3,0.7,0.5c0.4,0.2,0.9,0.4,1.6,0.7c0.7,0.3,1.3,0.6,1.8,0.9c0.5,0.3,0.9,0.7,1.2,1.1
			C311.2,245.1,311.3,245.7,311.3,246.4z"/>
		<path class="st1" d="M326.5,250l-3.8-12.3h-0.1c0,0.3,0,0.7,0.1,1.3c0,0.6,0.1,1.2,0.1,1.9s0,1.3,0,1.8v7.3h-3v-15.7h4.5l3.7,12
			h0.1l3.9-12h4.5V250h-3.1v-7.4c0-0.5,0-1.1,0-1.7c0-0.6,0-1.3,0.1-1.8c0-0.6,0-1,0.1-1.3h-0.1l-4,12.3H326.5z"/>
		<path class="st1" d="M345.3,237.8c1.1,0,2.1,0.2,2.9,0.6c0.8,0.4,1.4,1,1.9,1.9s0.7,1.8,0.7,3v1.6h-7.7c0,0.9,0.3,1.6,0.8,2.2
			c0.5,0.5,1.2,0.8,2.2,0.8c0.8,0,1.5-0.1,2.1-0.2s1.3-0.4,2-0.7v2.5c-0.6,0.3-1.2,0.5-1.9,0.6c-0.6,0.1-1.4,0.2-2.4,0.2
			c-1.2,0-2.3-0.2-3.2-0.7c-0.9-0.4-1.7-1.1-2.2-2c-0.5-0.9-0.8-2.1-0.8-3.4c0-1.4,0.2-2.6,0.7-3.5c0.5-0.9,1.1-1.6,2-2.1
			C343.2,238,344.1,237.8,345.3,237.8z M345.3,240.1c-0.6,0-1.2,0.2-1.6,0.6c-0.4,0.4-0.7,1-0.7,1.9h4.6c0-0.5-0.1-0.9-0.3-1.3
			c-0.2-0.4-0.4-0.7-0.8-0.9C346.2,240.2,345.8,240.1,345.3,240.1z"/>
		<path class="st1" d="M360.1,237.8c1.3,0,2.3,0.3,3.1,1c0.8,0.7,1.2,1.8,1.2,3.4v7.8h-3.3v-7c0-0.9-0.2-1.5-0.5-1.9
			c-0.3-0.4-0.8-0.7-1.5-0.7c-1,0-1.7,0.3-2.1,1s-0.5,1.7-0.5,2.9v5.7h-3.3v-12h2.5l0.4,1.5h0.2c0.3-0.4,0.6-0.8,1-1
			c0.4-0.3,0.8-0.4,1.3-0.6C359.2,237.8,359.6,237.8,360.1,237.8z"/>
		<path class="st1" d="M372.8,247.6c0.4,0,0.7,0,1-0.1c0.3-0.1,0.7-0.2,1-0.3v2.4c-0.4,0.2-0.8,0.3-1.3,0.4
			c-0.5,0.1-1.1,0.2-1.7,0.2c-0.7,0-1.4-0.1-1.9-0.3c-0.6-0.2-1-0.6-1.3-1.2c-0.3-0.6-0.5-1.4-0.5-2.4v-5.8h-1.6v-1.4l1.8-1.1
			l0.9-2.5h2.1v2.6h3.4v2.5h-3.4v5.8c0,0.5,0.1,0.8,0.4,1C372.1,247.5,372.4,247.6,372.8,247.6z"/>
		<path class="st1" d="M388.2,244c0,1-0.1,1.9-0.4,2.7c-0.3,0.8-0.7,1.4-1.2,2c-0.5,0.5-1.1,0.9-1.8,1.2c-0.7,0.3-1.5,0.4-2.4,0.4
			c-0.8,0-1.6-0.1-2.3-0.4c-0.7-0.3-1.3-0.7-1.8-1.2c-0.5-0.5-0.9-1.2-1.2-2c-0.3-0.8-0.4-1.7-0.4-2.7c0-1.3,0.2-2.5,0.7-3.4
			s1.1-1.6,2-2.1s1.9-0.7,3.1-0.7c1.1,0,2.1,0.2,3,0.7c0.9,0.5,1.6,1.2,2.1,2.1C388,241.5,388.2,242.6,388.2,244z M379.9,244
			c0,0.8,0.1,1.5,0.3,2s0.4,0.9,0.8,1.2s0.8,0.4,1.4,0.4c0.6,0,1.1-0.1,1.4-0.4c0.4-0.3,0.6-0.7,0.8-1.2c0.2-0.5,0.3-1.2,0.3-2
			c0-0.8-0.1-1.5-0.3-2c-0.2-0.5-0.4-0.9-0.8-1.2s-0.8-0.4-1.4-0.4c-0.9,0-1.5,0.3-1.9,0.9C380.1,241.9,379.9,242.8,379.9,244z"/>
		<path class="st1" d="M397.7,237.8c0.2,0,0.4,0,0.6,0c0.2,0,0.4,0,0.5,0.1l-0.2,3.1c-0.1,0-0.3-0.1-0.5-0.1c-0.2,0-0.4,0-0.5,0
			c-0.4,0-0.8,0.1-1.2,0.2c-0.4,0.1-0.8,0.3-1.1,0.5c-0.3,0.2-0.6,0.6-0.7,0.9c-0.2,0.4-0.3,0.9-0.3,1.4v6.1H391v-12h2.5l0.5,2h0.2
			c0.2-0.4,0.5-0.8,0.9-1.1c0.4-0.3,0.8-0.6,1.2-0.8C396.6,237.9,397.1,237.8,397.7,237.8z"/>
	</g>
</g>
</svg>
