<?xml version="1.0" encoding="utf-8"?>
<!-- Generator: Adobe Illustrator 27.8.1, SVG Export Plug-In . SVG Version: 6.00 Build 0)  -->
<svg version="1.1" id="Layer_1" xmlns="http://www.w3.org/2000/svg" xmlns:xlink="http://www.w3.org/1999/xlink" x="0px" y="0px"
	 viewBox="0 0 357 60" style="enable-background:new 0 0 357 60;" xml:space="preserve">
<style type="text/css">
	.st0{fill:#D9F6FF;}
	.st1{enable-background:new    ;}
	.st2{fill:#005494;}
</style>
<g id="Group_244" transform="translate(-27 -857.092)">
	<path id="Rectangle_220" class="st0" d="M27,857.1h307c27.6,0,50,22.4,50,50v10l0,0H27l0,0V857.1L27,857.1z"/>
	<g class="st1">
		<path class="st2" d="M83.6,883.8c-0.5,0-0.9,0.1-1.3,0.3s-0.7,0.4-1,0.7c-0.3,0.3-0.5,0.7-0.6,1.2c-0.1,0.5-0.2,1-0.2,1.6
			c0,0.8,0.1,1.4,0.3,2c0.2,0.6,0.6,1,1,1.3c0.4,0.3,1,0.4,1.7,0.4c0.4,0,0.8,0,1.2-0.1s0.8-0.2,1.2-0.3v1.4
			c-0.4,0.2-0.8,0.3-1.2,0.3s-0.9,0.1-1.4,0.1c-1,0-1.9-0.2-2.5-0.6s-1.2-1-1.5-1.8s-0.5-1.7-0.5-2.7c0-0.8,0.1-1.4,0.3-2.1
			s0.5-1.2,0.9-1.6c0.4-0.5,0.9-0.8,1.5-1.1c0.6-0.2,1.3-0.4,2-0.4c0.5,0,1,0.1,1.5,0.2c0.5,0.1,0.9,0.3,1.4,0.5l-0.6,1.4
			c-0.3-0.2-0.7-0.3-1.1-0.4S84,883.8,83.6,883.8z"/>
		<path class="st2" d="M94.7,888.8c0,0.6-0.1,1.2-0.2,1.7s-0.4,0.9-0.7,1.2c-0.3,0.3-0.7,0.6-1.1,0.8c-0.4,0.2-0.9,0.3-1.5,0.3
			c-0.5,0-1-0.1-1.4-0.3c-0.4-0.2-0.8-0.4-1.1-0.8c-0.3-0.3-0.6-0.7-0.7-1.2s-0.3-1-0.3-1.7c0-0.8,0.1-1.5,0.4-2.1
			c0.3-0.6,0.7-1,1.2-1.3s1.2-0.5,1.9-0.5c0.7,0,1.3,0.2,1.8,0.5s1,0.8,1.3,1.3S94.7,888,94.7,888.8z M89.3,888.8
			c0,0.6,0.1,1,0.2,1.4s0.3,0.7,0.6,0.9c0.3,0.2,0.6,0.3,1.1,0.3s0.8-0.1,1.1-0.3c0.3-0.2,0.5-0.5,0.6-0.9s0.2-0.9,0.2-1.4
			s-0.1-1-0.2-1.4c-0.1-0.4-0.3-0.7-0.6-0.9c-0.3-0.2-0.6-0.3-1.1-0.3c-0.7,0-1.2,0.2-1.5,0.7S89.3,888,89.3,888.8z"/>
		<path class="st2" d="M105.1,884.9c0.8,0,1.5,0.2,1.9,0.7s0.6,1.1,0.6,2.1v4.9h-1.6v-4.7c0-0.6-0.1-1-0.3-1.3s-0.6-0.4-1-0.4
			c-0.6,0-1.1,0.2-1.4,0.6c-0.3,0.4-0.4,1-0.4,1.8v4h-1.6v-4.7c0-0.4,0-0.7-0.1-1c-0.1-0.3-0.2-0.5-0.4-0.6
			c-0.2-0.1-0.5-0.2-0.8-0.2c-0.4,0-0.8,0.1-1.1,0.3s-0.5,0.5-0.6,0.9c-0.1,0.4-0.2,0.9-0.2,1.4v3.8h-1.6V885h1.3l0.2,1h0.1
			c0.2-0.3,0.3-0.5,0.6-0.7c0.2-0.2,0.5-0.3,0.8-0.4c0.3-0.1,0.6-0.1,0.9-0.1c0.6,0,1,0.1,1.4,0.3c0.4,0.2,0.7,0.5,0.9,0.9h0.1
			c0.2-0.4,0.6-0.7,1-0.9S104.7,884.9,105.1,884.9z"/>
		<path class="st2" d="M118.5,884.9c0.8,0,1.5,0.2,1.9,0.7s0.6,1.1,0.6,2.1v4.9h-1.6v-4.7c0-0.6-0.1-1-0.3-1.3s-0.6-0.4-1-0.4
			c-0.6,0-1.1,0.2-1.4,0.6c-0.3,0.4-0.4,1-0.4,1.8v4h-1.6v-4.7c0-0.4,0-0.7-0.1-1c-0.1-0.3-0.2-0.5-0.4-0.6
			c-0.2-0.1-0.5-0.2-0.8-0.2c-0.4,0-0.8,0.1-1.1,0.3s-0.5,0.5-0.6,0.9c-0.1,0.4-0.2,0.9-0.2,1.4v3.8h-1.6V885h1.3l0.2,1h0.1
			c0.2-0.3,0.3-0.5,0.6-0.7c0.2-0.2,0.5-0.3,0.8-0.4c0.3-0.1,0.6-0.1,0.9-0.1c0.6,0,1,0.1,1.4,0.3c0.4,0.2,0.7,0.5,0.9,0.9h0.1
			c0.2-0.4,0.6-0.7,1-0.9S118,884.9,118.5,884.9z"/>
		<path class="st2" d="M126.3,884.9c0.7,0,1.3,0.1,1.7,0.4s0.9,0.7,1.1,1.2s0.4,1.1,0.4,1.8v0.9h-5.1c0,0.7,0.2,1.3,0.6,1.7
			s0.9,0.6,1.6,0.6c0.5,0,0.9,0,1.3-0.1c0.4-0.1,0.8-0.2,1.2-0.4v1.3c-0.4,0.2-0.8,0.3-1.2,0.4s-0.9,0.1-1.4,0.1
			c-0.7,0-1.4-0.1-2-0.4c-0.6-0.3-1-0.7-1.3-1.3s-0.5-1.3-0.5-2.1c0-0.8,0.1-1.6,0.4-2.2s0.7-1,1.2-1.4S125.6,884.9,126.3,884.9z
			 M126.3,886.1c-0.5,0-0.9,0.2-1.2,0.5s-0.5,0.8-0.6,1.4h3.4c0-0.4-0.1-0.7-0.2-1s-0.3-0.5-0.5-0.7S126.7,886.1,126.3,886.1z"/>
		<path class="st2" d="M135.3,884.9c0.9,0,1.5,0.2,2,0.7c0.5,0.4,0.7,1.1,0.7,2.1v4.9h-1.6V888c0-0.6-0.1-1-0.4-1.3
			c-0.2-0.3-0.6-0.4-1.1-0.4c-0.7,0-1.2,0.2-1.5,0.7s-0.4,1.1-0.4,2v3.8h-1.6V885h1.3l0.2,1h0.1c0.2-0.3,0.4-0.5,0.6-0.7
			c0.2-0.2,0.5-0.3,0.8-0.4S135,884.9,135.3,884.9z"/>
		<path class="st2" d="M143.1,891.4c0.2,0,0.4,0,0.6-0.1c0.2,0,0.4-0.1,0.6-0.1v1.2c-0.2,0.1-0.4,0.1-0.7,0.2s-0.6,0.1-0.9,0.1
			c-0.4,0-0.8-0.1-1.2-0.2c-0.3-0.1-0.6-0.4-0.8-0.7s-0.3-0.8-0.3-1.5v-4.1h-1v-0.7l1.1-0.6l0.5-1.6h1v1.7h2.2v1.2H142v4
			c0,0.4,0.1,0.7,0.3,0.9S142.8,891.4,143.1,891.4z"/>
		<path class="st2" d="M146.6,882.1c0.2,0,0.5,0.1,0.6,0.2s0.3,0.4,0.3,0.7c0,0.3-0.1,0.5-0.3,0.7c-0.2,0.1-0.4,0.2-0.6,0.2
			c-0.3,0-0.5-0.1-0.6-0.2c-0.2-0.1-0.3-0.4-0.3-0.7c0-0.3,0.1-0.6,0.3-0.7S146.4,882.1,146.6,882.1z M147.4,885v7.6h-1.6V885H147.4
			z"/>
		<path class="st2" d="M153.7,884.9c0.9,0,1.5,0.2,2,0.7c0.5,0.4,0.7,1.1,0.7,2.1v4.9h-1.6V888c0-0.6-0.1-1-0.4-1.3
			c-0.2-0.3-0.6-0.4-1.1-0.4c-0.7,0-1.2,0.2-1.5,0.7s-0.4,1.1-0.4,2v3.8h-1.6V885h1.3l0.2,1h0.1c0.2-0.3,0.4-0.5,0.6-0.7
			c0.2-0.2,0.5-0.3,0.8-0.4S153.3,884.9,153.7,884.9z"/>
		<path class="st2" d="M160.8,896c-1,0-1.8-0.2-2.4-0.6s-0.8-0.9-0.8-1.6c0-0.5,0.1-0.9,0.4-1.2c0.3-0.3,0.7-0.5,1.3-0.7
			c-0.2-0.1-0.4-0.2-0.5-0.4c-0.1-0.2-0.2-0.4-0.2-0.6c0-0.3,0.1-0.5,0.2-0.7s0.4-0.4,0.7-0.6c-0.4-0.2-0.7-0.4-1-0.8
			c-0.2-0.4-0.4-0.8-0.4-1.3c0-0.5,0.1-1,0.3-1.4c0.2-0.4,0.6-0.7,1-0.9c0.4-0.2,1-0.3,1.6-0.3c0.1,0,0.3,0,0.4,0
			c0.2,0,0.3,0,0.5,0.1c0.1,0,0.2,0,0.3,0.1h2.6v0.9l-1.3,0.2c0.1,0.2,0.2,0.4,0.3,0.6c0.1,0.2,0.1,0.5,0.1,0.7
			c0,0.8-0.3,1.4-0.8,1.8c-0.5,0.4-1.3,0.7-2.2,0.7c-0.2,0-0.4,0-0.7-0.1c-0.2,0.1-0.3,0.2-0.4,0.3c-0.1,0.1-0.1,0.3-0.1,0.4
			c0,0.1,0,0.2,0.1,0.3c0.1,0.1,0.2,0.1,0.4,0.2s0.4,0.1,0.6,0.1h1.3c0.8,0,1.5,0.2,1.9,0.5s0.7,0.9,0.7,1.5c0,0.9-0.4,1.5-1.1,2
			C163.1,895.7,162.1,896,160.8,896z M160.8,894.8c0.6,0,1-0.1,1.4-0.2s0.7-0.3,0.9-0.5c0.2-0.2,0.3-0.4,0.3-0.7
			c0-0.2-0.1-0.4-0.2-0.6s-0.3-0.2-0.6-0.3s-0.6-0.1-0.9-0.1h-1.2c-0.3,0-0.6,0-0.8,0.1c-0.2,0.1-0.4,0.2-0.5,0.4s-0.2,0.4-0.2,0.6
			c0,0.3,0.2,0.6,0.5,0.8S160.3,894.8,160.8,894.8z M161.1,888.9c0.5,0,0.8-0.1,1-0.4c0.2-0.3,0.3-0.6,0.3-1.1
			c0-0.5-0.1-0.9-0.4-1.1s-0.6-0.4-1-0.4c-0.5,0-0.8,0.1-1,0.4s-0.4,0.6-0.4,1.2c0,0.5,0.1,0.8,0.4,1.1
			C160.3,888.8,160.7,888.9,161.1,888.9z"/>
		<path class="st2" d="M173,884.9c1,0,1.7,0.2,2.2,0.6s0.7,1.1,0.7,2v5.1h-1.1l-0.3-1.1h-0.1c-0.2,0.3-0.4,0.5-0.7,0.7
			s-0.5,0.3-0.8,0.4c-0.3,0.1-0.7,0.1-1.1,0.1c-0.5,0-0.9-0.1-1.2-0.2c-0.4-0.2-0.6-0.4-0.8-0.8s-0.3-0.8-0.3-1.3
			c0-0.8,0.3-1.4,0.9-1.8s1.5-0.6,2.6-0.6l1.3,0v-0.4c0-0.5-0.1-0.9-0.4-1.1s-0.6-0.3-1-0.3c-0.4,0-0.7,0.1-1.1,0.2s-0.7,0.2-1,0.4
			l-0.5-1.1c0.4-0.2,0.8-0.4,1.3-0.5S172.5,884.9,173,884.9z M174.3,889l-1,0c-0.8,0-1.4,0.2-1.7,0.4s-0.5,0.6-0.5,1
			c0,0.4,0.1,0.6,0.3,0.8c0.2,0.2,0.5,0.3,0.9,0.3c0.6,0,1-0.2,1.4-0.5c0.4-0.3,0.6-0.8,0.6-1.4V889z"/>
		<path class="st2" d="M182.1,884.9c0.9,0,1.5,0.2,2,0.7c0.5,0.4,0.7,1.1,0.7,2.1v4.9h-1.6V888c0-0.6-0.1-1-0.4-1.3
			c-0.2-0.3-0.6-0.4-1.1-0.4c-0.7,0-1.2,0.2-1.5,0.7s-0.4,1.1-0.4,2v3.8h-1.6V885h1.3l0.2,1h0.1c0.2-0.3,0.4-0.5,0.6-0.7
			c0.2-0.2,0.5-0.3,0.8-0.4S181.7,884.9,182.1,884.9z"/>
		<path class="st2" d="M189.6,892.7c-0.9,0-1.6-0.3-2.2-1c-0.5-0.7-0.8-1.6-0.8-2.9c0-1.3,0.3-2.3,0.8-2.9s1.3-1,2.2-1
			c0.4,0,0.7,0.1,1,0.2c0.3,0.1,0.5,0.2,0.7,0.4s0.4,0.4,0.5,0.6h0.1c0-0.1,0-0.3-0.1-0.6c0-0.3,0-0.5,0-0.7V882h1.6v10.6h-1.3
			l-0.3-1h-0.1c-0.1,0.2-0.3,0.4-0.5,0.6c-0.2,0.2-0.5,0.3-0.7,0.4S189.9,892.7,189.6,892.7z M190,891.4c0.7,0,1.2-0.2,1.5-0.6
			s0.4-1,0.4-1.8v-0.2c0-0.8-0.1-1.5-0.4-2c-0.3-0.5-0.8-0.7-1.5-0.7c-0.6,0-1,0.2-1.3,0.7c-0.3,0.5-0.5,1.1-0.5,2s0.2,1.5,0.5,1.9
			C189,891.2,189.4,891.4,190,891.4z"/>
		<path class="st2" d="M203.2,884.9c0.1,0,0.3,0,0.4,0s0.3,0,0.4,0.1l-0.2,1.5c-0.1,0-0.2,0-0.4-0.1s-0.3,0-0.4,0
			c-0.3,0-0.6,0-0.8,0.1c-0.3,0.1-0.5,0.2-0.7,0.4c-0.2,0.2-0.4,0.4-0.5,0.7s-0.2,0.6-0.2,1v4h-1.6V885h1.3l0.2,1.3h0.1
			c0.2-0.3,0.3-0.5,0.6-0.7s0.5-0.4,0.8-0.5C202.5,884.9,202.9,884.9,203.2,884.9z"/>
		<path class="st2" d="M208.4,884.9c0.7,0,1.3,0.1,1.7,0.4c0.5,0.3,0.9,0.7,1.1,1.2s0.4,1.1,0.4,1.8v0.9h-5.1c0,0.7,0.2,1.3,0.6,1.7
			s0.9,0.6,1.6,0.6c0.5,0,0.9,0,1.3-0.1c0.4-0.1,0.8-0.2,1.2-0.4v1.3c-0.4,0.2-0.8,0.3-1.2,0.4c-0.4,0.1-0.9,0.1-1.4,0.1
			c-0.7,0-1.4-0.1-2-0.4c-0.6-0.3-1-0.7-1.3-1.3s-0.5-1.3-0.5-2.1c0-0.8,0.1-1.6,0.4-2.2s0.7-1,1.2-1.4
			C207.1,885,207.7,884.9,208.4,884.9z M208.4,886.1c-0.5,0-0.9,0.2-1.2,0.5c-0.3,0.3-0.5,0.8-0.6,1.4h3.4c0-0.4-0.1-0.7-0.2-1
			c-0.1-0.3-0.3-0.5-0.5-0.7C209.1,886.2,208.8,886.1,208.4,886.1z"/>
		<path class="st2" d="M217.3,886.2h-1.8v6.3h-1.6v-6.3h-1.2v-0.8l1.2-0.5v-0.5c0-0.6,0.1-1.2,0.3-1.5c0.2-0.4,0.5-0.7,0.9-0.8
			c0.4-0.2,0.8-0.2,1.4-0.2c0.3,0,0.7,0,1,0.1c0.3,0.1,0.5,0.1,0.7,0.2l-0.4,1.2c-0.2,0-0.3-0.1-0.5-0.1c-0.2,0-0.4-0.1-0.6-0.1
			c-0.4,0-0.6,0.1-0.8,0.3s-0.3,0.6-0.3,1v0.5h1.8V886.2z M219.4,882.1c0.2,0,0.5,0.1,0.6,0.2c0.2,0.1,0.3,0.4,0.3,0.7
			c0,0.3-0.1,0.5-0.3,0.7c-0.2,0.1-0.4,0.2-0.6,0.2c-0.3,0-0.5-0.1-0.6-0.2c-0.2-0.1-0.3-0.4-0.3-0.7c0-0.3,0.1-0.6,0.3-0.7
			C218.9,882.2,219.1,882.1,219.4,882.1z M220.1,885v7.6h-1.6V885H220.1z"/>
		<path class="st2" d="M226.4,884.9c0.9,0,1.5,0.2,2,0.7c0.5,0.4,0.7,1.1,0.7,2.1v4.9h-1.6V888c0-0.6-0.1-1-0.4-1.3
			c-0.2-0.3-0.6-0.4-1.1-0.4c-0.7,0-1.2,0.2-1.5,0.7c-0.3,0.5-0.4,1.1-0.4,2v3.8h-1.6V885h1.3l0.2,1h0.1c0.2-0.3,0.4-0.5,0.6-0.7
			c0.2-0.2,0.5-0.3,0.8-0.4C225.7,884.9,226.1,884.9,226.4,884.9z"/>
		<path class="st2" d="M234.3,884.9c0.7,0,1.3,0.1,1.7,0.4c0.5,0.3,0.9,0.7,1.1,1.2s0.4,1.1,0.4,1.8v0.9h-5.1c0,0.7,0.2,1.3,0.6,1.7
			s0.9,0.6,1.6,0.6c0.5,0,0.9,0,1.3-0.1c0.4-0.1,0.8-0.2,1.2-0.4v1.3c-0.4,0.2-0.8,0.3-1.2,0.4c-0.4,0.1-0.9,0.1-1.4,0.1
			c-0.7,0-1.4-0.1-2-0.4c-0.6-0.3-1-0.7-1.3-1.3c-0.3-0.6-0.5-1.3-0.5-2.1c0-0.8,0.1-1.6,0.4-2.2s0.7-1,1.2-1.4
			S233.7,884.9,234.3,884.9z M234.3,886.1c-0.5,0-0.9,0.2-1.2,0.5c-0.3,0.3-0.5,0.8-0.6,1.4h3.4c0-0.4-0.1-0.7-0.2-1
			c-0.1-0.3-0.3-0.5-0.5-0.7C235,886.2,234.7,886.1,234.3,886.1z"/>
		<path class="st2" d="M248,884.9c0.8,0,1.5,0.2,1.9,0.7s0.6,1.1,0.6,2.1v4.9h-1.6v-4.7c0-0.6-0.1-1-0.3-1.3c-0.2-0.3-0.6-0.4-1-0.4
			c-0.6,0-1.1,0.2-1.4,0.6c-0.3,0.4-0.4,1-0.4,1.8v4h-1.6v-4.7c0-0.4,0-0.7-0.1-1c-0.1-0.3-0.2-0.5-0.4-0.6
			c-0.2-0.1-0.5-0.2-0.8-0.2c-0.4,0-0.8,0.1-1.1,0.3c-0.3,0.2-0.5,0.5-0.6,0.9c-0.1,0.4-0.2,0.9-0.2,1.4v3.8h-1.6V885h1.3l0.2,1h0.1
			c0.2-0.3,0.3-0.5,0.6-0.7c0.2-0.2,0.5-0.3,0.8-0.4c0.3-0.1,0.6-0.1,0.9-0.1c0.6,0,1,0.1,1.4,0.3c0.4,0.2,0.7,0.5,0.9,0.9h0.1
			c0.2-0.4,0.6-0.7,1-0.9S247.5,884.9,248,884.9z"/>
		<path class="st2" d="M255.8,884.9c0.7,0,1.3,0.1,1.7,0.4c0.5,0.3,0.9,0.7,1.1,1.2s0.4,1.1,0.4,1.8v0.9H254c0,0.7,0.2,1.3,0.6,1.7
			s0.9,0.6,1.6,0.6c0.5,0,0.9,0,1.3-0.1c0.4-0.1,0.8-0.2,1.2-0.4v1.3c-0.4,0.2-0.8,0.3-1.2,0.4c-0.4,0.1-0.9,0.1-1.4,0.1
			c-0.7,0-1.4-0.1-2-0.4c-0.6-0.3-1-0.7-1.3-1.3c-0.3-0.6-0.5-1.3-0.5-2.1c0-0.8,0.1-1.6,0.4-2.2s0.7-1,1.2-1.4
			S255.1,884.9,255.8,884.9z M255.8,886.1c-0.5,0-0.9,0.2-1.2,0.5c-0.3,0.3-0.5,0.8-0.6,1.4h3.4c0-0.4-0.1-0.7-0.2-1
			c-0.1-0.3-0.3-0.5-0.5-0.7C256.5,886.2,256.2,886.1,255.8,886.1z"/>
		<path class="st2" d="M264.8,884.9c0.9,0,1.5,0.2,2,0.7c0.5,0.4,0.7,1.1,0.7,2.1v4.9h-1.6V888c0-0.6-0.1-1-0.4-1.3
			c-0.2-0.3-0.6-0.4-1.1-0.4c-0.7,0-1.2,0.2-1.5,0.7c-0.3,0.5-0.4,1.1-0.4,2v3.8h-1.6V885h1.3l0.2,1h0.1c0.2-0.3,0.4-0.5,0.6-0.7
			c0.2-0.2,0.5-0.3,0.8-0.4C264.1,884.9,264.4,884.9,264.8,884.9z"/>
		<path class="st2" d="M272.5,891.4c0.2,0,0.4,0,0.6-0.1c0.2,0,0.4-0.1,0.6-0.1v1.2c-0.2,0.1-0.4,0.1-0.7,0.2
			c-0.3,0.1-0.6,0.1-0.9,0.1c-0.4,0-0.8-0.1-1.2-0.2c-0.3-0.1-0.6-0.4-0.8-0.7c-0.2-0.4-0.3-0.8-0.3-1.5v-4.1h-1v-0.7l1.1-0.6
			l0.5-1.6h1v1.7h2.2v1.2h-2.2v4c0,0.4,0.1,0.7,0.3,0.9S272.2,891.4,272.5,891.4z"/>
		<path class="st2" d="M281.9,884.9c1,0,1.7,0.2,2.2,0.6c0.5,0.4,0.7,1.1,0.7,2v5.1h-1.1l-0.3-1.1h-0.1c-0.2,0.3-0.4,0.5-0.7,0.7
			c-0.2,0.2-0.5,0.3-0.8,0.4c-0.3,0.1-0.7,0.1-1.1,0.1c-0.5,0-0.9-0.1-1.2-0.2c-0.4-0.2-0.6-0.4-0.8-0.8s-0.3-0.8-0.3-1.3
			c0-0.8,0.3-1.4,0.9-1.8s1.5-0.6,2.6-0.6l1.3,0v-0.4c0-0.5-0.1-0.9-0.4-1.1c-0.2-0.2-0.6-0.3-1-0.3c-0.4,0-0.7,0.1-1.1,0.2
			s-0.7,0.2-1,0.4l-0.5-1.1c0.4-0.2,0.8-0.4,1.3-0.5S281.3,884.9,281.9,884.9z M283.2,889l-1,0c-0.8,0-1.4,0.2-1.7,0.4
			c-0.3,0.2-0.5,0.6-0.5,1c0,0.4,0.1,0.6,0.3,0.8c0.2,0.2,0.5,0.3,0.9,0.3c0.6,0,1-0.2,1.4-0.5c0.4-0.3,0.5-0.8,0.5-1.4V889z"/>
		<path class="st2" d="M289.8,891.4c0.2,0,0.4,0,0.6-0.1c0.2,0,0.4-0.1,0.6-0.1v1.2c-0.2,0.1-0.4,0.1-0.7,0.2
			c-0.3,0.1-0.6,0.1-0.9,0.1c-0.4,0-0.8-0.1-1.2-0.2c-0.3-0.1-0.6-0.4-0.8-0.7c-0.2-0.4-0.3-0.8-0.3-1.5v-4.1h-1v-0.7l1.1-0.6
			l0.5-1.6h1v1.7h2.2v1.2h-2.2v4c0,0.4,0.1,0.7,0.3,0.9S289.5,891.4,289.8,891.4z"/>
		<path class="st2" d="M305.2,887.6c0,0.8-0.1,1.5-0.3,2.1c-0.2,0.6-0.5,1.2-0.9,1.6c-0.4,0.5-0.9,0.8-1.5,1
			c-0.6,0.2-1.3,0.4-2.1,0.4c-0.8,0-1.5-0.1-2.1-0.4c-0.6-0.2-1.1-0.6-1.5-1.1c-0.4-0.5-0.7-1-0.9-1.6s-0.3-1.3-0.3-2.1
			c0-1,0.2-1.9,0.5-2.7c0.3-0.8,0.9-1.4,1.6-1.8c0.7-0.4,1.6-0.6,2.6-0.6c1,0,1.9,0.2,2.6,0.6c0.7,0.4,1.2,1,1.5,1.8
			C305.1,885.6,305.2,886.5,305.2,887.6z M297.6,887.6c0,0.8,0.1,1.4,0.3,2c0.2,0.6,0.5,1,1,1.3c0.4,0.3,1,0.5,1.7,0.5
			c0.7,0,1.2-0.2,1.7-0.5c0.4-0.3,0.8-0.7,1-1.3c0.2-0.6,0.3-1.2,0.3-2c0-1.2-0.2-2.1-0.7-2.8c-0.5-0.7-1.2-1-2.2-1
			c-0.7,0-1.2,0.2-1.7,0.5c-0.4,0.3-0.8,0.7-1,1.3C297.7,886.1,297.6,886.8,297.6,887.6z"/>
		<path class="st2" d="M313,892.6h-5.7v-10h5.7v1.4h-4v2.7h3.8v1.4H309v3.1h4V892.6z"/>
		<path class="st2" d="M319.4,883.8c-0.5,0-0.9,0.1-1.3,0.3c-0.4,0.2-0.7,0.4-1,0.7c-0.3,0.3-0.5,0.7-0.6,1.2
			c-0.1,0.5-0.2,1-0.2,1.6c0,0.8,0.1,1.4,0.3,2c0.2,0.6,0.6,1,1,1.3c0.4,0.3,1,0.4,1.7,0.4c0.4,0,0.8,0,1.2-0.1s0.8-0.2,1.2-0.3v1.4
			c-0.4,0.2-0.8,0.3-1.2,0.3s-0.9,0.1-1.4,0.1c-1,0-1.9-0.2-2.5-0.6c-0.7-0.4-1.2-1-1.5-1.8c-0.3-0.8-0.5-1.7-0.5-2.7
			c0-0.8,0.1-1.4,0.3-2.1s0.5-1.2,0.9-1.6c0.4-0.5,0.9-0.8,1.5-1.1c0.6-0.2,1.3-0.4,2-0.4c0.5,0,1,0.1,1.5,0.2
			c0.5,0.1,0.9,0.3,1.3,0.5l-0.6,1.4c-0.3-0.2-0.7-0.3-1.1-0.4S319.8,883.8,319.4,883.8z"/>
		<path class="st2" d="M332.2,887.5c0,1.1-0.2,2.1-0.6,2.8c-0.4,0.8-1,1.3-1.8,1.7c-0.8,0.4-1.8,0.6-2.9,0.6h-2.8v-10h3.1
			c1,0,1.9,0.2,2.7,0.6c0.8,0.4,1.3,0.9,1.7,1.6C332,885.5,332.2,886.4,332.2,887.5z M330.5,887.5c0-0.8-0.1-1.5-0.4-2
			c-0.3-0.5-0.6-0.9-1.1-1.2c-0.5-0.3-1.1-0.4-1.8-0.4h-1.4v7.3h1.2c1.2,0,2.1-0.3,2.7-0.9S330.5,888.8,330.5,887.5z"/>
	</g>
</g>
</svg>
