<?xml version="1.0" encoding="utf-8"?>
<!-- Generator: Adobe Illustrator 27.8.1, SVG Export Plug-In . SVG Version: 6.00 Build 0)  -->
<svg version="1.1" id="Layer_1" xmlns="http://www.w3.org/2000/svg" xmlns:xlink="http://www.w3.org/1999/xlink" x="0px" y="0px"
	 viewBox="0 0 357 60" style="enable-background:new 0 0 357 60;" xml:space="preserve">
<style type="text/css">
	.st0{fill:#D9F6FF;}
	.st1{enable-background:new    ;}
	.st2{fill:#005494;}
</style>
<g id="Group_246" transform="translate(-27 -1265.092)">
	<path id="Rectangle_221" class="st0" d="M27,1265.1h307c27.6,0,50,22.4,50,50v10l0,0H27l0,0V1265.1L27,1265.1z"/>
	<g class="st1">
		<path class="st2" d="M161.5,1290.6v6.5c0,0.7-0.1,1.3-0.4,1.9s-0.7,1-1.3,1.3c-0.6,0.3-1.3,0.5-2.2,0.5c-1.3,0-2.3-0.3-2.9-1
			c-0.7-0.7-1-1.6-1-2.7v-6.4h1.6v6.3c0,0.8,0.2,1.4,0.6,1.8s1,0.6,1.8,0.6c0.5,0,1-0.1,1.3-0.3c0.3-0.2,0.6-0.5,0.8-0.8
			c0.2-0.4,0.2-0.8,0.2-1.3v-6.3H161.5z"/>
		<path class="st2" d="M169,1298.4c0,0.5-0.1,0.9-0.4,1.3s-0.6,0.6-1.1,0.8c-0.5,0.2-1,0.3-1.7,0.3c-0.5,0-1,0-1.4-0.1
			c-0.4-0.1-0.7-0.2-1.1-0.3v-1.4c0.4,0.2,0.8,0.3,1.2,0.4s0.9,0.2,1.3,0.2c0.5,0,0.9-0.1,1.1-0.2c0.2-0.2,0.3-0.4,0.3-0.7
			c0-0.2,0-0.3-0.1-0.4c-0.1-0.1-0.3-0.3-0.5-0.4c-0.3-0.1-0.6-0.3-1.1-0.5c-0.5-0.2-0.9-0.4-1.2-0.6s-0.6-0.4-0.7-0.7
			c-0.2-0.3-0.3-0.6-0.3-1c0-0.7,0.3-1.2,0.8-1.5c0.5-0.3,1.2-0.5,2.1-0.5c0.5,0,0.9,0,1.3,0.1c0.4,0.1,0.8,0.2,1.2,0.4l-0.5,1.2
			c-0.3-0.2-0.7-0.3-1-0.4c-0.3-0.1-0.7-0.1-1-0.1c-0.4,0-0.7,0.1-0.9,0.2s-0.3,0.3-0.3,0.5c0,0.2,0.1,0.3,0.2,0.5s0.3,0.2,0.5,0.4
			s0.6,0.3,1.1,0.5c0.5,0.2,0.8,0.4,1.2,0.5c0.3,0.2,0.6,0.4,0.8,0.7S169,1298,169,1298.4z"/>
		<path class="st2" d="M173.7,1292.9c0.7,0,1.3,0.1,1.7,0.4s0.9,0.7,1.1,1.2s0.4,1.1,0.4,1.8v0.9h-5.1c0,0.7,0.2,1.3,0.6,1.7
			s0.9,0.6,1.6,0.6c0.5,0,0.9,0,1.3-0.1c0.4-0.1,0.8-0.2,1.2-0.4v1.3c-0.4,0.2-0.8,0.3-1.2,0.4s-0.9,0.1-1.4,0.1
			c-0.7,0-1.4-0.1-2-0.4c-0.6-0.3-1-0.7-1.3-1.3s-0.5-1.3-0.5-2.1c0-0.8,0.1-1.6,0.4-2.2s0.7-1,1.2-1.4S173,1292.9,173.7,1292.9z
			 M173.7,1294.1c-0.5,0-0.9,0.2-1.2,0.5s-0.5,0.8-0.6,1.4h3.4c0-0.4-0.1-0.7-0.2-1s-0.3-0.5-0.5-0.7S174.1,1294.1,173.7,1294.1z"/>
		<path class="st2" d="M185.4,1292.9c1,0,1.7,0.2,2.2,0.6s0.7,1.1,0.7,2v5.1h-1.1l-0.3-1.1h-0.1c-0.2,0.3-0.4,0.5-0.7,0.7
			s-0.5,0.3-0.8,0.4c-0.3,0.1-0.7,0.1-1.1,0.1c-0.5,0-0.9-0.1-1.2-0.2c-0.4-0.2-0.6-0.4-0.8-0.8s-0.3-0.8-0.3-1.3
			c0-0.8,0.3-1.4,0.9-1.8s1.5-0.6,2.6-0.6l1.3,0v-0.4c0-0.5-0.1-0.9-0.4-1.1s-0.6-0.3-1-0.3c-0.4,0-0.7,0.1-1.1,0.2s-0.7,0.2-1,0.4
			l-0.5-1.1c0.4-0.2,0.8-0.4,1.3-0.5S184.9,1292.9,185.4,1292.9z M186.7,1297l-1,0c-0.8,0-1.4,0.2-1.7,0.4s-0.5,0.6-0.5,1
			c0,0.4,0.1,0.6,0.3,0.8c0.2,0.2,0.5,0.3,0.9,0.3c0.6,0,1-0.2,1.4-0.5c0.4-0.3,0.6-0.8,0.6-1.4V1297z"/>
		<path class="st2" d="M194.5,1292.9c0.9,0,1.5,0.2,2,0.7c0.5,0.4,0.7,1.1,0.7,2.1v4.9h-1.6v-4.6c0-0.6-0.1-1-0.4-1.3
			c-0.2-0.3-0.6-0.4-1.1-0.4c-0.7,0-1.2,0.2-1.5,0.7s-0.4,1.1-0.4,2v3.8h-1.6v-7.6h1.3l0.2,1h0.1c0.2-0.3,0.4-0.5,0.6-0.7
			c0.2-0.2,0.5-0.3,0.8-0.4S194.2,1292.9,194.5,1292.9z"/>
		<path class="st2" d="M202,1300.7c-0.9,0-1.6-0.3-2.2-1c-0.5-0.7-0.8-1.6-0.8-2.9c0-1.3,0.3-2.3,0.8-2.9s1.3-1,2.2-1
			c0.4,0,0.7,0.1,1,0.2c0.3,0.1,0.5,0.2,0.7,0.4s0.4,0.4,0.5,0.6h0.1c0-0.1,0-0.3-0.1-0.6c0-0.3,0-0.5,0-0.7v-2.7h1.6v10.6h-1.3
			l-0.3-1h-0.1c-0.1,0.2-0.3,0.4-0.5,0.6c-0.2,0.2-0.5,0.3-0.7,0.4S202.4,1300.7,202,1300.7z M202.4,1299.4c0.7,0,1.2-0.2,1.5-0.6
			s0.4-1,0.4-1.8v-0.2c0-0.8-0.1-1.5-0.4-2c-0.3-0.5-0.8-0.7-1.5-0.7c-0.6,0-1,0.2-1.3,0.7c-0.3,0.5-0.5,1.1-0.5,2s0.2,1.5,0.5,1.9
			C201.4,1299.2,201.8,1299.4,202.4,1299.4z"/>
		<path class="st2" d="M218.4,1293v7.6h-1.3l-0.2-1h-0.1c-0.2,0.3-0.4,0.5-0.6,0.6c-0.2,0.2-0.5,0.3-0.8,0.4c-0.3,0.1-0.6,0.1-1,0.1
			c-0.6,0-1.1-0.1-1.5-0.3c-0.4-0.2-0.7-0.5-0.9-0.9c-0.2-0.4-0.3-0.9-0.3-1.6v-4.9h1.6v4.6c0,0.6,0.1,1,0.4,1.3s0.6,0.4,1.1,0.4
			c0.5,0,0.9-0.1,1.2-0.3s0.5-0.5,0.6-0.9c0.1-0.4,0.2-0.9,0.2-1.4v-3.8H218.4z"/>
		<path class="st2" d="M224.6,1292.9c0.9,0,1.6,0.3,2.2,1c0.5,0.7,0.8,1.6,0.8,2.9c0,0.9-0.1,1.6-0.4,2.2c-0.3,0.6-0.6,1-1.1,1.3
			c-0.5,0.3-1,0.4-1.6,0.4c-0.4,0-0.7,0-1-0.2c-0.3-0.1-0.5-0.2-0.7-0.4c-0.2-0.2-0.4-0.3-0.5-0.5h-0.1c0,0.2,0,0.4,0.1,0.6
			c0,0.2,0,0.4,0,0.6v3.1h-1.6V1293h1.3l0.2,1h0.1c0.1-0.2,0.3-0.4,0.5-0.6c0.2-0.2,0.4-0.3,0.7-0.4
			C223.8,1292.9,224.2,1292.9,224.6,1292.9z M224.1,1294.2c-0.4,0-0.8,0.1-1.1,0.3c-0.3,0.2-0.5,0.4-0.6,0.8
			c-0.1,0.4-0.2,0.8-0.2,1.3v0.2c0,0.6,0.1,1,0.2,1.4c0.1,0.4,0.3,0.7,0.6,0.9c0.3,0.2,0.6,0.3,1.1,0.3c0.4,0,0.7-0.1,1-0.3
			c0.3-0.2,0.5-0.5,0.6-0.9c0.1-0.4,0.2-0.9,0.2-1.4c0-0.8-0.1-1.4-0.4-1.9C225.2,1294.4,224.7,1294.2,224.1,1294.2z"/>
		<path class="st2" d="M231.9,1300.7c-0.9,0-1.6-0.3-2.2-1c-0.5-0.7-0.8-1.6-0.8-2.9c0-1.3,0.3-2.3,0.8-2.9s1.3-1,2.2-1
			c0.4,0,0.7,0.1,1,0.2c0.3,0.1,0.5,0.2,0.7,0.4c0.2,0.2,0.4,0.4,0.5,0.6h0.1c0-0.1,0-0.3-0.1-0.6c0-0.3,0-0.5,0-0.7v-2.7h1.6v10.6
			h-1.3l-0.3-1h-0.1c-0.1,0.2-0.3,0.4-0.5,0.6c-0.2,0.2-0.5,0.3-0.7,0.4C232.7,1300.7,232.3,1300.7,231.9,1300.7z M232.4,1299.4
			c0.7,0,1.2-0.2,1.5-0.6c0.3-0.4,0.4-1,0.4-1.8v-0.2c0-0.8-0.1-1.5-0.4-2c-0.3-0.5-0.8-0.7-1.5-0.7c-0.6,0-1,0.2-1.3,0.7
			c-0.3,0.5-0.5,1.1-0.5,2s0.2,1.5,0.5,1.9C231.4,1299.2,231.8,1299.4,232.4,1299.4z"/>
		<path class="st2" d="M241.1,1292.9c1,0,1.7,0.2,2.2,0.6c0.5,0.4,0.7,1.1,0.7,2v5.1h-1.1l-0.3-1.1h-0.1c-0.2,0.3-0.4,0.5-0.7,0.7
			c-0.2,0.2-0.5,0.3-0.8,0.4c-0.3,0.1-0.7,0.1-1.1,0.1c-0.5,0-0.9-0.1-1.2-0.2c-0.4-0.2-0.6-0.4-0.8-0.8s-0.3-0.8-0.3-1.3
			c0-0.8,0.3-1.4,0.9-1.8s1.5-0.6,2.6-0.6l1.3,0v-0.4c0-0.5-0.1-0.9-0.4-1.1c-0.2-0.2-0.6-0.3-1-0.3c-0.4,0-0.7,0.1-1.1,0.2
			s-0.7,0.2-1,0.4l-0.5-1.1c0.4-0.2,0.8-0.4,1.3-0.5S240.6,1292.9,241.1,1292.9z M242.4,1297l-1,0c-0.8,0-1.4,0.2-1.7,0.4
			c-0.3,0.2-0.5,0.6-0.5,1c0,0.4,0.1,0.6,0.3,0.8c0.2,0.2,0.5,0.3,0.9,0.3c0.6,0,1-0.2,1.4-0.5c0.4-0.3,0.6-0.8,0.6-1.4V1297z"/>
		<path class="st2" d="M249,1299.4c0.2,0,0.4,0,0.6-0.1c0.2,0,0.4-0.1,0.6-0.1v1.2c-0.2,0.1-0.4,0.1-0.7,0.2
			c-0.3,0.1-0.6,0.1-0.9,0.1c-0.4,0-0.8-0.1-1.2-0.2c-0.3-0.1-0.6-0.4-0.8-0.7c-0.2-0.4-0.3-0.8-0.3-1.5v-4.1h-1v-0.7l1.1-0.6
			l0.5-1.6h1v1.7h2.2v1.2H248v4c0,0.4,0.1,0.7,0.3,0.9S248.7,1299.4,249,1299.4z"/>
		<path class="st2" d="M254.8,1292.9c0.7,0,1.3,0.1,1.7,0.4c0.5,0.3,0.9,0.7,1.1,1.2s0.4,1.1,0.4,1.8v0.9H253c0,0.7,0.2,1.3,0.6,1.7
			s0.9,0.6,1.6,0.6c0.5,0,0.9,0,1.3-0.1c0.4-0.1,0.8-0.2,1.2-0.4v1.3c-0.4,0.2-0.8,0.3-1.2,0.4c-0.4,0.1-0.9,0.1-1.4,0.1
			c-0.7,0-1.4-0.1-2-0.4c-0.6-0.3-1-0.7-1.3-1.3c-0.3-0.6-0.5-1.3-0.5-2.1c0-0.8,0.1-1.6,0.4-2.2s0.7-1,1.2-1.4
			S254.1,1292.9,254.8,1292.9z M254.8,1294.1c-0.5,0-0.9,0.2-1.2,0.5c-0.3,0.3-0.5,0.8-0.5,1.4h3.4c0-0.4-0.1-0.7-0.2-1
			c-0.1-0.3-0.3-0.5-0.5-0.7C255.5,1294.2,255.2,1294.1,254.8,1294.1z"/>
	</g>
</g>
</svg>
