<?xml version="1.0" encoding="utf-8"?>
<!-- Generator: Adobe Illustrator 27.8.1, SVG Export Plug-In . SVG Version: 6.00 Build 0)  -->
<svg version="1.1" id="Group_241" xmlns="http://www.w3.org/2000/svg" xmlns:xlink="http://www.w3.org/1999/xlink" x="0px" y="0px"
	 viewBox="0 0 357 60" style="enable-background:new 0 0 357 60;" xml:space="preserve">
<style type="text/css">
	.st0{fill:#D9F6FF;}
	.st1{enable-background:new    ;}
	.st2{fill:#005494;}
</style>
<path id="Rectangle_215" class="st0" d="M0,0h307c27.6,0,50,22.4,50,50v10l0,0H0l0,0V0L0,0z"/>
<g class="st1">
	<path class="st2" d="M94.9,25.5c1.3,0,2.2,0.3,2.8,0.8s0.9,1.3,0.9,2.2c0,0.4-0.1,0.8-0.2,1.2c-0.1,0.4-0.4,0.7-0.7,1
		c-0.3,0.3-0.7,0.5-1.2,0.7s-1.1,0.3-1.8,0.3h-1.1v3.7H92v-10H94.9z M94.8,26.9h-1.2v3.5h0.9c0.5,0,1-0.1,1.3-0.2
		c0.4-0.1,0.6-0.3,0.8-0.6s0.3-0.6,0.3-1c0-0.6-0.2-1-0.5-1.3S95.6,26.9,94.8,26.9z"/>
	<path class="st2" d="M104.3,27.8c0.1,0,0.3,0,0.4,0s0.3,0,0.4,0.1l-0.2,1.5c-0.1,0-0.2,0-0.4-0.1s-0.3,0-0.4,0
		c-0.3,0-0.6,0-0.8,0.1c-0.3,0.1-0.5,0.2-0.7,0.4c-0.2,0.2-0.4,0.4-0.5,0.7s-0.2,0.6-0.2,1v4h-1.6v-7.6h1.3l0.2,1.3h0.1
		c0.2-0.3,0.3-0.5,0.6-0.7s0.5-0.4,0.8-0.5C103.6,27.9,104,27.8,104.3,27.8z"/>
	<path class="st2" d="M113.2,31.7c0,0.6-0.1,1.2-0.2,1.7s-0.4,0.9-0.7,1.2c-0.3,0.3-0.7,0.6-1.1,0.8c-0.4,0.2-0.9,0.3-1.5,0.3
		c-0.5,0-1-0.1-1.4-0.3c-0.4-0.2-0.8-0.4-1.1-0.8c-0.3-0.3-0.6-0.7-0.7-1.2s-0.3-1-0.3-1.7c0-0.8,0.1-1.5,0.4-2.1
		c0.3-0.6,0.7-1,1.2-1.3s1.2-0.5,1.9-0.5c0.7,0,1.3,0.2,1.8,0.5s1,0.8,1.3,1.3S113.2,30.9,113.2,31.7z M107.7,31.7
		c0,0.6,0.1,1,0.2,1.4s0.3,0.7,0.6,0.9c0.3,0.2,0.6,0.3,1.1,0.3s0.8-0.1,1.1-0.3c0.3-0.2,0.5-0.5,0.6-0.9s0.2-0.9,0.2-1.4
		s-0.1-1-0.2-1.4c-0.1-0.4-0.3-0.7-0.6-0.9c-0.3-0.2-0.6-0.3-1.1-0.3c-0.7,0-1.2,0.2-1.5,0.7S107.7,30.9,107.7,31.7z"/>
	<path class="st2" d="M114.3,38.9c-0.2,0-0.5,0-0.7-0.1c-0.2,0-0.4-0.1-0.5-0.1v-1.3c0.2,0,0.3,0.1,0.5,0.1s0.3,0,0.5,0
		c0.3,0,0.5-0.1,0.7-0.2s0.3-0.5,0.3-0.9v-8.4h1.6v8.6c0,0.5-0.1,0.9-0.2,1.2s-0.4,0.6-0.8,0.8S114.8,38.9,114.3,38.9z M115,25.9
		c0-0.3,0.1-0.6,0.3-0.7s0.4-0.2,0.6-0.2c0.2,0,0.5,0.1,0.6,0.2s0.3,0.4,0.3,0.7c0,0.3-0.1,0.5-0.3,0.7c-0.2,0.1-0.4,0.2-0.6,0.2
		c-0.3,0-0.5-0.1-0.6-0.2C115,26.5,115,26.2,115,25.9z"/>
	<path class="st2" d="M122,27.8c0.7,0,1.3,0.1,1.7,0.4s0.9,0.7,1.1,1.2s0.4,1.1,0.4,1.8v0.9h-5.1c0,0.7,0.2,1.3,0.6,1.7
		s0.9,0.6,1.6,0.6c0.5,0,0.9,0,1.3-0.1c0.4-0.1,0.8-0.2,1.2-0.4v1.3c-0.4,0.2-0.8,0.3-1.2,0.4s-0.9,0.1-1.4,0.1
		c-0.7,0-1.4-0.1-2-0.4c-0.6-0.3-1-0.7-1.3-1.3s-0.5-1.3-0.5-2.1c0-0.8,0.1-1.6,0.4-2.2s0.7-1,1.2-1.4S121.3,27.8,122,27.8z M122,29
		c-0.5,0-0.9,0.2-1.2,0.5s-0.5,0.8-0.6,1.4h3.4c0-0.4-0.1-0.7-0.2-1s-0.3-0.5-0.5-0.7S122.3,29,122,29z"/>
	<path class="st2" d="M130.1,35.6c-0.7,0-1.3-0.1-1.9-0.4s-0.9-0.7-1.2-1.3s-0.4-1.3-0.4-2.2c0-0.9,0.2-1.7,0.5-2.3s0.7-1,1.3-1.3
		s1.2-0.4,1.9-0.4c0.5,0,0.9,0,1.2,0.1c0.4,0.1,0.7,0.2,0.9,0.3l-0.5,1.3c-0.3-0.1-0.6-0.2-0.9-0.3s-0.6-0.1-0.8-0.1
		c-0.4,0-0.8,0.1-1.1,0.3s-0.5,0.5-0.7,0.9s-0.2,0.9-0.2,1.4c0,0.6,0.1,1,0.2,1.4c0.1,0.4,0.4,0.7,0.6,0.9c0.3,0.2,0.6,0.3,1.1,0.3
		c0.4,0,0.8,0,1.1-0.2s0.6-0.2,0.9-0.4v1.4c-0.3,0.2-0.6,0.3-0.9,0.4C131,35.6,130.5,35.6,130.1,35.6z"/>
	<path class="st2" d="M136.8,34.3c0.2,0,0.4,0,0.6-0.1c0.2,0,0.4-0.1,0.6-0.1v1.2c-0.2,0.1-0.4,0.1-0.7,0.2s-0.6,0.1-0.9,0.1
		c-0.4,0-0.8-0.1-1.2-0.2c-0.3-0.1-0.6-0.4-0.8-0.7s-0.3-0.8-0.3-1.5v-4.1h-1v-0.7l1.1-0.6l0.5-1.6h1v1.7h2.2v1.2h-2.2v4
		c0,0.4,0.1,0.7,0.3,0.9S136.5,34.3,136.8,34.3z"/>
	<path class="st2" d="M145.7,35.6c-0.9,0-1.6-0.3-2.2-1c-0.5-0.7-0.8-1.6-0.8-2.9c0-1.3,0.3-2.3,0.8-2.9s1.3-1,2.2-1
		c0.4,0,0.7,0.1,1,0.2c0.3,0.1,0.5,0.2,0.7,0.4s0.4,0.4,0.5,0.6h0.1c0-0.1,0-0.3-0.1-0.6c0-0.3,0-0.5,0-0.7v-2.7h1.6v10.6h-1.3
		l-0.3-1H148c-0.1,0.2-0.3,0.4-0.5,0.6c-0.2,0.2-0.5,0.3-0.7,0.4S146.1,35.6,145.7,35.6z M146.1,34.3c0.7,0,1.2-0.2,1.5-0.6
		s0.4-1,0.4-1.8v-0.2c0-0.8-0.1-1.5-0.4-2c-0.3-0.5-0.8-0.7-1.5-0.7c-0.6,0-1,0.2-1.3,0.7c-0.3,0.5-0.5,1.1-0.5,2s0.2,1.5,0.5,1.9
		C145.1,34.1,145.6,34.3,146.1,34.3z"/>
	<path class="st2" d="M154.9,27.8c0.7,0,1.3,0.1,1.7,0.4s0.9,0.7,1.1,1.2s0.4,1.1,0.4,1.8v0.9h-5.1c0,0.7,0.2,1.3,0.6,1.7
		s0.9,0.6,1.6,0.6c0.5,0,0.9,0,1.3-0.1c0.4-0.1,0.8-0.2,1.2-0.4v1.3c-0.4,0.2-0.8,0.3-1.2,0.4s-0.9,0.1-1.4,0.1
		c-0.7,0-1.4-0.1-2-0.4c-0.6-0.3-1-0.7-1.3-1.3s-0.5-1.3-0.5-2.1c0-0.8,0.1-1.6,0.4-2.2s0.7-1,1.2-1.4S154.2,27.8,154.9,27.8z
		 M154.9,29c-0.5,0-0.9,0.2-1.2,0.5s-0.5,0.8-0.6,1.4h3.4c0-0.4-0.1-0.7-0.2-1s-0.3-0.5-0.5-0.7S155.3,29,154.9,29z"/>
	<path class="st2" d="M163.7,29.2h-1.8v6.3h-1.6v-6.3H159v-0.8l1.2-0.5v-0.5c0-0.6,0.1-1.2,0.3-1.5s0.5-0.7,0.9-0.8
		c0.4-0.2,0.8-0.2,1.4-0.2c0.3,0,0.7,0,1,0.1c0.3,0.1,0.5,0.1,0.7,0.2l-0.4,1.2c-0.2,0-0.3-0.1-0.5-0.1c-0.2,0-0.4-0.1-0.6-0.1
		c-0.4,0-0.6,0.1-0.8,0.3s-0.3,0.6-0.3,1v0.5h1.8V29.2z M165.8,25c0.2,0,0.5,0.1,0.6,0.2s0.3,0.4,0.3,0.7c0,0.3-0.1,0.5-0.3,0.7
		c-0.2,0.1-0.4,0.2-0.6,0.2c-0.3,0-0.5-0.1-0.6-0.2c-0.2-0.1-0.3-0.4-0.3-0.7c0-0.3,0.1-0.6,0.3-0.7S165.6,25,165.8,25z M166.6,27.9
		v7.6H165v-7.6H166.6z"/>
	<path class="st2" d="M172.8,27.8c0.9,0,1.5,0.2,2,0.7c0.5,0.4,0.7,1.1,0.7,2.1v4.9h-1.6v-4.6c0-0.6-0.1-1-0.4-1.3
		c-0.2-0.3-0.6-0.4-1.1-0.4c-0.7,0-1.2,0.2-1.5,0.7s-0.4,1.1-0.4,2v3.8h-1.6v-7.6h1.3l0.2,1h0.1c0.2-0.3,0.4-0.5,0.6-0.7
		c0.2-0.2,0.5-0.3,0.8-0.4S172.5,27.8,172.8,27.8z"/>
	<path class="st2" d="M178.6,25c0.2,0,0.5,0.1,0.6,0.2s0.3,0.4,0.3,0.7c0,0.3-0.1,0.5-0.3,0.7c-0.2,0.1-0.4,0.2-0.6,0.2
		c-0.3,0-0.5-0.1-0.6-0.2c-0.2-0.1-0.3-0.4-0.3-0.7c0-0.3,0.1-0.6,0.3-0.7S178.3,25,178.6,25z M179.4,27.9v7.6h-1.6v-7.6H179.4z"/>
	<path class="st2" d="M184.5,34.3c0.2,0,0.4,0,0.6-0.1c0.2,0,0.4-0.1,0.6-0.1v1.2c-0.2,0.1-0.4,0.1-0.7,0.2
		c-0.3,0.1-0.6,0.1-0.9,0.1c-0.4,0-0.8-0.1-1.2-0.2c-0.3-0.1-0.6-0.4-0.8-0.7c-0.2-0.4-0.3-0.8-0.3-1.5v-4.1h-1v-0.7l1.1-0.6
		l0.5-1.6h1v1.7h2.2v1.2h-2.2v4c0,0.4,0.1,0.7,0.3,0.9S184.2,34.3,184.5,34.3z"/>
	<path class="st2" d="M188,25c0.2,0,0.5,0.1,0.6,0.2c0.2,0.1,0.3,0.4,0.3,0.7c0,0.3-0.1,0.5-0.3,0.7c-0.2,0.1-0.4,0.2-0.6,0.2
		c-0.3,0-0.5-0.1-0.6-0.2c-0.2-0.1-0.3-0.4-0.3-0.7c0-0.3,0.1-0.6,0.3-0.7C187.6,25.1,187.8,25,188,25z M188.8,27.9v7.6h-1.6v-7.6
		H188.8z"/>
	<path class="st2" d="M197.8,31.7c0,0.6-0.1,1.2-0.2,1.7s-0.4,0.9-0.7,1.2c-0.3,0.3-0.7,0.6-1.1,0.8c-0.4,0.2-0.9,0.3-1.5,0.3
		c-0.5,0-1-0.1-1.4-0.3c-0.4-0.2-0.8-0.4-1.1-0.8c-0.3-0.3-0.6-0.7-0.7-1.2c-0.2-0.5-0.3-1-0.3-1.7c0-0.8,0.1-1.5,0.4-2.1
		c0.3-0.6,0.7-1,1.2-1.3c0.5-0.3,1.2-0.5,1.9-0.5c0.7,0,1.3,0.2,1.8,0.5s1,0.8,1.3,1.3S197.8,30.9,197.8,31.7z M192.3,31.7
		c0,0.6,0.1,1,0.2,1.4c0.1,0.4,0.3,0.7,0.6,0.9c0.3,0.2,0.6,0.3,1.1,0.3c0.4,0,0.8-0.1,1.1-0.3c0.3-0.2,0.5-0.5,0.6-0.9
		c0.1-0.4,0.2-0.9,0.2-1.4s-0.1-1-0.2-1.4c-0.1-0.4-0.3-0.7-0.6-0.9c-0.3-0.2-0.6-0.3-1.1-0.3c-0.7,0-1.2,0.2-1.5,0.7
		C192.5,30.2,192.3,30.9,192.3,31.7z"/>
	<path class="st2" d="M203.6,27.8c0.9,0,1.5,0.2,2,0.7c0.5,0.4,0.7,1.1,0.7,2.1v4.9h-1.6v-4.6c0-0.6-0.1-1-0.4-1.3
		c-0.2-0.3-0.6-0.4-1.1-0.4c-0.7,0-1.2,0.2-1.5,0.7c-0.3,0.5-0.4,1.1-0.4,2v3.8h-1.6v-7.6h1.3l0.2,1h0.1c0.2-0.3,0.4-0.5,0.6-0.7
		c0.2-0.2,0.5-0.3,0.8-0.4C203,27.8,203.3,27.8,203.6,27.8z"/>
	<path class="st2" d="M215.2,27.8c1,0,1.7,0.2,2.2,0.6c0.5,0.4,0.7,1.1,0.7,2v5.1h-1.1l-0.3-1.1h-0.1c-0.2,0.3-0.4,0.5-0.7,0.7
		c-0.2,0.2-0.5,0.3-0.8,0.4c-0.3,0.1-0.7,0.1-1.1,0.1c-0.5,0-0.9-0.1-1.2-0.2c-0.4-0.2-0.6-0.4-0.8-0.8s-0.3-0.8-0.3-1.3
		c0-0.8,0.3-1.4,0.9-1.8s1.5-0.6,2.6-0.6l1.3,0v-0.4c0-0.5-0.1-0.9-0.4-1.1c-0.2-0.2-0.6-0.3-1-0.3c-0.4,0-0.7,0.1-1.1,0.2
		s-0.7,0.2-1,0.4l-0.5-1.1c0.4-0.2,0.8-0.4,1.3-0.5S214.7,27.8,215.2,27.8z M216.5,31.9l-1,0c-0.8,0-1.4,0.2-1.7,0.4
		c-0.3,0.2-0.5,0.6-0.5,1c0,0.4,0.1,0.6,0.3,0.8c0.2,0.2,0.5,0.3,0.9,0.3c0.6,0,1-0.2,1.4-0.5c0.4-0.3,0.5-0.8,0.5-1.4V31.9z"/>
	<path class="st2" d="M223.1,34.3c0.2,0,0.4,0,0.6-0.1c0.2,0,0.4-0.1,0.6-0.1v1.2c-0.2,0.1-0.4,0.1-0.7,0.2
		c-0.3,0.1-0.6,0.1-0.9,0.1c-0.4,0-0.8-0.1-1.2-0.2c-0.3-0.1-0.6-0.4-0.8-0.7c-0.2-0.4-0.3-0.8-0.3-1.5v-4.1h-1v-0.7l1.1-0.6
		l0.5-1.6h1v1.7h2.2v1.2h-2.2v4c0,0.4,0.1,0.7,0.3,0.9S222.8,34.3,223.1,34.3z"/>
	<path class="st2" d="M238.5,30.5c0,0.8-0.1,1.5-0.3,2.1c-0.2,0.6-0.5,1.2-0.9,1.6c-0.4,0.5-0.9,0.8-1.5,1c-0.6,0.2-1.3,0.4-2.1,0.4
		c-0.8,0-1.5-0.1-2.1-0.4c-0.6-0.2-1.1-0.6-1.5-1.1c-0.4-0.5-0.7-1-0.9-1.6s-0.3-1.3-0.3-2.1c0-1,0.2-1.9,0.5-2.7
		c0.3-0.8,0.9-1.4,1.6-1.8c0.7-0.4,1.6-0.6,2.6-0.6c1,0,1.9,0.2,2.6,0.6c0.7,0.4,1.2,1,1.5,1.8C238.4,28.5,238.5,29.4,238.5,30.5z
		 M230.9,30.5c0,0.8,0.1,1.4,0.3,2c0.2,0.6,0.5,1,1,1.3c0.4,0.3,1,0.5,1.7,0.5c0.7,0,1.2-0.2,1.7-0.5c0.4-0.3,0.8-0.7,1-1.3
		c0.2-0.6,0.3-1.2,0.3-2c0-1.2-0.2-2.1-0.7-2.8c-0.5-0.7-1.2-1-2.2-1c-0.7,0-1.2,0.2-1.7,0.5c-0.4,0.3-0.8,0.7-1,1.3
		C231,29,230.9,29.7,230.9,30.5z"/>
	<path class="st2" d="M246.3,35.5h-5.7v-10h5.7v1.4h-4v2.7h3.8V31h-3.8v3.1h4V35.5z"/>
	<path class="st2" d="M252.8,26.8c-0.5,0-0.9,0.1-1.3,0.3s-0.7,0.4-1,0.7c-0.3,0.3-0.5,0.7-0.6,1.2c-0.1,0.5-0.2,1-0.2,1.6
		c0,0.8,0.1,1.4,0.3,2c0.2,0.6,0.6,1,1,1.3c0.4,0.3,1,0.4,1.7,0.4c0.4,0,0.8,0,1.2-0.1c0.4-0.1,0.8-0.2,1.2-0.3v1.4
		c-0.4,0.2-0.8,0.3-1.2,0.3c-0.4,0.1-0.9,0.1-1.4,0.1c-1,0-1.9-0.2-2.5-0.6c-0.7-0.4-1.2-1-1.5-1.8c-0.3-0.8-0.5-1.7-0.5-2.7
		c0-0.8,0.1-1.4,0.3-2.1c0.2-0.6,0.5-1.2,0.9-1.6c0.4-0.5,0.9-0.8,1.5-1.1c0.6-0.2,1.3-0.4,2-0.4c0.5,0,1,0.1,1.5,0.2
		c0.5,0.1,0.9,0.3,1.3,0.5l-0.6,1.4c-0.3-0.2-0.7-0.3-1.1-0.4C253.6,26.8,253.2,26.8,252.8,26.8z"/>
	<path class="st2" d="M265.5,30.4c0,1.1-0.2,2.1-0.6,2.8c-0.4,0.8-1,1.3-1.8,1.7c-0.8,0.4-1.8,0.6-2.9,0.6h-2.8v-10h3.1
		c1,0,1.9,0.2,2.7,0.6c0.8,0.4,1.3,0.9,1.7,1.6C265.3,28.4,265.5,29.3,265.5,30.4z M263.8,30.5c0-0.8-0.1-1.5-0.4-2
		c-0.3-0.5-0.6-0.9-1.1-1.2c-0.5-0.3-1.1-0.4-1.8-0.4H259v7.3h1.2c1.2,0,2.1-0.3,2.7-0.9C263.5,32.6,263.8,31.7,263.8,30.5z"/>
</g>
</svg>
