<?xml version="1.0" encoding="utf-8"?>
<!-- Generator: Adobe Illustrator 27.8.1, SVG Export Plug-In . SVG Version: 6.00 Build 0)  -->
<svg version="1.1" id="Group_242" xmlns="http://www.w3.org/2000/svg" xmlns:xlink="http://www.w3.org/1999/xlink" x="0px" y="0px"
	 viewBox="0 0 357 60" style="enable-background:new 0 0 357 60;" xml:space="preserve">
<style type="text/css">
	.st0{fill:#D9F6FF;}
	.st1{enable-background:new    ;}
	.st2{fill:#005494;}
</style>
<path id="Rectangle_214" class="st0" d="M0,0h307c27.6,0,50,22.4,50,50v10l0,0H0l0,0V0L0,0z"/>
<g class="st1">
	<path class="st2" d="M128,25.5c1.3,0,2.2,0.3,2.8,0.8s0.9,1.3,0.9,2.2c0,0.4-0.1,0.8-0.2,1.2c-0.1,0.4-0.4,0.7-0.7,1
		c-0.3,0.3-0.7,0.5-1.2,0.7s-1.1,0.3-1.8,0.3h-1.1v3.7h-1.6v-10H128z M127.9,26.9h-1.2v3.5h0.9c0.5,0,1-0.1,1.3-0.2
		c0.4-0.1,0.6-0.3,0.8-0.6s0.3-0.6,0.3-1c0-0.6-0.2-1-0.5-1.3S128.6,26.9,127.9,26.9z"/>
	<path class="st2" d="M137.4,27.8c0.1,0,0.3,0,0.4,0s0.3,0,0.4,0.1l-0.2,1.5c-0.1,0-0.2,0-0.4-0.1s-0.3,0-0.4,0
		c-0.3,0-0.6,0-0.8,0.1c-0.3,0.1-0.5,0.2-0.7,0.4c-0.2,0.2-0.4,0.4-0.5,0.7s-0.2,0.6-0.2,1v4h-1.6v-7.6h1.3l0.2,1.3h0.1
		c0.2-0.3,0.3-0.5,0.6-0.7s0.5-0.4,0.8-0.5C136.7,27.9,137,27.8,137.4,27.8z"/>
	<path class="st2" d="M142.6,27.8c0.7,0,1.3,0.1,1.7,0.4s0.9,0.7,1.1,1.2s0.4,1.1,0.4,1.8v0.9h-5.1c0,0.7,0.2,1.3,0.6,1.7
		s0.9,0.6,1.6,0.6c0.5,0,0.9,0,1.3-0.1c0.4-0.1,0.8-0.2,1.2-0.4v1.3c-0.4,0.2-0.8,0.3-1.2,0.4s-0.9,0.1-1.4,0.1
		c-0.7,0-1.4-0.1-2-0.4c-0.6-0.3-1-0.7-1.3-1.3s-0.5-1.3-0.5-2.1c0-0.8,0.1-1.6,0.4-2.2s0.7-1,1.2-1.4S141.9,27.8,142.6,27.8z
		 M142.6,29c-0.5,0-0.9,0.2-1.2,0.5s-0.5,0.8-0.6,1.4h3.4c0-0.4-0.1-0.7-0.2-1s-0.3-0.5-0.5-0.7S143,29,142.6,29z"/>
	<path class="st2" d="M147,32.4v-1.4h3.5v1.4H147z"/>
	<path class="st2" d="M161.2,30.5c0,0.8-0.1,1.5-0.3,2.1c-0.2,0.6-0.5,1.2-0.9,1.6c-0.4,0.5-0.9,0.8-1.5,1s-1.3,0.4-2.1,0.4
		c-0.8,0-1.5-0.1-2.1-0.4s-1.1-0.6-1.5-1.1s-0.7-1-0.9-1.6s-0.3-1.3-0.3-2.1c0-1,0.2-1.9,0.5-2.7c0.3-0.8,0.9-1.4,1.6-1.8
		c0.7-0.4,1.6-0.6,2.6-0.6c1,0,1.9,0.2,2.6,0.6s1.2,1,1.5,1.8C161,28.5,161.2,29.4,161.2,30.5z M153.6,30.5c0,0.8,0.1,1.4,0.3,2
		c0.2,0.6,0.5,1,1,1.3c0.4,0.3,1,0.5,1.7,0.5c0.7,0,1.2-0.2,1.7-0.5c0.4-0.3,0.8-0.7,1-1.3c0.2-0.6,0.3-1.2,0.3-2
		c0-1.2-0.2-2.1-0.7-2.8c-0.5-0.7-1.2-1-2.2-1c-0.7,0-1.2,0.2-1.7,0.5s-0.8,0.7-1,1.3C153.7,29,153.6,29.7,153.6,30.5z"/>
	<path class="st2" d="M169,35.5h-5.7v-10h5.7v1.4h-4v2.7h3.8V31H165v3.1h4V35.5z"/>
	<path class="st2" d="M175.4,26.8c-0.5,0-0.9,0.1-1.3,0.3s-0.7,0.4-1,0.7c-0.3,0.3-0.5,0.7-0.6,1.2c-0.1,0.5-0.2,1-0.2,1.6
		c0,0.8,0.1,1.4,0.3,2c0.2,0.6,0.6,1,1,1.3c0.4,0.3,1,0.4,1.7,0.4c0.4,0,0.8,0,1.2-0.1s0.8-0.2,1.2-0.3v1.4
		c-0.4,0.2-0.8,0.3-1.2,0.3s-0.9,0.1-1.4,0.1c-1,0-1.9-0.2-2.5-0.6s-1.2-1-1.5-1.8s-0.5-1.7-0.5-2.7c0-0.8,0.1-1.4,0.3-2.1
		s0.5-1.2,0.9-1.6c0.4-0.5,0.9-0.8,1.5-1.1c0.6-0.2,1.3-0.4,2-0.4c0.5,0,1,0.1,1.5,0.2c0.5,0.1,0.9,0.3,1.4,0.5l-0.6,1.4
		c-0.3-0.2-0.7-0.3-1.1-0.4S175.8,26.8,175.4,26.8z"/>
	<path class="st2" d="M188.2,30.4c0,1.1-0.2,2.1-0.6,2.8c-0.4,0.8-1,1.3-1.8,1.7c-0.8,0.4-1.8,0.6-2.9,0.6H180v-10h3.1
		c1,0,1.9,0.2,2.7,0.6c0.8,0.4,1.3,0.9,1.7,1.6C187.9,28.4,188.2,29.3,188.2,30.4z M186.4,30.5c0-0.8-0.1-1.5-0.4-2
		c-0.3-0.5-0.6-0.9-1.1-1.2c-0.5-0.3-1.1-0.4-1.8-0.4h-1.4v7.3h1.2c1.2,0,2.1-0.3,2.7-0.9C186.1,32.6,186.4,31.7,186.4,30.5z"/>
	<path class="st2" d="M197.7,27.8c0.9,0,1.6,0.3,2.2,1c0.5,0.7,0.8,1.6,0.8,2.9c0,0.9-0.1,1.6-0.4,2.2c-0.3,0.6-0.6,1-1.1,1.3
		c-0.5,0.3-1,0.4-1.6,0.4c-0.4,0-0.7,0-1-0.2c-0.3-0.1-0.5-0.2-0.7-0.4c-0.2-0.2-0.4-0.3-0.5-0.5h-0.1c0,0.2,0,0.4,0.1,0.6
		c0,0.2,0,0.4,0,0.6v3.1h-1.6V27.9h1.3l0.2,1h0.1c0.1-0.2,0.3-0.4,0.5-0.6c0.2-0.2,0.4-0.3,0.7-0.4
		C196.9,27.8,197.3,27.8,197.7,27.8z M197.2,29.1c-0.4,0-0.8,0.1-1.1,0.3c-0.3,0.2-0.5,0.4-0.6,0.8c-0.1,0.4-0.2,0.8-0.2,1.3v0.2
		c0,0.6,0.1,1,0.2,1.4c0.1,0.4,0.3,0.7,0.6,0.9c0.3,0.2,0.6,0.3,1.1,0.3c0.4,0,0.7-0.1,1-0.3c0.3-0.2,0.5-0.5,0.6-0.9
		c0.1-0.4,0.2-0.9,0.2-1.4c0-0.8-0.1-1.4-0.4-1.9C198.3,29.3,197.8,29.1,197.2,29.1z"/>
	<path class="st2" d="M204.1,24.9v2.7c0,0.3,0,0.5,0,0.8c0,0.3,0,0.5-0.1,0.6h0.1c0.2-0.3,0.4-0.5,0.6-0.7c0.2-0.2,0.5-0.3,0.8-0.4
		c0.3-0.1,0.6-0.1,0.9-0.1c0.6,0,1.1,0.1,1.5,0.3c0.4,0.2,0.7,0.5,0.9,0.9c0.2,0.4,0.3,0.9,0.3,1.6v4.9h-1.6v-4.6
		c0-0.6-0.1-1-0.4-1.3c-0.2-0.3-0.6-0.4-1.1-0.4c-0.5,0-0.9,0.1-1.2,0.3c-0.3,0.2-0.5,0.5-0.6,0.9c-0.1,0.4-0.2,0.9-0.2,1.4v3.8
		h-1.6V24.9H204.1z"/>
	<path class="st2" d="M214.3,27.8c1,0,1.7,0.2,2.2,0.6c0.5,0.4,0.7,1.1,0.7,2v5.1h-1.1l-0.3-1.1h-0.1c-0.2,0.3-0.4,0.5-0.7,0.7
		c-0.2,0.2-0.5,0.3-0.8,0.4c-0.3,0.1-0.7,0.1-1.1,0.1c-0.5,0-0.9-0.1-1.2-0.2c-0.4-0.2-0.6-0.4-0.8-0.8s-0.3-0.8-0.3-1.3
		c0-0.8,0.3-1.4,0.9-1.8s1.5-0.6,2.6-0.6l1.3,0v-0.4c0-0.5-0.1-0.9-0.4-1.1c-0.2-0.2-0.6-0.3-1-0.3c-0.4,0-0.7,0.1-1.1,0.2
		s-0.7,0.2-1,0.4l-0.5-1.1c0.4-0.2,0.8-0.4,1.3-0.5S213.8,27.8,214.3,27.8z M215.7,31.9l-1,0c-0.8,0-1.4,0.2-1.7,0.4
		c-0.3,0.2-0.5,0.6-0.5,1c0,0.4,0.1,0.6,0.3,0.8c0.2,0.2,0.5,0.3,0.9,0.3c0.6,0,1-0.2,1.4-0.5c0.4-0.3,0.6-0.8,0.6-1.4V31.9z"/>
	<path class="st2" d="M224.6,33.3c0,0.5-0.1,0.9-0.4,1.3c-0.2,0.3-0.6,0.6-1.1,0.8c-0.5,0.2-1,0.3-1.7,0.3c-0.5,0-1,0-1.4-0.1
		c-0.4-0.1-0.7-0.2-1.1-0.3v-1.4c0.4,0.2,0.8,0.3,1.2,0.4c0.4,0.1,0.9,0.2,1.3,0.2c0.5,0,0.9-0.1,1.1-0.2c0.2-0.2,0.3-0.4,0.3-0.7
		c0-0.2,0-0.3-0.1-0.4c-0.1-0.1-0.3-0.3-0.5-0.4c-0.3-0.1-0.6-0.3-1.1-0.5c-0.5-0.2-0.9-0.4-1.2-0.6s-0.6-0.4-0.7-0.7
		c-0.2-0.3-0.3-0.6-0.3-1c0-0.7,0.3-1.2,0.8-1.5c0.5-0.3,1.2-0.5,2.1-0.5c0.5,0,0.9,0,1.3,0.1c0.4,0.1,0.8,0.2,1.2,0.4l-0.5,1.2
		c-0.3-0.2-0.7-0.3-1-0.4c-0.3-0.1-0.7-0.1-1-0.1c-0.4,0-0.7,0.1-0.9,0.2c-0.2,0.1-0.3,0.3-0.3,0.5c0,0.2,0.1,0.3,0.2,0.5
		c0.1,0.1,0.3,0.2,0.5,0.4c0.3,0.1,0.6,0.3,1.1,0.5c0.5,0.2,0.8,0.4,1.2,0.5c0.3,0.2,0.6,0.4,0.8,0.7S224.6,32.9,224.6,33.3z"/>
	<path class="st2" d="M229.3,27.8c0.7,0,1.3,0.1,1.7,0.4c0.5,0.3,0.9,0.7,1.1,1.2s0.4,1.1,0.4,1.8v0.9h-5.1c0,0.7,0.2,1.3,0.6,1.7
		s0.9,0.6,1.6,0.6c0.5,0,0.9,0,1.3-0.1c0.4-0.1,0.8-0.2,1.2-0.4v1.3c-0.4,0.2-0.8,0.3-1.2,0.4c-0.4,0.1-0.9,0.1-1.4,0.1
		c-0.7,0-1.4-0.1-2-0.4c-0.6-0.3-1-0.7-1.3-1.3c-0.3-0.6-0.5-1.3-0.5-2.1c0-0.8,0.1-1.6,0.4-2.2s0.7-1,1.2-1.4
		S228.6,27.8,229.3,27.8z M229.3,29c-0.5,0-0.9,0.2-1.2,0.5c-0.3,0.3-0.5,0.8-0.5,1.4h3.4c0-0.4-0.1-0.7-0.2-1
		c-0.1-0.3-0.3-0.5-0.5-0.7C230,29.1,229.7,29,229.3,29z"/>
</g>
</svg>
