<?xml version="1.0" encoding="utf-8"?>
<!-- Generator: Adobe Illustrator 27.8.1, SVG Export Plug-In . SVG Version: 6.00 Build 0)  -->
<svg version="1.1" id="Layer_1" xmlns="http://www.w3.org/2000/svg" xmlns:xlink="http://www.w3.org/1999/xlink" x="0px" y="0px"
	 viewBox="0 0 357 60" style="enable-background:new 0 0 357 60;" xml:space="preserve">
<style type="text/css">
	.st0{fill:#D9F6FF;}
	.st1{enable-background:new    ;}
	.st2{fill:#005494;}
</style>
<g id="Group_243" transform="translate(-25 -718.908)">
	<path id="Rectangle_216" class="st0" d="M25,718.9h307c27.6,0,50,22.4,50,50v10l0,0H25l0,0V718.9L25,718.9z"/>
	<g class="st1">
		<path class="st2" d="M138,749.8c0,1.1-0.2,2.1-0.6,2.8c-0.4,0.8-1,1.3-1.8,1.7s-1.8,0.6-2.9,0.6h-2.8v-10h3.1c1,0,1.9,0.2,2.7,0.6
			c0.8,0.4,1.3,0.9,1.7,1.6C137.8,747.8,138,748.7,138,749.8z M136.3,749.9c0-0.8-0.1-1.5-0.4-2s-0.6-0.9-1.1-1.2s-1.1-0.4-1.8-0.4
			h-1.4v7.3h1.2c1.2,0,2.1-0.3,2.7-0.9S136.3,751.1,136.3,749.9z"/>
		<path class="st2" d="M143,747.2c0.7,0,1.3,0.1,1.7,0.4s0.9,0.7,1.1,1.2s0.4,1.1,0.4,1.8v0.9h-5.1c0,0.7,0.2,1.3,0.6,1.7
			s0.9,0.6,1.6,0.6c0.5,0,0.9,0,1.3-0.1c0.4-0.1,0.8-0.2,1.2-0.4v1.3c-0.4,0.2-0.8,0.3-1.2,0.4s-0.9,0.1-1.4,0.1
			c-0.7,0-1.4-0.1-2-0.4c-0.6-0.3-1-0.7-1.3-1.3s-0.5-1.3-0.5-2.1s0.1-1.6,0.4-2.2s0.7-1,1.2-1.4S142.4,747.2,143,747.2z M143,748.4
			c-0.5,0-0.9,0.2-1.2,0.5s-0.5,0.8-0.6,1.4h3.4c0-0.4-0.1-0.7-0.2-1s-0.3-0.5-0.5-0.7S143.4,748.4,143,748.4z"/>
		<path class="st2" d="M149.8,754.9l-2.9-7.6h1.7l1.6,4.4c0.1,0.3,0.2,0.6,0.3,0.9s0.1,0.6,0.2,0.8h0.1c0-0.2,0.1-0.5,0.2-0.8
			c0.1-0.3,0.2-0.6,0.3-0.9l1.6-4.4h1.7l-2.9,7.6H149.8z"/>
		<path class="st2" d="M158.6,747.2c0.7,0,1.3,0.1,1.7,0.4s0.9,0.7,1.1,1.2s0.4,1.1,0.4,1.8v0.9h-5.1c0,0.7,0.2,1.3,0.6,1.7
			s0.9,0.6,1.6,0.6c0.5,0,0.9,0,1.3-0.1c0.4-0.1,0.8-0.2,1.2-0.4v1.3c-0.4,0.2-0.8,0.3-1.2,0.4s-0.9,0.1-1.4,0.1
			c-0.7,0-1.4-0.1-2-0.4c-0.6-0.3-1-0.7-1.3-1.3s-0.5-1.3-0.5-2.1s0.1-1.6,0.4-2.2s0.7-1,1.2-1.4S157.9,747.2,158.6,747.2z
			 M158.6,748.4c-0.5,0-0.9,0.2-1.2,0.5s-0.5,0.8-0.6,1.4h3.4c0-0.4-0.1-0.7-0.2-1s-0.3-0.5-0.5-0.7S159,748.4,158.6,748.4z"/>
		<path class="st2" d="M165.3,754.9h-1.6v-10.6h1.6V754.9z"/>
		<path class="st2" d="M174.2,751.1c0,0.6-0.1,1.2-0.2,1.7s-0.4,0.9-0.7,1.2s-0.7,0.6-1.1,0.8c-0.4,0.2-0.9,0.3-1.5,0.3
			c-0.5,0-1-0.1-1.4-0.3s-0.8-0.4-1.1-0.8c-0.3-0.3-0.6-0.7-0.7-1.2s-0.3-1-0.3-1.7c0-0.8,0.1-1.5,0.4-2.1c0.3-0.6,0.7-1,1.2-1.3
			s1.2-0.5,1.9-0.5s1.3,0.2,1.8,0.5s1,0.8,1.3,1.3S174.2,750.3,174.2,751.1z M168.8,751.1c0,0.6,0.1,1,0.2,1.4s0.3,0.7,0.6,0.9
			s0.6,0.3,1.1,0.3s0.8-0.1,1.1-0.3s0.5-0.5,0.6-0.9s0.2-0.9,0.2-1.4s-0.1-1-0.2-1.4c-0.1-0.4-0.3-0.7-0.6-0.9s-0.6-0.3-1.1-0.3
			c-0.7,0-1.2,0.2-1.5,0.7S168.8,750.3,168.8,751.1z"/>
		<path class="st2" d="M180,747.2c0.9,0,1.6,0.3,2.2,1s0.8,1.6,0.8,2.9c0,0.9-0.1,1.6-0.4,2.2c-0.3,0.6-0.6,1-1.1,1.3
			s-1,0.4-1.6,0.4c-0.4,0-0.7,0-1-0.2s-0.5-0.2-0.7-0.4s-0.4-0.3-0.5-0.5h-0.1c0,0.2,0,0.4,0.1,0.6c0,0.2,0,0.4,0,0.6v3.1h-1.6
			v-10.9h1.3l0.2,1h0.1c0.1-0.2,0.3-0.4,0.5-0.6s0.4-0.3,0.7-0.4C179.2,747.3,179.6,747.2,180,747.2z M179.5,748.5
			c-0.4,0-0.8,0.1-1.1,0.3s-0.5,0.4-0.6,0.8s-0.2,0.8-0.2,1.3v0.2c0,0.6,0.1,1,0.2,1.4c0.1,0.4,0.3,0.7,0.6,0.9s0.6,0.3,1.1,0.3
			c0.4,0,0.7-0.1,1-0.3s0.5-0.5,0.6-0.9s0.2-0.9,0.2-1.4c0-0.8-0.1-1.4-0.4-1.9S180.1,748.5,179.5,748.5z"/>
		<path class="st2" d="M193.4,747.2c0.8,0,1.5,0.2,1.9,0.7s0.6,1.1,0.6,2.1v4.9h-1.6v-4.7c0-0.6-0.1-1-0.3-1.3s-0.6-0.4-1-0.4
			c-0.6,0-1.1,0.2-1.4,0.6c-0.3,0.4-0.4,1-0.4,1.8v4h-1.6v-4.7c0-0.4,0-0.7-0.1-1s-0.2-0.5-0.4-0.6s-0.5-0.2-0.8-0.2
			c-0.4,0-0.8,0.1-1.1,0.3s-0.5,0.5-0.6,0.9s-0.2,0.9-0.2,1.4v3.8h-1.6v-7.6h1.3l0.2,1h0.1c0.2-0.3,0.3-0.5,0.6-0.7
			c0.2-0.2,0.5-0.3,0.8-0.4c0.3-0.1,0.6-0.1,0.9-0.1c0.6,0,1,0.1,1.4,0.3s0.7,0.5,0.9,0.9h0.1c0.2-0.4,0.6-0.7,1-0.9
			S192.9,747.2,193.4,747.2z"/>
		<path class="st2" d="M201.2,747.2c0.7,0,1.3,0.1,1.7,0.4s0.9,0.7,1.1,1.2s0.4,1.1,0.4,1.8v0.9h-5.1c0,0.7,0.2,1.3,0.6,1.7
			s0.9,0.6,1.6,0.6c0.5,0,0.9,0,1.3-0.1c0.4-0.1,0.8-0.2,1.2-0.4v1.3c-0.4,0.2-0.8,0.3-1.2,0.4s-0.9,0.1-1.4,0.1
			c-0.7,0-1.4-0.1-2-0.4c-0.6-0.3-1-0.7-1.3-1.3s-0.5-1.3-0.5-2.1s0.1-1.6,0.4-2.2s0.7-1,1.2-1.4S200.5,747.2,201.2,747.2z
			 M201.2,748.4c-0.5,0-0.9,0.2-1.2,0.5s-0.5,0.8-0.6,1.4h3.4c0-0.4-0.1-0.7-0.2-1s-0.3-0.5-0.5-0.7S201.6,748.4,201.2,748.4z"/>
		<path class="st2" d="M210.2,747.2c0.9,0,1.5,0.2,2,0.7c0.5,0.4,0.7,1.1,0.7,2.1v4.9h-1.6v-4.6c0-0.6-0.1-1-0.4-1.3
			c-0.2-0.3-0.6-0.4-1.1-0.4c-0.7,0-1.2,0.2-1.5,0.7s-0.4,1.1-0.4,2v3.8h-1.6v-7.6h1.3l0.2,1h0.1c0.2-0.3,0.4-0.5,0.6-0.7
			c0.2-0.2,0.5-0.3,0.8-0.4C209.5,747.2,209.8,747.2,210.2,747.2z"/>
		<path class="st2" d="M217.9,753.7c0.2,0,0.4,0,0.6-0.1c0.2,0,0.4-0.1,0.6-0.1v1.2c-0.2,0.1-0.4,0.1-0.7,0.2
			c-0.3,0.1-0.6,0.1-0.9,0.1c-0.4,0-0.8-0.1-1.2-0.2c-0.3-0.1-0.6-0.4-0.8-0.7c-0.2-0.4-0.3-0.8-0.3-1.5v-4.1h-1v-0.7l1.1-0.6
			l0.5-1.6h1v1.7h2.2v1.2h-2.2v4c0,0.4,0.1,0.7,0.3,0.9S217.6,753.7,217.9,753.7z"/>
		<path class="st2" d="M227.3,747.2c1,0,1.7,0.2,2.2,0.6c0.5,0.4,0.7,1.1,0.7,2v5.1H229l-0.3-1.1h-0.1c-0.2,0.3-0.4,0.5-0.7,0.7
			c-0.2,0.2-0.5,0.3-0.8,0.4c-0.3,0.1-0.7,0.1-1.1,0.1c-0.5,0-0.9-0.1-1.2-0.2c-0.4-0.2-0.6-0.4-0.8-0.8s-0.3-0.8-0.3-1.3
			c0-0.8,0.3-1.4,0.9-1.8s1.5-0.6,2.6-0.6h1.3v-0.4c0-0.5-0.1-0.9-0.4-1.1c-0.2-0.2-0.6-0.3-1-0.3s-0.7,0.1-1.1,0.2s-0.7,0.2-1,0.4
			l-0.5-1.1c0.4-0.2,0.8-0.4,1.3-0.5S226.8,747.2,227.3,747.2z M228.6,751.3h-1c-0.8,0-1.4,0.2-1.7,0.4s-0.5,0.6-0.5,1
			s0.1,0.6,0.3,0.8s0.5,0.3,0.9,0.3c0.6,0,1-0.2,1.4-0.5s0.5-0.8,0.5-1.4v-0.6H228.6z"/>
		<path class="st2" d="M235.2,753.7c0.2,0,0.4,0,0.6-0.1c0.2,0,0.4-0.1,0.6-0.1v1.2c-0.2,0.1-0.4,0.1-0.7,0.2
			c-0.3,0.1-0.6,0.1-0.9,0.1c-0.4,0-0.8-0.1-1.2-0.2c-0.3-0.1-0.6-0.4-0.8-0.7c-0.2-0.4-0.3-0.8-0.3-1.5v-4.1h-1v-0.7l1.1-0.6
			l0.5-1.6h1v1.7h2.2v1.2h-2.2v4c0,0.4,0.1,0.7,0.3,0.9S234.9,753.7,235.2,753.7z"/>
		<path class="st2" d="M250.6,749.9c0,0.8-0.1,1.5-0.3,2.1s-0.5,1.2-0.9,1.6c-0.4,0.5-0.9,0.8-1.5,1s-1.3,0.4-2.1,0.4
			s-1.5-0.1-2.1-0.4c-0.6-0.2-1.1-0.6-1.5-1.1s-0.7-1-0.9-1.6s-0.3-1.3-0.3-2.1c0-1,0.2-1.9,0.5-2.7s0.9-1.4,1.6-1.8
			c0.7-0.4,1.6-0.6,2.6-0.6s1.9,0.2,2.6,0.6c0.7,0.4,1.2,1,1.5,1.8C250.5,747.9,250.6,748.9,250.6,749.9z M243,749.9
			c0,0.8,0.1,1.4,0.3,2s0.5,1,1,1.3c0.4,0.3,1,0.5,1.7,0.5s1.2-0.2,1.7-0.5c0.4-0.3,0.8-0.7,1-1.3s0.3-1.2,0.3-2
			c0-1.2-0.2-2.1-0.7-2.8s-1.2-1-2.2-1c-0.7,0-1.2,0.2-1.7,0.5c-0.4,0.3-0.8,0.7-1,1.3C243.1,748.4,243,749.1,243,749.9z"/>
		<path class="st2" d="M258.4,754.9h-5.7v-10h5.7v1.4h-4v2.7h3.8v1.4h-3.8v3.1h4L258.4,754.9L258.4,754.9z"/>
		<path class="st2" d="M264.8,746.2c-0.5,0-0.9,0.1-1.3,0.3s-0.7,0.4-1,0.7s-0.5,0.7-0.6,1.2s-0.2,1-0.2,1.6c0,0.8,0.1,1.4,0.3,2
			c0.2,0.6,0.6,1,1,1.3s1,0.4,1.7,0.4c0.4,0,0.8,0,1.2-0.1c0.4-0.1,0.8-0.2,1.2-0.3v1.4c-0.4,0.2-0.8,0.3-1.2,0.3
			c-0.4,0.1-0.9,0.1-1.4,0.1c-1,0-1.9-0.2-2.5-0.6c-0.7-0.4-1.2-1-1.5-1.8S260,751,260,750c0-0.8,0.1-1.4,0.3-2.1
			c0.2-0.6,0.5-1.2,0.9-1.6c0.4-0.5,0.9-0.8,1.5-1.1c0.6-0.2,1.3-0.4,2-0.4c0.5,0,1,0.1,1.5,0.2c0.5,0.1,0.9,0.3,1.3,0.5l-0.6,1.4
			c-0.3-0.2-0.7-0.3-1.1-0.4C265.6,746.2,265.3,746.2,264.8,746.2z"/>
		<path class="st2" d="M277.6,749.8c0,1.1-0.2,2.1-0.6,2.8c-0.4,0.8-1,1.3-1.8,1.7s-1.8,0.6-2.9,0.6h-2.8v-10h3.1
			c1,0,1.9,0.2,2.7,0.6c0.8,0.4,1.3,0.9,1.7,1.6C277.4,747.8,277.6,748.7,277.6,749.8z M275.9,749.9c0-0.8-0.1-1.5-0.4-2
			s-0.6-0.9-1.1-1.2s-1.1-0.4-1.8-0.4h-1.4v7.3h1.2c1.2,0,2.1-0.3,2.7-0.9C275.6,752,275.9,751.1,275.9,749.9z"/>
	</g>
</g>
</svg>
