<?xml version="1.0" encoding="utf-8"?>
<!-- Generator: Adobe Illustrator 27.5.0, SVG Export Plug-In . SVG Version: 6.00 Build 0)  -->
<svg version="1.1" id="Layer_1" xmlns="http://www.w3.org/2000/svg" xmlns:xlink="http://www.w3.org/1999/xlink" x="0px" y="0px"
	 viewBox="0 0 1154 90" style="enable-background:new 0 0 1154 90;" xml:space="preserve">
<style type="text/css">
	.st0{fill:#D9F6FF;}
	.st1{enable-background:new    ;}
	.st2{fill:#005494;}
	.st3{fill:#11B3E8;}
</style>
<g transform="matrix(1, 0, 0, 1, -917, -9)">
	<path id="Rectangle_18-2" class="st0" d="M1894,18h100c33.1,0,60,26.9,60,60v11l0,0h-220l0,0V78C1834,44.9,1860.9,18,1894,18z"/>
</g>
<g class="st1">
	<path class="st2" d="M978.7,26.6V34c0,0.8-0.2,1.5-0.5,2.1s-0.8,1.1-1.5,1.5s-1.5,0.6-2.6,0.6c-1.5,0-2.6-0.4-3.3-1.2
		s-1.1-1.8-1.1-3.1v-7.4h1.9v7.2c0,1,0.2,1.7,0.7,2.1s1.1,0.7,2,0.7c0.6,0,1.1-0.1,1.5-0.3s0.7-0.5,0.9-1s0.3-0.9,0.3-1.5v-7.2
		H978.7z"/>
	<path class="st2" d="M987.3,35.5c0,0.6-0.1,1-0.4,1.4s-0.7,0.7-1.2,0.9s-1.2,0.3-1.9,0.3c-0.6,0-1.1,0-1.6-0.1s-0.8-0.2-1.2-0.4V36
		c0.4,0.2,0.9,0.4,1.4,0.5s1,0.2,1.5,0.2c0.6,0,1-0.1,1.3-0.3s0.4-0.4,0.4-0.8c0-0.2-0.1-0.4-0.2-0.5s-0.3-0.3-0.6-0.5
		s-0.7-0.4-1.3-0.6c-0.5-0.2-1-0.4-1.4-0.7s-0.7-0.5-0.9-0.8s-0.3-0.7-0.3-1.2c0-0.8,0.3-1.3,0.9-1.7s1.4-0.6,2.4-0.6
		c0.5,0,1,0.1,1.5,0.2s0.9,0.3,1.4,0.5l-0.6,1.4c-0.4-0.2-0.8-0.3-1.2-0.4s-0.8-0.2-1.2-0.2c-0.5,0-0.8,0.1-1.1,0.2
		s-0.4,0.4-0.4,0.6c0,0.2,0.1,0.4,0.2,0.5s0.3,0.3,0.6,0.4s0.7,0.3,1.2,0.5c0.5,0.2,1,0.4,1.3,0.6s0.7,0.5,0.9,0.8
		S987.3,35,987.3,35.5z"/>
	<path class="st2" d="M992.7,29.2c0.8,0,1.4,0.2,2,0.5s1,0.8,1.3,1.4s0.4,1.3,0.4,2.1v1h-5.8c0,0.8,0.2,1.5,0.7,1.9s1,0.7,1.8,0.7
		c0.6,0,1-0.1,1.5-0.2s0.9-0.3,1.4-0.5v1.5c-0.4,0.2-0.9,0.4-1.3,0.4s-1,0.1-1.6,0.1c-0.8,0-1.6-0.2-2.2-0.5s-1.1-0.8-1.5-1.5
		s-0.5-1.5-0.5-2.4c0-1,0.2-1.8,0.5-2.5s0.8-1.2,1.4-1.5S991.9,29.2,992.7,29.2z M992.7,30.6c-0.6,0-1,0.2-1.4,0.6s-0.6,0.9-0.6,1.6
		h3.9c0-0.4-0.1-0.8-0.2-1.1s-0.3-0.6-0.6-0.8S993.1,30.6,992.7,30.6z"/>
	<path class="st2" d="M1006,29.2c1.1,0,1.9,0.2,2.5,0.7s0.8,1.2,0.8,2.3V38h-1.3l-0.4-1.2h-0.1c-0.2,0.3-0.5,0.6-0.8,0.8
		s-0.6,0.4-0.9,0.5s-0.8,0.2-1.2,0.2c-0.5,0-1-0.1-1.4-0.3s-0.7-0.5-1-0.9s-0.4-0.9-0.4-1.5c0-0.9,0.3-1.6,1-2s1.7-0.7,3-0.7
		l1.5-0.1v-0.5c0-0.6-0.1-1-0.4-1.3s-0.7-0.4-1.2-0.4c-0.4,0-0.9,0.1-1.3,0.2s-0.8,0.3-1.2,0.5l-0.6-1.3c0.4-0.2,0.9-0.4,1.4-0.5
		S1005.4,29.2,1006,29.2z M1007.5,33.9l-1.1,0c-0.9,0-1.6,0.2-1.9,0.5s-0.6,0.7-0.6,1.2c0,0.4,0.1,0.7,0.4,0.9s0.6,0.3,1,0.3
		c0.6,0,1.2-0.2,1.6-0.5s0.6-0.9,0.6-1.6V33.9z"/>
	<path class="st2" d="M1016.4,29.2c1,0,1.7,0.3,2.3,0.8s0.8,1.3,0.8,2.4V38h-1.8v-5.3c0-0.7-0.1-1.2-0.4-1.5s-0.7-0.5-1.3-0.5
		c-0.8,0-1.4,0.3-1.7,0.8s-0.5,1.3-0.5,2.2V38h-1.8v-8.6h1.4l0.3,1.2h0.1c0.2-0.3,0.4-0.6,0.7-0.7s0.6-0.3,0.9-0.4
		S1016,29.2,1016.4,29.2z"/>
	<path class="st2" d="M1025,38.2c-1,0-1.9-0.4-2.5-1.1s-0.9-1.9-0.9-3.3c0-1.5,0.3-2.6,0.9-3.4s1.5-1.1,2.5-1.1
		c0.4,0,0.8,0.1,1.1,0.2s0.6,0.3,0.8,0.5s0.4,0.4,0.6,0.7h0.1c0-0.2-0.1-0.4-0.1-0.7s-0.1-0.6-0.1-0.8v-3.1h1.8V38h-1.4l-0.3-1.2
		h-0.1c-0.2,0.2-0.4,0.5-0.6,0.7s-0.5,0.4-0.8,0.5S1025.4,38.2,1025,38.2z M1025.5,36.7c0.8,0,1.3-0.2,1.7-0.7s0.5-1.1,0.5-2v-0.2
		c0-1-0.2-1.7-0.5-2.2s-0.9-0.8-1.7-0.8c-0.7,0-1.2,0.3-1.5,0.8s-0.5,1.3-0.5,2.2s0.2,1.7,0.5,2.2S1024.8,36.7,1025.5,36.7z"/>
	<path class="st2" d="M1043.7,29.4V38h-1.4l-0.2-1.2h-0.1c-0.2,0.3-0.4,0.5-0.7,0.7s-0.6,0.3-0.9,0.4s-0.7,0.1-1.1,0.1
		c-0.7,0-1.2-0.1-1.7-0.3s-0.8-0.6-1.1-1s-0.4-1.1-0.4-1.8v-5.6h1.8v5.3c0,0.7,0.1,1.2,0.4,1.5s0.7,0.5,1.3,0.5c0.6,0,1-0.1,1.3-0.3
		s0.6-0.6,0.7-1s0.2-1,0.2-1.6v-4.3H1043.7z"/>
	<path class="st2" d="M1050.8,29.2c1,0,1.9,0.4,2.5,1.1s0.9,1.9,0.9,3.3c0,1-0.1,1.8-0.4,2.5s-0.7,1.2-1.2,1.5s-1.1,0.5-1.8,0.5
		c-0.4,0-0.8-0.1-1.1-0.2s-0.6-0.3-0.8-0.4s-0.4-0.4-0.6-0.6h-0.1c0,0.2,0.1,0.4,0.1,0.7s0,0.5,0,0.7v3.5h-1.8V29.4h1.5l0.3,1.2h0.1
		c0.2-0.2,0.4-0.5,0.6-0.7s0.5-0.4,0.8-0.5S1050.3,29.2,1050.8,29.2z M1050.3,30.7c-0.5,0-0.9,0.1-1.2,0.3s-0.5,0.5-0.7,0.9
		s-0.2,0.9-0.2,1.5v0.3c0,0.6,0.1,1.2,0.2,1.6s0.4,0.8,0.7,1s0.7,0.3,1.3,0.3c0.4,0,0.8-0.1,1.1-0.4s0.5-0.6,0.7-1s0.2-1,0.2-1.6
		c0-0.9-0.2-1.7-0.5-2.2S1051,30.7,1050.3,30.7z"/>
	<path class="st2" d="M1059.2,38.2c-1,0-1.9-0.4-2.5-1.1s-0.9-1.9-0.9-3.3c0-1.5,0.3-2.6,0.9-3.4s1.5-1.1,2.5-1.1
		c0.4,0,0.8,0.1,1.1,0.2s0.6,0.3,0.8,0.5s0.4,0.4,0.6,0.7h0.1c0-0.2-0.1-0.4-0.1-0.7s-0.1-0.6-0.1-0.8v-3.1h1.8V38h-1.4l-0.3-1.2
		h-0.1c-0.2,0.2-0.4,0.5-0.6,0.7s-0.5,0.4-0.8,0.5S1059.7,38.2,1059.2,38.2z M1059.7,36.7c0.8,0,1.3-0.2,1.7-0.7s0.5-1.1,0.5-2v-0.2
		c0-1-0.2-1.7-0.5-2.2s-0.9-0.8-1.7-0.8c-0.7,0-1.2,0.3-1.5,0.8s-0.5,1.3-0.5,2.2s0.2,1.7,0.5,2.2S1059.1,36.7,1059.7,36.7z"/>
	<path class="st2" d="M1069.7,29.2c1.1,0,1.9,0.2,2.5,0.7s0.8,1.2,0.8,2.3V38h-1.3l-0.4-1.2h-0.1c-0.2,0.3-0.5,0.6-0.8,0.8
		s-0.6,0.4-0.9,0.5s-0.8,0.2-1.2,0.2c-0.5,0-1-0.1-1.4-0.3s-0.7-0.5-1-0.9s-0.4-0.9-0.4-1.5c0-0.9,0.3-1.6,1-2s1.7-0.7,3-0.7
		l1.5-0.1v-0.5c0-0.6-0.1-1-0.4-1.3s-0.7-0.4-1.2-0.4c-0.4,0-0.9,0.1-1.3,0.2s-0.8,0.3-1.2,0.5l-0.6-1.3c0.4-0.2,0.9-0.4,1.4-0.5
		S1069.1,29.2,1069.7,29.2z M1071.2,33.9l-1.1,0c-0.9,0-1.6,0.2-1.9,0.5s-0.6,0.7-0.6,1.2c0,0.4,0.1,0.7,0.4,0.9s0.6,0.3,1,0.3
		c0.6,0,1.2-0.2,1.6-0.5s0.6-0.9,0.6-1.6V33.9z"/>
	<path class="st2" d="M1078.8,36.7c0.2,0,0.5,0,0.7-0.1s0.4-0.1,0.6-0.2v1.4c-0.2,0.1-0.5,0.2-0.8,0.2s-0.7,0.1-1,0.1
		c-0.5,0-0.9-0.1-1.3-0.2s-0.7-0.4-0.9-0.8s-0.3-1-0.3-1.7v-4.6h-1.2v-0.8l1.3-0.6l0.6-1.9h1.2v1.9h2.5v1.4h-2.5v4.6
		c0,0.4,0.1,0.8,0.3,1S1078.4,36.7,1078.8,36.7z"/>
	<path class="st2" d="M1085.3,29.2c0.8,0,1.4,0.2,2,0.5s1,0.8,1.3,1.4s0.4,1.3,0.4,2.1v1h-5.8c0,0.8,0.2,1.5,0.7,1.9s1,0.7,1.8,0.7
		c0.6,0,1-0.1,1.5-0.2s0.9-0.3,1.4-0.5v1.5c-0.4,0.2-0.9,0.4-1.3,0.4s-1,0.1-1.6,0.1c-0.8,0-1.6-0.2-2.2-0.5s-1.1-0.8-1.5-1.5
		s-0.5-1.5-0.5-2.4c0-1,0.2-1.8,0.5-2.5s0.8-1.2,1.4-1.5S1084.5,29.2,1085.3,29.2z M1085.3,30.6c-0.6,0-1,0.2-1.4,0.6
		s-0.6,0.9-0.6,1.6h3.9c0-0.4-0.1-0.8-0.2-1.1s-0.3-0.6-0.6-0.8S1085.8,30.6,1085.3,30.6z"/>
</g>
<g class="st1">
	<path class="st2" d="M971.4,55.7c0,0.7-0.1,1.4-0.3,1.9s-0.5,1-0.8,1.4s-0.8,0.7-1.3,0.9s-1.1,0.3-1.7,0.3c-0.6,0-1.1-0.1-1.6-0.3
		s-0.9-0.5-1.3-0.9s-0.6-0.9-0.8-1.4s-0.3-1.2-0.3-1.9c0-1,0.2-1.8,0.5-2.4s0.8-1.2,1.4-1.5s1.3-0.5,2.2-0.5c0.8,0,1.5,0.2,2.1,0.5
		s1.1,0.9,1.4,1.5S971.4,54.7,971.4,55.7z M965.1,55.7c0,0.6,0.1,1.2,0.2,1.6s0.4,0.8,0.7,1s0.7,0.4,1.2,0.4s0.9-0.1,1.2-0.4
		s0.6-0.6,0.7-1s0.2-1,0.2-1.6s-0.1-1.2-0.2-1.6s-0.4-0.8-0.7-1s-0.7-0.3-1.3-0.3c-0.8,0-1.3,0.3-1.7,0.8S965.1,54.7,965.1,55.7z"/>
	<path class="st2" d="M977.8,52.7h-2.1V60h-1.8v-7.2h-1.4v-0.9l1.4-0.5v-0.6c0-0.7,0.1-1.3,0.3-1.8s0.6-0.7,1-0.9s1-0.3,1.6-0.3
		c0.4,0,0.8,0,1.1,0.1s0.6,0.1,0.8,0.2l-0.5,1.4c-0.2-0.1-0.4-0.1-0.6-0.2s-0.5-0.1-0.7-0.1c-0.4,0-0.7,0.1-0.9,0.4
		s-0.3,0.6-0.3,1.1v0.6h2.1V52.7z"/>
	<path class="st2" d="M993.8,54.3c0,0.9-0.1,1.7-0.3,2.4s-0.6,1.3-1,1.9s-1,0.9-1.7,1.2s-1.4,0.4-2.3,0.4c-0.9,0-1.7-0.1-2.4-0.4
		s-1.2-0.7-1.7-1.2s-0.8-1.1-1-1.9s-0.3-1.5-0.3-2.4c0-1.2,0.2-2.2,0.6-3.1s1-1.6,1.8-2s1.8-0.7,3-0.7c1.2,0,2.2,0.2,3,0.7
		s1.4,1.2,1.8,2S993.8,53.1,993.8,54.3z M985.1,54.3c0,0.9,0.1,1.6,0.4,2.3s0.6,1.1,1.1,1.5s1.1,0.5,1.9,0.5c0.8,0,1.4-0.2,1.9-0.5
		s0.9-0.8,1.1-1.5s0.4-1.4,0.4-2.3c0-1.3-0.3-2.4-0.8-3.1s-1.4-1.1-2.6-1.1c-0.8,0-1.4,0.2-1.9,0.5s-0.9,0.8-1.1,1.5
		S985.1,53.4,985.1,54.3z"/>
	<path class="st2" d="M1002.7,60h-6.5V48.6h6.5v1.6h-4.6v3.1h4.3v1.6h-4.3v3.6h4.6V60z"/>
	<path class="st2" d="M1010,50c-0.5,0-1,0.1-1.5,0.3s-0.8,0.5-1.1,0.9s-0.5,0.8-0.7,1.4s-0.2,1.1-0.2,1.8c0,0.9,0.1,1.6,0.4,2.3
		s0.6,1.1,1.1,1.5s1.2,0.5,1.9,0.5c0.5,0,1,0,1.4-0.1s0.9-0.2,1.4-0.4v1.6c-0.5,0.2-0.9,0.3-1.4,0.4s-1,0.1-1.6,0.1
		c-1.2,0-2.1-0.2-2.9-0.7s-1.3-1.2-1.7-2s-0.6-1.9-0.6-3.1c0-0.9,0.1-1.7,0.4-2.4s0.6-1.3,1-1.9s1-0.9,1.7-1.2s1.4-0.4,2.3-0.4
		c0.6,0,1.1,0.1,1.7,0.2s1.1,0.3,1.5,0.5l-0.7,1.5c-0.4-0.2-0.8-0.3-1.2-0.5S1010.5,50,1010,50z"/>
	<path class="st2" d="M1024.6,54.2c0,1.3-0.2,2.4-0.7,3.2s-1.2,1.5-2.1,1.9s-2,0.7-3.3,0.7h-3.2V48.6h3.5c1.2,0,2.2,0.2,3.1,0.6
		s1.5,1.1,2,1.9S1024.6,53,1024.6,54.2z M1022.6,54.2c0-0.9-0.1-1.7-0.4-2.3s-0.7-1.1-1.3-1.3s-1.3-0.4-2.1-0.4h-1.6v8.3h1.3
		c1.4,0,2.4-0.4,3.1-1.1S1022.6,55.6,1022.6,54.2z"/>
	<path class="st2" d="M1035.1,60h-1.9v-9.8h-3.3v-1.6h8.6v1.6h-3.3V60z"/>
	<path class="st2" d="M1044.8,53.8h4.3v5.7c-0.6,0.2-1.2,0.4-1.9,0.5s-1.4,0.2-2.2,0.2c-1.2,0-2.1-0.2-2.9-0.7s-1.4-1.1-1.8-2
		s-0.6-1.9-0.6-3.2c0-1.2,0.2-2.2,0.7-3.1s1.1-1.6,2-2s2-0.7,3.2-0.7c0.6,0,1.2,0.1,1.8,0.2s1.1,0.3,1.6,0.5l-0.7,1.5
		c-0.4-0.2-0.8-0.3-1.3-0.5s-1-0.2-1.5-0.2c-0.8,0-1.5,0.2-2.1,0.5s-1,0.9-1.4,1.5s-0.5,1.4-0.5,2.3c0,0.8,0.1,1.6,0.4,2.2
		s0.7,1.1,1.2,1.5s1.2,0.5,2.1,0.5c0.4,0,0.8,0,1.1-0.1s0.6-0.1,0.8-0.2v-2.9h-2.4V53.8z"/>
	<path class="st2" d="M1057.5,57.5c0,0.6-0.1,1-0.4,1.4s-0.7,0.7-1.2,0.9s-1.2,0.3-1.9,0.3c-0.6,0-1.1,0-1.6-0.1s-0.8-0.2-1.2-0.4
		V58c0.4,0.2,0.9,0.4,1.4,0.5s1,0.2,1.5,0.2c0.6,0,1-0.1,1.3-0.3s0.4-0.4,0.4-0.8c0-0.2-0.1-0.4-0.2-0.5s-0.3-0.3-0.6-0.5
		s-0.7-0.4-1.3-0.6c-0.5-0.2-1-0.4-1.4-0.7s-0.7-0.5-0.9-0.8s-0.3-0.7-0.3-1.2c0-0.8,0.3-1.3,0.9-1.7s1.4-0.6,2.4-0.6
		c0.5,0,1,0.1,1.5,0.2s0.9,0.3,1.4,0.5l-0.6,1.4c-0.4-0.2-0.8-0.3-1.2-0.4s-0.8-0.2-1.2-0.2c-0.5,0-0.8,0.1-1.1,0.2
		s-0.4,0.4-0.4,0.6c0,0.2,0.1,0.4,0.2,0.5s0.3,0.3,0.6,0.4s0.7,0.3,1.2,0.5c0.5,0.2,1,0.4,1.3,0.6s0.7,0.5,0.9,0.8
		S1057.5,57,1057.5,57.5z"/>
	<path class="st2" d="M1064.2,48.6L1060,60h-1.7l4.3-11.4H1064.2z"/>
	<path class="st2" d="M1070.5,53.8h4.3v5.7c-0.6,0.2-1.2,0.4-1.9,0.5s-1.4,0.2-2.2,0.2c-1.2,0-2.1-0.2-2.9-0.7s-1.4-1.1-1.8-2
		s-0.6-1.9-0.6-3.2c0-1.2,0.2-2.2,0.7-3.1s1.1-1.6,2-2s2-0.7,3.2-0.7c0.6,0,1.2,0.1,1.8,0.2s1.1,0.3,1.6,0.5l-0.7,1.5
		c-0.4-0.2-0.8-0.3-1.3-0.5s-1-0.2-1.5-0.2c-0.8,0-1.5,0.2-2.1,0.5s-1,0.9-1.4,1.5s-0.5,1.4-0.5,2.3c0,0.8,0.1,1.6,0.4,2.2
		s0.7,1.1,1.2,1.5s1.2,0.5,2.1,0.5c0.4,0,0.8,0,1.1-0.1s0.6-0.1,0.8-0.2v-2.9h-2.4V53.8z"/>
	<path class="st2" d="M1086.7,54.2c0,1.3-0.2,2.4-0.7,3.2s-1.2,1.5-2.1,1.9s-2,0.7-3.3,0.7h-3.2V48.6h3.5c1.2,0,2.2,0.2,3.1,0.6
		s1.5,1.1,2,1.9S1086.7,53,1086.7,54.2z M1084.8,54.2c0-0.9-0.1-1.7-0.4-2.3s-0.7-1.1-1.3-1.3s-1.3-0.4-2.1-0.4h-1.6v8.3h1.3
		c1.4,0,2.4-0.4,3.1-1.1S1084.8,55.6,1084.8,54.2z"/>
	<path class="st2" d="M1094.8,57.5c0,0.6-0.1,1-0.4,1.4s-0.7,0.7-1.2,0.9s-1.2,0.3-1.9,0.3c-0.6,0-1.1,0-1.6-0.1s-0.8-0.2-1.2-0.4
		V58c0.4,0.2,0.9,0.4,1.4,0.5s1,0.2,1.5,0.2c0.6,0,1-0.1,1.3-0.3s0.4-0.4,0.4-0.8c0-0.2-0.1-0.4-0.2-0.5s-0.3-0.3-0.6-0.5
		s-0.7-0.4-1.3-0.6c-0.5-0.2-1-0.4-1.4-0.7s-0.7-0.5-0.9-0.8s-0.3-0.7-0.3-1.2c0-0.8,0.3-1.3,0.9-1.7s1.4-0.6,2.4-0.6
		c0.5,0,1,0.1,1.5,0.2s0.9,0.3,1.4,0.5l-0.6,1.4c-0.4-0.2-0.8-0.3-1.2-0.4s-0.8-0.2-1.2-0.2c-0.5,0-0.8,0.1-1.1,0.2
		s-0.4,0.4-0.4,0.6c0,0.2,0.1,0.4,0.2,0.5s0.3,0.3,0.6,0.4s0.7,0.3,1.2,0.5c0.5,0.2,1,0.4,1.3,0.6s0.7,0.5,0.9,0.8
		S1094.8,57,1094.8,57.5z"/>
</g>
<g transform="matrix(1, 0, 0, 1, -693, -9)">
	<path id="Rectangle_17-2" class="st0" d="M1606,88h-220l0,0V78c0-33.1,26.9-60,60-60h100c33.1,0,60,26.9,60,60V88L1606,88z"/>
</g>
<g class="st1">
	<path class="st2" d="M743.7,28c-0.5,0-1,0.1-1.5,0.3s-0.8,0.5-1.1,0.9s-0.5,0.8-0.7,1.4s-0.2,1.1-0.2,1.8c0,0.9,0.1,1.6,0.4,2.3
		s0.6,1.1,1.1,1.5c0.5,0.3,1.2,0.5,1.9,0.5c0.5,0,1,0,1.4-0.1c0.5-0.1,0.9-0.2,1.4-0.4v1.6c-0.5,0.2-0.9,0.3-1.4,0.4
		c-0.5,0.1-1,0.1-1.6,0.1c-1.2,0-2.1-0.2-2.9-0.7c-0.8-0.5-1.3-1.2-1.7-2c-0.4-0.9-0.6-1.9-0.6-3.1c0-0.9,0.1-1.7,0.4-2.4
		c0.2-0.7,0.6-1.3,1-1.9c0.5-0.5,1-0.9,1.7-1.2c0.7-0.3,1.4-0.4,2.3-0.4c0.6,0,1.1,0.1,1.7,0.2s1.1,0.3,1.5,0.5l-0.7,1.5
		c-0.4-0.2-0.8-0.3-1.2-0.5C744.7,28.1,744.2,28,743.7,28z"/>
	<path class="st2" d="M756.5,33.7c0,0.7-0.1,1.4-0.3,1.9s-0.5,1-0.8,1.4s-0.8,0.7-1.3,0.9c-0.5,0.2-1.1,0.3-1.7,0.3
		c-0.6,0-1.1-0.1-1.6-0.3c-0.5-0.2-0.9-0.5-1.3-0.9c-0.4-0.4-0.6-0.9-0.8-1.4c-0.2-0.6-0.3-1.2-0.3-1.9c0-1,0.2-1.8,0.5-2.4
		c0.3-0.7,0.8-1.2,1.4-1.5c0.6-0.3,1.3-0.5,2.2-0.5c0.8,0,1.5,0.2,2.1,0.5s1.1,0.9,1.4,1.5S756.5,32.7,756.5,33.7z M750.2,33.7
		c0,0.6,0.1,1.2,0.2,1.6c0.2,0.4,0.4,0.8,0.7,1c0.3,0.2,0.7,0.4,1.2,0.4c0.5,0,0.9-0.1,1.2-0.4c0.3-0.2,0.6-0.6,0.7-1
		c0.2-0.4,0.2-1,0.2-1.6s-0.1-1.2-0.2-1.6c-0.2-0.4-0.4-0.8-0.7-1c-0.3-0.2-0.7-0.3-1.3-0.3c-0.8,0-1.3,0.3-1.7,0.8
		C750.4,32,750.2,32.7,750.2,33.7z"/>
	<path class="st2" d="M768.4,29.2c1,0,1.7,0.2,2.2,0.8s0.7,1.3,0.7,2.4V38h-1.8v-5.3c0-0.7-0.1-1.2-0.4-1.5
		c-0.3-0.3-0.6-0.5-1.2-0.5c-0.7,0-1.3,0.2-1.6,0.7s-0.5,1.1-0.5,2V38H764v-5.3c0-0.4-0.1-0.8-0.2-1.1c-0.1-0.3-0.3-0.5-0.5-0.7
		c-0.2-0.1-0.5-0.2-0.9-0.2c-0.5,0-0.9,0.1-1.2,0.3c-0.3,0.2-0.5,0.6-0.6,1c-0.1,0.4-0.2,1-0.2,1.6V38h-1.8v-8.6h1.4l0.3,1.2h0.1
		c0.2-0.3,0.4-0.6,0.7-0.7c0.3-0.2,0.6-0.3,0.9-0.4c0.3-0.1,0.7-0.1,1-0.1c0.6,0,1.2,0.1,1.6,0.3c0.4,0.2,0.8,0.6,1,1h0.1
		c0.3-0.5,0.6-0.8,1.1-1S767.8,29.2,768.4,29.2z"/>
	<path class="st2" d="M783.6,29.2c1,0,1.7,0.2,2.2,0.8s0.7,1.3,0.7,2.4V38h-1.8v-5.3c0-0.7-0.1-1.2-0.4-1.5
		c-0.3-0.3-0.6-0.5-1.2-0.5c-0.7,0-1.3,0.2-1.6,0.7s-0.5,1.1-0.5,2V38h-1.8v-5.3c0-0.4-0.1-0.8-0.2-1.1c-0.1-0.3-0.3-0.5-0.5-0.7
		c-0.2-0.1-0.5-0.2-0.9-0.2c-0.5,0-0.9,0.1-1.2,0.3c-0.3,0.2-0.5,0.6-0.6,1c-0.1,0.4-0.2,1-0.2,1.6V38h-1.8v-8.6h1.4l0.3,1.2h0.1
		c0.2-0.3,0.4-0.6,0.7-0.7c0.3-0.2,0.6-0.3,0.9-0.4c0.3-0.1,0.7-0.1,1-0.1c0.6,0,1.2,0.1,1.6,0.3c0.4,0.2,0.8,0.6,1,1h0.1
		c0.3-0.5,0.6-0.8,1.1-1S783.1,29.2,783.6,29.2z"/>
	<path class="st2" d="M792.6,29.2c0.8,0,1.4,0.2,2,0.5c0.6,0.3,1,0.8,1.3,1.4s0.4,1.3,0.4,2.1v1h-5.8c0,0.8,0.2,1.5,0.7,1.9
		s1,0.7,1.8,0.7c0.6,0,1-0.1,1.5-0.2c0.4-0.1,0.9-0.3,1.4-0.5v1.5c-0.4,0.2-0.9,0.4-1.3,0.4c-0.4,0.1-1,0.1-1.6,0.1
		c-0.8,0-1.6-0.2-2.2-0.5c-0.6-0.3-1.1-0.8-1.5-1.5c-0.4-0.7-0.5-1.5-0.5-2.4c0-1,0.2-1.8,0.5-2.5s0.8-1.2,1.4-1.5
		S791.8,29.2,792.6,29.2z M792.6,30.6c-0.6,0-1,0.2-1.4,0.6c-0.4,0.4-0.6,0.9-0.6,1.6h3.9c0-0.4-0.1-0.8-0.2-1.1
		c-0.1-0.3-0.3-0.6-0.6-0.8C793.4,30.7,793,30.6,792.6,30.6z"/>
	<path class="st2" d="M802.9,29.2c1,0,1.7,0.3,2.3,0.8c0.5,0.5,0.8,1.3,0.8,2.4V38h-1.8v-5.3c0-0.7-0.1-1.2-0.4-1.5
		c-0.3-0.3-0.7-0.5-1.3-0.5c-0.8,0-1.4,0.3-1.7,0.8c-0.3,0.5-0.5,1.3-0.5,2.2V38h-1.8v-8.6h1.4l0.3,1.2h0.1c0.2-0.3,0.4-0.6,0.7-0.7
		c0.3-0.2,0.6-0.3,0.9-0.4C802.1,29.2,802.5,29.2,802.9,29.2z"/>
	<path class="st2" d="M811.7,36.7c0.2,0,0.5,0,0.7-0.1s0.4-0.1,0.6-0.2v1.4c-0.2,0.1-0.5,0.2-0.8,0.2c-0.3,0.1-0.7,0.1-1,0.1
		c-0.5,0-0.9-0.1-1.3-0.2s-0.7-0.4-0.9-0.8c-0.2-0.4-0.3-1-0.3-1.7v-4.6h-1.2v-0.8l1.3-0.6l0.6-1.9h1.2v1.9h2.5v1.4h-2.5v4.6
		c0,0.4,0.1,0.8,0.3,1S811.4,36.7,811.7,36.7z"/>
	<path class="st2" d="M815.8,26c0.3,0,0.5,0.1,0.7,0.2c0.2,0.2,0.3,0.4,0.3,0.8c0,0.4-0.1,0.6-0.3,0.8c-0.2,0.2-0.4,0.2-0.7,0.2
		c-0.3,0-0.5-0.1-0.7-0.2c-0.2-0.2-0.3-0.4-0.3-0.8c0-0.4,0.1-0.6,0.3-0.8C815.2,26.1,815.5,26,815.8,26z M816.7,29.4V38h-1.8v-8.6
		H816.7z"/>
	<path class="st2" d="M823.8,29.2c1,0,1.7,0.3,2.3,0.8c0.5,0.5,0.8,1.3,0.8,2.4V38h-1.8v-5.3c0-0.7-0.1-1.2-0.4-1.5
		c-0.3-0.3-0.7-0.5-1.3-0.5c-0.8,0-1.4,0.3-1.7,0.8c-0.3,0.5-0.5,1.3-0.5,2.2V38h-1.8v-8.6h1.4l0.3,1.2h0.1c0.2-0.3,0.4-0.6,0.7-0.7
		c0.3-0.2,0.6-0.3,0.9-0.4C823.1,29.2,823.4,29.2,823.8,29.2z"/>
	<path class="st2" d="M831.9,41.8c-1.2,0-2.1-0.2-2.7-0.6s-0.9-1-0.9-1.8c0-0.5,0.2-1,0.5-1.3c0.3-0.4,0.8-0.6,1.4-0.8
		c-0.2-0.1-0.4-0.3-0.6-0.5c-0.2-0.2-0.3-0.5-0.3-0.7c0-0.3,0.1-0.6,0.3-0.8c0.2-0.2,0.5-0.5,0.8-0.7c-0.5-0.2-0.8-0.5-1.1-0.9
		s-0.4-0.9-0.4-1.5c0-0.6,0.1-1.2,0.4-1.6s0.7-0.8,1.2-1c0.5-0.2,1.1-0.3,1.9-0.3c0.2,0,0.3,0,0.5,0c0.2,0,0.4,0,0.5,0.1
		c0.2,0,0.3,0,0.4,0.1h3v1l-1.5,0.3c0.1,0.2,0.3,0.4,0.3,0.7c0.1,0.3,0.1,0.5,0.1,0.8c0,0.9-0.3,1.6-0.9,2.1s-1.5,0.8-2.6,0.8
		c-0.3,0-0.5,0-0.8-0.1c-0.2,0.1-0.3,0.2-0.4,0.4c-0.1,0.1-0.1,0.3-0.1,0.5c0,0.1,0,0.3,0.1,0.3c0.1,0.1,0.2,0.1,0.4,0.2
		s0.4,0.1,0.7,0.1h1.5c0.9,0,1.7,0.2,2.2,0.6s0.8,1,0.8,1.8c0,1-0.4,1.7-1.2,2.3S833.5,41.8,831.9,41.8z M832,40.6
		c0.6,0,1.2-0.1,1.6-0.2s0.8-0.3,1-0.5c0.2-0.2,0.3-0.5,0.3-0.8c0-0.3-0.1-0.5-0.2-0.6s-0.4-0.3-0.6-0.3s-0.6-0.1-1-0.1h-1.4
		c-0.3,0-0.6,0.1-0.9,0.2c-0.3,0.1-0.5,0.3-0.6,0.5c-0.1,0.2-0.2,0.4-0.2,0.7c0,0.4,0.2,0.7,0.5,0.9S831.4,40.6,832,40.6z
		 M832.4,33.8c0.5,0,0.9-0.1,1.2-0.4c0.3-0.3,0.4-0.7,0.4-1.2c0-0.6-0.1-1-0.4-1.3c-0.3-0.3-0.7-0.4-1.2-0.4c-0.5,0-0.9,0.1-1.2,0.4
		c-0.3,0.3-0.4,0.7-0.4,1.3c0,0.5,0.1,0.9,0.4,1.2C831.4,33.7,831.8,33.8,832.4,33.8z"/>
	<path class="st2" d="M845.9,29.2c1.1,0,1.9,0.2,2.5,0.7c0.6,0.5,0.8,1.2,0.8,2.3V38h-1.3l-0.4-1.2h-0.1c-0.2,0.3-0.5,0.6-0.8,0.8
		c-0.3,0.2-0.6,0.4-0.9,0.5c-0.3,0.1-0.8,0.2-1.2,0.2c-0.5,0-1-0.1-1.4-0.3s-0.7-0.5-1-0.9s-0.4-0.9-0.4-1.5c0-0.9,0.3-1.6,1-2
		s1.7-0.7,3-0.7l1.5-0.1v-0.5c0-0.6-0.1-1-0.4-1.3c-0.3-0.3-0.7-0.4-1.2-0.4c-0.4,0-0.9,0.1-1.3,0.2s-0.8,0.3-1.2,0.5l-0.6-1.3
		c0.4-0.2,0.9-0.4,1.4-0.5S845.3,29.2,845.9,29.2z M847.4,33.9l-1.1,0c-0.9,0-1.6,0.2-1.9,0.5c-0.4,0.3-0.6,0.7-0.6,1.2
		c0,0.4,0.1,0.7,0.4,0.9c0.3,0.2,0.6,0.3,1,0.3c0.6,0,1.2-0.2,1.6-0.5c0.4-0.4,0.6-0.9,0.6-1.6V33.9z"/>
	<path class="st2" d="M856.3,29.2c1,0,1.7,0.3,2.3,0.8c0.5,0.5,0.8,1.3,0.8,2.4V38h-1.8v-5.3c0-0.7-0.1-1.2-0.4-1.5
		c-0.3-0.3-0.7-0.5-1.3-0.5c-0.8,0-1.4,0.3-1.7,0.8c-0.3,0.5-0.5,1.3-0.5,2.2V38h-1.8v-8.6h1.4l0.3,1.2h0.1c0.2-0.3,0.4-0.6,0.7-0.7
		c0.3-0.2,0.6-0.3,0.9-0.4C855.5,29.2,855.9,29.2,856.3,29.2z"/>
	<path class="st2" d="M864.8,38.2c-1,0-1.9-0.4-2.5-1.1c-0.6-0.8-0.9-1.9-0.9-3.3c0-1.5,0.3-2.6,0.9-3.4s1.5-1.1,2.5-1.1
		c0.4,0,0.8,0.1,1.1,0.2s0.6,0.3,0.8,0.5c0.2,0.2,0.4,0.4,0.6,0.7h0.1c0-0.2-0.1-0.4-0.1-0.7c0-0.3-0.1-0.6-0.1-0.8v-3.1h1.8V38
		h-1.4l-0.3-1.2h-0.1c-0.2,0.2-0.4,0.5-0.6,0.7c-0.2,0.2-0.5,0.4-0.8,0.5C865.7,38.1,865.3,38.2,864.8,38.2z M865.4,36.7
		c0.8,0,1.3-0.2,1.7-0.7c0.3-0.5,0.5-1.1,0.5-2v-0.2c0-1-0.2-1.7-0.5-2.2s-0.9-0.8-1.7-0.8c-0.7,0-1.2,0.3-1.5,0.8
		c-0.3,0.5-0.5,1.3-0.5,2.2s0.2,1.7,0.5,2.2C864.2,36.4,864.7,36.7,865.4,36.7z"/>
</g>
<g class="st1">
	<path class="st2" d="M732.7,51.2c0.1,0,0.3,0,0.5,0s0.3,0,0.4,0.1l-0.2,1.7c-0.1,0-0.2-0.1-0.4-0.1c-0.2,0-0.3,0-0.4,0
		c-0.3,0-0.6,0.1-0.9,0.2s-0.6,0.3-0.8,0.5c-0.2,0.2-0.4,0.5-0.5,0.8c-0.1,0.3-0.2,0.7-0.2,1.1V60h-1.8v-8.6h1.4l0.2,1.5h0.1
		c0.2-0.3,0.4-0.6,0.6-0.8c0.3-0.3,0.5-0.5,0.9-0.6C731.9,51.3,732.3,51.2,732.7,51.2z"/>
	<path class="st2" d="M738.7,51.2c0.8,0,1.4,0.2,2,0.5c0.6,0.3,1,0.8,1.3,1.4s0.4,1.3,0.4,2.1v1h-5.8c0,0.8,0.2,1.5,0.7,1.9
		s1,0.7,1.8,0.7c0.6,0,1-0.1,1.5-0.2c0.4-0.1,0.9-0.3,1.4-0.5v1.5c-0.4,0.2-0.9,0.4-1.3,0.4c-0.4,0.1-1,0.1-1.6,0.1
		c-0.8,0-1.6-0.2-2.2-0.5c-0.6-0.3-1.1-0.8-1.5-1.5c-0.4-0.7-0.5-1.5-0.5-2.4c0-1,0.2-1.8,0.5-2.5s0.8-1.2,1.4-1.5
		S737.9,51.2,738.7,51.2z M738.7,52.6c-0.6,0-1,0.2-1.4,0.6c-0.4,0.4-0.6,0.9-0.6,1.6h3.9c0-0.4-0.1-0.8-0.2-1.1
		c-0.1-0.3-0.3-0.6-0.6-0.8C739.4,52.7,739.1,52.6,738.7,52.6z"/>
	<path class="st2" d="M748.8,52.7h-2.1V60h-1.8v-7.2h-1.4v-0.9l1.4-0.5v-0.6c0-0.7,0.1-1.3,0.3-1.8c0.2-0.4,0.6-0.7,1-0.9
		c0.4-0.2,1-0.3,1.6-0.3c0.4,0,0.8,0,1.1,0.1s0.6,0.1,0.8,0.2l-0.5,1.4c-0.2-0.1-0.4-0.1-0.6-0.2s-0.5-0.1-0.7-0.1
		c-0.4,0-0.7,0.1-0.9,0.4s-0.3,0.6-0.3,1.1v0.6h2.1V52.7z M751.1,48c0.3,0,0.5,0.1,0.7,0.2c0.2,0.2,0.3,0.4,0.3,0.8
		c0,0.4-0.1,0.6-0.3,0.8c-0.2,0.2-0.4,0.2-0.7,0.2c-0.3,0-0.5-0.1-0.7-0.2c-0.2-0.2-0.3-0.4-0.3-0.8c0-0.4,0.1-0.6,0.3-0.8
		C750.6,48.1,750.9,48,751.1,48z M752.1,51.4V60h-1.8v-8.6H752.1z"/>
	<path class="st2" d="M759.2,51.2c1,0,1.7,0.3,2.3,0.8c0.5,0.5,0.8,1.3,0.8,2.4V60h-1.8v-5.3c0-0.7-0.1-1.2-0.4-1.5
		c-0.3-0.3-0.7-0.5-1.3-0.5c-0.8,0-1.4,0.3-1.7,0.8c-0.3,0.5-0.5,1.3-0.5,2.2V60h-1.8v-8.6h1.4l0.3,1.2h0.1c0.2-0.3,0.4-0.6,0.7-0.7
		c0.3-0.2,0.6-0.3,0.9-0.4C758.5,51.2,758.8,51.2,759.2,51.2z"/>
	<path class="st2" d="M768.3,51.2c0.8,0,1.4,0.2,2,0.5c0.6,0.3,1,0.8,1.3,1.4s0.4,1.3,0.4,2.1v1h-5.8c0,0.8,0.2,1.5,0.7,1.9
		s1,0.7,1.8,0.7c0.6,0,1-0.1,1.5-0.2c0.4-0.1,0.9-0.3,1.4-0.5v1.5c-0.4,0.2-0.9,0.4-1.3,0.4c-0.4,0.1-1,0.1-1.6,0.1
		c-0.8,0-1.6-0.2-2.2-0.5c-0.6-0.3-1.1-0.8-1.5-1.5c-0.4-0.7-0.5-1.5-0.5-2.4c0-1,0.2-1.8,0.5-2.5s0.8-1.2,1.4-1.5
		S767.5,51.2,768.3,51.2z M768.3,52.6c-0.6,0-1,0.2-1.4,0.6c-0.4,0.4-0.6,0.9-0.6,1.6h3.9c0-0.4-0.1-0.8-0.2-1.1
		c-0.1-0.3-0.3-0.6-0.6-0.8C769.1,52.7,768.7,52.6,768.3,52.6z"/>
	<path class="st2" d="M783.8,51.2c1,0,1.7,0.2,2.2,0.8s0.7,1.3,0.7,2.4V60h-1.8v-5.3c0-0.7-0.1-1.2-0.4-1.5
		c-0.3-0.3-0.6-0.5-1.2-0.5c-0.7,0-1.3,0.2-1.6,0.7s-0.5,1.1-0.5,2V60h-1.8v-5.3c0-0.4-0.1-0.8-0.2-1.1c-0.1-0.3-0.3-0.5-0.5-0.7
		c-0.2-0.1-0.5-0.2-0.9-0.2c-0.5,0-0.9,0.1-1.2,0.3c-0.3,0.2-0.5,0.6-0.6,1c-0.1,0.4-0.2,1-0.2,1.6V60h-1.8v-8.6h1.4l0.3,1.2h0.1
		c0.2-0.3,0.4-0.6,0.7-0.7c0.3-0.2,0.6-0.3,0.9-0.4c0.3-0.1,0.7-0.1,1-0.1c0.6,0,1.2,0.1,1.6,0.3c0.4,0.2,0.8,0.6,1,1h0.1
		c0.3-0.5,0.6-0.8,1.1-1S783.3,51.2,783.8,51.2z"/>
	<path class="st2" d="M792.8,51.2c0.8,0,1.4,0.2,2,0.5c0.6,0.3,1,0.8,1.3,1.4s0.4,1.3,0.4,2.1v1h-5.8c0,0.8,0.2,1.5,0.7,1.9
		s1,0.7,1.8,0.7c0.6,0,1-0.1,1.5-0.2c0.4-0.1,0.9-0.3,1.4-0.5v1.5c-0.4,0.2-0.9,0.4-1.3,0.4c-0.4,0.1-1,0.1-1.6,0.1
		c-0.8,0-1.6-0.2-2.2-0.5c-0.6-0.3-1.1-0.8-1.5-1.5c-0.4-0.7-0.5-1.5-0.5-2.4c0-1,0.2-1.8,0.5-2.5s0.8-1.2,1.4-1.5
		S792,51.2,792.8,51.2z M792.8,52.6c-0.6,0-1,0.2-1.4,0.6c-0.4,0.4-0.6,0.9-0.6,1.6h3.9c0-0.4-0.1-0.8-0.2-1.1
		c-0.1-0.3-0.3-0.6-0.6-0.8C793.6,52.7,793.2,52.6,792.8,52.6z"/>
	<path class="st2" d="M803.1,51.2c1,0,1.7,0.3,2.3,0.8c0.5,0.5,0.8,1.3,0.8,2.4V60h-1.8v-5.3c0-0.7-0.1-1.2-0.4-1.5
		c-0.3-0.3-0.7-0.5-1.3-0.5c-0.8,0-1.4,0.3-1.7,0.8c-0.3,0.5-0.5,1.3-0.5,2.2V60h-1.8v-8.6h1.4l0.3,1.2h0.1c0.2-0.3,0.4-0.6,0.7-0.7
		c0.3-0.2,0.6-0.3,0.9-0.4C802.3,51.2,802.7,51.2,803.1,51.2z"/>
	<path class="st2" d="M811.9,58.7c0.2,0,0.5,0,0.7-0.1s0.4-0.1,0.6-0.2v1.4c-0.2,0.1-0.5,0.2-0.8,0.2c-0.3,0.1-0.7,0.1-1,0.1
		c-0.5,0-0.9-0.1-1.3-0.2s-0.7-0.4-0.9-0.8c-0.2-0.4-0.3-1-0.3-1.7v-4.6h-1.2v-0.8l1.3-0.6l0.6-1.9h1.2v1.9h2.5v1.4h-2.5v4.6
		c0,0.4,0.1,0.8,0.3,1S811.6,58.7,811.9,58.7z"/>
	<path class="st2" d="M822.6,51.2c1.1,0,1.9,0.2,2.5,0.7c0.6,0.5,0.8,1.2,0.8,2.3V60h-1.3l-0.4-1.2h-0.1c-0.2,0.3-0.5,0.6-0.8,0.8
		c-0.3,0.2-0.6,0.4-0.9,0.5c-0.3,0.1-0.8,0.2-1.2,0.2c-0.5,0-1-0.1-1.4-0.3s-0.7-0.5-1-0.9s-0.4-0.9-0.4-1.5c0-0.9,0.3-1.6,1-2
		s1.7-0.7,3-0.7l1.5-0.1v-0.5c0-0.6-0.1-1-0.4-1.3c-0.3-0.3-0.7-0.4-1.2-0.4c-0.4,0-0.9,0.1-1.3,0.2s-0.8,0.3-1.2,0.5l-0.6-1.3
		c0.4-0.2,0.9-0.4,1.4-0.5S822,51.2,822.6,51.2z M824.1,55.9l-1.1,0c-0.9,0-1.6,0.2-1.9,0.5c-0.4,0.3-0.6,0.7-0.6,1.2
		c0,0.4,0.1,0.7,0.4,0.9c0.3,0.2,0.6,0.3,1,0.3c0.6,0,1.2-0.2,1.6-0.5c0.4-0.4,0.6-0.9,0.6-1.6V55.9z"/>
	<path class="st2" d="M831.7,58.7c0.2,0,0.5,0,0.7-0.1s0.4-0.1,0.6-0.2v1.4c-0.2,0.1-0.5,0.2-0.8,0.2c-0.3,0.1-0.7,0.1-1,0.1
		c-0.5,0-0.9-0.1-1.3-0.2s-0.7-0.4-0.9-0.8c-0.2-0.4-0.3-1-0.3-1.7v-4.6h-1.2v-0.8l1.3-0.6l0.6-1.9h1.2v1.9h2.5v1.4h-2.5v4.6
		c0,0.4,0.1,0.8,0.3,1S831.3,58.7,831.7,58.7z"/>
	<path class="st2" d="M849.3,54.3c0,0.9-0.1,1.7-0.3,2.4c-0.2,0.7-0.6,1.3-1,1.9c-0.4,0.5-1,0.9-1.7,1.2c-0.7,0.3-1.4,0.4-2.3,0.4
		c-0.9,0-1.7-0.1-2.4-0.4c-0.7-0.3-1.2-0.7-1.7-1.2c-0.4-0.5-0.8-1.1-1-1.9s-0.3-1.5-0.3-2.4c0-1.2,0.2-2.2,0.6-3.1
		c0.4-0.9,1-1.6,1.8-2c0.8-0.5,1.8-0.7,3-0.7c1.2,0,2.2,0.2,3,0.7c0.8,0.5,1.4,1.2,1.8,2C849.1,52,849.3,53.1,849.3,54.3z
		 M840.6,54.3c0,0.9,0.1,1.6,0.4,2.3c0.2,0.6,0.6,1.1,1.1,1.5c0.5,0.3,1.1,0.5,1.9,0.5c0.8,0,1.4-0.2,1.9-0.5
		c0.5-0.3,0.9-0.8,1.1-1.5s0.4-1.4,0.4-2.3c0-1.3-0.3-2.4-0.8-3.1c-0.5-0.8-1.4-1.1-2.6-1.1c-0.8,0-1.4,0.2-1.9,0.5
		c-0.5,0.3-0.9,0.8-1.1,1.5C840.7,52.6,840.6,53.4,840.6,54.3z"/>
	<path class="st2" d="M858.2,60h-6.5V48.6h6.5v1.6h-4.6v3.1h4.3v1.6h-4.3v3.6h4.6V60z"/>
	<path class="st2" d="M865.5,50c-0.5,0-1,0.1-1.5,0.3s-0.8,0.5-1.1,0.9s-0.5,0.8-0.7,1.4s-0.2,1.1-0.2,1.8c0,0.9,0.1,1.6,0.4,2.3
		s0.6,1.1,1.1,1.5c0.5,0.3,1.2,0.5,1.9,0.5c0.5,0,1,0,1.4-0.1c0.5-0.1,0.9-0.2,1.4-0.4v1.6c-0.5,0.2-0.9,0.3-1.4,0.4
		c-0.5,0.1-1,0.1-1.6,0.1c-1.2,0-2.1-0.2-2.9-0.7c-0.8-0.5-1.3-1.2-1.7-2c-0.4-0.9-0.6-1.9-0.6-3.1c0-0.9,0.1-1.7,0.4-2.4
		c0.2-0.7,0.6-1.3,1-1.9c0.5-0.5,1-0.9,1.7-1.2c0.7-0.3,1.4-0.4,2.3-0.4c0.6,0,1.1,0.1,1.7,0.2s1.1,0.3,1.5,0.5l-0.7,1.5
		c-0.4-0.2-0.8-0.3-1.2-0.5C866.5,50.1,866,50,865.5,50z"/>
	<path class="st2" d="M880.1,54.2c0,1.3-0.2,2.4-0.7,3.2c-0.5,0.9-1.2,1.5-2.1,1.9c-0.9,0.4-2,0.7-3.3,0.7h-3.2V48.6h3.5
		c1.2,0,2.2,0.2,3.1,0.6s1.5,1.1,2,1.9S880.1,53,880.1,54.2z M878.1,54.2c0-0.9-0.1-1.7-0.4-2.3c-0.3-0.6-0.7-1.1-1.3-1.3
		s-1.3-0.4-2.1-0.4h-1.6v8.3h1.3c1.4,0,2.4-0.4,3.1-1.1C877.8,56.7,878.1,55.6,878.1,54.2z"/>
</g>
<g transform="matrix(1, 0, 0, 1, -469, -9)">
	<path id="Rectangle_16-2" class="st0" d="M998,18h100c33.1,0,60,26.9,60,60v11l0,0H938l0,0V78C938,44.9,964.9,18,998,18z"/>
</g>
<g class="st1">
	<path class="st2" d="M528.5,32.2c0,1.3-0.2,2.4-0.7,3.2c-0.5,0.9-1.2,1.5-2.1,1.9c-0.9,0.4-2,0.7-3.3,0.7h-3.2V26.6h3.5
		c1.2,0,2.2,0.2,3.1,0.6s1.5,1.1,2,1.9S528.5,31,528.5,32.2z M526.6,32.2c0-0.9-0.1-1.7-0.4-2.3c-0.3-0.6-0.7-1.1-1.3-1.3
		s-1.3-0.4-2.1-0.4h-1.6v8.3h1.3c1.4,0,2.4-0.4,3.1-1.1C526.2,34.7,526.6,33.6,526.6,32.2z"/>
	<path class="st2" d="M534.2,29.2c0.8,0,1.4,0.2,2,0.5c0.6,0.3,1,0.8,1.3,1.4s0.4,1.3,0.4,2.1v1h-5.8c0,0.8,0.2,1.5,0.7,1.9
		s1,0.7,1.8,0.7c0.6,0,1-0.1,1.5-0.2c0.4-0.1,0.9-0.3,1.4-0.5v1.5c-0.4,0.2-0.9,0.4-1.3,0.4c-0.4,0.1-1,0.1-1.6,0.1
		c-0.8,0-1.6-0.2-2.2-0.5c-0.6-0.3-1.1-0.8-1.5-1.5c-0.4-0.7-0.5-1.5-0.5-2.4c0-1,0.2-1.8,0.5-2.5s0.8-1.2,1.4-1.5
		S533.4,29.2,534.2,29.2z M534.2,30.6c-0.6,0-1,0.2-1.4,0.6c-0.4,0.4-0.6,0.9-0.6,1.6h3.9c0-0.4-0.1-0.8-0.2-1.1
		c-0.1-0.3-0.3-0.6-0.6-0.8C535,30.7,534.7,30.6,534.2,30.6z"/>
	<path class="st2" d="M542,38l-3.3-8.6h1.9l1.8,5.1c0.1,0.3,0.2,0.7,0.3,1s0.2,0.7,0.2,0.9h0.1c0-0.3,0.1-0.6,0.2-1
		c0.1-0.4,0.2-0.7,0.3-1l1.8-5.1h1.9l-3.3,8.6H542z"/>
	<path class="st2" d="M552,29.2c0.8,0,1.4,0.2,2,0.5c0.6,0.3,1,0.8,1.3,1.4s0.4,1.3,0.4,2.1v1h-5.8c0,0.8,0.2,1.5,0.7,1.9
		s1,0.7,1.8,0.7c0.6,0,1-0.1,1.5-0.2c0.4-0.1,0.9-0.3,1.4-0.5v1.5c-0.4,0.2-0.9,0.4-1.3,0.4c-0.4,0.1-1,0.1-1.6,0.1
		c-0.8,0-1.6-0.2-2.2-0.5c-0.6-0.3-1.1-0.8-1.5-1.5c-0.4-0.7-0.5-1.5-0.5-2.4c0-1,0.2-1.8,0.5-2.5s0.8-1.2,1.4-1.5
		S551.2,29.2,552,29.2z M552,30.6c-0.6,0-1,0.2-1.4,0.6c-0.4,0.4-0.6,0.9-0.6,1.6h3.9c0-0.4-0.1-0.8-0.2-1.1
		c-0.1-0.3-0.3-0.6-0.6-0.8C552.8,30.7,552.4,30.6,552,30.6z"/>
	<path class="st2" d="M559.6,38h-1.8V25.8h1.8V38z"/>
	<path class="st2" d="M569.9,33.7c0,0.7-0.1,1.4-0.3,1.9s-0.5,1-0.8,1.4s-0.8,0.7-1.3,0.9c-0.5,0.2-1.1,0.3-1.7,0.3
		c-0.6,0-1.1-0.1-1.6-0.3c-0.5-0.2-0.9-0.5-1.3-0.9c-0.4-0.4-0.6-0.9-0.8-1.4c-0.2-0.6-0.3-1.2-0.3-1.9c0-1,0.2-1.8,0.5-2.4
		c0.3-0.7,0.8-1.2,1.4-1.5c0.6-0.3,1.3-0.5,2.2-0.5c0.8,0,1.5,0.2,2.1,0.5s1.1,0.9,1.4,1.5S569.9,32.7,569.9,33.7z M563.6,33.7
		c0,0.6,0.1,1.2,0.2,1.6c0.2,0.4,0.4,0.8,0.7,1c0.3,0.2,0.7,0.4,1.2,0.4c0.5,0,0.9-0.1,1.2-0.4c0.3-0.2,0.6-0.6,0.7-1
		c0.2-0.4,0.2-1,0.2-1.6s-0.1-1.2-0.2-1.6c-0.2-0.4-0.4-0.8-0.7-1c-0.3-0.2-0.7-0.3-1.3-0.3c-0.8,0-1.3,0.3-1.7,0.8
		C563.8,32,563.6,32.7,563.6,33.7z"/>
	<path class="st2" d="M576.4,29.2c1,0,1.8,0.4,2.5,1.1c0.6,0.8,0.9,1.9,0.9,3.3c0,1-0.1,1.8-0.4,2.5s-0.7,1.2-1.2,1.5
		c-0.5,0.3-1.1,0.5-1.8,0.5c-0.4,0-0.8-0.1-1.1-0.2c-0.3-0.1-0.6-0.3-0.8-0.4c-0.2-0.2-0.4-0.4-0.6-0.6h-0.1c0,0.2,0.1,0.4,0.1,0.7
		s0,0.5,0,0.7v3.5H572V29.4h1.5l0.3,1.2h0.1c0.2-0.2,0.4-0.5,0.6-0.7c0.2-0.2,0.5-0.4,0.8-0.5C575.6,29.2,576,29.2,576.4,29.2z
		 M575.9,30.7c-0.5,0-0.9,0.1-1.2,0.3s-0.5,0.5-0.7,0.9c-0.1,0.4-0.2,0.9-0.2,1.5v0.3c0,0.6,0.1,1.2,0.2,1.6s0.4,0.8,0.7,1
		c0.3,0.2,0.7,0.3,1.3,0.3c0.4,0,0.8-0.1,1.1-0.4c0.3-0.2,0.5-0.6,0.7-1c0.1-0.5,0.2-1,0.2-1.6c0-0.9-0.2-1.7-0.5-2.2
		C577.1,30.9,576.6,30.7,575.9,30.7z"/>
	<path class="st2" d="M591.7,29.2c1,0,1.7,0.2,2.2,0.8s0.7,1.3,0.7,2.4V38h-1.8v-5.3c0-0.7-0.1-1.2-0.4-1.5
		c-0.3-0.3-0.6-0.5-1.2-0.5c-0.7,0-1.3,0.2-1.6,0.7s-0.5,1.1-0.5,2V38h-1.8v-5.3c0-0.4-0.1-0.8-0.2-1.1c-0.1-0.3-0.3-0.5-0.5-0.7
		c-0.2-0.1-0.5-0.2-0.9-0.2c-0.5,0-0.9,0.1-1.2,0.3c-0.3,0.2-0.5,0.6-0.6,1c-0.1,0.4-0.2,1-0.2,1.6V38H582v-8.6h1.4l0.3,1.2h0.1
		c0.2-0.3,0.4-0.6,0.7-0.7c0.3-0.2,0.6-0.3,0.9-0.4c0.3-0.1,0.7-0.1,1-0.1c0.6,0,1.2,0.1,1.6,0.3c0.4,0.2,0.8,0.6,1,1h0.1
		c0.3-0.5,0.6-0.8,1.1-1S591.2,29.2,591.7,29.2z"/>
	<path class="st2" d="M600.7,29.2c0.8,0,1.4,0.2,2,0.5c0.6,0.3,1,0.8,1.3,1.4s0.4,1.3,0.4,2.1v1h-5.8c0,0.8,0.2,1.5,0.7,1.9
		s1,0.7,1.8,0.7c0.6,0,1-0.1,1.5-0.2c0.4-0.1,0.9-0.3,1.4-0.5v1.5c-0.4,0.2-0.9,0.4-1.3,0.4c-0.4,0.1-1,0.1-1.6,0.1
		c-0.8,0-1.6-0.2-2.2-0.5c-0.6-0.3-1.1-0.8-1.5-1.5c-0.4-0.7-0.5-1.5-0.5-2.4c0-1,0.2-1.8,0.5-2.5s0.8-1.2,1.4-1.5
		S599.9,29.2,600.7,29.2z M600.7,30.6c-0.6,0-1,0.2-1.4,0.6c-0.4,0.4-0.6,0.9-0.6,1.6h3.9c0-0.4-0.1-0.8-0.2-1.1
		c-0.1-0.3-0.3-0.6-0.6-0.8C601.5,30.7,601.1,30.6,600.7,30.6z"/>
	<path class="st2" d="M610.9,29.2c1,0,1.7,0.3,2.3,0.8c0.5,0.5,0.8,1.3,0.8,2.4V38h-1.8v-5.3c0-0.7-0.1-1.2-0.4-1.5
		c-0.3-0.3-0.7-0.5-1.3-0.5c-0.8,0-1.4,0.3-1.7,0.8c-0.3,0.5-0.5,1.3-0.5,2.2V38h-1.8v-8.6h1.4l0.3,1.2h0.1c0.2-0.3,0.4-0.6,0.7-0.7
		c0.3-0.2,0.6-0.3,0.9-0.4C610.2,29.2,610.6,29.2,610.9,29.2z"/>
	<path class="st2" d="M619.8,36.7c0.2,0,0.5,0,0.7-0.1s0.4-0.1,0.6-0.2v1.4c-0.2,0.1-0.5,0.2-0.8,0.2c-0.3,0.1-0.7,0.1-1,0.1
		c-0.5,0-0.9-0.1-1.3-0.2s-0.7-0.4-0.9-0.8c-0.2-0.4-0.3-1-0.3-1.7v-4.6h-1.2v-0.8l1.3-0.6l0.6-1.9h1.2v1.9h2.5v1.4h-2.5v4.6
		c0,0.4,0.1,0.8,0.3,1S619.5,36.7,619.8,36.7z"/>
	<path class="st2" d="M630.5,29.2c1.1,0,1.9,0.2,2.5,0.7c0.6,0.5,0.8,1.2,0.8,2.3V38h-1.3l-0.4-1.2h-0.1c-0.2,0.3-0.5,0.6-0.8,0.8
		c-0.3,0.2-0.6,0.4-0.9,0.5c-0.3,0.1-0.8,0.2-1.2,0.2c-0.5,0-1-0.1-1.4-0.3s-0.7-0.5-1-0.9s-0.4-0.9-0.4-1.5c0-0.9,0.3-1.6,1-2
		s1.7-0.7,3-0.7l1.5-0.1v-0.5c0-0.6-0.1-1-0.4-1.3c-0.3-0.3-0.7-0.4-1.2-0.4c-0.4,0-0.9,0.1-1.3,0.2s-0.8,0.3-1.2,0.5l-0.6-1.3
		c0.4-0.2,0.9-0.4,1.4-0.5S629.9,29.2,630.5,29.2z M632,33.9l-1.1,0c-0.9,0-1.6,0.2-1.9,0.5c-0.4,0.3-0.6,0.7-0.6,1.2
		c0,0.4,0.1,0.7,0.4,0.9c0.3,0.2,0.6,0.3,1,0.3c0.6,0,1.2-0.2,1.6-0.5c0.4-0.4,0.6-0.9,0.6-1.6V33.9z"/>
	<path class="st2" d="M639.6,36.7c0.2,0,0.5,0,0.7-0.1s0.4-0.1,0.6-0.2v1.4c-0.2,0.1-0.5,0.2-0.8,0.2c-0.3,0.1-0.7,0.1-1,0.1
		c-0.5,0-0.9-0.1-1.3-0.2s-0.7-0.4-0.9-0.8c-0.2-0.4-0.3-1-0.3-1.7v-4.6h-1.2v-0.8l1.3-0.6l0.6-1.9h1.2v1.9h2.5v1.4h-2.5v4.6
		c0,0.4,0.1,0.8,0.3,1S639.2,36.7,639.6,36.7z"/>
</g>
<g class="st1">
	<path class="st2" d="M569.5,54.3c0,0.9-0.1,1.7-0.3,2.4c-0.2,0.7-0.6,1.3-1,1.9c-0.4,0.5-1,0.9-1.7,1.2c-0.7,0.3-1.4,0.4-2.3,0.4
		c-0.9,0-1.7-0.1-2.4-0.4c-0.7-0.3-1.2-0.7-1.7-1.2c-0.4-0.5-0.8-1.1-1-1.9s-0.3-1.5-0.3-2.4c0-1.2,0.2-2.2,0.6-3.1
		c0.4-0.9,1-1.6,1.8-2c0.8-0.5,1.8-0.7,3-0.7c1.2,0,2.2,0.2,3,0.7c0.8,0.5,1.4,1.2,1.8,2C569.3,52,569.5,53.1,569.5,54.3z
		 M560.8,54.3c0,0.9,0.1,1.6,0.4,2.3c0.2,0.6,0.6,1.1,1.1,1.5c0.5,0.3,1.1,0.5,1.9,0.5c0.8,0,1.4-0.2,1.9-0.5
		c0.5-0.3,0.9-0.8,1.1-1.5s0.4-1.4,0.4-2.3c0-1.3-0.3-2.4-0.8-3.1c-0.5-0.8-1.4-1.1-2.6-1.1c-0.8,0-1.4,0.2-1.9,0.5
		c-0.5,0.3-0.9,0.8-1.1,1.5C560.9,52.6,560.8,53.4,560.8,54.3z"/>
	<path class="st2" d="M578.4,60H572V48.6h6.5v1.6h-4.6v3.1h4.3v1.6h-4.3v3.6h4.6V60z"/>
	<path class="st2" d="M585.7,50c-0.5,0-1,0.1-1.5,0.3s-0.8,0.5-1.1,0.9s-0.5,0.8-0.7,1.4s-0.2,1.1-0.2,1.8c0,0.9,0.1,1.6,0.4,2.3
		s0.6,1.1,1.1,1.5c0.5,0.3,1.2,0.5,1.9,0.5c0.5,0,1,0,1.4-0.1c0.5-0.1,0.9-0.2,1.4-0.4v1.6c-0.5,0.2-0.9,0.3-1.4,0.4
		c-0.5,0.1-1,0.1-1.6,0.1c-1.2,0-2.1-0.2-2.9-0.7c-0.8-0.5-1.3-1.2-1.7-2c-0.4-0.9-0.6-1.9-0.6-3.1c0-0.9,0.1-1.7,0.4-2.4
		c0.2-0.7,0.6-1.3,1-1.9c0.5-0.5,1-0.9,1.7-1.2c0.7-0.3,1.4-0.4,2.3-0.4c0.6,0,1.1,0.1,1.7,0.2s1.1,0.3,1.5,0.5l-0.7,1.5
		c-0.4-0.2-0.8-0.3-1.2-0.5C586.7,50.1,586.2,50,585.7,50z"/>
	<path class="st2" d="M600.3,54.2c0,1.3-0.2,2.4-0.7,3.2c-0.5,0.9-1.2,1.5-2.1,1.9c-0.9,0.4-2,0.7-3.3,0.7H591V48.6h3.5
		c1.2,0,2.2,0.2,3.1,0.6s1.5,1.1,2,1.9S600.3,53,600.3,54.2z M598.3,54.2c0-0.9-0.1-1.7-0.4-2.3c-0.3-0.6-0.7-1.1-1.3-1.3
		s-1.3-0.4-2.1-0.4h-1.6v8.3h1.3c1.4,0,2.4-0.4,3.1-1.1C598,56.7,598.3,55.6,598.3,54.2z"/>
</g>
<g transform="matrix(1, 0, 0, 1, -244, -9)">
	<path id="Rectangle_14-2" class="st0" d="M708,88H488l0,0V78c0-33.1,26.9-60,60-60h100c33.1,0,60,26.9,60,60V88L708,88z"/>
</g>
<g class="st1">
	<path class="st2" d="M293.2,26.6c1.5,0,2.5,0.3,3.2,0.9c0.7,0.6,1,1.5,1,2.5c0,0.5-0.1,1-0.2,1.4c-0.2,0.4-0.4,0.8-0.8,1.2
		c-0.3,0.3-0.8,0.6-1.4,0.8s-1.3,0.3-2.1,0.3h-1.2V38h-1.9V26.6H293.2z M293,28.1h-1.3v4h1c0.6,0,1.1-0.1,1.5-0.2
		c0.4-0.1,0.7-0.4,0.9-0.7c0.2-0.3,0.3-0.7,0.3-1.2c0-0.7-0.2-1.2-0.6-1.5S293.9,28.1,293,28.1z"/>
	<path class="st2" d="M303.9,29.2c0.1,0,0.3,0,0.5,0s0.3,0,0.4,0.1l-0.2,1.7c-0.1,0-0.2-0.1-0.4-0.1c-0.2,0-0.3,0-0.4,0
		c-0.3,0-0.6,0.1-0.9,0.2s-0.6,0.3-0.8,0.5c-0.2,0.2-0.4,0.5-0.5,0.8c-0.1,0.3-0.2,0.7-0.2,1.1V38h-1.8v-8.6h1.4l0.2,1.5h0.1
		c0.2-0.3,0.4-0.6,0.6-0.8c0.3-0.3,0.5-0.5,0.9-0.6C303.1,29.3,303.5,29.2,303.9,29.2z"/>
	<path class="st2" d="M314.1,33.7c0,0.7-0.1,1.4-0.3,1.9s-0.5,1-0.8,1.4s-0.8,0.7-1.3,0.9c-0.5,0.2-1.1,0.3-1.7,0.3
		c-0.6,0-1.1-0.1-1.6-0.3c-0.5-0.2-0.9-0.5-1.3-0.9c-0.4-0.4-0.6-0.9-0.8-1.4c-0.2-0.6-0.3-1.2-0.3-1.9c0-1,0.2-1.8,0.5-2.4
		c0.3-0.7,0.8-1.2,1.4-1.5c0.6-0.3,1.3-0.5,2.2-0.5c0.8,0,1.5,0.2,2.1,0.5s1.1,0.9,1.4,1.5S314.1,32.7,314.1,33.7z M307.8,33.7
		c0,0.6,0.1,1.2,0.2,1.6c0.2,0.4,0.4,0.8,0.7,1c0.3,0.2,0.7,0.4,1.2,0.4c0.5,0,0.9-0.1,1.2-0.4c0.3-0.2,0.6-0.6,0.7-1
		c0.2-0.4,0.2-1,0.2-1.6s-0.1-1.2-0.2-1.6c-0.2-0.4-0.4-0.8-0.7-1c-0.3-0.2-0.7-0.3-1.3-0.3c-0.8,0-1.3,0.3-1.7,0.8
		C308,32,307.8,32.7,307.8,33.7z"/>
	<path class="st2" d="M315.3,41.8c-0.3,0-0.5,0-0.8-0.1c-0.2,0-0.5-0.1-0.6-0.1v-1.5c0.2,0.1,0.3,0.1,0.5,0.1c0.2,0,0.4,0,0.6,0
		c0.3,0,0.6-0.1,0.8-0.3c0.2-0.2,0.3-0.5,0.3-1.1v-9.6h1.8v9.8c0,0.5-0.1,1-0.3,1.4c-0.2,0.4-0.5,0.7-0.9,1S315.9,41.8,315.3,41.8z
		 M316.1,27c0-0.4,0.1-0.6,0.3-0.8c0.2-0.2,0.4-0.2,0.7-0.2c0.3,0,0.5,0.1,0.7,0.2c0.2,0.2,0.3,0.4,0.3,0.8c0,0.4-0.1,0.6-0.3,0.8
		c-0.2,0.2-0.4,0.2-0.7,0.2c-0.3,0-0.5-0.1-0.7-0.2C316.2,27.7,316.1,27.4,316.1,27z"/>
	<path class="st2" d="M324.1,29.2c0.8,0,1.4,0.2,2,0.5c0.6,0.3,1,0.8,1.3,1.4s0.4,1.3,0.4,2.1v1H322c0,0.8,0.2,1.5,0.7,1.9
		s1,0.7,1.8,0.7c0.6,0,1-0.1,1.5-0.2c0.4-0.1,0.9-0.3,1.4-0.5v1.5c-0.4,0.2-0.9,0.4-1.3,0.4c-0.4,0.1-1,0.1-1.6,0.1
		c-0.8,0-1.6-0.2-2.2-0.5c-0.6-0.3-1.1-0.8-1.5-1.5c-0.4-0.7-0.5-1.5-0.5-2.4c0-1,0.2-1.8,0.5-2.5s0.8-1.2,1.4-1.5
		S323.3,29.2,324.1,29.2z M324.1,30.6c-0.6,0-1,0.2-1.4,0.6c-0.4,0.4-0.6,0.9-0.6,1.6h3.9c0-0.4-0.1-0.8-0.2-1.1
		c-0.1-0.3-0.3-0.6-0.6-0.8C324.9,30.7,324.5,30.6,324.1,30.6z"/>
	<path class="st2" d="M333.3,38.2c-0.8,0-1.5-0.2-2.1-0.5c-0.6-0.3-1.1-0.8-1.4-1.5c-0.3-0.7-0.5-1.5-0.5-2.5c0-1.1,0.2-1.9,0.5-2.6
		c0.4-0.7,0.8-1.2,1.5-1.5c0.6-0.3,1.3-0.5,2.2-0.5c0.5,0,1,0.1,1.4,0.2c0.4,0.1,0.8,0.2,1.1,0.4l-0.5,1.5c-0.3-0.1-0.6-0.2-1-0.3
		c-0.3-0.1-0.7-0.1-1-0.1c-0.5,0-0.9,0.1-1.3,0.3s-0.6,0.6-0.8,1s-0.2,1-0.2,1.6c0,0.6,0.1,1.2,0.2,1.6c0.2,0.4,0.4,0.8,0.7,1
		s0.7,0.3,1.2,0.3c0.5,0,0.9-0.1,1.3-0.2s0.7-0.3,1.1-0.4v1.6c-0.3,0.2-0.7,0.3-1.1,0.4S333.9,38.2,333.3,38.2z"/>
	<path class="st2" d="M341,36.7c0.2,0,0.5,0,0.7-0.1s0.4-0.1,0.6-0.2v1.4c-0.2,0.1-0.5,0.2-0.8,0.2c-0.3,0.1-0.7,0.1-1,0.1
		c-0.5,0-0.9-0.1-1.3-0.2s-0.7-0.4-0.9-0.8c-0.2-0.4-0.3-1-0.3-1.7v-4.6h-1.2v-0.8l1.3-0.6l0.6-1.9h1.2v1.9h2.5v1.4h-2.5v4.6
		c0,0.4,0.1,0.8,0.3,1S340.6,36.7,341,36.7z"/>
	<path class="st2" d="M351.2,38.2c-1,0-1.9-0.4-2.5-1.1c-0.6-0.8-0.9-1.9-0.9-3.3c0-1.5,0.3-2.6,0.9-3.4s1.5-1.1,2.5-1.1
		c0.4,0,0.8,0.1,1.1,0.2s0.6,0.3,0.8,0.5c0.2,0.2,0.4,0.4,0.6,0.7h0.1c0-0.2-0.1-0.4-0.1-0.7c0-0.3-0.1-0.6-0.1-0.8v-3.1h1.8V38
		h-1.4l-0.3-1.2h-0.1c-0.2,0.2-0.4,0.5-0.6,0.7c-0.2,0.2-0.5,0.4-0.8,0.5C352,38.1,351.6,38.2,351.2,38.2z M351.7,36.7
		c0.8,0,1.3-0.2,1.7-0.7c0.3-0.5,0.5-1.1,0.5-2v-0.2c0-1-0.2-1.7-0.5-2.2s-0.9-0.8-1.7-0.8c-0.7,0-1.2,0.3-1.5,0.8
		c-0.3,0.5-0.5,1.3-0.5,2.2s0.2,1.7,0.5,2.2C350.5,36.4,351,36.7,351.7,36.7z"/>
	<path class="st2" d="M361.7,29.2c0.8,0,1.4,0.2,2,0.5c0.6,0.3,1,0.8,1.3,1.4s0.4,1.3,0.4,2.1v1h-5.8c0,0.8,0.2,1.5,0.7,1.9
		s1,0.7,1.8,0.7c0.6,0,1-0.1,1.5-0.2c0.4-0.1,0.9-0.3,1.4-0.5v1.5c-0.4,0.2-0.9,0.4-1.3,0.4c-0.4,0.1-1,0.1-1.6,0.1
		c-0.8,0-1.6-0.2-2.2-0.5c-0.6-0.3-1.1-0.8-1.5-1.5c-0.4-0.7-0.5-1.5-0.5-2.4c0-1,0.2-1.8,0.5-2.5s0.8-1.2,1.4-1.5
		S360.9,29.2,361.7,29.2z M361.7,30.6c-0.6,0-1,0.2-1.4,0.6c-0.4,0.4-0.6,0.9-0.6,1.6h3.9c0-0.4-0.1-0.8-0.2-1.1
		c-0.1-0.3-0.3-0.6-0.6-0.8C362.5,30.7,362.1,30.6,361.7,30.6z"/>
	<path class="st2" d="M371.8,30.7h-2.1V38h-1.8v-7.2h-1.4v-0.9l1.4-0.5v-0.6c0-0.7,0.1-1.3,0.3-1.8c0.2-0.4,0.6-0.7,1-0.9
		c0.4-0.2,1-0.3,1.6-0.3c0.4,0,0.8,0,1.1,0.1s0.6,0.1,0.8,0.2l-0.5,1.4c-0.2-0.1-0.4-0.1-0.6-0.2s-0.5-0.1-0.7-0.1
		c-0.4,0-0.7,0.1-0.9,0.4s-0.3,0.6-0.3,1.1v0.6h2.1V30.7z M374.2,26c0.3,0,0.5,0.1,0.7,0.2c0.2,0.2,0.3,0.4,0.3,0.8
		c0,0.4-0.1,0.6-0.3,0.8c-0.2,0.2-0.4,0.2-0.7,0.2c-0.3,0-0.5-0.1-0.7-0.2c-0.2-0.2-0.3-0.4-0.3-0.8c0-0.4,0.1-0.6,0.3-0.8
		C373.6,26.1,373.9,26,374.2,26z M375.1,29.4V38h-1.8v-8.6H375.1z"/>
	<path class="st2" d="M382.2,29.2c1,0,1.7,0.3,2.3,0.8c0.5,0.5,0.8,1.3,0.8,2.4V38h-1.8v-5.3c0-0.7-0.1-1.2-0.4-1.5
		c-0.3-0.3-0.7-0.5-1.3-0.5c-0.8,0-1.4,0.3-1.7,0.8c-0.3,0.5-0.5,1.3-0.5,2.2V38h-1.8v-8.6h1.4l0.3,1.2h0.1c0.2-0.3,0.4-0.6,0.7-0.7
		c0.3-0.2,0.6-0.3,0.9-0.4C381.5,29.2,381.8,29.2,382.2,29.2z"/>
	<path class="st2" d="M388.8,26c0.3,0,0.5,0.1,0.7,0.2c0.2,0.2,0.3,0.4,0.3,0.8c0,0.4-0.1,0.6-0.3,0.8c-0.2,0.2-0.4,0.2-0.7,0.2
		c-0.3,0-0.5-0.1-0.7-0.2c-0.2-0.2-0.3-0.4-0.3-0.8c0-0.4,0.1-0.6,0.3-0.8C388.3,26.1,388.5,26,388.8,26z M389.7,29.4V38h-1.8v-8.6
		H389.7z"/>
	<path class="st2" d="M395.5,36.7c0.2,0,0.5,0,0.7-0.1s0.4-0.1,0.6-0.2v1.4c-0.2,0.1-0.5,0.2-0.8,0.2c-0.3,0.1-0.7,0.1-1,0.1
		c-0.5,0-0.9-0.1-1.3-0.2s-0.7-0.4-0.9-0.8c-0.2-0.4-0.3-1-0.3-1.7v-4.6h-1.2v-0.8l1.3-0.6l0.6-1.9h1.2v1.9h2.5v1.4h-2.5v4.6
		c0,0.4,0.1,0.8,0.3,1S395.2,36.7,395.5,36.7z"/>
	<path class="st2" d="M399.6,26c0.3,0,0.5,0.1,0.7,0.2c0.2,0.2,0.3,0.4,0.3,0.8c0,0.4-0.1,0.6-0.3,0.8c-0.2,0.2-0.4,0.2-0.7,0.2
		c-0.3,0-0.5-0.1-0.7-0.2c-0.2-0.2-0.3-0.4-0.3-0.8c0-0.4,0.1-0.6,0.3-0.8C399,26.1,399.3,26,399.6,26z M400.5,29.4V38h-1.8v-8.6
		H400.5z"/>
	<path class="st2" d="M410.8,33.7c0,0.7-0.1,1.4-0.3,1.9s-0.5,1-0.8,1.4s-0.8,0.7-1.3,0.9c-0.5,0.2-1.1,0.3-1.7,0.3
		c-0.6,0-1.1-0.1-1.6-0.3c-0.5-0.2-0.9-0.5-1.3-0.9c-0.4-0.4-0.6-0.9-0.8-1.4c-0.2-0.6-0.3-1.2-0.3-1.9c0-1,0.2-1.8,0.5-2.4
		c0.3-0.7,0.8-1.2,1.4-1.5c0.6-0.3,1.3-0.5,2.2-0.5c0.8,0,1.5,0.2,2.1,0.5s1.1,0.9,1.4,1.5S410.8,32.7,410.8,33.7z M404.5,33.7
		c0,0.6,0.1,1.2,0.2,1.6c0.2,0.4,0.4,0.8,0.7,1c0.3,0.2,0.7,0.4,1.2,0.4c0.5,0,0.9-0.1,1.2-0.4c0.3-0.2,0.6-0.6,0.7-1
		c0.2-0.4,0.2-1,0.2-1.6s-0.1-1.2-0.2-1.6c-0.2-0.4-0.4-0.8-0.7-1c-0.3-0.2-0.7-0.3-1.3-0.3c-0.8,0-1.3,0.3-1.7,0.8
		C404.7,32,404.5,32.7,404.5,33.7z"/>
	<path class="st2" d="M417.4,29.2c1,0,1.7,0.3,2.3,0.8c0.5,0.5,0.8,1.3,0.8,2.4V38h-1.8v-5.3c0-0.7-0.1-1.2-0.4-1.5
		c-0.3-0.3-0.7-0.5-1.3-0.5c-0.8,0-1.4,0.3-1.7,0.8c-0.3,0.5-0.5,1.3-0.5,2.2V38h-1.8v-8.6h1.4l0.3,1.2h0.1c0.2-0.3,0.4-0.6,0.7-0.7
		c0.3-0.2,0.6-0.3,0.9-0.4C416.7,29.2,417,29.2,417.4,29.2z"/>
</g>
<g class="st1">
	<path class="st2" d="M328.1,51.2c1.1,0,1.9,0.2,2.5,0.7c0.6,0.5,0.8,1.2,0.8,2.3V60h-1.3l-0.4-1.2h-0.1c-0.2,0.3-0.5,0.6-0.8,0.8
		c-0.3,0.2-0.6,0.4-0.9,0.5c-0.3,0.1-0.8,0.2-1.2,0.2c-0.5,0-1-0.1-1.4-0.3s-0.7-0.5-1-0.9s-0.4-0.9-0.4-1.5c0-0.9,0.3-1.6,1-2
		s1.7-0.7,3-0.7l1.5-0.1v-0.5c0-0.6-0.1-1-0.4-1.3c-0.3-0.3-0.7-0.4-1.2-0.4c-0.4,0-0.9,0.1-1.3,0.2s-0.8,0.3-1.2,0.5l-0.6-1.3
		c0.4-0.2,0.9-0.4,1.4-0.5S327.6,51.2,328.1,51.2z M329.6,55.9l-1.1,0c-0.9,0-1.6,0.2-1.9,0.5c-0.4,0.3-0.6,0.7-0.6,1.2
		c0,0.4,0.1,0.7,0.4,0.9c0.3,0.2,0.6,0.3,1,0.3c0.6,0,1.2-0.2,1.6-0.5c0.4-0.4,0.6-0.9,0.6-1.6V55.9z"/>
	<path class="st2" d="M337.2,58.7c0.2,0,0.5,0,0.7-0.1s0.4-0.1,0.6-0.2v1.4c-0.2,0.1-0.5,0.2-0.8,0.2c-0.3,0.1-0.7,0.1-1,0.1
		c-0.5,0-0.9-0.1-1.3-0.2s-0.7-0.4-0.9-0.8c-0.2-0.4-0.3-1-0.3-1.7v-4.6H333v-0.8l1.3-0.6l0.6-1.9h1.2v1.9h2.5v1.4h-2.5v4.6
		c0,0.4,0.1,0.8,0.3,1S336.9,58.7,337.2,58.7z"/>
	<path class="st2" d="M354.8,54.3c0,0.9-0.1,1.7-0.3,2.4c-0.2,0.7-0.6,1.3-1,1.9c-0.4,0.5-1,0.9-1.7,1.2c-0.7,0.3-1.4,0.4-2.3,0.4
		c-0.9,0-1.7-0.1-2.4-0.4c-0.7-0.3-1.2-0.7-1.7-1.2c-0.4-0.5-0.8-1.1-1-1.9s-0.3-1.5-0.3-2.4c0-1.2,0.2-2.2,0.6-3.1
		c0.4-0.9,1-1.6,1.8-2c0.8-0.5,1.8-0.7,3-0.7c1.2,0,2.2,0.2,3,0.7c0.8,0.5,1.4,1.2,1.8,2C354.6,52,354.8,53.1,354.8,54.3z
		 M346.1,54.3c0,0.9,0.1,1.6,0.4,2.3c0.2,0.6,0.6,1.1,1.1,1.5c0.5,0.3,1.1,0.5,1.9,0.5c0.8,0,1.4-0.2,1.9-0.5
		c0.5-0.3,0.9-0.8,1.1-1.5s0.4-1.4,0.4-2.3c0-1.3-0.3-2.4-0.8-3.1c-0.5-0.8-1.4-1.1-2.6-1.1c-0.8,0-1.4,0.2-1.9,0.5
		c-0.5,0.3-0.9,0.8-1.1,1.5C346.2,52.6,346.1,53.4,346.1,54.3z"/>
	<path class="st2" d="M363.8,60h-6.5V48.6h6.5v1.6h-4.6v3.1h4.3v1.6h-4.3v3.6h4.6V60z"/>
	<path class="st2" d="M371.1,50c-0.5,0-1,0.1-1.5,0.3s-0.8,0.5-1.1,0.9s-0.5,0.8-0.7,1.4s-0.2,1.1-0.2,1.8c0,0.9,0.1,1.6,0.4,2.3
		s0.6,1.1,1.1,1.5c0.5,0.3,1.2,0.5,1.9,0.5c0.5,0,1,0,1.4-0.1c0.5-0.1,0.9-0.2,1.4-0.4v1.6c-0.5,0.2-0.9,0.3-1.4,0.4
		c-0.5,0.1-1,0.1-1.6,0.1c-1.2,0-2.1-0.2-2.9-0.7c-0.8-0.5-1.3-1.2-1.7-2c-0.4-0.9-0.6-1.9-0.6-3.1c0-0.9,0.1-1.7,0.4-2.4
		c0.2-0.7,0.6-1.3,1-1.9c0.5-0.5,1-0.9,1.7-1.2c0.7-0.3,1.4-0.4,2.3-0.4c0.6,0,1.1,0.1,1.7,0.2s1.1,0.3,1.5,0.5l-0.7,1.5
		c-0.4-0.2-0.8-0.3-1.2-0.5C372,50.1,371.6,50,371.1,50z"/>
	<path class="st2" d="M385.6,54.2c0,1.3-0.2,2.4-0.7,3.2c-0.5,0.9-1.2,1.5-2.1,1.9c-0.9,0.4-2,0.7-3.3,0.7h-3.2V48.6h3.5
		c1.2,0,2.2,0.2,3.1,0.6s1.5,1.1,2,1.9S385.6,53,385.6,54.2z M383.7,54.2c0-0.9-0.1-1.7-0.4-2.3c-0.3-0.6-0.7-1.1-1.3-1.3
		s-1.3-0.4-2.1-0.4h-1.6v8.3h1.3c1.4,0,2.4-0.4,3.1-1.1C383.3,56.7,383.7,55.6,383.7,54.2z"/>
</g>
<g transform="matrix(1, 0, 0, 1, -20, -9.03)">
	<path id="Path_203-2" class="st0" d="M98.7,18.1h102.7c32.4,0,58.7,25.7,58.7,57.3v13.4H40V75.4C40,43.7,66.3,18.1,98.7,18.1z"/>
</g>
<g class="st1">
	<path class="st2" d="M96.2,26.6c1.5,0,2.5,0.3,3.2,0.9c0.7,0.6,1,1.5,1,2.5c0,0.5-0.1,1-0.2,1.4c-0.2,0.4-0.4,0.8-0.8,1.2
		c-0.3,0.3-0.8,0.6-1.4,0.8s-1.3,0.3-2.1,0.3h-1.2V38h-1.9V26.6H96.2z M96.1,28.1h-1.3v4h1c0.6,0,1.1-0.1,1.5-0.2
		c0.4-0.1,0.7-0.4,0.9-0.7c0.2-0.3,0.3-0.7,0.3-1.2c0-0.7-0.2-1.2-0.6-1.5S97,28.1,96.1,28.1z"/>
	<path class="st2" d="M107,29.2c0.1,0,0.3,0,0.5,0s0.3,0,0.4,0.1l-0.2,1.7c-0.1,0-0.2-0.1-0.4-0.1c-0.2,0-0.3,0-0.4,0
		c-0.3,0-0.6,0.1-0.9,0.2s-0.6,0.3-0.8,0.5c-0.2,0.2-0.4,0.5-0.5,0.8c-0.1,0.3-0.2,0.7-0.2,1.1V38h-1.8v-8.6h1.4l0.2,1.5h0.1
		c0.2-0.3,0.4-0.6,0.6-0.8c0.3-0.3,0.5-0.5,0.9-0.6C106.2,29.3,106.6,29.2,107,29.2z"/>
	<path class="st2" d="M112.9,29.2c0.8,0,1.4,0.2,2,0.5c0.6,0.3,1,0.8,1.3,1.4s0.4,1.3,0.4,2.1v1h-5.8c0,0.8,0.2,1.5,0.7,1.9
		s1,0.7,1.8,0.7c0.6,0,1-0.1,1.5-0.2c0.4-0.1,0.9-0.3,1.4-0.5v1.5c-0.4,0.2-0.9,0.4-1.3,0.4c-0.4,0.1-1,0.1-1.6,0.1
		c-0.8,0-1.6-0.2-2.2-0.5c-0.6-0.3-1.1-0.8-1.5-1.5c-0.4-0.7-0.5-1.5-0.5-2.4c0-1,0.2-1.8,0.5-2.5s0.8-1.2,1.4-1.5
		S112.1,29.2,112.9,29.2z M112.9,30.6c-0.6,0-1,0.2-1.4,0.6c-0.4,0.4-0.6,0.9-0.6,1.6h3.9c0-0.4-0.1-0.8-0.2-1.1
		c-0.1-0.3-0.3-0.6-0.6-0.8C113.7,30.7,113.4,30.6,112.9,30.6z"/>
	<path class="st2" d="M118,34.5v-1.6h4v1.6H118z"/>
	<path class="st2" d="M134.2,32.3c0,0.9-0.1,1.7-0.3,2.4c-0.2,0.7-0.6,1.3-1,1.9c-0.4,0.5-1,0.9-1.7,1.2c-0.7,0.3-1.4,0.4-2.3,0.4
		c-0.9,0-1.7-0.1-2.4-0.4c-0.7-0.3-1.2-0.7-1.7-1.2c-0.4-0.5-0.8-1.1-1-1.9s-0.3-1.5-0.3-2.4c0-1.2,0.2-2.2,0.6-3.1
		c0.4-0.9,1-1.6,1.8-2c0.8-0.5,1.8-0.7,3-0.7c1.2,0,2.2,0.2,3,0.7c0.8,0.5,1.4,1.2,1.8,2C134,30,134.2,31.1,134.2,32.3z M125.5,32.3
		c0,0.9,0.1,1.6,0.4,2.3c0.2,0.6,0.6,1.1,1.1,1.5c0.5,0.3,1.1,0.5,1.9,0.5c0.8,0,1.4-0.2,1.9-0.5c0.5-0.3,0.9-0.8,1.1-1.5
		s0.4-1.4,0.4-2.3c0-1.3-0.3-2.4-0.8-3.1c-0.5-0.8-1.4-1.1-2.6-1.1c-0.8,0-1.4,0.2-1.9,0.5c-0.5,0.3-0.9,0.8-1.1,1.5
		C125.6,30.6,125.5,31.4,125.5,32.3z"/>
	<path class="st2" d="M143.1,38h-6.5V26.6h6.5v1.6h-4.6v3.1h4.3v1.6h-4.3v3.6h4.6V38z"/>
	<path class="st2" d="M150.4,28c-0.5,0-1,0.1-1.5,0.3s-0.8,0.5-1.1,0.9s-0.5,0.8-0.7,1.4s-0.2,1.1-0.2,1.8c0,0.9,0.1,1.6,0.4,2.3
		s0.6,1.1,1.1,1.5c0.5,0.3,1.2,0.5,1.9,0.5c0.5,0,1,0,1.4-0.1c0.5-0.1,0.9-0.2,1.4-0.4v1.6c-0.5,0.2-0.9,0.3-1.4,0.4
		c-0.5,0.1-1,0.1-1.6,0.1c-1.2,0-2.1-0.2-2.9-0.7c-0.8-0.5-1.3-1.2-1.7-2c-0.4-0.9-0.6-1.9-0.6-3.1c0-0.9,0.1-1.7,0.4-2.4
		c0.2-0.7,0.6-1.3,1-1.9c0.5-0.5,1-0.9,1.7-1.2c0.7-0.3,1.4-0.4,2.3-0.4c0.6,0,1.1,0.1,1.7,0.2s1.1,0.3,1.5,0.5l-0.7,1.5
		c-0.4-0.2-0.8-0.3-1.2-0.5C151.3,28.1,150.9,28,150.4,28z"/>
	<path class="st2" d="M165,32.2c0,1.3-0.2,2.4-0.7,3.2c-0.5,0.9-1.2,1.5-2.1,1.9c-0.9,0.4-2,0.7-3.3,0.7h-3.2V26.6h3.5
		c1.2,0,2.2,0.2,3.1,0.6s1.5,1.1,2,1.9S165,31,165,32.2z M163,32.2c0-0.9-0.1-1.7-0.4-2.3c-0.3-0.6-0.7-1.1-1.3-1.3
		s-1.3-0.4-2.1-0.4h-1.6v8.3h1.3c1.4,0,2.4-0.4,3.1-1.1C162.7,34.7,163,33.6,163,32.2z"/>
</g>
<g class="st1">
	<path class="st2" d="M111.2,51.2c1,0,1.9,0.4,2.5,1.1c0.6,0.8,0.9,1.9,0.9,3.3c0,1-0.1,1.8-0.4,2.5s-0.7,1.2-1.2,1.5
		c-0.5,0.3-1.1,0.5-1.8,0.5c-0.4,0-0.8-0.1-1.1-0.2c-0.3-0.1-0.6-0.3-0.8-0.4c-0.2-0.2-0.4-0.4-0.6-0.6h-0.1c0,0.2,0.1,0.4,0.1,0.7
		s0,0.5,0,0.7v3.5h-1.8V51.4h1.5l0.3,1.2h0.1c0.2-0.2,0.4-0.5,0.6-0.7c0.2-0.2,0.5-0.4,0.8-0.5C110.4,51.2,110.8,51.2,111.2,51.2z
		 M110.7,52.7c-0.5,0-0.9,0.1-1.2,0.3s-0.5,0.5-0.7,0.9c-0.1,0.4-0.2,0.9-0.2,1.5v0.3c0,0.6,0.1,1.2,0.2,1.6s0.4,0.8,0.7,1
		c0.3,0.2,0.7,0.3,1.3,0.3c0.4,0,0.8-0.1,1.1-0.4c0.3-0.2,0.5-0.6,0.7-1c0.1-0.5,0.2-1,0.2-1.6c0-0.9-0.2-1.7-0.5-2.2
		C111.9,52.9,111.4,52.7,110.7,52.7z"/>
	<path class="st2" d="M118.6,47.8v3.1c0,0.3,0,0.6,0,0.9c0,0.3,0,0.5-0.1,0.7h0.1c0.2-0.3,0.4-0.6,0.7-0.7s0.6-0.3,0.9-0.4
		c0.3-0.1,0.7-0.1,1.1-0.1c0.7,0,1.2,0.1,1.7,0.3c0.5,0.2,0.8,0.6,1.1,1c0.2,0.5,0.4,1.1,0.4,1.8V60h-1.8v-5.3
		c0-0.7-0.1-1.2-0.4-1.5c-0.3-0.3-0.7-0.5-1.3-0.5c-0.6,0-1,0.1-1.3,0.3c-0.3,0.2-0.6,0.6-0.7,1s-0.2,1-0.2,1.6V60h-1.8V47.8H118.6z
		"/>
	<path class="st2" d="M130.3,51.2c1.1,0,1.9,0.2,2.5,0.7c0.6,0.5,0.8,1.2,0.8,2.3V60h-1.3l-0.4-1.2h-0.1c-0.2,0.3-0.5,0.6-0.8,0.8
		c-0.3,0.2-0.6,0.4-0.9,0.5c-0.3,0.1-0.8,0.2-1.2,0.2c-0.5,0-1-0.1-1.4-0.3s-0.7-0.5-1-0.9s-0.4-0.9-0.4-1.5c0-0.9,0.3-1.6,1-2
		s1.7-0.7,3-0.7l1.5-0.1v-0.5c0-0.6-0.1-1-0.4-1.3c-0.3-0.3-0.7-0.4-1.2-0.4c-0.4,0-0.9,0.1-1.3,0.2s-0.8,0.3-1.2,0.5l-0.6-1.3
		c0.4-0.2,0.9-0.4,1.4-0.5S129.7,51.2,130.3,51.2z M131.8,55.9l-1.1,0c-0.9,0-1.6,0.2-1.9,0.5c-0.4,0.3-0.6,0.7-0.6,1.2
		c0,0.4,0.1,0.7,0.4,0.9c0.3,0.2,0.6,0.3,1,0.3c0.6,0,1.2-0.2,1.6-0.5c0.4-0.4,0.6-0.9,0.6-1.6V55.9z"/>
	<path class="st2" d="M142,57.5c0,0.6-0.1,1-0.4,1.4c-0.3,0.4-0.7,0.7-1.2,0.9c-0.5,0.2-1.2,0.3-1.9,0.3c-0.6,0-1.1,0-1.6-0.1
		c-0.4-0.1-0.8-0.2-1.2-0.4V58c0.4,0.2,0.9,0.4,1.4,0.5c0.5,0.1,1,0.2,1.5,0.2c0.6,0,1-0.1,1.3-0.3s0.4-0.4,0.4-0.8
		c0-0.2-0.1-0.4-0.2-0.5c-0.1-0.1-0.3-0.3-0.6-0.5s-0.7-0.4-1.3-0.6c-0.5-0.2-1-0.4-1.4-0.7s-0.7-0.5-0.9-0.8
		c-0.2-0.3-0.3-0.7-0.3-1.2c0-0.8,0.3-1.3,0.9-1.7c0.6-0.4,1.4-0.6,2.4-0.6c0.5,0,1,0.1,1.5,0.2c0.5,0.1,0.9,0.3,1.4,0.5l-0.6,1.4
		c-0.4-0.2-0.8-0.3-1.2-0.4c-0.4-0.1-0.8-0.2-1.2-0.2c-0.5,0-0.8,0.1-1.1,0.2c-0.2,0.1-0.4,0.4-0.4,0.6c0,0.2,0.1,0.4,0.2,0.5
		c0.1,0.1,0.3,0.3,0.6,0.4c0.3,0.1,0.7,0.3,1.2,0.5c0.5,0.2,1,0.4,1.3,0.6c0.4,0.2,0.7,0.5,0.9,0.8S142,57,142,57.5z"/>
	<path class="st2" d="M147.4,51.2c0.8,0,1.4,0.2,2,0.5c0.6,0.3,1,0.8,1.3,1.4s0.4,1.3,0.4,2.1v1h-5.8c0,0.8,0.2,1.5,0.7,1.9
		s1,0.7,1.8,0.7c0.6,0,1-0.1,1.5-0.2c0.4-0.1,0.9-0.3,1.4-0.5v1.5c-0.4,0.2-0.9,0.4-1.3,0.4c-0.4,0.1-1,0.1-1.6,0.1
		c-0.8,0-1.6-0.2-2.2-0.5c-0.6-0.3-1.1-0.8-1.5-1.5c-0.4-0.7-0.5-1.5-0.5-2.4c0-1,0.2-1.8,0.5-2.5s0.8-1.2,1.4-1.5
		S146.6,51.2,147.4,51.2z M147.4,52.6c-0.6,0-1,0.2-1.4,0.6c-0.4,0.4-0.6,0.9-0.6,1.6h3.9c0-0.4-0.1-0.8-0.2-1.1
		c-0.1-0.3-0.3-0.6-0.6-0.8C148.2,52.7,147.9,52.6,147.4,52.6z"/>
</g>
<rect id="Rectangle_13" x="13" y="77" class="st3" width="1131" height="3"/>
<circle id="Ellipse_44" class="st2" cx="1148" cy="77" r="6"/>
<ellipse id="Ellipse_81" class="st2" cx="6.5" cy="78" rx="6.5" ry="6"/>
</svg>
